G04 #@! TF.GenerationSoftware,KiCad,Pcbnew,8.0.5*
G04 #@! TF.CreationDate,2024-11-12T11:03:32-05:00*
G04 #@! TF.ProjectId,DacAmp,44616341-6d70-42e6-9b69-6361645f7063,rev?*
G04 #@! TF.SameCoordinates,Original*
G04 #@! TF.FileFunction,Soldermask,Bot*
G04 #@! TF.FilePolarity,Negative*
%FSLAX46Y46*%
G04 Gerber Fmt 4.6, Leading zero omitted, Abs format (unit mm)*
G04 Created by KiCad (PCBNEW 8.0.5) date 2024-11-12 11:03:32*
%MOMM*%
%LPD*%
G01*
G04 APERTURE LIST*
G04 APERTURE END LIST*
G36*
X58850281Y-121624053D02*
G01*
X59038249Y-121681073D01*
X59211481Y-121773667D01*
X59363321Y-121898279D01*
X59487933Y-122050119D01*
X59580527Y-122223351D01*
X59637547Y-122411319D01*
X59656800Y-122606800D01*
X59637547Y-122802281D01*
X59580527Y-122990249D01*
X59487933Y-123163481D01*
X59363321Y-123315321D01*
X59211481Y-123439933D01*
X59038249Y-123532527D01*
X58850281Y-123589547D01*
X58654800Y-123608800D01*
X58459319Y-123589547D01*
X58271351Y-123532527D01*
X58098119Y-123439933D01*
X57946279Y-123315321D01*
X57821667Y-123163481D01*
X57729073Y-122990249D01*
X57672053Y-122802281D01*
X57652800Y-122606800D01*
X57672053Y-122411319D01*
X57729073Y-122223351D01*
X57821667Y-122050119D01*
X57946279Y-121898279D01*
X58098119Y-121773667D01*
X58271351Y-121681073D01*
X58459319Y-121624053D01*
X58654800Y-121604800D01*
X58850281Y-121624053D01*
G37*
G36*
X63850281Y-121624053D02*
G01*
X64038249Y-121681073D01*
X64211481Y-121773667D01*
X64363321Y-121898279D01*
X64487933Y-122050119D01*
X64580527Y-122223351D01*
X64637547Y-122411319D01*
X64656800Y-122606800D01*
X64637547Y-122802281D01*
X64580527Y-122990249D01*
X64487933Y-123163481D01*
X64363321Y-123315321D01*
X64211481Y-123439933D01*
X64038249Y-123532527D01*
X63850281Y-123589547D01*
X63654800Y-123608800D01*
X63459319Y-123589547D01*
X63271351Y-123532527D01*
X63098119Y-123439933D01*
X62946279Y-123315321D01*
X62821667Y-123163481D01*
X62729073Y-122990249D01*
X62672053Y-122802281D01*
X62652800Y-122606800D01*
X62672053Y-122411319D01*
X62729073Y-122223351D01*
X62821667Y-122050119D01*
X62946279Y-121898279D01*
X63098119Y-121773667D01*
X63271351Y-121681073D01*
X63459319Y-121624053D01*
X63654800Y-121604800D01*
X63850281Y-121624053D01*
G37*
G36*
X68850281Y-121624053D02*
G01*
X69038249Y-121681073D01*
X69211481Y-121773667D01*
X69363321Y-121898279D01*
X69487933Y-122050119D01*
X69580527Y-122223351D01*
X69637547Y-122411319D01*
X69656800Y-122606800D01*
X69637547Y-122802281D01*
X69580527Y-122990249D01*
X69487933Y-123163481D01*
X69363321Y-123315321D01*
X69211481Y-123439933D01*
X69038249Y-123532527D01*
X68850281Y-123589547D01*
X68654800Y-123608800D01*
X68459319Y-123589547D01*
X68271351Y-123532527D01*
X68098119Y-123439933D01*
X67946279Y-123315321D01*
X67821667Y-123163481D01*
X67729073Y-122990249D01*
X67672053Y-122802281D01*
X67652800Y-122606800D01*
X67672053Y-122411319D01*
X67729073Y-122223351D01*
X67821667Y-122050119D01*
X67946279Y-121898279D01*
X68098119Y-121773667D01*
X68271351Y-121681073D01*
X68459319Y-121624053D01*
X68654800Y-121604800D01*
X68850281Y-121624053D01*
G37*
G36*
X40571484Y-116937049D02*
G01*
X40860143Y-116994467D01*
X41138838Y-117089071D01*
X41402800Y-117219243D01*
X41647513Y-117382755D01*
X41868790Y-117576810D01*
X42062845Y-117798087D01*
X42226357Y-118042800D01*
X42356529Y-118306762D01*
X42451133Y-118585457D01*
X42508551Y-118874116D01*
X42527800Y-119167800D01*
X42508551Y-119461484D01*
X42451133Y-119750143D01*
X42356529Y-120028838D01*
X42226357Y-120292800D01*
X42062845Y-120537513D01*
X41868790Y-120758790D01*
X41647513Y-120952845D01*
X41402800Y-121116357D01*
X41138838Y-121246529D01*
X40860143Y-121341133D01*
X40571484Y-121398551D01*
X40277800Y-121417800D01*
X39984116Y-121398551D01*
X39695457Y-121341133D01*
X39416762Y-121246529D01*
X39152800Y-121116357D01*
X38908087Y-120952845D01*
X38686810Y-120758790D01*
X38492755Y-120537513D01*
X38329243Y-120292800D01*
X38199071Y-120028838D01*
X38104467Y-119750143D01*
X38047049Y-119461484D01*
X38027800Y-119167800D01*
X38047049Y-118874116D01*
X38104467Y-118585457D01*
X38199071Y-118306762D01*
X38329243Y-118042800D01*
X38492755Y-117798087D01*
X38686810Y-117576810D01*
X38908087Y-117382755D01*
X39152800Y-117219243D01*
X39416762Y-117089071D01*
X39695457Y-116994467D01*
X39984116Y-116937049D01*
X40277800Y-116917800D01*
X40571484Y-116937049D01*
G37*
G36*
X135821484Y-116937049D02*
G01*
X136110143Y-116994467D01*
X136388838Y-117089071D01*
X136652800Y-117219243D01*
X136897513Y-117382755D01*
X137118790Y-117576810D01*
X137312845Y-117798087D01*
X137476357Y-118042800D01*
X137606529Y-118306762D01*
X137701133Y-118585457D01*
X137758551Y-118874116D01*
X137777800Y-119167800D01*
X137758551Y-119461484D01*
X137701133Y-119750143D01*
X137606529Y-120028838D01*
X137476357Y-120292800D01*
X137312845Y-120537513D01*
X137118790Y-120758790D01*
X136897513Y-120952845D01*
X136652800Y-121116357D01*
X136388838Y-121246529D01*
X136110143Y-121341133D01*
X135821484Y-121398551D01*
X135527800Y-121417800D01*
X135234116Y-121398551D01*
X134945457Y-121341133D01*
X134666762Y-121246529D01*
X134402800Y-121116357D01*
X134158087Y-120952845D01*
X133936810Y-120758790D01*
X133742755Y-120537513D01*
X133579243Y-120292800D01*
X133449071Y-120028838D01*
X133354467Y-119750143D01*
X133297049Y-119461484D01*
X133277800Y-119167800D01*
X133297049Y-118874116D01*
X133354467Y-118585457D01*
X133449071Y-118306762D01*
X133579243Y-118042800D01*
X133742755Y-117798087D01*
X133936810Y-117576810D01*
X134158087Y-117382755D01*
X134402800Y-117219243D01*
X134666762Y-117089071D01*
X134945457Y-116994467D01*
X135234116Y-116937049D01*
X135527800Y-116917800D01*
X135821484Y-116937049D01*
G37*
G36*
X115681664Y-119285602D02*
G01*
X115844000Y-119357878D01*
X115987761Y-119462327D01*
X116106664Y-119594383D01*
X116195514Y-119748274D01*
X116250425Y-119917275D01*
X116269000Y-120094000D01*
X116250425Y-120270725D01*
X116195514Y-120439726D01*
X116106664Y-120593617D01*
X115987761Y-120725673D01*
X115844000Y-120830122D01*
X115681664Y-120902398D01*
X115507849Y-120939344D01*
X115330151Y-120939344D01*
X115156336Y-120902398D01*
X114994000Y-120830122D01*
X114850239Y-120725673D01*
X114731336Y-120593617D01*
X114642486Y-120439726D01*
X114587575Y-120270725D01*
X114569000Y-120094000D01*
X114587575Y-119917275D01*
X114642486Y-119748274D01*
X114731336Y-119594383D01*
X114850239Y-119462327D01*
X114994000Y-119357878D01*
X115156336Y-119285602D01*
X115330151Y-119248656D01*
X115507849Y-119248656D01*
X115681664Y-119285602D01*
G37*
G36*
X58850281Y-116624053D02*
G01*
X59038249Y-116681073D01*
X59211481Y-116773667D01*
X59363321Y-116898279D01*
X59487933Y-117050119D01*
X59580527Y-117223351D01*
X59637547Y-117411319D01*
X59656800Y-117606800D01*
X59637547Y-117802281D01*
X59580527Y-117990249D01*
X59487933Y-118163481D01*
X59363321Y-118315321D01*
X59211481Y-118439933D01*
X59038249Y-118532527D01*
X58850281Y-118589547D01*
X58654800Y-118608800D01*
X58459319Y-118589547D01*
X58271351Y-118532527D01*
X58098119Y-118439933D01*
X57946279Y-118315321D01*
X57821667Y-118163481D01*
X57729073Y-117990249D01*
X57672053Y-117802281D01*
X57652800Y-117606800D01*
X57672053Y-117411319D01*
X57729073Y-117223351D01*
X57821667Y-117050119D01*
X57946279Y-116898279D01*
X58098119Y-116773667D01*
X58271351Y-116681073D01*
X58459319Y-116624053D01*
X58654800Y-116604800D01*
X58850281Y-116624053D01*
G37*
G36*
X63850281Y-116624053D02*
G01*
X64038249Y-116681073D01*
X64211481Y-116773667D01*
X64363321Y-116898279D01*
X64487933Y-117050119D01*
X64580527Y-117223351D01*
X64637547Y-117411319D01*
X64656800Y-117606800D01*
X64637547Y-117802281D01*
X64580527Y-117990249D01*
X64487933Y-118163481D01*
X64363321Y-118315321D01*
X64211481Y-118439933D01*
X64038249Y-118532527D01*
X63850281Y-118589547D01*
X63654800Y-118608800D01*
X63459319Y-118589547D01*
X63271351Y-118532527D01*
X63098119Y-118439933D01*
X62946279Y-118315321D01*
X62821667Y-118163481D01*
X62729073Y-117990249D01*
X62672053Y-117802281D01*
X62652800Y-117606800D01*
X62672053Y-117411319D01*
X62729073Y-117223351D01*
X62821667Y-117050119D01*
X62946279Y-116898279D01*
X63098119Y-116773667D01*
X63271351Y-116681073D01*
X63459319Y-116624053D01*
X63654800Y-116604800D01*
X63850281Y-116624053D01*
G37*
G36*
X68850281Y-116624053D02*
G01*
X69038249Y-116681073D01*
X69211481Y-116773667D01*
X69363321Y-116898279D01*
X69487933Y-117050119D01*
X69580527Y-117223351D01*
X69637547Y-117411319D01*
X69656800Y-117606800D01*
X69637547Y-117802281D01*
X69580527Y-117990249D01*
X69487933Y-118163481D01*
X69363321Y-118315321D01*
X69211481Y-118439933D01*
X69038249Y-118532527D01*
X68850281Y-118589547D01*
X68654800Y-118608800D01*
X68459319Y-118589547D01*
X68271351Y-118532527D01*
X68098119Y-118439933D01*
X67946279Y-118315321D01*
X67821667Y-118163481D01*
X67729073Y-117990249D01*
X67672053Y-117802281D01*
X67652800Y-117606800D01*
X67672053Y-117411319D01*
X67729073Y-117223351D01*
X67821667Y-117050119D01*
X67946279Y-116898279D01*
X68098119Y-116773667D01*
X68271351Y-116681073D01*
X68459319Y-116624053D01*
X68654800Y-116604800D01*
X68850281Y-116624053D01*
G37*
G36*
X115681664Y-112285602D02*
G01*
X115844000Y-112357878D01*
X115987761Y-112462327D01*
X116106664Y-112594383D01*
X116195514Y-112748274D01*
X116250425Y-112917275D01*
X116269000Y-113094000D01*
X116250425Y-113270725D01*
X116195514Y-113439726D01*
X116106664Y-113593617D01*
X115987761Y-113725673D01*
X115844000Y-113830122D01*
X115681664Y-113902398D01*
X115507849Y-113939344D01*
X115330151Y-113939344D01*
X115156336Y-113902398D01*
X114994000Y-113830122D01*
X114850239Y-113725673D01*
X114731336Y-113593617D01*
X114642486Y-113439726D01*
X114587575Y-113270725D01*
X114569000Y-113094000D01*
X114587575Y-112917275D01*
X114642486Y-112748274D01*
X114731336Y-112594383D01*
X114850239Y-112462327D01*
X114994000Y-112357878D01*
X115156336Y-112285602D01*
X115330151Y-112248656D01*
X115507849Y-112248656D01*
X115681664Y-112285602D01*
G37*
G36*
X98426498Y-105607800D02*
G01*
X96826498Y-105607800D01*
X96826498Y-104007800D01*
X98426498Y-104007800D01*
X98426498Y-105607800D01*
G37*
G36*
X101168557Y-104012539D02*
G01*
X101210082Y-104012539D01*
X101256928Y-104022496D01*
X101304515Y-104027858D01*
X101339114Y-104039964D01*
X101373601Y-104047295D01*
X101423300Y-104069422D01*
X101473605Y-104087025D01*
X101499790Y-104103478D01*
X101526322Y-104115291D01*
X101575796Y-104151236D01*
X101625290Y-104182335D01*
X101643062Y-104200107D01*
X101661559Y-104213546D01*
X101707288Y-104264333D01*
X101751963Y-104309008D01*
X101762238Y-104325361D01*
X101773423Y-104337783D01*
X101811683Y-104404053D01*
X101847273Y-104460693D01*
X101851716Y-104473392D01*
X101857006Y-104482554D01*
X101884093Y-104565920D01*
X101906440Y-104629783D01*
X101907287Y-104637302D01*
X101908666Y-104641546D01*
X101921159Y-104760416D01*
X101926498Y-104807800D01*
X101921158Y-104855187D01*
X101908666Y-104974053D01*
X101907287Y-104978295D01*
X101906440Y-104985817D01*
X101884089Y-105049692D01*
X101857006Y-105133045D01*
X101851717Y-105142204D01*
X101847273Y-105154907D01*
X101811676Y-105211558D01*
X101773423Y-105277816D01*
X101762240Y-105290235D01*
X101751963Y-105306592D01*
X101707279Y-105351275D01*
X101661559Y-105402053D01*
X101643066Y-105415488D01*
X101625290Y-105433265D01*
X101575786Y-105464370D01*
X101526322Y-105500308D01*
X101499795Y-105512118D01*
X101473605Y-105528575D01*
X101423290Y-105546180D01*
X101373601Y-105568304D01*
X101339120Y-105575633D01*
X101304515Y-105587742D01*
X101256925Y-105593104D01*
X101210082Y-105603061D01*
X101168557Y-105603061D01*
X101126498Y-105607800D01*
X101084439Y-105603061D01*
X101042914Y-105603061D01*
X100996070Y-105593104D01*
X100948481Y-105587742D01*
X100913876Y-105575633D01*
X100879394Y-105568304D01*
X100829701Y-105546179D01*
X100779391Y-105528575D01*
X100753202Y-105512119D01*
X100726673Y-105500308D01*
X100677202Y-105464365D01*
X100627706Y-105433265D01*
X100609932Y-105415491D01*
X100591436Y-105402053D01*
X100545706Y-105351265D01*
X100501033Y-105306592D01*
X100490757Y-105290238D01*
X100479572Y-105277816D01*
X100441306Y-105211538D01*
X100405723Y-105154907D01*
X100401279Y-105142208D01*
X100395989Y-105133045D01*
X100368892Y-105049652D01*
X100346556Y-104985817D01*
X100345709Y-104978300D01*
X100344329Y-104974053D01*
X100331822Y-104855055D01*
X100326498Y-104807800D01*
X100331822Y-104760548D01*
X100344329Y-104641546D01*
X100345709Y-104637298D01*
X100346556Y-104629783D01*
X100368888Y-104565960D01*
X100395989Y-104482554D01*
X100401280Y-104473388D01*
X100405723Y-104460693D01*
X100441299Y-104404072D01*
X100479572Y-104337783D01*
X100490759Y-104325358D01*
X100501033Y-104309008D01*
X100545703Y-104264337D01*
X100591436Y-104213547D01*
X100609932Y-104200108D01*
X100627706Y-104182335D01*
X100677197Y-104151237D01*
X100726672Y-104115292D01*
X100753204Y-104103478D01*
X100779391Y-104087025D01*
X100829698Y-104069421D01*
X100879396Y-104047295D01*
X100913880Y-104039965D01*
X100948481Y-104027858D01*
X100996068Y-104022496D01*
X101042914Y-104012539D01*
X101084439Y-104012539D01*
X101126498Y-104007800D01*
X101168557Y-104012539D01*
G37*
G36*
X127890498Y-105328800D02*
G01*
X126290498Y-105328800D01*
X126290498Y-103728800D01*
X127890498Y-103728800D01*
X127890498Y-105328800D01*
G37*
G36*
X130632557Y-103733539D02*
G01*
X130674082Y-103733539D01*
X130720928Y-103743496D01*
X130768515Y-103748858D01*
X130803114Y-103760964D01*
X130837601Y-103768295D01*
X130887300Y-103790422D01*
X130937605Y-103808025D01*
X130963790Y-103824478D01*
X130990322Y-103836291D01*
X131039796Y-103872236D01*
X131089290Y-103903335D01*
X131107062Y-103921107D01*
X131125559Y-103934546D01*
X131171288Y-103985333D01*
X131215963Y-104030008D01*
X131226238Y-104046361D01*
X131237423Y-104058783D01*
X131275683Y-104125053D01*
X131311273Y-104181693D01*
X131315716Y-104194392D01*
X131321006Y-104203554D01*
X131348093Y-104286920D01*
X131370440Y-104350783D01*
X131371287Y-104358302D01*
X131372666Y-104362546D01*
X131385159Y-104481416D01*
X131390498Y-104528800D01*
X131385158Y-104576187D01*
X131372666Y-104695053D01*
X131371287Y-104699295D01*
X131370440Y-104706817D01*
X131348089Y-104770692D01*
X131321006Y-104854045D01*
X131315717Y-104863204D01*
X131311273Y-104875907D01*
X131275676Y-104932558D01*
X131237423Y-104998816D01*
X131226240Y-105011235D01*
X131215963Y-105027592D01*
X131171279Y-105072275D01*
X131125559Y-105123053D01*
X131107066Y-105136488D01*
X131089290Y-105154265D01*
X131039786Y-105185370D01*
X130990322Y-105221308D01*
X130963795Y-105233118D01*
X130937605Y-105249575D01*
X130887290Y-105267180D01*
X130837601Y-105289304D01*
X130803120Y-105296633D01*
X130768515Y-105308742D01*
X130720925Y-105314104D01*
X130674082Y-105324061D01*
X130632557Y-105324061D01*
X130590498Y-105328800D01*
X130548439Y-105324061D01*
X130506914Y-105324061D01*
X130460070Y-105314104D01*
X130412481Y-105308742D01*
X130377876Y-105296633D01*
X130343394Y-105289304D01*
X130293701Y-105267179D01*
X130243391Y-105249575D01*
X130217202Y-105233119D01*
X130190673Y-105221308D01*
X130141202Y-105185365D01*
X130091706Y-105154265D01*
X130073932Y-105136491D01*
X130055436Y-105123053D01*
X130009706Y-105072265D01*
X129965033Y-105027592D01*
X129954757Y-105011238D01*
X129943572Y-104998816D01*
X129905306Y-104932538D01*
X129869723Y-104875907D01*
X129865279Y-104863208D01*
X129859989Y-104854045D01*
X129832892Y-104770652D01*
X129810556Y-104706817D01*
X129809709Y-104699300D01*
X129808329Y-104695053D01*
X129795822Y-104576055D01*
X129790498Y-104528800D01*
X129795822Y-104481548D01*
X129808329Y-104362546D01*
X129809709Y-104358298D01*
X129810556Y-104350783D01*
X129832888Y-104286960D01*
X129859989Y-104203554D01*
X129865280Y-104194388D01*
X129869723Y-104181693D01*
X129905299Y-104125072D01*
X129943572Y-104058783D01*
X129954759Y-104046358D01*
X129965033Y-104030008D01*
X130009703Y-103985337D01*
X130055436Y-103934547D01*
X130073932Y-103921108D01*
X130091706Y-103903335D01*
X130141197Y-103872237D01*
X130190672Y-103836292D01*
X130217204Y-103824478D01*
X130243391Y-103808025D01*
X130293698Y-103790421D01*
X130343396Y-103768295D01*
X130377880Y-103760965D01*
X130412481Y-103748858D01*
X130460068Y-103743496D01*
X130506914Y-103733539D01*
X130548439Y-103733539D01*
X130590498Y-103728800D01*
X130632557Y-103733539D01*
G37*
G36*
X39393059Y-100402314D02*
G01*
X39434584Y-100402314D01*
X39481430Y-100412271D01*
X39529017Y-100417633D01*
X39563616Y-100429739D01*
X39598103Y-100437070D01*
X39647802Y-100459197D01*
X39698107Y-100476800D01*
X39724292Y-100493253D01*
X39750824Y-100505066D01*
X39800298Y-100541011D01*
X39849792Y-100572110D01*
X39867564Y-100589882D01*
X39886061Y-100603321D01*
X39931790Y-100654108D01*
X39976465Y-100698783D01*
X39986740Y-100715136D01*
X39997925Y-100727558D01*
X40036185Y-100793828D01*
X40071775Y-100850468D01*
X40076218Y-100863167D01*
X40081508Y-100872329D01*
X40108595Y-100955695D01*
X40130942Y-101019558D01*
X40131789Y-101027077D01*
X40133168Y-101031321D01*
X40145661Y-101150191D01*
X40151000Y-101197575D01*
X40145660Y-101244962D01*
X40133168Y-101363828D01*
X40131789Y-101368070D01*
X40130942Y-101375592D01*
X40108591Y-101439467D01*
X40081508Y-101522820D01*
X40076219Y-101531979D01*
X40071775Y-101544682D01*
X40036178Y-101601333D01*
X39997925Y-101667591D01*
X39986742Y-101680010D01*
X39976465Y-101696367D01*
X39931781Y-101741050D01*
X39886061Y-101791828D01*
X39867568Y-101805263D01*
X39849792Y-101823040D01*
X39800288Y-101854145D01*
X39750824Y-101890083D01*
X39724297Y-101901893D01*
X39698107Y-101918350D01*
X39647792Y-101935955D01*
X39598103Y-101958079D01*
X39563622Y-101965408D01*
X39529017Y-101977517D01*
X39481427Y-101982879D01*
X39434584Y-101992836D01*
X39393059Y-101992836D01*
X39351000Y-101997575D01*
X39308941Y-101992836D01*
X39267416Y-101992836D01*
X39220572Y-101982879D01*
X39172983Y-101977517D01*
X39138378Y-101965408D01*
X39103896Y-101958079D01*
X39054203Y-101935954D01*
X39003893Y-101918350D01*
X38977704Y-101901894D01*
X38951175Y-101890083D01*
X38901704Y-101854140D01*
X38852208Y-101823040D01*
X38834434Y-101805266D01*
X38815938Y-101791828D01*
X38770208Y-101741040D01*
X38725535Y-101696367D01*
X38715259Y-101680013D01*
X38704074Y-101667591D01*
X38665808Y-101601313D01*
X38630225Y-101544682D01*
X38625781Y-101531983D01*
X38620491Y-101522820D01*
X38593394Y-101439427D01*
X38571058Y-101375592D01*
X38570211Y-101368075D01*
X38568831Y-101363828D01*
X38556324Y-101244830D01*
X38551000Y-101197575D01*
X38556324Y-101150323D01*
X38568831Y-101031321D01*
X38570211Y-101027073D01*
X38571058Y-101019558D01*
X38593390Y-100955735D01*
X38620491Y-100872329D01*
X38625782Y-100863163D01*
X38630225Y-100850468D01*
X38665801Y-100793847D01*
X38704074Y-100727558D01*
X38715261Y-100715133D01*
X38725535Y-100698783D01*
X38770205Y-100654112D01*
X38815938Y-100603322D01*
X38834434Y-100589883D01*
X38852208Y-100572110D01*
X38901699Y-100541012D01*
X38951174Y-100505067D01*
X38977706Y-100493253D01*
X39003893Y-100476800D01*
X39054200Y-100459196D01*
X39103898Y-100437070D01*
X39138382Y-100429740D01*
X39172983Y-100417633D01*
X39220570Y-100412271D01*
X39267416Y-100402314D01*
X39308941Y-100402314D01*
X39351000Y-100397575D01*
X39393059Y-100402314D01*
G37*
G36*
X54306059Y-100402314D02*
G01*
X54347584Y-100402314D01*
X54394430Y-100412271D01*
X54442017Y-100417633D01*
X54476616Y-100429739D01*
X54511103Y-100437070D01*
X54560802Y-100459197D01*
X54611107Y-100476800D01*
X54637292Y-100493253D01*
X54663824Y-100505066D01*
X54713298Y-100541011D01*
X54762792Y-100572110D01*
X54780564Y-100589882D01*
X54799061Y-100603321D01*
X54844790Y-100654108D01*
X54889465Y-100698783D01*
X54899740Y-100715136D01*
X54910925Y-100727558D01*
X54949185Y-100793828D01*
X54984775Y-100850468D01*
X54989218Y-100863167D01*
X54994508Y-100872329D01*
X55021595Y-100955695D01*
X55043942Y-101019558D01*
X55044789Y-101027077D01*
X55046168Y-101031321D01*
X55058661Y-101150191D01*
X55064000Y-101197575D01*
X55058660Y-101244962D01*
X55046168Y-101363828D01*
X55044789Y-101368070D01*
X55043942Y-101375592D01*
X55021591Y-101439467D01*
X54994508Y-101522820D01*
X54989219Y-101531979D01*
X54984775Y-101544682D01*
X54949178Y-101601333D01*
X54910925Y-101667591D01*
X54899742Y-101680010D01*
X54889465Y-101696367D01*
X54844781Y-101741050D01*
X54799061Y-101791828D01*
X54780568Y-101805263D01*
X54762792Y-101823040D01*
X54713288Y-101854145D01*
X54663824Y-101890083D01*
X54637297Y-101901893D01*
X54611107Y-101918350D01*
X54560792Y-101935955D01*
X54511103Y-101958079D01*
X54476622Y-101965408D01*
X54442017Y-101977517D01*
X54394427Y-101982879D01*
X54347584Y-101992836D01*
X54306059Y-101992836D01*
X54264000Y-101997575D01*
X54221941Y-101992836D01*
X54180416Y-101992836D01*
X54133572Y-101982879D01*
X54085983Y-101977517D01*
X54051378Y-101965408D01*
X54016896Y-101958079D01*
X53967203Y-101935954D01*
X53916893Y-101918350D01*
X53890704Y-101901894D01*
X53864175Y-101890083D01*
X53814704Y-101854140D01*
X53765208Y-101823040D01*
X53747434Y-101805266D01*
X53728938Y-101791828D01*
X53683208Y-101741040D01*
X53638535Y-101696367D01*
X53628259Y-101680013D01*
X53617074Y-101667591D01*
X53578808Y-101601313D01*
X53543225Y-101544682D01*
X53538781Y-101531983D01*
X53533491Y-101522820D01*
X53506394Y-101439427D01*
X53484058Y-101375592D01*
X53483211Y-101368075D01*
X53481831Y-101363828D01*
X53469324Y-101244830D01*
X53464000Y-101197575D01*
X53469324Y-101150323D01*
X53481831Y-101031321D01*
X53483211Y-101027073D01*
X53484058Y-101019558D01*
X53506390Y-100955735D01*
X53533491Y-100872329D01*
X53538782Y-100863163D01*
X53543225Y-100850468D01*
X53578801Y-100793847D01*
X53617074Y-100727558D01*
X53628261Y-100715133D01*
X53638535Y-100698783D01*
X53683205Y-100654112D01*
X53728938Y-100603322D01*
X53747434Y-100589883D01*
X53765208Y-100572110D01*
X53814699Y-100541012D01*
X53864174Y-100505067D01*
X53890706Y-100493253D01*
X53916893Y-100476800D01*
X53967200Y-100459196D01*
X54016898Y-100437070D01*
X54051382Y-100429740D01*
X54085983Y-100417633D01*
X54133570Y-100412271D01*
X54180416Y-100402314D01*
X54221941Y-100402314D01*
X54264000Y-100397575D01*
X54306059Y-100402314D01*
G37*
G36*
X69742859Y-98907964D02*
G01*
X69784384Y-98907964D01*
X69831230Y-98917921D01*
X69878817Y-98923283D01*
X69913416Y-98935389D01*
X69947903Y-98942720D01*
X69997602Y-98964847D01*
X70047907Y-98982450D01*
X70074092Y-98998903D01*
X70100624Y-99010716D01*
X70150098Y-99046661D01*
X70199592Y-99077760D01*
X70217364Y-99095532D01*
X70235861Y-99108971D01*
X70281590Y-99159758D01*
X70326265Y-99204433D01*
X70336540Y-99220786D01*
X70347725Y-99233208D01*
X70385985Y-99299478D01*
X70421575Y-99356118D01*
X70426018Y-99368817D01*
X70431308Y-99377979D01*
X70458395Y-99461345D01*
X70480742Y-99525208D01*
X70481589Y-99532727D01*
X70482968Y-99536971D01*
X70495461Y-99655841D01*
X70500800Y-99703225D01*
X70495460Y-99750612D01*
X70482968Y-99869478D01*
X70481589Y-99873720D01*
X70480742Y-99881242D01*
X70458391Y-99945117D01*
X70431308Y-100028470D01*
X70426019Y-100037629D01*
X70421575Y-100050332D01*
X70385978Y-100106983D01*
X70347725Y-100173241D01*
X70336542Y-100185660D01*
X70326265Y-100202017D01*
X70281581Y-100246700D01*
X70235861Y-100297478D01*
X70217368Y-100310913D01*
X70199592Y-100328690D01*
X70150088Y-100359795D01*
X70100624Y-100395733D01*
X70074097Y-100407543D01*
X70047907Y-100424000D01*
X69997592Y-100441605D01*
X69947903Y-100463729D01*
X69913422Y-100471058D01*
X69878817Y-100483167D01*
X69831227Y-100488529D01*
X69784384Y-100498486D01*
X69742859Y-100498486D01*
X69700800Y-100503225D01*
X69658741Y-100498486D01*
X69617216Y-100498486D01*
X69570372Y-100488529D01*
X69522783Y-100483167D01*
X69488178Y-100471058D01*
X69453696Y-100463729D01*
X69404003Y-100441604D01*
X69353693Y-100424000D01*
X69327504Y-100407544D01*
X69300975Y-100395733D01*
X69251504Y-100359790D01*
X69202008Y-100328690D01*
X69184234Y-100310916D01*
X69165738Y-100297478D01*
X69120008Y-100246690D01*
X69075335Y-100202017D01*
X69065059Y-100185663D01*
X69053874Y-100173241D01*
X69015608Y-100106963D01*
X68980025Y-100050332D01*
X68975581Y-100037633D01*
X68970291Y-100028470D01*
X68943194Y-99945077D01*
X68920858Y-99881242D01*
X68920011Y-99873725D01*
X68918631Y-99869478D01*
X68906124Y-99750480D01*
X68900800Y-99703225D01*
X68906124Y-99655973D01*
X68918631Y-99536971D01*
X68920011Y-99532723D01*
X68920858Y-99525208D01*
X68943190Y-99461385D01*
X68970291Y-99377979D01*
X68975582Y-99368813D01*
X68980025Y-99356118D01*
X69015601Y-99299497D01*
X69053874Y-99233208D01*
X69065061Y-99220783D01*
X69075335Y-99204433D01*
X69120005Y-99159762D01*
X69165738Y-99108972D01*
X69184234Y-99095533D01*
X69202008Y-99077760D01*
X69251499Y-99046662D01*
X69300974Y-99010717D01*
X69327506Y-98998903D01*
X69353693Y-98982450D01*
X69404000Y-98964846D01*
X69453698Y-98942720D01*
X69488182Y-98935390D01*
X69522783Y-98923283D01*
X69570370Y-98917921D01*
X69617216Y-98907964D01*
X69658741Y-98907964D01*
X69700800Y-98903225D01*
X69742859Y-98907964D01*
G37*
G36*
X40151000Y-99997575D02*
G01*
X38551000Y-99997575D01*
X38551000Y-98397575D01*
X40151000Y-98397575D01*
X40151000Y-99997575D01*
G37*
G36*
X55064000Y-99997575D02*
G01*
X53464000Y-99997575D01*
X53464000Y-98397575D01*
X55064000Y-98397575D01*
X55064000Y-99997575D01*
G37*
G36*
X70500800Y-98503225D02*
G01*
X68900800Y-98503225D01*
X68900800Y-96903225D01*
X70500800Y-96903225D01*
X70500800Y-98503225D01*
G37*
G36*
X69765059Y-84654314D02*
G01*
X69806584Y-84654314D01*
X69853430Y-84664271D01*
X69901017Y-84669633D01*
X69935616Y-84681739D01*
X69970103Y-84689070D01*
X70019802Y-84711197D01*
X70070107Y-84728800D01*
X70096292Y-84745253D01*
X70122824Y-84757066D01*
X70172298Y-84793011D01*
X70221792Y-84824110D01*
X70239564Y-84841882D01*
X70258061Y-84855321D01*
X70303790Y-84906108D01*
X70348465Y-84950783D01*
X70358740Y-84967136D01*
X70369925Y-84979558D01*
X70408185Y-85045828D01*
X70443775Y-85102468D01*
X70448218Y-85115167D01*
X70453508Y-85124329D01*
X70480595Y-85207695D01*
X70502942Y-85271558D01*
X70503789Y-85279077D01*
X70505168Y-85283321D01*
X70517661Y-85402191D01*
X70523000Y-85449575D01*
X70517660Y-85496962D01*
X70505168Y-85615828D01*
X70503789Y-85620070D01*
X70502942Y-85627592D01*
X70480591Y-85691467D01*
X70453508Y-85774820D01*
X70448219Y-85783979D01*
X70443775Y-85796682D01*
X70408178Y-85853333D01*
X70369925Y-85919591D01*
X70358742Y-85932010D01*
X70348465Y-85948367D01*
X70303781Y-85993050D01*
X70258061Y-86043828D01*
X70239568Y-86057263D01*
X70221792Y-86075040D01*
X70172288Y-86106145D01*
X70122824Y-86142083D01*
X70096297Y-86153893D01*
X70070107Y-86170350D01*
X70019792Y-86187955D01*
X69970103Y-86210079D01*
X69935622Y-86217408D01*
X69901017Y-86229517D01*
X69853427Y-86234879D01*
X69806584Y-86244836D01*
X69765059Y-86244836D01*
X69723000Y-86249575D01*
X69680941Y-86244836D01*
X69639416Y-86244836D01*
X69592572Y-86234879D01*
X69544983Y-86229517D01*
X69510378Y-86217408D01*
X69475896Y-86210079D01*
X69426203Y-86187954D01*
X69375893Y-86170350D01*
X69349704Y-86153894D01*
X69323175Y-86142083D01*
X69273704Y-86106140D01*
X69224208Y-86075040D01*
X69206434Y-86057266D01*
X69187938Y-86043828D01*
X69142208Y-85993040D01*
X69097535Y-85948367D01*
X69087259Y-85932013D01*
X69076074Y-85919591D01*
X69037808Y-85853313D01*
X69002225Y-85796682D01*
X68997781Y-85783983D01*
X68992491Y-85774820D01*
X68965394Y-85691427D01*
X68943058Y-85627592D01*
X68942211Y-85620075D01*
X68940831Y-85615828D01*
X68928324Y-85496830D01*
X68923000Y-85449575D01*
X68928324Y-85402323D01*
X68940831Y-85283321D01*
X68942211Y-85279073D01*
X68943058Y-85271558D01*
X68965390Y-85207735D01*
X68992491Y-85124329D01*
X68997782Y-85115163D01*
X69002225Y-85102468D01*
X69037801Y-85045847D01*
X69076074Y-84979558D01*
X69087261Y-84967133D01*
X69097535Y-84950783D01*
X69142205Y-84906112D01*
X69187938Y-84855322D01*
X69206434Y-84841883D01*
X69224208Y-84824110D01*
X69273699Y-84793012D01*
X69323174Y-84757067D01*
X69349706Y-84745253D01*
X69375893Y-84728800D01*
X69426200Y-84711196D01*
X69475898Y-84689070D01*
X69510382Y-84681740D01*
X69544983Y-84669633D01*
X69592570Y-84664271D01*
X69639416Y-84654314D01*
X69680941Y-84654314D01*
X69723000Y-84649575D01*
X69765059Y-84654314D01*
G37*
G36*
X70523000Y-84249575D02*
G01*
X68923000Y-84249575D01*
X68923000Y-82649575D01*
X70523000Y-82649575D01*
X70523000Y-84249575D01*
G37*
G36*
X41840000Y-80977225D02*
G01*
X40240000Y-80977225D01*
X40240000Y-79377225D01*
X41840000Y-79377225D01*
X41840000Y-80977225D01*
G37*
G36*
X56676800Y-80977225D02*
G01*
X55076800Y-80977225D01*
X55076800Y-79377225D01*
X56676800Y-79377225D01*
X56676800Y-80977225D01*
G37*
G36*
X41082059Y-77381964D02*
G01*
X41123584Y-77381964D01*
X41170430Y-77391921D01*
X41218017Y-77397283D01*
X41252616Y-77409389D01*
X41287103Y-77416720D01*
X41336802Y-77438847D01*
X41387107Y-77456450D01*
X41413292Y-77472903D01*
X41439824Y-77484716D01*
X41489298Y-77520661D01*
X41538792Y-77551760D01*
X41556564Y-77569532D01*
X41575061Y-77582971D01*
X41620790Y-77633758D01*
X41665465Y-77678433D01*
X41675740Y-77694786D01*
X41686925Y-77707208D01*
X41725185Y-77773478D01*
X41760775Y-77830118D01*
X41765218Y-77842817D01*
X41770508Y-77851979D01*
X41797595Y-77935345D01*
X41819942Y-77999208D01*
X41820789Y-78006727D01*
X41822168Y-78010971D01*
X41834661Y-78129841D01*
X41840000Y-78177225D01*
X41834660Y-78224612D01*
X41822168Y-78343478D01*
X41820789Y-78347720D01*
X41819942Y-78355242D01*
X41797591Y-78419117D01*
X41770508Y-78502470D01*
X41765219Y-78511629D01*
X41760775Y-78524332D01*
X41725178Y-78580983D01*
X41686925Y-78647241D01*
X41675742Y-78659660D01*
X41665465Y-78676017D01*
X41620781Y-78720700D01*
X41575061Y-78771478D01*
X41556568Y-78784913D01*
X41538792Y-78802690D01*
X41489288Y-78833795D01*
X41439824Y-78869733D01*
X41413297Y-78881543D01*
X41387107Y-78898000D01*
X41336792Y-78915605D01*
X41287103Y-78937729D01*
X41252622Y-78945058D01*
X41218017Y-78957167D01*
X41170427Y-78962529D01*
X41123584Y-78972486D01*
X41082059Y-78972486D01*
X41040000Y-78977225D01*
X40997941Y-78972486D01*
X40956416Y-78972486D01*
X40909572Y-78962529D01*
X40861983Y-78957167D01*
X40827378Y-78945058D01*
X40792896Y-78937729D01*
X40743203Y-78915604D01*
X40692893Y-78898000D01*
X40666704Y-78881544D01*
X40640175Y-78869733D01*
X40590704Y-78833790D01*
X40541208Y-78802690D01*
X40523434Y-78784916D01*
X40504938Y-78771478D01*
X40459208Y-78720690D01*
X40414535Y-78676017D01*
X40404259Y-78659663D01*
X40393074Y-78647241D01*
X40354808Y-78580963D01*
X40319225Y-78524332D01*
X40314781Y-78511633D01*
X40309491Y-78502470D01*
X40282394Y-78419077D01*
X40260058Y-78355242D01*
X40259211Y-78347725D01*
X40257831Y-78343478D01*
X40245324Y-78224480D01*
X40240000Y-78177225D01*
X40245324Y-78129973D01*
X40257831Y-78010971D01*
X40259211Y-78006723D01*
X40260058Y-77999208D01*
X40282390Y-77935385D01*
X40309491Y-77851979D01*
X40314782Y-77842813D01*
X40319225Y-77830118D01*
X40354801Y-77773497D01*
X40393074Y-77707208D01*
X40404261Y-77694783D01*
X40414535Y-77678433D01*
X40459205Y-77633762D01*
X40504938Y-77582972D01*
X40523434Y-77569533D01*
X40541208Y-77551760D01*
X40590699Y-77520662D01*
X40640174Y-77484717D01*
X40666706Y-77472903D01*
X40692893Y-77456450D01*
X40743200Y-77438846D01*
X40792898Y-77416720D01*
X40827382Y-77409390D01*
X40861983Y-77397283D01*
X40909570Y-77391921D01*
X40956416Y-77381964D01*
X40997941Y-77381964D01*
X41040000Y-77377225D01*
X41082059Y-77381964D01*
G37*
G36*
X55918859Y-77381964D02*
G01*
X55960384Y-77381964D01*
X56007230Y-77391921D01*
X56054817Y-77397283D01*
X56089416Y-77409389D01*
X56123903Y-77416720D01*
X56173602Y-77438847D01*
X56223907Y-77456450D01*
X56250092Y-77472903D01*
X56276624Y-77484716D01*
X56326098Y-77520661D01*
X56375592Y-77551760D01*
X56393364Y-77569532D01*
X56411861Y-77582971D01*
X56457590Y-77633758D01*
X56502265Y-77678433D01*
X56512540Y-77694786D01*
X56523725Y-77707208D01*
X56561985Y-77773478D01*
X56597575Y-77830118D01*
X56602018Y-77842817D01*
X56607308Y-77851979D01*
X56634395Y-77935345D01*
X56656742Y-77999208D01*
X56657589Y-78006727D01*
X56658968Y-78010971D01*
X56671461Y-78129841D01*
X56676800Y-78177225D01*
X56671460Y-78224612D01*
X56658968Y-78343478D01*
X56657589Y-78347720D01*
X56656742Y-78355242D01*
X56634391Y-78419117D01*
X56607308Y-78502470D01*
X56602019Y-78511629D01*
X56597575Y-78524332D01*
X56561978Y-78580983D01*
X56523725Y-78647241D01*
X56512542Y-78659660D01*
X56502265Y-78676017D01*
X56457581Y-78720700D01*
X56411861Y-78771478D01*
X56393368Y-78784913D01*
X56375592Y-78802690D01*
X56326088Y-78833795D01*
X56276624Y-78869733D01*
X56250097Y-78881543D01*
X56223907Y-78898000D01*
X56173592Y-78915605D01*
X56123903Y-78937729D01*
X56089422Y-78945058D01*
X56054817Y-78957167D01*
X56007227Y-78962529D01*
X55960384Y-78972486D01*
X55918859Y-78972486D01*
X55876800Y-78977225D01*
X55834741Y-78972486D01*
X55793216Y-78972486D01*
X55746372Y-78962529D01*
X55698783Y-78957167D01*
X55664178Y-78945058D01*
X55629696Y-78937729D01*
X55580003Y-78915604D01*
X55529693Y-78898000D01*
X55503504Y-78881544D01*
X55476975Y-78869733D01*
X55427504Y-78833790D01*
X55378008Y-78802690D01*
X55360234Y-78784916D01*
X55341738Y-78771478D01*
X55296008Y-78720690D01*
X55251335Y-78676017D01*
X55241059Y-78659663D01*
X55229874Y-78647241D01*
X55191608Y-78580963D01*
X55156025Y-78524332D01*
X55151581Y-78511633D01*
X55146291Y-78502470D01*
X55119194Y-78419077D01*
X55096858Y-78355242D01*
X55096011Y-78347725D01*
X55094631Y-78343478D01*
X55082124Y-78224480D01*
X55076800Y-78177225D01*
X55082124Y-78129973D01*
X55094631Y-78010971D01*
X55096011Y-78006723D01*
X55096858Y-77999208D01*
X55119190Y-77935385D01*
X55146291Y-77851979D01*
X55151582Y-77842813D01*
X55156025Y-77830118D01*
X55191601Y-77773497D01*
X55229874Y-77707208D01*
X55241061Y-77694783D01*
X55251335Y-77678433D01*
X55296005Y-77633762D01*
X55341738Y-77582972D01*
X55360234Y-77569533D01*
X55378008Y-77551760D01*
X55427499Y-77520662D01*
X55476974Y-77484717D01*
X55503506Y-77472903D01*
X55529693Y-77456450D01*
X55580000Y-77438846D01*
X55629698Y-77416720D01*
X55664182Y-77409390D01*
X55698783Y-77397283D01*
X55746370Y-77391921D01*
X55793216Y-77381964D01*
X55834741Y-77381964D01*
X55876800Y-77377225D01*
X55918859Y-77381964D01*
G37*
G36*
X124995800Y-77409302D02*
G01*
X123395800Y-77409302D01*
X123395800Y-75809302D01*
X124995800Y-75809302D01*
X124995800Y-77409302D01*
G37*
G36*
X124237859Y-72314041D02*
G01*
X124279384Y-72314041D01*
X124326230Y-72323998D01*
X124373817Y-72329360D01*
X124408416Y-72341466D01*
X124442903Y-72348797D01*
X124492602Y-72370924D01*
X124542907Y-72388527D01*
X124569092Y-72404980D01*
X124595624Y-72416793D01*
X124645098Y-72452738D01*
X124694592Y-72483837D01*
X124712364Y-72501609D01*
X124730861Y-72515048D01*
X124776590Y-72565835D01*
X124821265Y-72610510D01*
X124831540Y-72626863D01*
X124842725Y-72639285D01*
X124880985Y-72705555D01*
X124916575Y-72762195D01*
X124921018Y-72774894D01*
X124926308Y-72784056D01*
X124953395Y-72867422D01*
X124975742Y-72931285D01*
X124976589Y-72938804D01*
X124977968Y-72943048D01*
X124990461Y-73061918D01*
X124995800Y-73109302D01*
X124990460Y-73156689D01*
X124977968Y-73275555D01*
X124976589Y-73279797D01*
X124975742Y-73287319D01*
X124953391Y-73351194D01*
X124926308Y-73434547D01*
X124921019Y-73443706D01*
X124916575Y-73456409D01*
X124880978Y-73513060D01*
X124842725Y-73579318D01*
X124831542Y-73591737D01*
X124821265Y-73608094D01*
X124776581Y-73652777D01*
X124730861Y-73703555D01*
X124712368Y-73716990D01*
X124694592Y-73734767D01*
X124645088Y-73765872D01*
X124595624Y-73801810D01*
X124569097Y-73813620D01*
X124542907Y-73830077D01*
X124492592Y-73847682D01*
X124442903Y-73869806D01*
X124408422Y-73877135D01*
X124373817Y-73889244D01*
X124326227Y-73894606D01*
X124279384Y-73904563D01*
X124237859Y-73904563D01*
X124195800Y-73909302D01*
X124153741Y-73904563D01*
X124112216Y-73904563D01*
X124065372Y-73894606D01*
X124017783Y-73889244D01*
X123983178Y-73877135D01*
X123948696Y-73869806D01*
X123899003Y-73847681D01*
X123848693Y-73830077D01*
X123822504Y-73813621D01*
X123795975Y-73801810D01*
X123746504Y-73765867D01*
X123697008Y-73734767D01*
X123679234Y-73716993D01*
X123660738Y-73703555D01*
X123615008Y-73652767D01*
X123570335Y-73608094D01*
X123560059Y-73591740D01*
X123548874Y-73579318D01*
X123510608Y-73513040D01*
X123475025Y-73456409D01*
X123470581Y-73443710D01*
X123465291Y-73434547D01*
X123438194Y-73351154D01*
X123415858Y-73287319D01*
X123415011Y-73279802D01*
X123413631Y-73275555D01*
X123401124Y-73156557D01*
X123395800Y-73109302D01*
X123401124Y-73062050D01*
X123413631Y-72943048D01*
X123415011Y-72938800D01*
X123415858Y-72931285D01*
X123438190Y-72867462D01*
X123465291Y-72784056D01*
X123470582Y-72774890D01*
X123475025Y-72762195D01*
X123510601Y-72705574D01*
X123548874Y-72639285D01*
X123560061Y-72626860D01*
X123570335Y-72610510D01*
X123615005Y-72565839D01*
X123660738Y-72515049D01*
X123679234Y-72501610D01*
X123697008Y-72483837D01*
X123746499Y-72452739D01*
X123795974Y-72416794D01*
X123822506Y-72404980D01*
X123848693Y-72388527D01*
X123899000Y-72370923D01*
X123948698Y-72348797D01*
X123983182Y-72341467D01*
X124017783Y-72329360D01*
X124065370Y-72323998D01*
X124112216Y-72314041D01*
X124153741Y-72314041D01*
X124195800Y-72309302D01*
X124237859Y-72314041D01*
G37*
G36*
X84327716Y-59208999D02*
G01*
X84378002Y-59242598D01*
X84411601Y-59292884D01*
X84423400Y-59352200D01*
X84423400Y-59662200D01*
X84411601Y-59721516D01*
X84378002Y-59771802D01*
X84327716Y-59805401D01*
X84268400Y-59817200D01*
X83843400Y-59817200D01*
X83784084Y-59805401D01*
X83733798Y-59771802D01*
X83700199Y-59721516D01*
X83688400Y-59662200D01*
X83688400Y-59352200D01*
X83700199Y-59292884D01*
X83733798Y-59242598D01*
X83784084Y-59208999D01*
X83843400Y-59197200D01*
X84268400Y-59197200D01*
X84327716Y-59208999D01*
G37*
G36*
X85462716Y-59208999D02*
G01*
X85513002Y-59242598D01*
X85546601Y-59292884D01*
X85558400Y-59352200D01*
X85558400Y-59662200D01*
X85546601Y-59721516D01*
X85513002Y-59771802D01*
X85462716Y-59805401D01*
X85403400Y-59817200D01*
X84978400Y-59817200D01*
X84919084Y-59805401D01*
X84868798Y-59771802D01*
X84835199Y-59721516D01*
X84823400Y-59662200D01*
X84823400Y-59352200D01*
X84835199Y-59292884D01*
X84868798Y-59242598D01*
X84919084Y-59208999D01*
X84978400Y-59197200D01*
X85403400Y-59197200D01*
X85462716Y-59208999D01*
G37*
G36*
X83295939Y-51591058D02*
G01*
X83350725Y-51598271D01*
X83364506Y-51604697D01*
X83383271Y-51608430D01*
X83408126Y-51625037D01*
X83430419Y-51635433D01*
X83443980Y-51648994D01*
X83464377Y-51662623D01*
X83478005Y-51683019D01*
X83491566Y-51696580D01*
X83501960Y-51718870D01*
X83518570Y-51743729D01*
X83522302Y-51762495D01*
X83528728Y-51776274D01*
X83535938Y-51831048D01*
X83537600Y-51839400D01*
X83537600Y-52789400D01*
X83535938Y-52797753D01*
X83528728Y-52852525D01*
X83522303Y-52866303D01*
X83518570Y-52885071D01*
X83501958Y-52909931D01*
X83491566Y-52932219D01*
X83478007Y-52945777D01*
X83464377Y-52966177D01*
X83443977Y-52979807D01*
X83430419Y-52993366D01*
X83408131Y-53003758D01*
X83383271Y-53020370D01*
X83364503Y-53024103D01*
X83350725Y-53030528D01*
X83295953Y-53037738D01*
X83287600Y-53039400D01*
X82612600Y-53039400D01*
X82604248Y-53037738D01*
X82549474Y-53030528D01*
X82535695Y-53024102D01*
X82516929Y-53020370D01*
X82492070Y-53003760D01*
X82469780Y-52993366D01*
X82456219Y-52979805D01*
X82435823Y-52966177D01*
X82422194Y-52945780D01*
X82408633Y-52932219D01*
X82398237Y-52909926D01*
X82381630Y-52885071D01*
X82377897Y-52866306D01*
X82371471Y-52852525D01*
X82364258Y-52797739D01*
X82362600Y-52789400D01*
X82362600Y-51839400D01*
X82364258Y-51831062D01*
X82371471Y-51776274D01*
X82377897Y-51762491D01*
X82381630Y-51743729D01*
X82398236Y-51718875D01*
X82408633Y-51696580D01*
X82422196Y-51683016D01*
X82435823Y-51662623D01*
X82456216Y-51648996D01*
X82469780Y-51635433D01*
X82492075Y-51625036D01*
X82516929Y-51608430D01*
X82535691Y-51604697D01*
X82549474Y-51598271D01*
X82604262Y-51591058D01*
X82612600Y-51589400D01*
X83287600Y-51589400D01*
X83295939Y-51591058D01*
G37*
G36*
X85370939Y-51591058D02*
G01*
X85425725Y-51598271D01*
X85439506Y-51604697D01*
X85458271Y-51608430D01*
X85483126Y-51625037D01*
X85505419Y-51635433D01*
X85518980Y-51648994D01*
X85539377Y-51662623D01*
X85553005Y-51683019D01*
X85566566Y-51696580D01*
X85576960Y-51718870D01*
X85593570Y-51743729D01*
X85597302Y-51762495D01*
X85603728Y-51776274D01*
X85610938Y-51831048D01*
X85612600Y-51839400D01*
X85612600Y-52789400D01*
X85610938Y-52797753D01*
X85603728Y-52852525D01*
X85597303Y-52866303D01*
X85593570Y-52885071D01*
X85576958Y-52909931D01*
X85566566Y-52932219D01*
X85553007Y-52945777D01*
X85539377Y-52966177D01*
X85518977Y-52979807D01*
X85505419Y-52993366D01*
X85483131Y-53003758D01*
X85458271Y-53020370D01*
X85439503Y-53024103D01*
X85425725Y-53030528D01*
X85370953Y-53037738D01*
X85362600Y-53039400D01*
X84687600Y-53039400D01*
X84679248Y-53037738D01*
X84624474Y-53030528D01*
X84610695Y-53024102D01*
X84591929Y-53020370D01*
X84567070Y-53003760D01*
X84544780Y-52993366D01*
X84531219Y-52979805D01*
X84510823Y-52966177D01*
X84497194Y-52945780D01*
X84483633Y-52932219D01*
X84473237Y-52909926D01*
X84456630Y-52885071D01*
X84452897Y-52866306D01*
X84446471Y-52852525D01*
X84439258Y-52797739D01*
X84437600Y-52789400D01*
X84437600Y-51839400D01*
X84439258Y-51831062D01*
X84446471Y-51776274D01*
X84452897Y-51762491D01*
X84456630Y-51743729D01*
X84473236Y-51718875D01*
X84483633Y-51696580D01*
X84497196Y-51683016D01*
X84510823Y-51662623D01*
X84531216Y-51648996D01*
X84544780Y-51635433D01*
X84567075Y-51625036D01*
X84591929Y-51608430D01*
X84610691Y-51604697D01*
X84624474Y-51598271D01*
X84679262Y-51591058D01*
X84687600Y-51589400D01*
X85362600Y-51589400D01*
X85370939Y-51591058D01*
G37*
G36*
X89585716Y-51943399D02*
G01*
X89636002Y-51976998D01*
X89669601Y-52027284D01*
X89681400Y-52086600D01*
X89681400Y-52396600D01*
X89669601Y-52455916D01*
X89636002Y-52506202D01*
X89585716Y-52539801D01*
X89526400Y-52551600D01*
X89101400Y-52551600D01*
X89042084Y-52539801D01*
X88991798Y-52506202D01*
X88958199Y-52455916D01*
X88946400Y-52396600D01*
X88946400Y-52086600D01*
X88958199Y-52027284D01*
X88991798Y-51976998D01*
X89042084Y-51943399D01*
X89101400Y-51931600D01*
X89526400Y-51931600D01*
X89585716Y-51943399D01*
G37*
G36*
X90720716Y-51943399D02*
G01*
X90771002Y-51976998D01*
X90804601Y-52027284D01*
X90816400Y-52086600D01*
X90816400Y-52396600D01*
X90804601Y-52455916D01*
X90771002Y-52506202D01*
X90720716Y-52539801D01*
X90661400Y-52551600D01*
X90236400Y-52551600D01*
X90177084Y-52539801D01*
X90126798Y-52506202D01*
X90093199Y-52455916D01*
X90081400Y-52396600D01*
X90081400Y-52086600D01*
X90093199Y-52027284D01*
X90126798Y-51976998D01*
X90177084Y-51943399D01*
X90236400Y-51931600D01*
X90661400Y-51931600D01*
X90720716Y-51943399D01*
G37*
G36*
X129051860Y-47281790D02*
G01*
X129071037Y-47281790D01*
X129094149Y-47290201D01*
X129123469Y-47296034D01*
X129139375Y-47306662D01*
X129152296Y-47311365D01*
X129175292Y-47330660D01*
X129204575Y-47350227D01*
X129212187Y-47361619D01*
X129218540Y-47366950D01*
X129236280Y-47397678D01*
X129258768Y-47431333D01*
X129260374Y-47439410D01*
X129261779Y-47441843D01*
X129268964Y-47482594D01*
X129277798Y-47527003D01*
X129268963Y-47571415D01*
X129261779Y-47612162D01*
X129260375Y-47614593D01*
X129258768Y-47622673D01*
X129236276Y-47656333D01*
X129218540Y-47687055D01*
X129212188Y-47692384D01*
X129204575Y-47703779D01*
X129175286Y-47723349D01*
X129152296Y-47742640D01*
X129139378Y-47747341D01*
X129123469Y-47757972D01*
X129094147Y-47763804D01*
X129071037Y-47772216D01*
X129051860Y-47772216D01*
X129027799Y-47777002D01*
X129003738Y-47772216D01*
X128984561Y-47772216D01*
X128961449Y-47763804D01*
X128932129Y-47757972D01*
X128916220Y-47747342D01*
X128903301Y-47742640D01*
X128880306Y-47723345D01*
X128851023Y-47703779D01*
X128843410Y-47692386D01*
X128837057Y-47687055D01*
X128819313Y-47656322D01*
X128796830Y-47622673D01*
X128795223Y-47614596D01*
X128793818Y-47612162D01*
X128786625Y-47571370D01*
X128777800Y-47527003D01*
X128786624Y-47482639D01*
X128793818Y-47441843D01*
X128795223Y-47439408D01*
X128796830Y-47431333D01*
X128819309Y-47397689D01*
X128837057Y-47366950D01*
X128843412Y-47361617D01*
X128851023Y-47350227D01*
X128880301Y-47330664D01*
X128903301Y-47311365D01*
X128916223Y-47306661D01*
X128932129Y-47296034D01*
X128961448Y-47290202D01*
X128984561Y-47281790D01*
X129003738Y-47281790D01*
X129027799Y-47277004D01*
X129051860Y-47281790D01*
G37*
G36*
X128351861Y-46781790D02*
G01*
X128371038Y-46781790D01*
X128394150Y-46790201D01*
X128423470Y-46796034D01*
X128439376Y-46806662D01*
X128452297Y-46811365D01*
X128475293Y-46830660D01*
X128504576Y-46850227D01*
X128512188Y-46861619D01*
X128518541Y-46866950D01*
X128536281Y-46897678D01*
X128558769Y-46931333D01*
X128560375Y-46939410D01*
X128561780Y-46941843D01*
X128568965Y-46982594D01*
X128577799Y-47027003D01*
X128568964Y-47071415D01*
X128561780Y-47112162D01*
X128560376Y-47114593D01*
X128558769Y-47122673D01*
X128536277Y-47156333D01*
X128518541Y-47187055D01*
X128512189Y-47192384D01*
X128504576Y-47203779D01*
X128475287Y-47223349D01*
X128452297Y-47242640D01*
X128439379Y-47247341D01*
X128423470Y-47257972D01*
X128394148Y-47263804D01*
X128371038Y-47272216D01*
X128351861Y-47272216D01*
X128327800Y-47277002D01*
X128303739Y-47272216D01*
X128284562Y-47272216D01*
X128261450Y-47263804D01*
X128232130Y-47257972D01*
X128216221Y-47247342D01*
X128203302Y-47242640D01*
X128180307Y-47223345D01*
X128151024Y-47203779D01*
X128143411Y-47192386D01*
X128137058Y-47187055D01*
X128119314Y-47156322D01*
X128096831Y-47122673D01*
X128095224Y-47114596D01*
X128093819Y-47112162D01*
X128086626Y-47071370D01*
X128077801Y-47027003D01*
X128086625Y-46982639D01*
X128093819Y-46941843D01*
X128095224Y-46939408D01*
X128096831Y-46931333D01*
X128119310Y-46897689D01*
X128137058Y-46866950D01*
X128143413Y-46861617D01*
X128151024Y-46850227D01*
X128180302Y-46830664D01*
X128203302Y-46811365D01*
X128216224Y-46806661D01*
X128232130Y-46796034D01*
X128261449Y-46790202D01*
X128284562Y-46781790D01*
X128303739Y-46781790D01*
X128327800Y-46777004D01*
X128351861Y-46781790D01*
G37*
G36*
X129751864Y-46781790D02*
G01*
X129771041Y-46781790D01*
X129794153Y-46790201D01*
X129823473Y-46796034D01*
X129839379Y-46806662D01*
X129852300Y-46811365D01*
X129875296Y-46830660D01*
X129904579Y-46850227D01*
X129912191Y-46861619D01*
X129918544Y-46866950D01*
X129936284Y-46897678D01*
X129958772Y-46931333D01*
X129960378Y-46939410D01*
X129961783Y-46941843D01*
X129968968Y-46982594D01*
X129977802Y-47027003D01*
X129968967Y-47071415D01*
X129961783Y-47112162D01*
X129960379Y-47114593D01*
X129958772Y-47122673D01*
X129936280Y-47156333D01*
X129918544Y-47187055D01*
X129912192Y-47192384D01*
X129904579Y-47203779D01*
X129875290Y-47223349D01*
X129852300Y-47242640D01*
X129839382Y-47247341D01*
X129823473Y-47257972D01*
X129794151Y-47263804D01*
X129771041Y-47272216D01*
X129751864Y-47272216D01*
X129727803Y-47277002D01*
X129703742Y-47272216D01*
X129684565Y-47272216D01*
X129661453Y-47263804D01*
X129632133Y-47257972D01*
X129616224Y-47247342D01*
X129603305Y-47242640D01*
X129580310Y-47223345D01*
X129551027Y-47203779D01*
X129543414Y-47192386D01*
X129537061Y-47187055D01*
X129519317Y-47156322D01*
X129496834Y-47122673D01*
X129495227Y-47114596D01*
X129493822Y-47112162D01*
X129486629Y-47071370D01*
X129477804Y-47027003D01*
X129486628Y-46982639D01*
X129493822Y-46941843D01*
X129495227Y-46939408D01*
X129496834Y-46931333D01*
X129519313Y-46897689D01*
X129537061Y-46866950D01*
X129543416Y-46861617D01*
X129551027Y-46850227D01*
X129580305Y-46830664D01*
X129603305Y-46811365D01*
X129616227Y-46806661D01*
X129632133Y-46796034D01*
X129661452Y-46790202D01*
X129684565Y-46781790D01*
X129703742Y-46781790D01*
X129727803Y-46777004D01*
X129751864Y-46781790D01*
G37*
G36*
X129051860Y-46281790D02*
G01*
X129071037Y-46281790D01*
X129094149Y-46290201D01*
X129123469Y-46296034D01*
X129139375Y-46306662D01*
X129152296Y-46311365D01*
X129175292Y-46330660D01*
X129204575Y-46350227D01*
X129212187Y-46361619D01*
X129218540Y-46366950D01*
X129236280Y-46397678D01*
X129258768Y-46431333D01*
X129260374Y-46439410D01*
X129261779Y-46441843D01*
X129268964Y-46482594D01*
X129277798Y-46527003D01*
X129268963Y-46571415D01*
X129261779Y-46612162D01*
X129260375Y-46614593D01*
X129258768Y-46622673D01*
X129236276Y-46656333D01*
X129218540Y-46687055D01*
X129212188Y-46692384D01*
X129204575Y-46703779D01*
X129175286Y-46723349D01*
X129152296Y-46742640D01*
X129139378Y-46747341D01*
X129123469Y-46757972D01*
X129094147Y-46763804D01*
X129071037Y-46772216D01*
X129051860Y-46772216D01*
X129027799Y-46777002D01*
X129003738Y-46772216D01*
X128984561Y-46772216D01*
X128961449Y-46763804D01*
X128932129Y-46757972D01*
X128916220Y-46747342D01*
X128903301Y-46742640D01*
X128880306Y-46723345D01*
X128851023Y-46703779D01*
X128843410Y-46692386D01*
X128837057Y-46687055D01*
X128819313Y-46656322D01*
X128796830Y-46622673D01*
X128795223Y-46614596D01*
X128793818Y-46612162D01*
X128786625Y-46571370D01*
X128777800Y-46527003D01*
X128786624Y-46482639D01*
X128793818Y-46441843D01*
X128795223Y-46439408D01*
X128796830Y-46431333D01*
X128819309Y-46397689D01*
X128837057Y-46366950D01*
X128843412Y-46361617D01*
X128851023Y-46350227D01*
X128880301Y-46330664D01*
X128903301Y-46311365D01*
X128916223Y-46306661D01*
X128932129Y-46296034D01*
X128961448Y-46290202D01*
X128984561Y-46281790D01*
X129003738Y-46281790D01*
X129027799Y-46277004D01*
X129051860Y-46281790D01*
G37*
G36*
X87407800Y-41116000D02*
G01*
X85707800Y-41116000D01*
X85707800Y-39416000D01*
X87407800Y-39416000D01*
X87407800Y-41116000D01*
G37*
G36*
X89320464Y-39457602D02*
G01*
X89482800Y-39529878D01*
X89626561Y-39634327D01*
X89745464Y-39766383D01*
X89834314Y-39920274D01*
X89889225Y-40089275D01*
X89907800Y-40266000D01*
X89889225Y-40442725D01*
X89834314Y-40611726D01*
X89745464Y-40765617D01*
X89626561Y-40897673D01*
X89482800Y-41002122D01*
X89320464Y-41074398D01*
X89146649Y-41111344D01*
X88968951Y-41111344D01*
X88795136Y-41074398D01*
X88632800Y-41002122D01*
X88489039Y-40897673D01*
X88370136Y-40765617D01*
X88281286Y-40611726D01*
X88226375Y-40442725D01*
X88207800Y-40266000D01*
X88226375Y-40089275D01*
X88281286Y-39920274D01*
X88370136Y-39766383D01*
X88489039Y-39634327D01*
X88632800Y-39529878D01*
X88795136Y-39457602D01*
X88968951Y-39420656D01*
X89146649Y-39420656D01*
X89320464Y-39457602D01*
G37*
G36*
X86820464Y-37457602D02*
G01*
X86982800Y-37529878D01*
X87126561Y-37634327D01*
X87245464Y-37766383D01*
X87334314Y-37920274D01*
X87389225Y-38089275D01*
X87407800Y-38266000D01*
X87389225Y-38442725D01*
X87334314Y-38611726D01*
X87245464Y-38765617D01*
X87126561Y-38897673D01*
X86982800Y-39002122D01*
X86820464Y-39074398D01*
X86646649Y-39111344D01*
X86468951Y-39111344D01*
X86295136Y-39074398D01*
X86132800Y-39002122D01*
X85989039Y-38897673D01*
X85870136Y-38765617D01*
X85781286Y-38611726D01*
X85726375Y-38442725D01*
X85707800Y-38266000D01*
X85726375Y-38089275D01*
X85781286Y-37920274D01*
X85870136Y-37766383D01*
X85989039Y-37634327D01*
X86132800Y-37529878D01*
X86295136Y-37457602D01*
X86468951Y-37420656D01*
X86646649Y-37420656D01*
X86820464Y-37457602D01*
G37*
G36*
X89320464Y-37457602D02*
G01*
X89482800Y-37529878D01*
X89626561Y-37634327D01*
X89745464Y-37766383D01*
X89834314Y-37920274D01*
X89889225Y-38089275D01*
X89907800Y-38266000D01*
X89889225Y-38442725D01*
X89834314Y-38611726D01*
X89745464Y-38765617D01*
X89626561Y-38897673D01*
X89482800Y-39002122D01*
X89320464Y-39074398D01*
X89146649Y-39111344D01*
X88968951Y-39111344D01*
X88795136Y-39074398D01*
X88632800Y-39002122D01*
X88489039Y-38897673D01*
X88370136Y-38765617D01*
X88281286Y-38611726D01*
X88226375Y-38442725D01*
X88207800Y-38266000D01*
X88226375Y-38089275D01*
X88281286Y-37920274D01*
X88370136Y-37766383D01*
X88489039Y-37634327D01*
X88632800Y-37529878D01*
X88795136Y-37457602D01*
X88968951Y-37420656D01*
X89146649Y-37420656D01*
X89320464Y-37457602D01*
G37*
G36*
X82177212Y-33849876D02*
G01*
X82427147Y-33926971D01*
X82662800Y-34040456D01*
X82878907Y-34187795D01*
X83070641Y-34365698D01*
X83233718Y-34570190D01*
X83364496Y-34796703D01*
X83460052Y-35040178D01*
X83518254Y-35295176D01*
X83537800Y-35556000D01*
X83518254Y-35816824D01*
X83460052Y-36071822D01*
X83364496Y-36315297D01*
X83233718Y-36541810D01*
X83070641Y-36746302D01*
X82878907Y-36924205D01*
X82662800Y-37071544D01*
X82427147Y-37185029D01*
X82177212Y-37262124D01*
X81918578Y-37301107D01*
X81657022Y-37301107D01*
X81398388Y-37262124D01*
X81148453Y-37185029D01*
X80912800Y-37071544D01*
X80696693Y-36924205D01*
X80504959Y-36746302D01*
X80341882Y-36541810D01*
X80211104Y-36315297D01*
X80115548Y-36071822D01*
X80057346Y-35816824D01*
X80037800Y-35556000D01*
X80057346Y-35295176D01*
X80115548Y-35040178D01*
X80211104Y-34796703D01*
X80341882Y-34570190D01*
X80504959Y-34365698D01*
X80696693Y-34187795D01*
X80912800Y-34040456D01*
X81148453Y-33926971D01*
X81398388Y-33849876D01*
X81657022Y-33810893D01*
X81918578Y-33810893D01*
X82177212Y-33849876D01*
G37*
G36*
X94217212Y-33849876D02*
G01*
X94467147Y-33926971D01*
X94702800Y-34040456D01*
X94918907Y-34187795D01*
X95110641Y-34365698D01*
X95273718Y-34570190D01*
X95404496Y-34796703D01*
X95500052Y-35040178D01*
X95558254Y-35295176D01*
X95577800Y-35556000D01*
X95558254Y-35816824D01*
X95500052Y-36071822D01*
X95404496Y-36315297D01*
X95273718Y-36541810D01*
X95110641Y-36746302D01*
X94918907Y-36924205D01*
X94702800Y-37071544D01*
X94467147Y-37185029D01*
X94217212Y-37262124D01*
X93958578Y-37301107D01*
X93697022Y-37301107D01*
X93438388Y-37262124D01*
X93188453Y-37185029D01*
X92952800Y-37071544D01*
X92736693Y-36924205D01*
X92544959Y-36746302D01*
X92381882Y-36541810D01*
X92251104Y-36315297D01*
X92155548Y-36071822D01*
X92097346Y-35816824D01*
X92077800Y-35556000D01*
X92097346Y-35295176D01*
X92155548Y-35040178D01*
X92251104Y-34796703D01*
X92381882Y-34570190D01*
X92544959Y-34365698D01*
X92736693Y-34187795D01*
X92952800Y-34040456D01*
X93188453Y-33926971D01*
X93438388Y-33849876D01*
X93697022Y-33810893D01*
X93958578Y-33810893D01*
X94217212Y-33849876D01*
G37*
G36*
X40571484Y-30577049D02*
G01*
X40860143Y-30634467D01*
X41138838Y-30729071D01*
X41402800Y-30859243D01*
X41647513Y-31022755D01*
X41868790Y-31216810D01*
X42062845Y-31438087D01*
X42226357Y-31682800D01*
X42356529Y-31946762D01*
X42451133Y-32225457D01*
X42508551Y-32514116D01*
X42527800Y-32807800D01*
X42508551Y-33101484D01*
X42451133Y-33390143D01*
X42356529Y-33668838D01*
X42226357Y-33932800D01*
X42062845Y-34177513D01*
X41868790Y-34398790D01*
X41647513Y-34592845D01*
X41402800Y-34756357D01*
X41138838Y-34886529D01*
X40860143Y-34981133D01*
X40571484Y-35038551D01*
X40277800Y-35057800D01*
X39984116Y-35038551D01*
X39695457Y-34981133D01*
X39416762Y-34886529D01*
X39152800Y-34756357D01*
X38908087Y-34592845D01*
X38686810Y-34398790D01*
X38492755Y-34177513D01*
X38329243Y-33932800D01*
X38199071Y-33668838D01*
X38104467Y-33390143D01*
X38047049Y-33101484D01*
X38027800Y-32807800D01*
X38047049Y-32514116D01*
X38104467Y-32225457D01*
X38199071Y-31946762D01*
X38329243Y-31682800D01*
X38492755Y-31438087D01*
X38686810Y-31216810D01*
X38908087Y-31022755D01*
X39152800Y-30859243D01*
X39416762Y-30729071D01*
X39695457Y-30634467D01*
X39984116Y-30577049D01*
X40277800Y-30557800D01*
X40571484Y-30577049D01*
G37*
G36*
X135821484Y-30577049D02*
G01*
X136110143Y-30634467D01*
X136388838Y-30729071D01*
X136652800Y-30859243D01*
X136897513Y-31022755D01*
X137118790Y-31216810D01*
X137312845Y-31438087D01*
X137476357Y-31682800D01*
X137606529Y-31946762D01*
X137701133Y-32225457D01*
X137758551Y-32514116D01*
X137777800Y-32807800D01*
X137758551Y-33101484D01*
X137701133Y-33390143D01*
X137606529Y-33668838D01*
X137476357Y-33932800D01*
X137312845Y-34177513D01*
X137118790Y-34398790D01*
X136897513Y-34592845D01*
X136652800Y-34756357D01*
X136388838Y-34886529D01*
X136110143Y-34981133D01*
X135821484Y-35038551D01*
X135527800Y-35057800D01*
X135234116Y-35038551D01*
X134945457Y-34981133D01*
X134666762Y-34886529D01*
X134402800Y-34756357D01*
X134158087Y-34592845D01*
X133936810Y-34398790D01*
X133742755Y-34177513D01*
X133579243Y-33932800D01*
X133449071Y-33668838D01*
X133354467Y-33390143D01*
X133297049Y-33101484D01*
X133277800Y-32807800D01*
X133297049Y-32514116D01*
X133354467Y-32225457D01*
X133449071Y-31946762D01*
X133579243Y-31682800D01*
X133742755Y-31438087D01*
X133936810Y-31216810D01*
X134158087Y-31022755D01*
X134402800Y-30859243D01*
X134666762Y-30729071D01*
X134945457Y-30634467D01*
X135234116Y-30577049D01*
X135527800Y-30557800D01*
X135821484Y-30577049D01*
G37*
M02*
