G04 #@! TF.GenerationSoftware,KiCad,Pcbnew,8.0.5*
G04 #@! TF.CreationDate,2024-11-12T11:03:32-05:00*
G04 #@! TF.ProjectId,DacAmp,44616341-6d70-42e6-9b69-6361645f7063,rev?*
G04 #@! TF.SameCoordinates,Original*
G04 #@! TF.FileFunction,Legend,Bot*
G04 #@! TF.FilePolarity,Positive*
%FSLAX46Y46*%
G04 Gerber Fmt 4.6, Leading zero omitted, Abs format (unit mm)*
G04 Created by KiCad (PCBNEW 8.0.5) date 2024-11-12 11:03:32*
%MOMM*%
%LPD*%
G01*
G04 APERTURE LIST*
G04 Aperture macros list*
%AMRoundRect*
0 Rectangle with rounded corners*
0 $1 Rounding radius*
0 $2 $3 $4 $5 $6 $7 $8 $9 X,Y pos of 4 corners*
0 Add a 4 corners polygon primitive as box body*
4,1,4,$2,$3,$4,$5,$6,$7,$8,$9,$2,$3,0*
0 Add four circle primitives for the rounded corners*
1,1,$1+$1,$2,$3*
1,1,$1+$1,$4,$5*
1,1,$1+$1,$6,$7*
1,1,$1+$1,$8,$9*
0 Add four rect primitives between the rounded corners*
20,1,$1+$1,$2,$3,$4,$5,0*
20,1,$1+$1,$4,$5,$6,$7,0*
20,1,$1+$1,$6,$7,$8,$9,0*
20,1,$1+$1,$8,$9,$2,$3,0*%
G04 Aperture macros list end*
%ADD10C,0.120000*%
%ADD11C,0.499999*%
%ADD12C,4.500000*%
%ADD13R,1.600000X1.600000*%
%ADD14C,1.600000*%
%ADD15C,1.700000*%
%ADD16C,2.004000*%
%ADD17R,1.700000X1.700000*%
%ADD18C,3.500000*%
%ADD19RoundRect,0.250000X-0.337500X-0.475000X0.337500X-0.475000X0.337500X0.475000X-0.337500X0.475000X0*%
%ADD20RoundRect,0.155000X-0.212500X-0.155000X0.212500X-0.155000X0.212500X0.155000X-0.212500X0.155000X0*%
%ADD21RoundRect,0.155000X0.212500X0.155000X-0.212500X0.155000X-0.212500X-0.155000X0.212500X-0.155000X0*%
G04 APERTURE END LIST*
D10*
X84248852Y-51579400D02*
X83726348Y-51579400D01*
X84248852Y-53049400D02*
X83726348Y-53049400D01*
X84739235Y-59147200D02*
X84507565Y-59147200D01*
X84739235Y-59867200D02*
X84507565Y-59867200D01*
X89765565Y-51881600D02*
X89997235Y-51881600D01*
X89765565Y-52601600D02*
X89997235Y-52601600D01*
%LPC*%
D11*
X129027799Y-47527003D03*
X128327800Y-47027003D03*
X129727803Y-47027003D03*
X129027799Y-46527003D03*
D12*
X40277800Y-32807800D03*
X135527800Y-119167800D03*
D13*
X55876800Y-80177225D03*
D14*
X55876800Y-78177225D03*
D12*
X40277800Y-119167800D03*
D13*
X97626498Y-104807800D03*
D14*
X101126498Y-104807800D03*
D15*
X115419000Y-113094000D03*
X115419000Y-120094000D03*
D13*
X39351000Y-99197575D03*
D14*
X39351000Y-101197575D03*
D12*
X135527800Y-32807800D03*
D16*
X58654800Y-122606800D03*
X63654800Y-122606800D03*
X68654800Y-122606800D03*
X58654800Y-117606800D03*
X63654800Y-117606800D03*
X68654800Y-117606800D03*
D13*
X54264000Y-99197575D03*
D14*
X54264000Y-101197575D03*
D13*
X69723000Y-83449575D03*
D14*
X69723000Y-85449575D03*
D17*
X86557800Y-40266000D03*
D15*
X89057800Y-40266000D03*
X89057800Y-38266000D03*
X86557800Y-38266000D03*
D18*
X81787800Y-35556000D03*
X93827800Y-35556000D03*
D13*
X124195800Y-76609302D03*
D14*
X124195800Y-73109302D03*
D13*
X41040000Y-80177225D03*
D14*
X41040000Y-78177225D03*
D13*
X69700800Y-97703225D03*
D14*
X69700800Y-99703225D03*
D13*
X127090498Y-104528800D03*
D14*
X130590498Y-104528800D03*
D19*
X82950100Y-52314400D03*
X85025100Y-52314400D03*
D20*
X84055900Y-59507200D03*
X85190900Y-59507200D03*
D21*
X90448900Y-52241600D03*
X89313900Y-52241600D03*
%LPD*%
M02*
