%TF.GenerationSoftware,KiCad,Pcbnew,8.0.5*%
%TF.CreationDate,2024-11-13T10:27:54-05:00*%
%TF.ProjectId,DacAmp,44616341-6d70-42e6-9b69-6361645f7063,rev?*%
%TF.SameCoordinates,Original*%
%TF.FileFunction,Drillmap*%
%TF.FilePolarity,Positive*%
%FSLAX45Y45*%
G04 Gerber Fmt 4.5, Leading zero omitted, Abs format (unit mm)*
G04 Created by KiCad (PCBNEW 8.0.5) date 2024-11-13 10:27:54*
%MOMM*%
%LPD*%
G01*
G04 APERTURE LIST*
%ADD10C,0.050000*%
%ADD11C,0.200000*%
%ADD12C,0.170000*%
G04 APERTURE END LIST*
D10*
X19642240Y-9956240D02*
G75*
G02*
X19142240Y-10456240I-500000J0D01*
G01*
X10442240Y-3906240D02*
G75*
G02*
X10942240Y-3406240I500000J0D01*
G01*
X19642240Y-3906240D02*
X19642240Y-9956240D01*
X10942240Y-3406240D02*
X19142240Y-3406240D01*
X19142240Y-10456240D02*
X10942240Y-10456240D01*
X10942240Y-10456240D02*
G75*
G02*
X10442240Y-9956240I0J500000D01*
G01*
X19142240Y-3406240D02*
G75*
G02*
X19642240Y-3906240I0J-500000D01*
G01*
X10442240Y-9956240D02*
X10442240Y-3906240D01*
D11*
D12*
X12543900Y-9050400D02*
X12713900Y-9220400D01*
X12713900Y-9050400D02*
X12543900Y-9220400D01*
X12543900Y-9750400D02*
X12713900Y-9920400D01*
X12713900Y-9750400D02*
X12543900Y-9920400D01*
D11*
X10700517Y-10770224D02*
X10700517Y-10570224D01*
X10700517Y-10570224D02*
X10748136Y-10570224D01*
X10748136Y-10570224D02*
X10776707Y-10579748D01*
X10776707Y-10579748D02*
X10795755Y-10598795D01*
X10795755Y-10598795D02*
X10805279Y-10617843D01*
X10805279Y-10617843D02*
X10814803Y-10655938D01*
X10814803Y-10655938D02*
X10814803Y-10684510D01*
X10814803Y-10684510D02*
X10805279Y-10722605D01*
X10805279Y-10722605D02*
X10795755Y-10741652D01*
X10795755Y-10741652D02*
X10776707Y-10760700D01*
X10776707Y-10760700D02*
X10748136Y-10770224D01*
X10748136Y-10770224D02*
X10700517Y-10770224D01*
X10900517Y-10770224D02*
X10900517Y-10636890D01*
X10900517Y-10674986D02*
X10910041Y-10655938D01*
X10910041Y-10655938D02*
X10919564Y-10646414D01*
X10919564Y-10646414D02*
X10938612Y-10636890D01*
X10938612Y-10636890D02*
X10957660Y-10636890D01*
X11024326Y-10770224D02*
X11024326Y-10636890D01*
X11024326Y-10570224D02*
X11014803Y-10579748D01*
X11014803Y-10579748D02*
X11024326Y-10589271D01*
X11024326Y-10589271D02*
X11033850Y-10579748D01*
X11033850Y-10579748D02*
X11024326Y-10570224D01*
X11024326Y-10570224D02*
X11024326Y-10589271D01*
X11148136Y-10770224D02*
X11129088Y-10760700D01*
X11129088Y-10760700D02*
X11119564Y-10741652D01*
X11119564Y-10741652D02*
X11119564Y-10570224D01*
X11252898Y-10770224D02*
X11233850Y-10760700D01*
X11233850Y-10760700D02*
X11224326Y-10741652D01*
X11224326Y-10741652D02*
X11224326Y-10570224D01*
X11481469Y-10770224D02*
X11481469Y-10570224D01*
X11481469Y-10570224D02*
X11548136Y-10713081D01*
X11548136Y-10713081D02*
X11614802Y-10570224D01*
X11614802Y-10570224D02*
X11614802Y-10770224D01*
X11795755Y-10770224D02*
X11795755Y-10665462D01*
X11795755Y-10665462D02*
X11786231Y-10646414D01*
X11786231Y-10646414D02*
X11767183Y-10636890D01*
X11767183Y-10636890D02*
X11729088Y-10636890D01*
X11729088Y-10636890D02*
X11710041Y-10646414D01*
X11795755Y-10760700D02*
X11776707Y-10770224D01*
X11776707Y-10770224D02*
X11729088Y-10770224D01*
X11729088Y-10770224D02*
X11710041Y-10760700D01*
X11710041Y-10760700D02*
X11700517Y-10741652D01*
X11700517Y-10741652D02*
X11700517Y-10722605D01*
X11700517Y-10722605D02*
X11710041Y-10703557D01*
X11710041Y-10703557D02*
X11729088Y-10694033D01*
X11729088Y-10694033D02*
X11776707Y-10694033D01*
X11776707Y-10694033D02*
X11795755Y-10684510D01*
X11890993Y-10636890D02*
X11890993Y-10836890D01*
X11890993Y-10646414D02*
X11910041Y-10636890D01*
X11910041Y-10636890D02*
X11948136Y-10636890D01*
X11948136Y-10636890D02*
X11967183Y-10646414D01*
X11967183Y-10646414D02*
X11976707Y-10655938D01*
X11976707Y-10655938D02*
X11986231Y-10674986D01*
X11986231Y-10674986D02*
X11986231Y-10732129D01*
X11986231Y-10732129D02*
X11976707Y-10751176D01*
X11976707Y-10751176D02*
X11967183Y-10760700D01*
X11967183Y-10760700D02*
X11948136Y-10770224D01*
X11948136Y-10770224D02*
X11910041Y-10770224D01*
X11910041Y-10770224D02*
X11890993Y-10760700D01*
X12071945Y-10751176D02*
X12081469Y-10760700D01*
X12081469Y-10760700D02*
X12071945Y-10770224D01*
X12071945Y-10770224D02*
X12062422Y-10760700D01*
X12062422Y-10760700D02*
X12071945Y-10751176D01*
X12071945Y-10751176D02*
X12071945Y-10770224D01*
X12071945Y-10646414D02*
X12081469Y-10655938D01*
X12081469Y-10655938D02*
X12071945Y-10665462D01*
X12071945Y-10665462D02*
X12062422Y-10655938D01*
X12062422Y-10655938D02*
X12071945Y-10646414D01*
X12071945Y-10646414D02*
X12071945Y-10665462D01*
D12*
X10269740Y-11013740D02*
X10439740Y-11183740D01*
X10439740Y-11013740D02*
X10269740Y-11183740D01*
D11*
X10805279Y-11190224D02*
X10690993Y-11190224D01*
X10748136Y-11190224D02*
X10748136Y-10990224D01*
X10748136Y-10990224D02*
X10729088Y-11018795D01*
X10729088Y-11018795D02*
X10710041Y-11037843D01*
X10710041Y-11037843D02*
X10690993Y-11047367D01*
X10890993Y-11171176D02*
X10900517Y-11180700D01*
X10900517Y-11180700D02*
X10890993Y-11190224D01*
X10890993Y-11190224D02*
X10881469Y-11180700D01*
X10881469Y-11180700D02*
X10890993Y-11171176D01*
X10890993Y-11171176D02*
X10890993Y-11190224D01*
X10967184Y-10990224D02*
X11100517Y-10990224D01*
X11100517Y-10990224D02*
X11014803Y-11190224D01*
X11214802Y-10990224D02*
X11233850Y-10990224D01*
X11233850Y-10990224D02*
X11252898Y-10999748D01*
X11252898Y-10999748D02*
X11262422Y-11009271D01*
X11262422Y-11009271D02*
X11271945Y-11028319D01*
X11271945Y-11028319D02*
X11281469Y-11066414D01*
X11281469Y-11066414D02*
X11281469Y-11114033D01*
X11281469Y-11114033D02*
X11271945Y-11152129D01*
X11271945Y-11152129D02*
X11262422Y-11171176D01*
X11262422Y-11171176D02*
X11252898Y-11180700D01*
X11252898Y-11180700D02*
X11233850Y-11190224D01*
X11233850Y-11190224D02*
X11214802Y-11190224D01*
X11214802Y-11190224D02*
X11195755Y-11180700D01*
X11195755Y-11180700D02*
X11186231Y-11171176D01*
X11186231Y-11171176D02*
X11176707Y-11152129D01*
X11176707Y-11152129D02*
X11167184Y-11114033D01*
X11167184Y-11114033D02*
X11167184Y-11066414D01*
X11167184Y-11066414D02*
X11176707Y-11028319D01*
X11176707Y-11028319D02*
X11186231Y-11009271D01*
X11186231Y-11009271D02*
X11195755Y-10999748D01*
X11195755Y-10999748D02*
X11214802Y-10990224D01*
X11405279Y-10990224D02*
X11424326Y-10990224D01*
X11424326Y-10990224D02*
X11443374Y-10999748D01*
X11443374Y-10999748D02*
X11452898Y-11009271D01*
X11452898Y-11009271D02*
X11462422Y-11028319D01*
X11462422Y-11028319D02*
X11471945Y-11066414D01*
X11471945Y-11066414D02*
X11471945Y-11114033D01*
X11471945Y-11114033D02*
X11462422Y-11152129D01*
X11462422Y-11152129D02*
X11452898Y-11171176D01*
X11452898Y-11171176D02*
X11443374Y-11180700D01*
X11443374Y-11180700D02*
X11424326Y-11190224D01*
X11424326Y-11190224D02*
X11405279Y-11190224D01*
X11405279Y-11190224D02*
X11386231Y-11180700D01*
X11386231Y-11180700D02*
X11376707Y-11171176D01*
X11376707Y-11171176D02*
X11367183Y-11152129D01*
X11367183Y-11152129D02*
X11357660Y-11114033D01*
X11357660Y-11114033D02*
X11357660Y-11066414D01*
X11357660Y-11066414D02*
X11367183Y-11028319D01*
X11367183Y-11028319D02*
X11376707Y-11009271D01*
X11376707Y-11009271D02*
X11386231Y-10999748D01*
X11386231Y-10999748D02*
X11405279Y-10990224D01*
X11557660Y-11190224D02*
X11557660Y-11056890D01*
X11557660Y-11075938D02*
X11567183Y-11066414D01*
X11567183Y-11066414D02*
X11586231Y-11056890D01*
X11586231Y-11056890D02*
X11614803Y-11056890D01*
X11614803Y-11056890D02*
X11633850Y-11066414D01*
X11633850Y-11066414D02*
X11643374Y-11085462D01*
X11643374Y-11085462D02*
X11643374Y-11190224D01*
X11643374Y-11085462D02*
X11652898Y-11066414D01*
X11652898Y-11066414D02*
X11671945Y-11056890D01*
X11671945Y-11056890D02*
X11700517Y-11056890D01*
X11700517Y-11056890D02*
X11719564Y-11066414D01*
X11719564Y-11066414D02*
X11729088Y-11085462D01*
X11729088Y-11085462D02*
X11729088Y-11190224D01*
X11824326Y-11190224D02*
X11824326Y-11056890D01*
X11824326Y-11075938D02*
X11833850Y-11066414D01*
X11833850Y-11066414D02*
X11852898Y-11056890D01*
X11852898Y-11056890D02*
X11881469Y-11056890D01*
X11881469Y-11056890D02*
X11900517Y-11066414D01*
X11900517Y-11066414D02*
X11910041Y-11085462D01*
X11910041Y-11085462D02*
X11910041Y-11190224D01*
X11910041Y-11085462D02*
X11919564Y-11066414D01*
X11919564Y-11066414D02*
X11938612Y-11056890D01*
X11938612Y-11056890D02*
X11967183Y-11056890D01*
X11967183Y-11056890D02*
X11986231Y-11066414D01*
X11986231Y-11066414D02*
X11995755Y-11085462D01*
X11995755Y-11085462D02*
X11995755Y-11190224D01*
X12386231Y-10980700D02*
X12214803Y-11237843D01*
X12643374Y-10990224D02*
X12662422Y-10990224D01*
X12662422Y-10990224D02*
X12681469Y-10999748D01*
X12681469Y-10999748D02*
X12690993Y-11009271D01*
X12690993Y-11009271D02*
X12700517Y-11028319D01*
X12700517Y-11028319D02*
X12710041Y-11066414D01*
X12710041Y-11066414D02*
X12710041Y-11114033D01*
X12710041Y-11114033D02*
X12700517Y-11152129D01*
X12700517Y-11152129D02*
X12690993Y-11171176D01*
X12690993Y-11171176D02*
X12681469Y-11180700D01*
X12681469Y-11180700D02*
X12662422Y-11190224D01*
X12662422Y-11190224D02*
X12643374Y-11190224D01*
X12643374Y-11190224D02*
X12624326Y-11180700D01*
X12624326Y-11180700D02*
X12614803Y-11171176D01*
X12614803Y-11171176D02*
X12605279Y-11152129D01*
X12605279Y-11152129D02*
X12595755Y-11114033D01*
X12595755Y-11114033D02*
X12595755Y-11066414D01*
X12595755Y-11066414D02*
X12605279Y-11028319D01*
X12605279Y-11028319D02*
X12614803Y-11009271D01*
X12614803Y-11009271D02*
X12624326Y-10999748D01*
X12624326Y-10999748D02*
X12643374Y-10990224D01*
X12795755Y-11171176D02*
X12805279Y-11180700D01*
X12805279Y-11180700D02*
X12795755Y-11190224D01*
X12795755Y-11190224D02*
X12786231Y-11180700D01*
X12786231Y-11180700D02*
X12795755Y-11171176D01*
X12795755Y-11171176D02*
X12795755Y-11190224D01*
X12929088Y-10990224D02*
X12948136Y-10990224D01*
X12948136Y-10990224D02*
X12967184Y-10999748D01*
X12967184Y-10999748D02*
X12976707Y-11009271D01*
X12976707Y-11009271D02*
X12986231Y-11028319D01*
X12986231Y-11028319D02*
X12995755Y-11066414D01*
X12995755Y-11066414D02*
X12995755Y-11114033D01*
X12995755Y-11114033D02*
X12986231Y-11152129D01*
X12986231Y-11152129D02*
X12976707Y-11171176D01*
X12976707Y-11171176D02*
X12967184Y-11180700D01*
X12967184Y-11180700D02*
X12948136Y-11190224D01*
X12948136Y-11190224D02*
X12929088Y-11190224D01*
X12929088Y-11190224D02*
X12910041Y-11180700D01*
X12910041Y-11180700D02*
X12900517Y-11171176D01*
X12900517Y-11171176D02*
X12890993Y-11152129D01*
X12890993Y-11152129D02*
X12881469Y-11114033D01*
X12881469Y-11114033D02*
X12881469Y-11066414D01*
X12881469Y-11066414D02*
X12890993Y-11028319D01*
X12890993Y-11028319D02*
X12900517Y-11009271D01*
X12900517Y-11009271D02*
X12910041Y-10999748D01*
X12910041Y-10999748D02*
X12929088Y-10990224D01*
X13167184Y-10990224D02*
X13129088Y-10990224D01*
X13129088Y-10990224D02*
X13110041Y-10999748D01*
X13110041Y-10999748D02*
X13100517Y-11009271D01*
X13100517Y-11009271D02*
X13081469Y-11037843D01*
X13081469Y-11037843D02*
X13071946Y-11075938D01*
X13071946Y-11075938D02*
X13071946Y-11152129D01*
X13071946Y-11152129D02*
X13081469Y-11171176D01*
X13081469Y-11171176D02*
X13090993Y-11180700D01*
X13090993Y-11180700D02*
X13110041Y-11190224D01*
X13110041Y-11190224D02*
X13148136Y-11190224D01*
X13148136Y-11190224D02*
X13167184Y-11180700D01*
X13167184Y-11180700D02*
X13176707Y-11171176D01*
X13176707Y-11171176D02*
X13186231Y-11152129D01*
X13186231Y-11152129D02*
X13186231Y-11104510D01*
X13186231Y-11104510D02*
X13176707Y-11085462D01*
X13176707Y-11085462D02*
X13167184Y-11075938D01*
X13167184Y-11075938D02*
X13148136Y-11066414D01*
X13148136Y-11066414D02*
X13110041Y-11066414D01*
X13110041Y-11066414D02*
X13090993Y-11075938D01*
X13090993Y-11075938D02*
X13081469Y-11085462D01*
X13081469Y-11085462D02*
X13071946Y-11104510D01*
X13357660Y-10990224D02*
X13319565Y-10990224D01*
X13319565Y-10990224D02*
X13300517Y-10999748D01*
X13300517Y-10999748D02*
X13290993Y-11009271D01*
X13290993Y-11009271D02*
X13271946Y-11037843D01*
X13271946Y-11037843D02*
X13262422Y-11075938D01*
X13262422Y-11075938D02*
X13262422Y-11152129D01*
X13262422Y-11152129D02*
X13271946Y-11171176D01*
X13271946Y-11171176D02*
X13281469Y-11180700D01*
X13281469Y-11180700D02*
X13300517Y-11190224D01*
X13300517Y-11190224D02*
X13338612Y-11190224D01*
X13338612Y-11190224D02*
X13357660Y-11180700D01*
X13357660Y-11180700D02*
X13367184Y-11171176D01*
X13367184Y-11171176D02*
X13376707Y-11152129D01*
X13376707Y-11152129D02*
X13376707Y-11104510D01*
X13376707Y-11104510D02*
X13367184Y-11085462D01*
X13367184Y-11085462D02*
X13357660Y-11075938D01*
X13357660Y-11075938D02*
X13338612Y-11066414D01*
X13338612Y-11066414D02*
X13300517Y-11066414D01*
X13300517Y-11066414D02*
X13281469Y-11075938D01*
X13281469Y-11075938D02*
X13271946Y-11085462D01*
X13271946Y-11085462D02*
X13262422Y-11104510D01*
X13471946Y-11190224D02*
X13510041Y-11190224D01*
X13510041Y-11190224D02*
X13529088Y-11180700D01*
X13529088Y-11180700D02*
X13538612Y-11171176D01*
X13538612Y-11171176D02*
X13557660Y-11142605D01*
X13557660Y-11142605D02*
X13567184Y-11104510D01*
X13567184Y-11104510D02*
X13567184Y-11028319D01*
X13567184Y-11028319D02*
X13557660Y-11009271D01*
X13557660Y-11009271D02*
X13548136Y-10999748D01*
X13548136Y-10999748D02*
X13529088Y-10990224D01*
X13529088Y-10990224D02*
X13490993Y-10990224D01*
X13490993Y-10990224D02*
X13471946Y-10999748D01*
X13471946Y-10999748D02*
X13462422Y-11009271D01*
X13462422Y-11009271D02*
X13452898Y-11028319D01*
X13452898Y-11028319D02*
X13452898Y-11075938D01*
X13452898Y-11075938D02*
X13462422Y-11094986D01*
X13462422Y-11094986D02*
X13471946Y-11104510D01*
X13471946Y-11104510D02*
X13490993Y-11114033D01*
X13490993Y-11114033D02*
X13529088Y-11114033D01*
X13529088Y-11114033D02*
X13548136Y-11104510D01*
X13548136Y-11104510D02*
X13557660Y-11094986D01*
X13557660Y-11094986D02*
X13567184Y-11075938D01*
X13643374Y-10990224D02*
X13643374Y-11028319D01*
X13719565Y-10990224D02*
X13719565Y-11028319D01*
X14014803Y-11266414D02*
X14005279Y-11256890D01*
X14005279Y-11256890D02*
X13986231Y-11228319D01*
X13986231Y-11228319D02*
X13976708Y-11209271D01*
X13976708Y-11209271D02*
X13967184Y-11180700D01*
X13967184Y-11180700D02*
X13957660Y-11133081D01*
X13957660Y-11133081D02*
X13957660Y-11094986D01*
X13957660Y-11094986D02*
X13967184Y-11047367D01*
X13967184Y-11047367D02*
X13976708Y-11018795D01*
X13976708Y-11018795D02*
X13986231Y-10999748D01*
X13986231Y-10999748D02*
X14005279Y-10971176D01*
X14005279Y-10971176D02*
X14014803Y-10961652D01*
X14081469Y-11009271D02*
X14090993Y-10999748D01*
X14090993Y-10999748D02*
X14110041Y-10990224D01*
X14110041Y-10990224D02*
X14157660Y-10990224D01*
X14157660Y-10990224D02*
X14176708Y-10999748D01*
X14176708Y-10999748D02*
X14186231Y-11009271D01*
X14186231Y-11009271D02*
X14195755Y-11028319D01*
X14195755Y-11028319D02*
X14195755Y-11047367D01*
X14195755Y-11047367D02*
X14186231Y-11075938D01*
X14186231Y-11075938D02*
X14071946Y-11190224D01*
X14071946Y-11190224D02*
X14195755Y-11190224D01*
X14433850Y-11190224D02*
X14433850Y-10990224D01*
X14519565Y-11190224D02*
X14519565Y-11085462D01*
X14519565Y-11085462D02*
X14510041Y-11066414D01*
X14510041Y-11066414D02*
X14490993Y-11056890D01*
X14490993Y-11056890D02*
X14462422Y-11056890D01*
X14462422Y-11056890D02*
X14443374Y-11066414D01*
X14443374Y-11066414D02*
X14433850Y-11075938D01*
X14643374Y-11190224D02*
X14624327Y-11180700D01*
X14624327Y-11180700D02*
X14614803Y-11171176D01*
X14614803Y-11171176D02*
X14605279Y-11152129D01*
X14605279Y-11152129D02*
X14605279Y-11094986D01*
X14605279Y-11094986D02*
X14614803Y-11075938D01*
X14614803Y-11075938D02*
X14624327Y-11066414D01*
X14624327Y-11066414D02*
X14643374Y-11056890D01*
X14643374Y-11056890D02*
X14671946Y-11056890D01*
X14671946Y-11056890D02*
X14690993Y-11066414D01*
X14690993Y-11066414D02*
X14700517Y-11075938D01*
X14700517Y-11075938D02*
X14710041Y-11094986D01*
X14710041Y-11094986D02*
X14710041Y-11152129D01*
X14710041Y-11152129D02*
X14700517Y-11171176D01*
X14700517Y-11171176D02*
X14690993Y-11180700D01*
X14690993Y-11180700D02*
X14671946Y-11190224D01*
X14671946Y-11190224D02*
X14643374Y-11190224D01*
X14824327Y-11190224D02*
X14805279Y-11180700D01*
X14805279Y-11180700D02*
X14795755Y-11161652D01*
X14795755Y-11161652D02*
X14795755Y-10990224D01*
X14976708Y-11180700D02*
X14957660Y-11190224D01*
X14957660Y-11190224D02*
X14919565Y-11190224D01*
X14919565Y-11190224D02*
X14900517Y-11180700D01*
X14900517Y-11180700D02*
X14890993Y-11161652D01*
X14890993Y-11161652D02*
X14890993Y-11085462D01*
X14890993Y-11085462D02*
X14900517Y-11066414D01*
X14900517Y-11066414D02*
X14919565Y-11056890D01*
X14919565Y-11056890D02*
X14957660Y-11056890D01*
X14957660Y-11056890D02*
X14976708Y-11066414D01*
X14976708Y-11066414D02*
X14986231Y-11085462D01*
X14986231Y-11085462D02*
X14986231Y-11104510D01*
X14986231Y-11104510D02*
X14890993Y-11123557D01*
X15062422Y-11180700D02*
X15081470Y-11190224D01*
X15081470Y-11190224D02*
X15119565Y-11190224D01*
X15119565Y-11190224D02*
X15138612Y-11180700D01*
X15138612Y-11180700D02*
X15148136Y-11161652D01*
X15148136Y-11161652D02*
X15148136Y-11152129D01*
X15148136Y-11152129D02*
X15138612Y-11133081D01*
X15138612Y-11133081D02*
X15119565Y-11123557D01*
X15119565Y-11123557D02*
X15090993Y-11123557D01*
X15090993Y-11123557D02*
X15071946Y-11114033D01*
X15071946Y-11114033D02*
X15062422Y-11094986D01*
X15062422Y-11094986D02*
X15062422Y-11085462D01*
X15062422Y-11085462D02*
X15071946Y-11066414D01*
X15071946Y-11066414D02*
X15090993Y-11056890D01*
X15090993Y-11056890D02*
X15119565Y-11056890D01*
X15119565Y-11056890D02*
X15138612Y-11066414D01*
X15214803Y-11266414D02*
X15224327Y-11256890D01*
X15224327Y-11256890D02*
X15243374Y-11228319D01*
X15243374Y-11228319D02*
X15252898Y-11209271D01*
X15252898Y-11209271D02*
X15262422Y-11180700D01*
X15262422Y-11180700D02*
X15271946Y-11133081D01*
X15271946Y-11133081D02*
X15271946Y-11094986D01*
X15271946Y-11094986D02*
X15262422Y-11047367D01*
X15262422Y-11047367D02*
X15252898Y-11018795D01*
X15252898Y-11018795D02*
X15243374Y-10999748D01*
X15243374Y-10999748D02*
X15224327Y-10971176D01*
X15224327Y-10971176D02*
X15214803Y-10961652D01*
X15576708Y-11266414D02*
X15567184Y-11256890D01*
X15567184Y-11256890D02*
X15548136Y-11228319D01*
X15548136Y-11228319D02*
X15538612Y-11209271D01*
X15538612Y-11209271D02*
X15529089Y-11180700D01*
X15529089Y-11180700D02*
X15519565Y-11133081D01*
X15519565Y-11133081D02*
X15519565Y-11094986D01*
X15519565Y-11094986D02*
X15529089Y-11047367D01*
X15529089Y-11047367D02*
X15538612Y-11018795D01*
X15538612Y-11018795D02*
X15548136Y-10999748D01*
X15548136Y-10999748D02*
X15567184Y-10971176D01*
X15567184Y-10971176D02*
X15576708Y-10961652D01*
X15652898Y-11056890D02*
X15652898Y-11190224D01*
X15652898Y-11075938D02*
X15662422Y-11066414D01*
X15662422Y-11066414D02*
X15681470Y-11056890D01*
X15681470Y-11056890D02*
X15710041Y-11056890D01*
X15710041Y-11056890D02*
X15729089Y-11066414D01*
X15729089Y-11066414D02*
X15738612Y-11085462D01*
X15738612Y-11085462D02*
X15738612Y-11190224D01*
X15862422Y-11190224D02*
X15843374Y-11180700D01*
X15843374Y-11180700D02*
X15833851Y-11171176D01*
X15833851Y-11171176D02*
X15824327Y-11152129D01*
X15824327Y-11152129D02*
X15824327Y-11094986D01*
X15824327Y-11094986D02*
X15833851Y-11075938D01*
X15833851Y-11075938D02*
X15843374Y-11066414D01*
X15843374Y-11066414D02*
X15862422Y-11056890D01*
X15862422Y-11056890D02*
X15890993Y-11056890D01*
X15890993Y-11056890D02*
X15910041Y-11066414D01*
X15910041Y-11066414D02*
X15919565Y-11075938D01*
X15919565Y-11075938D02*
X15929089Y-11094986D01*
X15929089Y-11094986D02*
X15929089Y-11152129D01*
X15929089Y-11152129D02*
X15919565Y-11171176D01*
X15919565Y-11171176D02*
X15910041Y-11180700D01*
X15910041Y-11180700D02*
X15890993Y-11190224D01*
X15890993Y-11190224D02*
X15862422Y-11190224D01*
X15986232Y-11056890D02*
X16062422Y-11056890D01*
X16014803Y-10990224D02*
X16014803Y-11161652D01*
X16014803Y-11161652D02*
X16024327Y-11180700D01*
X16024327Y-11180700D02*
X16043374Y-11190224D01*
X16043374Y-11190224D02*
X16062422Y-11190224D01*
X16281470Y-11056890D02*
X16281470Y-11256890D01*
X16281470Y-11066414D02*
X16300517Y-11056890D01*
X16300517Y-11056890D02*
X16338613Y-11056890D01*
X16338613Y-11056890D02*
X16357660Y-11066414D01*
X16357660Y-11066414D02*
X16367184Y-11075938D01*
X16367184Y-11075938D02*
X16376708Y-11094986D01*
X16376708Y-11094986D02*
X16376708Y-11152129D01*
X16376708Y-11152129D02*
X16367184Y-11171176D01*
X16367184Y-11171176D02*
X16357660Y-11180700D01*
X16357660Y-11180700D02*
X16338613Y-11190224D01*
X16338613Y-11190224D02*
X16300517Y-11190224D01*
X16300517Y-11190224D02*
X16281470Y-11180700D01*
X16490993Y-11190224D02*
X16471946Y-11180700D01*
X16471946Y-11180700D02*
X16462422Y-11161652D01*
X16462422Y-11161652D02*
X16462422Y-10990224D01*
X16652898Y-11190224D02*
X16652898Y-11085462D01*
X16652898Y-11085462D02*
X16643374Y-11066414D01*
X16643374Y-11066414D02*
X16624327Y-11056890D01*
X16624327Y-11056890D02*
X16586232Y-11056890D01*
X16586232Y-11056890D02*
X16567184Y-11066414D01*
X16652898Y-11180700D02*
X16633851Y-11190224D01*
X16633851Y-11190224D02*
X16586232Y-11190224D01*
X16586232Y-11190224D02*
X16567184Y-11180700D01*
X16567184Y-11180700D02*
X16557660Y-11161652D01*
X16557660Y-11161652D02*
X16557660Y-11142605D01*
X16557660Y-11142605D02*
X16567184Y-11123557D01*
X16567184Y-11123557D02*
X16586232Y-11114033D01*
X16586232Y-11114033D02*
X16633851Y-11114033D01*
X16633851Y-11114033D02*
X16652898Y-11104510D01*
X16719565Y-11056890D02*
X16795755Y-11056890D01*
X16748136Y-10990224D02*
X16748136Y-11161652D01*
X16748136Y-11161652D02*
X16757660Y-11180700D01*
X16757660Y-11180700D02*
X16776708Y-11190224D01*
X16776708Y-11190224D02*
X16795755Y-11190224D01*
X16938613Y-11180700D02*
X16919565Y-11190224D01*
X16919565Y-11190224D02*
X16881470Y-11190224D01*
X16881470Y-11190224D02*
X16862422Y-11180700D01*
X16862422Y-11180700D02*
X16852898Y-11161652D01*
X16852898Y-11161652D02*
X16852898Y-11085462D01*
X16852898Y-11085462D02*
X16862422Y-11066414D01*
X16862422Y-11066414D02*
X16881470Y-11056890D01*
X16881470Y-11056890D02*
X16919565Y-11056890D01*
X16919565Y-11056890D02*
X16938613Y-11066414D01*
X16938613Y-11066414D02*
X16948136Y-11085462D01*
X16948136Y-11085462D02*
X16948136Y-11104510D01*
X16948136Y-11104510D02*
X16852898Y-11123557D01*
X17119565Y-11190224D02*
X17119565Y-10990224D01*
X17119565Y-11180700D02*
X17100517Y-11190224D01*
X17100517Y-11190224D02*
X17062422Y-11190224D01*
X17062422Y-11190224D02*
X17043375Y-11180700D01*
X17043375Y-11180700D02*
X17033851Y-11171176D01*
X17033851Y-11171176D02*
X17024327Y-11152129D01*
X17024327Y-11152129D02*
X17024327Y-11094986D01*
X17024327Y-11094986D02*
X17033851Y-11075938D01*
X17033851Y-11075938D02*
X17043375Y-11066414D01*
X17043375Y-11066414D02*
X17062422Y-11056890D01*
X17062422Y-11056890D02*
X17100517Y-11056890D01*
X17100517Y-11056890D02*
X17119565Y-11066414D01*
X17195756Y-11266414D02*
X17205279Y-11256890D01*
X17205279Y-11256890D02*
X17224327Y-11228319D01*
X17224327Y-11228319D02*
X17233851Y-11209271D01*
X17233851Y-11209271D02*
X17243375Y-11180700D01*
X17243375Y-11180700D02*
X17252898Y-11133081D01*
X17252898Y-11133081D02*
X17252898Y-11094986D01*
X17252898Y-11094986D02*
X17243375Y-11047367D01*
X17243375Y-11047367D02*
X17233851Y-11018795D01*
X17233851Y-11018795D02*
X17224327Y-10999748D01*
X17224327Y-10999748D02*
X17205279Y-10971176D01*
X17205279Y-10971176D02*
X17195756Y-10961652D01*
M02*
