M48
; DRILL file {KiCad 8.0.5} date 2024-11-12T11:03:45-0500
; FORMAT={-:-/ absolute / metric / decimal}
; #@! TF.CreationDate,2024-11-12T11:03:45-05:00
; #@! TF.GenerationSoftware,Kicad,Pcbnew,8.0.5
; #@! TF.FileFunction,Plated,1,4,PTH
FMAT,2
METRIC
; #@! TA.AperFunction,Plated,PTH,ComponentDrill
T1C0.203
; #@! TA.AperFunction,Plated,PTH,ViaDrill
T2C0.300
; #@! TA.AperFunction,Plated,PTH,ViaDrill
T3C0.400
; #@! TA.AperFunction,Plated,PTH,ComponentDrill
T4C0.800
; #@! TA.AperFunction,Plated,PTH,ComponentDrill
T5C0.920
; #@! TA.AperFunction,Plated,PTH,ComponentDrill
T6C1.200
; #@! TA.AperFunction,Plated,PTH,ComponentDrill
T7C2.330
; #@! TA.AperFunction,Plated,PTH,ComponentDrill
T8C2.700
%
G90
G05
T1
X128.328Y-47.027
X129.028Y-46.527
X129.028Y-47.527
X129.728Y-47.027
T2
X36.188Y-88.662
X37.204Y-95.52
X38.347Y-88.408
X42.284Y-88.662
X49.269Y-88.408
X52.063Y-85.614
X52.19Y-88.535
X52.19Y-95.52
X57.27Y-88.281
X72.812Y-84.9
X74.161Y-99.838
X76.955Y-87.265
X77.336Y-101.489
X81.959Y-52.29
X83.051Y-84.979
X83.839Y-46.752
X90.925Y-95.266
X106.292Y-78.502
X113.404Y-82.947
X114.217Y-43.755
T3
X36.188Y-96.282
X36.442Y-42.942
X36.442Y-45.482
X36.442Y-48.022
X36.442Y-50.562
X36.442Y-53.102
X36.442Y-55.642
X36.442Y-58.182
X36.442Y-60.722
X36.442Y-63.262
X36.442Y-65.802
X36.442Y-68.342
X36.442Y-70.882
X36.442Y-73.422
X36.442Y-75.962
X36.442Y-78.502
X36.442Y-81.042
X36.442Y-83.582
X37.103Y-85.564
X38.22Y-96.282
X38.982Y-42.942
X38.982Y-45.482
X38.982Y-48.022
X38.982Y-50.562
X38.982Y-53.102
X38.982Y-55.642
X38.982Y-58.182
X38.982Y-60.722
X38.982Y-63.262
X38.982Y-65.802
X38.982Y-68.342
X38.982Y-70.882
X38.982Y-73.422
X38.982Y-75.962
X38.982Y-78.502
X38.982Y-81.042
X41.141Y-88.789
X41.522Y-42.942
X41.522Y-45.482
X41.522Y-48.022
X41.522Y-50.562
X41.522Y-53.102
X41.522Y-55.642
X41.522Y-58.182
X41.522Y-60.722
X41.522Y-63.262
X41.522Y-65.802
X41.522Y-68.342
X43.427Y-88.535
X43.961Y-90.186
X43.961Y-92.269
X44.062Y-42.942
X44.062Y-45.482
X44.062Y-48.022
X44.062Y-50.562
X44.062Y-53.102
X44.062Y-55.642
X44.062Y-58.182
X44.062Y-60.722
X44.062Y-63.262
X44.062Y-70.882
X44.062Y-73.422
X44.062Y-75.962
X44.062Y-78.502
X44.062Y-81.042
X44.062Y-83.582
X44.062Y-98.822
X44.062Y-101.362
X44.062Y-103.902
X44.062Y-106.442
X44.062Y-108.982
X44.062Y-111.522
X46.602Y-42.942
X46.602Y-45.482
X46.602Y-48.022
X46.602Y-50.562
X46.602Y-53.102
X46.602Y-55.642
X46.602Y-58.182
X46.602Y-60.722
X46.602Y-63.262
X46.602Y-68.342
X46.602Y-70.882
X46.602Y-73.422
X46.602Y-75.962
X46.602Y-78.502
X46.602Y-81.042
X46.602Y-83.582
X46.602Y-98.822
X46.602Y-101.362
X46.602Y-103.902
X46.602Y-106.442
X46.602Y-108.982
X46.602Y-111.522
X49.142Y-30.242
X49.142Y-32.782
X49.142Y-35.322
X49.142Y-37.862
X49.142Y-40.402
X49.142Y-42.942
X49.142Y-45.482
X49.142Y-48.022
X49.142Y-50.562
X49.142Y-53.102
X49.142Y-55.642
X49.142Y-58.182
X49.142Y-60.722
X49.142Y-65.802
X49.142Y-68.342
X49.142Y-70.882
X49.142Y-73.422
X49.142Y-75.962
X49.142Y-78.502
X49.142Y-81.042
X49.142Y-83.582
X49.142Y-98.822
X49.142Y-101.362
X49.142Y-103.902
X49.142Y-106.442
X49.142Y-108.982
X49.142Y-111.522
X49.142Y-114.062
X49.142Y-116.602
X51.174Y-96.155
X51.682Y-30.242
X51.682Y-32.782
X51.682Y-35.322
X51.682Y-37.862
X51.682Y-40.402
X51.682Y-42.942
X51.682Y-45.482
X51.682Y-48.022
X51.682Y-50.562
X51.682Y-53.102
X51.682Y-55.642
X51.682Y-63.262
X51.682Y-65.802
X51.682Y-68.342
X51.682Y-70.882
X51.682Y-73.422
X51.682Y-75.962
X51.682Y-78.502
X51.682Y-81.042
X51.682Y-83.582
X51.682Y-98.822
X51.682Y-101.362
X51.682Y-103.902
X51.682Y-106.442
X51.682Y-108.982
X51.682Y-111.522
X51.682Y-114.062
X51.682Y-116.602
X53.079Y-96.155
X54.222Y-30.242
X54.222Y-32.782
X54.222Y-35.322
X54.222Y-37.862
X54.222Y-40.402
X54.222Y-42.942
X54.222Y-45.482
X54.222Y-48.022
X54.222Y-50.562
X54.222Y-53.102
X54.222Y-55.642
X54.222Y-60.722
X54.222Y-63.262
X54.222Y-65.802
X54.222Y-68.342
X54.222Y-70.882
X54.222Y-73.422
X55.492Y-88.662
X56.762Y-30.242
X56.762Y-32.782
X56.762Y-35.322
X56.762Y-37.862
X56.762Y-40.402
X56.762Y-42.942
X56.762Y-45.482
X56.762Y-48.022
X56.762Y-50.562
X56.762Y-53.102
X56.762Y-55.642
X56.762Y-60.722
X56.762Y-63.262
X56.762Y-65.802
X56.762Y-68.342
X56.762Y-98.822
X56.762Y-101.362
X56.762Y-108.982
X56.762Y-111.522
X58.54Y-88.535
X58.794Y-92.269
X58.845Y-90.186
X59.302Y-30.242
X59.302Y-32.782
X59.302Y-35.322
X59.302Y-37.862
X59.302Y-40.402
X59.302Y-42.942
X59.302Y-45.482
X59.302Y-48.022
X59.302Y-50.562
X59.302Y-53.102
X59.302Y-55.642
X59.302Y-60.722
X59.302Y-63.262
X59.302Y-65.802
X59.302Y-68.342
X59.302Y-73.422
X59.302Y-75.962
X59.302Y-78.502
X59.302Y-81.042
X59.302Y-83.582
X59.302Y-98.822
X59.302Y-101.362
X59.302Y-103.902
X59.302Y-106.442
X59.302Y-108.982
X59.302Y-111.522
X61.842Y-30.242
X61.842Y-32.782
X61.842Y-35.322
X61.842Y-37.862
X61.842Y-40.402
X61.842Y-42.942
X61.842Y-45.482
X61.842Y-48.022
X61.842Y-50.562
X61.842Y-53.102
X61.842Y-55.642
X61.842Y-60.722
X61.842Y-63.262
X61.842Y-70.882
X61.842Y-73.422
X61.842Y-75.962
X61.842Y-78.502
X61.842Y-81.042
X61.842Y-83.582
X61.842Y-103.902
X61.842Y-106.442
X64.382Y-30.242
X64.382Y-32.782
X64.382Y-35.322
X64.382Y-37.862
X64.382Y-40.402
X64.382Y-42.942
X64.382Y-45.482
X64.382Y-48.022
X64.382Y-50.562
X64.382Y-53.102
X64.382Y-55.642
X64.382Y-60.722
X64.382Y-63.262
X64.382Y-70.882
X64.382Y-73.422
X64.382Y-75.962
X64.382Y-78.502
X64.382Y-81.042
X64.382Y-83.582
X66.922Y-30.242
X66.922Y-32.782
X66.922Y-35.322
X66.922Y-37.862
X66.922Y-40.402
X66.922Y-60.722
X66.922Y-63.262
X66.922Y-70.882
X66.922Y-73.422
X66.922Y-75.962
X66.922Y-78.502
X66.922Y-81.042
X66.922Y-83.582
X66.922Y-88.662
X66.922Y-91.202
X66.922Y-96.282
X66.922Y-98.822
X66.922Y-101.362
X66.922Y-103.902
X69.462Y-30.242
X69.462Y-32.782
X69.462Y-35.322
X69.462Y-37.862
X69.462Y-40.402
X69.462Y-60.722
X69.462Y-63.262
X69.462Y-70.882
X69.462Y-73.422
X69.462Y-75.962
X69.462Y-78.502
X69.462Y-88.662
X69.462Y-91.202
X69.462Y-108.982
X69.462Y-111.522
X72.002Y-60.722
X72.002Y-63.262
X72.002Y-70.882
X72.002Y-73.422
X72.002Y-75.962
X72.002Y-78.502
X72.002Y-88.662
X72.002Y-91.202
X72.002Y-103.902
X72.002Y-106.442
X72.002Y-108.982
X74.187Y-47.565
X74.542Y-60.722
X74.542Y-63.262
X74.542Y-70.882
X74.542Y-73.422
X74.542Y-75.962
X74.542Y-78.502
X74.542Y-88.662
X74.542Y-91.202
X74.542Y-103.902
X74.542Y-106.442
X74.542Y-111.522
X74.542Y-114.062
X75.101Y-41.469
X77.082Y-60.722
X77.082Y-63.262
X77.082Y-70.882
X77.082Y-73.422
X77.082Y-75.962
X77.082Y-88.662
X77.082Y-91.202
X77.082Y-103.902
X77.082Y-108.982
X77.082Y-111.522
X77.082Y-116.602
X77.082Y-119.142
X77.082Y-121.682
X77.082Y-124.222
X77.336Y-92.117
X77.59Y-78.096
X79.419Y-92.117
X79.622Y-70.882
X79.622Y-73.422
X79.622Y-75.962
X79.622Y-88.662
X79.622Y-106.442
X79.622Y-108.982
X79.622Y-116.602
X79.622Y-119.142
X79.622Y-121.682
X79.622Y-124.222
X79.673Y-78.096
X81.248Y-48.48
X81.527Y-95.393
X81.527Y-99.203
X82.162Y-70.882
X82.162Y-73.422
X82.162Y-75.962
X82.162Y-78.502
X82.162Y-111.522
X82.162Y-114.062
X82.162Y-116.602
X82.162Y-119.142
X82.162Y-121.682
X82.162Y-124.222
X82.366Y-48.48
X83.28Y-45.99
X83.28Y-64.532
X84.042Y-58.081
X84.042Y-62.094
X84.144Y-48.683
X84.448Y-46.143
X84.702Y-70.882
X84.702Y-73.422
X84.702Y-75.962
X84.702Y-78.502
X84.702Y-111.522
X84.702Y-114.062
X84.702Y-116.602
X84.702Y-119.142
X84.702Y-121.682
X84.702Y-124.222
X85.007Y-53.712
X85.16Y-58.081
X87.242Y-70.882
X87.242Y-73.422
X87.242Y-75.962
X87.242Y-78.502
X87.242Y-98.822
X87.242Y-103.902
X87.242Y-106.442
X87.242Y-108.982
X87.242Y-111.522
X87.242Y-114.062
X87.242Y-116.602
X87.242Y-119.142
X87.242Y-121.682
X87.242Y-124.222
X88.157Y-62.196
X89.02Y-43.704
X89.325Y-53.684
X89.782Y-70.882
X89.782Y-73.422
X89.782Y-75.962
X89.782Y-78.502
X89.782Y-96.282
X89.782Y-98.822
X89.782Y-103.902
X89.782Y-106.442
X89.782Y-108.982
X89.782Y-111.522
X89.782Y-114.062
X89.782Y-116.602
X89.782Y-119.142
X89.782Y-121.682
X89.782Y-124.222
X89.935Y-65.701
X90.29Y-62.094
X90.443Y-53.763
X92.322Y-70.882
X92.322Y-73.422
X92.322Y-75.962
X92.322Y-78.502
X92.322Y-96.282
X92.322Y-98.822
X92.322Y-103.902
X92.322Y-106.442
X92.322Y-108.982
X92.322Y-111.522
X92.322Y-114.062
X92.322Y-116.602
X92.322Y-119.142
X92.322Y-121.682
X92.322Y-124.222
X94.608Y-93.234
X94.608Y-94.758
X94.862Y-55.642
X94.862Y-58.182
X94.862Y-60.722
X94.862Y-63.262
X94.862Y-65.802
X94.862Y-68.342
X94.862Y-70.882
X94.862Y-73.422
X94.862Y-75.962
X94.862Y-78.502
X94.862Y-98.822
X94.862Y-103.902
X94.862Y-106.442
X94.862Y-108.982
X94.862Y-111.522
X94.862Y-114.062
X94.862Y-116.602
X94.862Y-119.142
X94.862Y-121.682
X94.862Y-124.222
X95.574Y-88.358
X95.878Y-43.704
X97.402Y-55.642
X97.402Y-58.182
X97.402Y-60.722
X97.402Y-63.262
X97.402Y-65.802
X97.402Y-68.342
X97.402Y-70.882
X97.402Y-73.422
X97.402Y-75.962
X97.402Y-78.502
X97.402Y-111.522
X97.402Y-114.062
X97.402Y-116.602
X97.402Y-119.142
X97.402Y-121.682
X97.402Y-124.222
X97.504Y-33.748
X97.656Y-88.358
X98.799Y-94.377
X98.799Y-96.028
X99.942Y-40.402
X99.942Y-42.942
X99.942Y-55.642
X99.942Y-58.182
X99.942Y-60.722
X99.942Y-63.262
X99.942Y-65.802
X99.942Y-68.342
X99.942Y-70.882
X99.942Y-73.422
X99.942Y-75.962
X99.942Y-78.502
X99.942Y-111.522
X99.942Y-114.062
X99.942Y-116.602
X99.942Y-119.142
X99.942Y-121.682
X99.942Y-124.222
X100.069Y-93.234
X100.069Y-95.647
X101.974Y-95.901
X102.482Y-30.242
X102.482Y-32.782
X102.482Y-35.322
X102.482Y-37.862
X102.482Y-40.402
X102.482Y-42.942
X102.482Y-55.642
X102.482Y-58.182
X102.482Y-60.722
X102.482Y-63.262
X102.482Y-65.802
X102.482Y-68.342
X102.482Y-70.882
X102.482Y-73.422
X102.482Y-75.962
X102.482Y-78.502
X102.482Y-111.522
X102.482Y-114.062
X102.482Y-116.602
X102.482Y-119.142
X102.482Y-121.682
X102.482Y-124.222
X104.641Y-106.95
X105.022Y-30.242
X105.022Y-32.782
X105.022Y-35.322
X105.022Y-37.862
X105.022Y-55.642
X105.022Y-58.182
X105.022Y-60.722
X105.022Y-63.262
X105.022Y-65.802
X105.022Y-68.342
X105.022Y-70.882
X105.022Y-73.422
X105.022Y-111.522
X105.022Y-114.062
X105.022Y-116.602
X105.022Y-119.142
X105.022Y-121.682
X105.022Y-124.222
X105.124Y-88.408
X106.089Y-43.4
X106.394Y-41.317
X107.207Y-88.408
X107.562Y-30.242
X107.562Y-32.782
X107.562Y-35.322
X107.562Y-37.862
X107.562Y-55.642
X107.562Y-58.182
X107.562Y-60.722
X107.562Y-63.262
X107.562Y-65.802
X107.562Y-68.342
X107.562Y-70.882
X107.562Y-101.362
X107.562Y-103.902
X107.664Y-39.488
X107.766Y-47.464
X107.816Y-42.384
X108.959Y-121.047
X108.985Y-47.464
X110.102Y-30.242
X110.102Y-32.782
X110.102Y-35.322
X110.102Y-37.862
X110.102Y-101.362
X110.102Y-103.902
X110.255Y-47.87
X111.372Y-48.073
X111.576Y-40.098
X111.677Y-42.333
X112.49Y-76.978
X112.592Y-48.276
X112.642Y-30.242
X112.642Y-32.782
X112.642Y-35.322
X112.642Y-37.862
X112.642Y-96.282
X112.642Y-98.822
X112.642Y-101.362
X112.642Y-103.902
X112.744Y-69.917
X112.846Y-40.098
X113.76Y-40.098
X113.76Y-41.114
X114.268Y-77.893
X114.573Y-41.926
X114.725Y-75.708
X114.878Y-69.765
X115.182Y-30.242
X115.182Y-32.782
X115.182Y-35.322
X115.182Y-37.862
X115.182Y-96.282
X115.182Y-98.822
X115.182Y-101.362
X115.182Y-103.902
X115.335Y-45.279
X117.113Y-45.279
X117.722Y-30.242
X117.722Y-32.782
X117.722Y-35.322
X117.722Y-37.862
X117.722Y-96.282
X117.722Y-98.822
X117.722Y-101.362
X117.722Y-103.902
X120.262Y-30.242
X120.262Y-32.782
X120.262Y-35.322
X120.262Y-37.862
X120.262Y-96.282
X120.262Y-98.822
X120.262Y-101.362
X120.262Y-103.902
X121.151Y-121.174
X121.786Y-113.681
X122.802Y-30.242
X122.802Y-32.782
X122.802Y-35.322
X122.802Y-37.862
X122.802Y-58.182
X122.802Y-60.722
X122.802Y-63.262
X122.802Y-65.802
X122.802Y-68.342
X122.802Y-70.882
X122.802Y-101.362
X122.802Y-103.902
X124.225Y-53.712
X124.528Y-93.488
X124.58Y-95.52
X124.834Y-47.006
X125.342Y-30.242
X125.342Y-32.782
X125.342Y-35.322
X125.342Y-37.862
X125.342Y-58.182
X125.342Y-60.722
X125.342Y-63.262
X125.342Y-65.802
X125.342Y-68.342
X125.342Y-70.882
X125.342Y-111.522
X125.342Y-114.062
X125.342Y-116.602
X125.342Y-119.142
X125.342Y-121.682
X125.342Y-124.222
X125.546Y-88.408
X127.628Y-88.408
X127.882Y-30.242
X127.882Y-32.782
X127.882Y-35.322
X127.882Y-37.862
X127.882Y-58.182
X127.882Y-60.722
X127.882Y-63.262
X127.882Y-65.802
X127.882Y-68.342
X127.882Y-70.882
X127.882Y-73.422
X127.882Y-75.962
X127.882Y-78.502
X127.882Y-81.042
X127.882Y-83.582
X127.882Y-86.122
X127.882Y-111.522
X127.882Y-114.062
X127.882Y-116.602
X127.882Y-119.142
X127.882Y-121.682
X127.882Y-124.222
X128.709Y-94.442
X128.771Y-96.028
X129.722Y-93.479
X129.727Y-95.647
X130.422Y-30.242
X130.422Y-32.782
X130.422Y-35.322
X130.422Y-37.862
X130.422Y-58.182
X130.422Y-60.722
X130.422Y-63.262
X130.422Y-65.802
X130.422Y-68.342
X130.422Y-70.882
X130.422Y-73.422
X130.422Y-75.962
X130.422Y-78.502
X130.422Y-81.042
X130.422Y-83.582
X130.422Y-86.122
X130.422Y-111.522
X130.422Y-114.062
X131.388Y-47.565
X131.438Y-96.028
X132.251Y-48.53
X132.962Y-58.182
X132.962Y-60.722
X132.962Y-63.262
X132.962Y-65.802
X132.962Y-68.342
X132.962Y-70.882
X132.962Y-73.422
X132.962Y-75.962
X132.962Y-78.502
X132.962Y-81.042
X132.962Y-83.582
X132.962Y-86.122
X132.962Y-111.522
X132.962Y-114.062
X133.064Y-49.496
X133.775Y-50.562
X133.826Y-51.782
X133.877Y-52.899
X133.877Y-54.017
X134.69Y-88.358
X135.055Y-105.742
X135.502Y-58.182
X135.502Y-60.722
X135.502Y-63.262
X135.502Y-65.802
X135.502Y-68.342
X135.502Y-70.882
X135.502Y-73.422
X135.502Y-75.962
X135.502Y-78.502
X135.502Y-81.042
X135.502Y-83.582
X135.502Y-86.122
X135.502Y-101.362
X135.502Y-103.902
X135.502Y-108.982
X135.502Y-111.522
X136.772Y-88.358
X138.042Y-101.362
X138.042Y-103.902
X138.042Y-108.982
X138.042Y-111.522
T4
X39.351Y-99.198
X39.351Y-101.198
X41.04Y-78.177
X41.04Y-80.177
X54.264Y-99.198
X54.264Y-101.198
X55.877Y-78.177
X55.877Y-80.177
X69.701Y-97.703
X69.701Y-99.703
X69.723Y-83.45
X69.723Y-85.45
X97.626Y-104.808
X101.126Y-104.808
X124.196Y-73.109
X124.196Y-76.609
X127.09Y-104.529
X130.59Y-104.529
T5
X86.558Y-38.266
X86.558Y-40.266
X89.058Y-38.266
X89.058Y-40.266
T6
X58.655Y-117.607
X58.655Y-122.607
X63.655Y-117.607
X63.655Y-122.607
X68.655Y-117.607
X68.655Y-122.607
T7
X81.788Y-35.556
X93.828Y-35.556
T8
X40.278Y-32.808
X40.278Y-119.168
X135.528Y-32.808
X135.528Y-119.168
M30
