%TF.GenerationSoftware,KiCad,Pcbnew,8.0.5*%
%TF.CreationDate,2024-11-12T11:03:46-05:00*%
%TF.ProjectId,DacAmp,44616341-6d70-42e6-9b69-6361645f7063,rev?*%
%TF.SameCoordinates,Original*%
%TF.FileFunction,Drillmap*%
%TF.FilePolarity,Positive*%
%FSLAX45Y45*%
G04 Gerber Fmt 4.5, Leading zero omitted, Abs format (unit mm)*
G04 Created by KiCad (PCBNEW 8.0.5) date 2024-11-12 11:03:46*
%MOMM*%
%LPD*%
G01*
G04 APERTURE LIST*
%ADD10C,0.050000*%
%ADD11C,0.200000*%
%ADD12C,0.170000*%
G04 APERTURE END LIST*
D10*
X4535780Y-12678780D02*
G75*
G02*
X3265780Y-11408780I0J1270000D01*
G01*
X13044780Y-12678780D02*
X4535780Y-12678780D01*
X3265780Y-3788780D02*
G75*
G02*
X4535780Y-2518780I1270000J0D01*
G01*
X4535780Y-2518780D02*
X13044780Y-2518780D01*
X14314780Y-11408780D02*
G75*
G02*
X13044780Y-12678780I-1270000J0D01*
G01*
X3265780Y-11408780D02*
X3265780Y-3788780D01*
X13044780Y-2518780D02*
G75*
G02*
X14314780Y-3788780I0J-1270000D01*
G01*
X14314780Y-3788780D02*
X14314780Y-11408780D01*
D11*
D12*
X11456900Y-11224400D02*
X11626900Y-11394400D01*
X11626900Y-11224400D02*
X11456900Y-11394400D01*
X11456900Y-11924400D02*
X11626900Y-12094400D01*
X11626900Y-11924400D02*
X11456900Y-12094400D01*
D11*
X3524057Y-12992764D02*
X3524057Y-12792764D01*
X3524057Y-12792764D02*
X3571676Y-12792764D01*
X3571676Y-12792764D02*
X3600247Y-12802288D01*
X3600247Y-12802288D02*
X3619295Y-12821335D01*
X3619295Y-12821335D02*
X3628819Y-12840383D01*
X3628819Y-12840383D02*
X3638342Y-12878478D01*
X3638342Y-12878478D02*
X3638342Y-12907049D01*
X3638342Y-12907049D02*
X3628819Y-12945145D01*
X3628819Y-12945145D02*
X3619295Y-12964192D01*
X3619295Y-12964192D02*
X3600247Y-12983240D01*
X3600247Y-12983240D02*
X3571676Y-12992764D01*
X3571676Y-12992764D02*
X3524057Y-12992764D01*
X3724057Y-12992764D02*
X3724057Y-12859430D01*
X3724057Y-12897526D02*
X3733581Y-12878478D01*
X3733581Y-12878478D02*
X3743104Y-12868954D01*
X3743104Y-12868954D02*
X3762152Y-12859430D01*
X3762152Y-12859430D02*
X3781200Y-12859430D01*
X3847866Y-12992764D02*
X3847866Y-12859430D01*
X3847866Y-12792764D02*
X3838342Y-12802288D01*
X3838342Y-12802288D02*
X3847866Y-12811811D01*
X3847866Y-12811811D02*
X3857390Y-12802288D01*
X3857390Y-12802288D02*
X3847866Y-12792764D01*
X3847866Y-12792764D02*
X3847866Y-12811811D01*
X3971676Y-12992764D02*
X3952628Y-12983240D01*
X3952628Y-12983240D02*
X3943104Y-12964192D01*
X3943104Y-12964192D02*
X3943104Y-12792764D01*
X4076438Y-12992764D02*
X4057390Y-12983240D01*
X4057390Y-12983240D02*
X4047866Y-12964192D01*
X4047866Y-12964192D02*
X4047866Y-12792764D01*
X4305009Y-12992764D02*
X4305009Y-12792764D01*
X4305009Y-12792764D02*
X4371676Y-12935621D01*
X4371676Y-12935621D02*
X4438343Y-12792764D01*
X4438343Y-12792764D02*
X4438343Y-12992764D01*
X4619295Y-12992764D02*
X4619295Y-12888002D01*
X4619295Y-12888002D02*
X4609771Y-12868954D01*
X4609771Y-12868954D02*
X4590724Y-12859430D01*
X4590724Y-12859430D02*
X4552628Y-12859430D01*
X4552628Y-12859430D02*
X4533581Y-12868954D01*
X4619295Y-12983240D02*
X4600247Y-12992764D01*
X4600247Y-12992764D02*
X4552628Y-12992764D01*
X4552628Y-12992764D02*
X4533581Y-12983240D01*
X4533581Y-12983240D02*
X4524057Y-12964192D01*
X4524057Y-12964192D02*
X4524057Y-12945145D01*
X4524057Y-12945145D02*
X4533581Y-12926097D01*
X4533581Y-12926097D02*
X4552628Y-12916573D01*
X4552628Y-12916573D02*
X4600247Y-12916573D01*
X4600247Y-12916573D02*
X4619295Y-12907049D01*
X4714533Y-12859430D02*
X4714533Y-13059430D01*
X4714533Y-12868954D02*
X4733581Y-12859430D01*
X4733581Y-12859430D02*
X4771676Y-12859430D01*
X4771676Y-12859430D02*
X4790724Y-12868954D01*
X4790724Y-12868954D02*
X4800247Y-12878478D01*
X4800247Y-12878478D02*
X4809771Y-12897526D01*
X4809771Y-12897526D02*
X4809771Y-12954668D01*
X4809771Y-12954668D02*
X4800247Y-12973716D01*
X4800247Y-12973716D02*
X4790724Y-12983240D01*
X4790724Y-12983240D02*
X4771676Y-12992764D01*
X4771676Y-12992764D02*
X4733581Y-12992764D01*
X4733581Y-12992764D02*
X4714533Y-12983240D01*
X4895485Y-12973716D02*
X4905009Y-12983240D01*
X4905009Y-12983240D02*
X4895485Y-12992764D01*
X4895485Y-12992764D02*
X4885962Y-12983240D01*
X4885962Y-12983240D02*
X4895485Y-12973716D01*
X4895485Y-12973716D02*
X4895485Y-12992764D01*
X4895485Y-12868954D02*
X4905009Y-12878478D01*
X4905009Y-12878478D02*
X4895485Y-12888002D01*
X4895485Y-12888002D02*
X4885962Y-12878478D01*
X4885962Y-12878478D02*
X4895485Y-12868954D01*
X4895485Y-12868954D02*
X4895485Y-12888002D01*
D12*
X3093280Y-13236280D02*
X3263280Y-13406280D01*
X3263280Y-13236280D02*
X3093280Y-13406280D01*
D11*
X3628819Y-13412764D02*
X3514533Y-13412764D01*
X3571676Y-13412764D02*
X3571676Y-13212764D01*
X3571676Y-13212764D02*
X3552628Y-13241335D01*
X3552628Y-13241335D02*
X3533581Y-13260383D01*
X3533581Y-13260383D02*
X3514533Y-13269907D01*
X3714533Y-13393716D02*
X3724057Y-13403240D01*
X3724057Y-13403240D02*
X3714533Y-13412764D01*
X3714533Y-13412764D02*
X3705009Y-13403240D01*
X3705009Y-13403240D02*
X3714533Y-13393716D01*
X3714533Y-13393716D02*
X3714533Y-13412764D01*
X3790723Y-13212764D02*
X3924057Y-13212764D01*
X3924057Y-13212764D02*
X3838342Y-13412764D01*
X4038342Y-13212764D02*
X4057390Y-13212764D01*
X4057390Y-13212764D02*
X4076438Y-13222288D01*
X4076438Y-13222288D02*
X4085962Y-13231811D01*
X4085962Y-13231811D02*
X4095485Y-13250859D01*
X4095485Y-13250859D02*
X4105009Y-13288954D01*
X4105009Y-13288954D02*
X4105009Y-13336573D01*
X4105009Y-13336573D02*
X4095485Y-13374668D01*
X4095485Y-13374668D02*
X4085962Y-13393716D01*
X4085962Y-13393716D02*
X4076438Y-13403240D01*
X4076438Y-13403240D02*
X4057390Y-13412764D01*
X4057390Y-13412764D02*
X4038342Y-13412764D01*
X4038342Y-13412764D02*
X4019295Y-13403240D01*
X4019295Y-13403240D02*
X4009771Y-13393716D01*
X4009771Y-13393716D02*
X4000247Y-13374668D01*
X4000247Y-13374668D02*
X3990723Y-13336573D01*
X3990723Y-13336573D02*
X3990723Y-13288954D01*
X3990723Y-13288954D02*
X4000247Y-13250859D01*
X4000247Y-13250859D02*
X4009771Y-13231811D01*
X4009771Y-13231811D02*
X4019295Y-13222288D01*
X4019295Y-13222288D02*
X4038342Y-13212764D01*
X4228819Y-13212764D02*
X4247866Y-13212764D01*
X4247866Y-13212764D02*
X4266914Y-13222288D01*
X4266914Y-13222288D02*
X4276438Y-13231811D01*
X4276438Y-13231811D02*
X4285962Y-13250859D01*
X4285962Y-13250859D02*
X4295485Y-13288954D01*
X4295485Y-13288954D02*
X4295485Y-13336573D01*
X4295485Y-13336573D02*
X4285962Y-13374668D01*
X4285962Y-13374668D02*
X4276438Y-13393716D01*
X4276438Y-13393716D02*
X4266914Y-13403240D01*
X4266914Y-13403240D02*
X4247866Y-13412764D01*
X4247866Y-13412764D02*
X4228819Y-13412764D01*
X4228819Y-13412764D02*
X4209771Y-13403240D01*
X4209771Y-13403240D02*
X4200247Y-13393716D01*
X4200247Y-13393716D02*
X4190723Y-13374668D01*
X4190723Y-13374668D02*
X4181200Y-13336573D01*
X4181200Y-13336573D02*
X4181200Y-13288954D01*
X4181200Y-13288954D02*
X4190723Y-13250859D01*
X4190723Y-13250859D02*
X4200247Y-13231811D01*
X4200247Y-13231811D02*
X4209771Y-13222288D01*
X4209771Y-13222288D02*
X4228819Y-13212764D01*
X4381200Y-13412764D02*
X4381200Y-13279430D01*
X4381200Y-13298478D02*
X4390724Y-13288954D01*
X4390724Y-13288954D02*
X4409771Y-13279430D01*
X4409771Y-13279430D02*
X4438343Y-13279430D01*
X4438343Y-13279430D02*
X4457390Y-13288954D01*
X4457390Y-13288954D02*
X4466914Y-13308002D01*
X4466914Y-13308002D02*
X4466914Y-13412764D01*
X4466914Y-13308002D02*
X4476438Y-13288954D01*
X4476438Y-13288954D02*
X4495485Y-13279430D01*
X4495485Y-13279430D02*
X4524057Y-13279430D01*
X4524057Y-13279430D02*
X4543105Y-13288954D01*
X4543105Y-13288954D02*
X4552628Y-13308002D01*
X4552628Y-13308002D02*
X4552628Y-13412764D01*
X4647866Y-13412764D02*
X4647866Y-13279430D01*
X4647866Y-13298478D02*
X4657390Y-13288954D01*
X4657390Y-13288954D02*
X4676438Y-13279430D01*
X4676438Y-13279430D02*
X4705009Y-13279430D01*
X4705009Y-13279430D02*
X4724057Y-13288954D01*
X4724057Y-13288954D02*
X4733581Y-13308002D01*
X4733581Y-13308002D02*
X4733581Y-13412764D01*
X4733581Y-13308002D02*
X4743105Y-13288954D01*
X4743105Y-13288954D02*
X4762152Y-13279430D01*
X4762152Y-13279430D02*
X4790724Y-13279430D01*
X4790724Y-13279430D02*
X4809771Y-13288954D01*
X4809771Y-13288954D02*
X4819295Y-13308002D01*
X4819295Y-13308002D02*
X4819295Y-13412764D01*
X5209771Y-13203240D02*
X5038343Y-13460383D01*
X5466914Y-13212764D02*
X5485962Y-13212764D01*
X5485962Y-13212764D02*
X5505009Y-13222288D01*
X5505009Y-13222288D02*
X5514533Y-13231811D01*
X5514533Y-13231811D02*
X5524057Y-13250859D01*
X5524057Y-13250859D02*
X5533581Y-13288954D01*
X5533581Y-13288954D02*
X5533581Y-13336573D01*
X5533581Y-13336573D02*
X5524057Y-13374668D01*
X5524057Y-13374668D02*
X5514533Y-13393716D01*
X5514533Y-13393716D02*
X5505009Y-13403240D01*
X5505009Y-13403240D02*
X5485962Y-13412764D01*
X5485962Y-13412764D02*
X5466914Y-13412764D01*
X5466914Y-13412764D02*
X5447867Y-13403240D01*
X5447867Y-13403240D02*
X5438343Y-13393716D01*
X5438343Y-13393716D02*
X5428819Y-13374668D01*
X5428819Y-13374668D02*
X5419295Y-13336573D01*
X5419295Y-13336573D02*
X5419295Y-13288954D01*
X5419295Y-13288954D02*
X5428819Y-13250859D01*
X5428819Y-13250859D02*
X5438343Y-13231811D01*
X5438343Y-13231811D02*
X5447867Y-13222288D01*
X5447867Y-13222288D02*
X5466914Y-13212764D01*
X5619295Y-13393716D02*
X5628819Y-13403240D01*
X5628819Y-13403240D02*
X5619295Y-13412764D01*
X5619295Y-13412764D02*
X5609771Y-13403240D01*
X5609771Y-13403240D02*
X5619295Y-13393716D01*
X5619295Y-13393716D02*
X5619295Y-13412764D01*
X5752628Y-13212764D02*
X5771676Y-13212764D01*
X5771676Y-13212764D02*
X5790724Y-13222288D01*
X5790724Y-13222288D02*
X5800247Y-13231811D01*
X5800247Y-13231811D02*
X5809771Y-13250859D01*
X5809771Y-13250859D02*
X5819295Y-13288954D01*
X5819295Y-13288954D02*
X5819295Y-13336573D01*
X5819295Y-13336573D02*
X5809771Y-13374668D01*
X5809771Y-13374668D02*
X5800247Y-13393716D01*
X5800247Y-13393716D02*
X5790724Y-13403240D01*
X5790724Y-13403240D02*
X5771676Y-13412764D01*
X5771676Y-13412764D02*
X5752628Y-13412764D01*
X5752628Y-13412764D02*
X5733581Y-13403240D01*
X5733581Y-13403240D02*
X5724057Y-13393716D01*
X5724057Y-13393716D02*
X5714533Y-13374668D01*
X5714533Y-13374668D02*
X5705009Y-13336573D01*
X5705009Y-13336573D02*
X5705009Y-13288954D01*
X5705009Y-13288954D02*
X5714533Y-13250859D01*
X5714533Y-13250859D02*
X5724057Y-13231811D01*
X5724057Y-13231811D02*
X5733581Y-13222288D01*
X5733581Y-13222288D02*
X5752628Y-13212764D01*
X5990724Y-13212764D02*
X5952628Y-13212764D01*
X5952628Y-13212764D02*
X5933581Y-13222288D01*
X5933581Y-13222288D02*
X5924057Y-13231811D01*
X5924057Y-13231811D02*
X5905009Y-13260383D01*
X5905009Y-13260383D02*
X5895486Y-13298478D01*
X5895486Y-13298478D02*
X5895486Y-13374668D01*
X5895486Y-13374668D02*
X5905009Y-13393716D01*
X5905009Y-13393716D02*
X5914533Y-13403240D01*
X5914533Y-13403240D02*
X5933581Y-13412764D01*
X5933581Y-13412764D02*
X5971676Y-13412764D01*
X5971676Y-13412764D02*
X5990724Y-13403240D01*
X5990724Y-13403240D02*
X6000247Y-13393716D01*
X6000247Y-13393716D02*
X6009771Y-13374668D01*
X6009771Y-13374668D02*
X6009771Y-13327049D01*
X6009771Y-13327049D02*
X6000247Y-13308002D01*
X6000247Y-13308002D02*
X5990724Y-13298478D01*
X5990724Y-13298478D02*
X5971676Y-13288954D01*
X5971676Y-13288954D02*
X5933581Y-13288954D01*
X5933581Y-13288954D02*
X5914533Y-13298478D01*
X5914533Y-13298478D02*
X5905009Y-13308002D01*
X5905009Y-13308002D02*
X5895486Y-13327049D01*
X6181200Y-13212764D02*
X6143105Y-13212764D01*
X6143105Y-13212764D02*
X6124057Y-13222288D01*
X6124057Y-13222288D02*
X6114533Y-13231811D01*
X6114533Y-13231811D02*
X6095486Y-13260383D01*
X6095486Y-13260383D02*
X6085962Y-13298478D01*
X6085962Y-13298478D02*
X6085962Y-13374668D01*
X6085962Y-13374668D02*
X6095486Y-13393716D01*
X6095486Y-13393716D02*
X6105009Y-13403240D01*
X6105009Y-13403240D02*
X6124057Y-13412764D01*
X6124057Y-13412764D02*
X6162152Y-13412764D01*
X6162152Y-13412764D02*
X6181200Y-13403240D01*
X6181200Y-13403240D02*
X6190724Y-13393716D01*
X6190724Y-13393716D02*
X6200247Y-13374668D01*
X6200247Y-13374668D02*
X6200247Y-13327049D01*
X6200247Y-13327049D02*
X6190724Y-13308002D01*
X6190724Y-13308002D02*
X6181200Y-13298478D01*
X6181200Y-13298478D02*
X6162152Y-13288954D01*
X6162152Y-13288954D02*
X6124057Y-13288954D01*
X6124057Y-13288954D02*
X6105009Y-13298478D01*
X6105009Y-13298478D02*
X6095486Y-13308002D01*
X6095486Y-13308002D02*
X6085962Y-13327049D01*
X6295486Y-13412764D02*
X6333581Y-13412764D01*
X6333581Y-13412764D02*
X6352628Y-13403240D01*
X6352628Y-13403240D02*
X6362152Y-13393716D01*
X6362152Y-13393716D02*
X6381200Y-13365145D01*
X6381200Y-13365145D02*
X6390724Y-13327049D01*
X6390724Y-13327049D02*
X6390724Y-13250859D01*
X6390724Y-13250859D02*
X6381200Y-13231811D01*
X6381200Y-13231811D02*
X6371676Y-13222288D01*
X6371676Y-13222288D02*
X6352628Y-13212764D01*
X6352628Y-13212764D02*
X6314533Y-13212764D01*
X6314533Y-13212764D02*
X6295486Y-13222288D01*
X6295486Y-13222288D02*
X6285962Y-13231811D01*
X6285962Y-13231811D02*
X6276438Y-13250859D01*
X6276438Y-13250859D02*
X6276438Y-13298478D01*
X6276438Y-13298478D02*
X6285962Y-13317526D01*
X6285962Y-13317526D02*
X6295486Y-13327049D01*
X6295486Y-13327049D02*
X6314533Y-13336573D01*
X6314533Y-13336573D02*
X6352628Y-13336573D01*
X6352628Y-13336573D02*
X6371676Y-13327049D01*
X6371676Y-13327049D02*
X6381200Y-13317526D01*
X6381200Y-13317526D02*
X6390724Y-13298478D01*
X6466914Y-13212764D02*
X6466914Y-13250859D01*
X6543105Y-13212764D02*
X6543105Y-13250859D01*
X6838343Y-13488954D02*
X6828819Y-13479430D01*
X6828819Y-13479430D02*
X6809771Y-13450859D01*
X6809771Y-13450859D02*
X6800248Y-13431811D01*
X6800248Y-13431811D02*
X6790724Y-13403240D01*
X6790724Y-13403240D02*
X6781200Y-13355621D01*
X6781200Y-13355621D02*
X6781200Y-13317526D01*
X6781200Y-13317526D02*
X6790724Y-13269907D01*
X6790724Y-13269907D02*
X6800248Y-13241335D01*
X6800248Y-13241335D02*
X6809771Y-13222288D01*
X6809771Y-13222288D02*
X6828819Y-13193716D01*
X6828819Y-13193716D02*
X6838343Y-13184192D01*
X6905009Y-13231811D02*
X6914533Y-13222288D01*
X6914533Y-13222288D02*
X6933581Y-13212764D01*
X6933581Y-13212764D02*
X6981200Y-13212764D01*
X6981200Y-13212764D02*
X7000248Y-13222288D01*
X7000248Y-13222288D02*
X7009771Y-13231811D01*
X7009771Y-13231811D02*
X7019295Y-13250859D01*
X7019295Y-13250859D02*
X7019295Y-13269907D01*
X7019295Y-13269907D02*
X7009771Y-13298478D01*
X7009771Y-13298478D02*
X6895486Y-13412764D01*
X6895486Y-13412764D02*
X7019295Y-13412764D01*
X7257390Y-13412764D02*
X7257390Y-13212764D01*
X7343105Y-13412764D02*
X7343105Y-13308002D01*
X7343105Y-13308002D02*
X7333581Y-13288954D01*
X7333581Y-13288954D02*
X7314533Y-13279430D01*
X7314533Y-13279430D02*
X7285962Y-13279430D01*
X7285962Y-13279430D02*
X7266914Y-13288954D01*
X7266914Y-13288954D02*
X7257390Y-13298478D01*
X7466914Y-13412764D02*
X7447867Y-13403240D01*
X7447867Y-13403240D02*
X7438343Y-13393716D01*
X7438343Y-13393716D02*
X7428819Y-13374668D01*
X7428819Y-13374668D02*
X7428819Y-13317526D01*
X7428819Y-13317526D02*
X7438343Y-13298478D01*
X7438343Y-13298478D02*
X7447867Y-13288954D01*
X7447867Y-13288954D02*
X7466914Y-13279430D01*
X7466914Y-13279430D02*
X7495486Y-13279430D01*
X7495486Y-13279430D02*
X7514533Y-13288954D01*
X7514533Y-13288954D02*
X7524057Y-13298478D01*
X7524057Y-13298478D02*
X7533581Y-13317526D01*
X7533581Y-13317526D02*
X7533581Y-13374668D01*
X7533581Y-13374668D02*
X7524057Y-13393716D01*
X7524057Y-13393716D02*
X7514533Y-13403240D01*
X7514533Y-13403240D02*
X7495486Y-13412764D01*
X7495486Y-13412764D02*
X7466914Y-13412764D01*
X7647867Y-13412764D02*
X7628819Y-13403240D01*
X7628819Y-13403240D02*
X7619295Y-13384192D01*
X7619295Y-13384192D02*
X7619295Y-13212764D01*
X7800248Y-13403240D02*
X7781200Y-13412764D01*
X7781200Y-13412764D02*
X7743105Y-13412764D01*
X7743105Y-13412764D02*
X7724057Y-13403240D01*
X7724057Y-13403240D02*
X7714533Y-13384192D01*
X7714533Y-13384192D02*
X7714533Y-13308002D01*
X7714533Y-13308002D02*
X7724057Y-13288954D01*
X7724057Y-13288954D02*
X7743105Y-13279430D01*
X7743105Y-13279430D02*
X7781200Y-13279430D01*
X7781200Y-13279430D02*
X7800248Y-13288954D01*
X7800248Y-13288954D02*
X7809771Y-13308002D01*
X7809771Y-13308002D02*
X7809771Y-13327049D01*
X7809771Y-13327049D02*
X7714533Y-13346097D01*
X7885962Y-13403240D02*
X7905010Y-13412764D01*
X7905010Y-13412764D02*
X7943105Y-13412764D01*
X7943105Y-13412764D02*
X7962152Y-13403240D01*
X7962152Y-13403240D02*
X7971676Y-13384192D01*
X7971676Y-13384192D02*
X7971676Y-13374668D01*
X7971676Y-13374668D02*
X7962152Y-13355621D01*
X7962152Y-13355621D02*
X7943105Y-13346097D01*
X7943105Y-13346097D02*
X7914533Y-13346097D01*
X7914533Y-13346097D02*
X7895486Y-13336573D01*
X7895486Y-13336573D02*
X7885962Y-13317526D01*
X7885962Y-13317526D02*
X7885962Y-13308002D01*
X7885962Y-13308002D02*
X7895486Y-13288954D01*
X7895486Y-13288954D02*
X7914533Y-13279430D01*
X7914533Y-13279430D02*
X7943105Y-13279430D01*
X7943105Y-13279430D02*
X7962152Y-13288954D01*
X8038343Y-13488954D02*
X8047867Y-13479430D01*
X8047867Y-13479430D02*
X8066914Y-13450859D01*
X8066914Y-13450859D02*
X8076438Y-13431811D01*
X8076438Y-13431811D02*
X8085962Y-13403240D01*
X8085962Y-13403240D02*
X8095486Y-13355621D01*
X8095486Y-13355621D02*
X8095486Y-13317526D01*
X8095486Y-13317526D02*
X8085962Y-13269907D01*
X8085962Y-13269907D02*
X8076438Y-13241335D01*
X8076438Y-13241335D02*
X8066914Y-13222288D01*
X8066914Y-13222288D02*
X8047867Y-13193716D01*
X8047867Y-13193716D02*
X8038343Y-13184192D01*
X8400248Y-13488954D02*
X8390724Y-13479430D01*
X8390724Y-13479430D02*
X8371676Y-13450859D01*
X8371676Y-13450859D02*
X8362152Y-13431811D01*
X8362152Y-13431811D02*
X8352629Y-13403240D01*
X8352629Y-13403240D02*
X8343105Y-13355621D01*
X8343105Y-13355621D02*
X8343105Y-13317526D01*
X8343105Y-13317526D02*
X8352629Y-13269907D01*
X8352629Y-13269907D02*
X8362152Y-13241335D01*
X8362152Y-13241335D02*
X8371676Y-13222288D01*
X8371676Y-13222288D02*
X8390724Y-13193716D01*
X8390724Y-13193716D02*
X8400248Y-13184192D01*
X8476438Y-13279430D02*
X8476438Y-13412764D01*
X8476438Y-13298478D02*
X8485962Y-13288954D01*
X8485962Y-13288954D02*
X8505010Y-13279430D01*
X8505010Y-13279430D02*
X8533581Y-13279430D01*
X8533581Y-13279430D02*
X8552629Y-13288954D01*
X8552629Y-13288954D02*
X8562153Y-13308002D01*
X8562153Y-13308002D02*
X8562153Y-13412764D01*
X8685962Y-13412764D02*
X8666914Y-13403240D01*
X8666914Y-13403240D02*
X8657391Y-13393716D01*
X8657391Y-13393716D02*
X8647867Y-13374668D01*
X8647867Y-13374668D02*
X8647867Y-13317526D01*
X8647867Y-13317526D02*
X8657391Y-13298478D01*
X8657391Y-13298478D02*
X8666914Y-13288954D01*
X8666914Y-13288954D02*
X8685962Y-13279430D01*
X8685962Y-13279430D02*
X8714534Y-13279430D01*
X8714534Y-13279430D02*
X8733581Y-13288954D01*
X8733581Y-13288954D02*
X8743105Y-13298478D01*
X8743105Y-13298478D02*
X8752629Y-13317526D01*
X8752629Y-13317526D02*
X8752629Y-13374668D01*
X8752629Y-13374668D02*
X8743105Y-13393716D01*
X8743105Y-13393716D02*
X8733581Y-13403240D01*
X8733581Y-13403240D02*
X8714534Y-13412764D01*
X8714534Y-13412764D02*
X8685962Y-13412764D01*
X8809772Y-13279430D02*
X8885962Y-13279430D01*
X8838343Y-13212764D02*
X8838343Y-13384192D01*
X8838343Y-13384192D02*
X8847867Y-13403240D01*
X8847867Y-13403240D02*
X8866914Y-13412764D01*
X8866914Y-13412764D02*
X8885962Y-13412764D01*
X9105010Y-13279430D02*
X9105010Y-13479430D01*
X9105010Y-13288954D02*
X9124057Y-13279430D01*
X9124057Y-13279430D02*
X9162153Y-13279430D01*
X9162153Y-13279430D02*
X9181200Y-13288954D01*
X9181200Y-13288954D02*
X9190724Y-13298478D01*
X9190724Y-13298478D02*
X9200248Y-13317526D01*
X9200248Y-13317526D02*
X9200248Y-13374668D01*
X9200248Y-13374668D02*
X9190724Y-13393716D01*
X9190724Y-13393716D02*
X9181200Y-13403240D01*
X9181200Y-13403240D02*
X9162153Y-13412764D01*
X9162153Y-13412764D02*
X9124057Y-13412764D01*
X9124057Y-13412764D02*
X9105010Y-13403240D01*
X9314534Y-13412764D02*
X9295486Y-13403240D01*
X9295486Y-13403240D02*
X9285962Y-13384192D01*
X9285962Y-13384192D02*
X9285962Y-13212764D01*
X9476438Y-13412764D02*
X9476438Y-13308002D01*
X9476438Y-13308002D02*
X9466915Y-13288954D01*
X9466915Y-13288954D02*
X9447867Y-13279430D01*
X9447867Y-13279430D02*
X9409772Y-13279430D01*
X9409772Y-13279430D02*
X9390724Y-13288954D01*
X9476438Y-13403240D02*
X9457391Y-13412764D01*
X9457391Y-13412764D02*
X9409772Y-13412764D01*
X9409772Y-13412764D02*
X9390724Y-13403240D01*
X9390724Y-13403240D02*
X9381200Y-13384192D01*
X9381200Y-13384192D02*
X9381200Y-13365145D01*
X9381200Y-13365145D02*
X9390724Y-13346097D01*
X9390724Y-13346097D02*
X9409772Y-13336573D01*
X9409772Y-13336573D02*
X9457391Y-13336573D01*
X9457391Y-13336573D02*
X9476438Y-13327049D01*
X9543105Y-13279430D02*
X9619295Y-13279430D01*
X9571676Y-13212764D02*
X9571676Y-13384192D01*
X9571676Y-13384192D02*
X9581200Y-13403240D01*
X9581200Y-13403240D02*
X9600248Y-13412764D01*
X9600248Y-13412764D02*
X9619295Y-13412764D01*
X9762153Y-13403240D02*
X9743105Y-13412764D01*
X9743105Y-13412764D02*
X9705010Y-13412764D01*
X9705010Y-13412764D02*
X9685962Y-13403240D01*
X9685962Y-13403240D02*
X9676438Y-13384192D01*
X9676438Y-13384192D02*
X9676438Y-13308002D01*
X9676438Y-13308002D02*
X9685962Y-13288954D01*
X9685962Y-13288954D02*
X9705010Y-13279430D01*
X9705010Y-13279430D02*
X9743105Y-13279430D01*
X9743105Y-13279430D02*
X9762153Y-13288954D01*
X9762153Y-13288954D02*
X9771676Y-13308002D01*
X9771676Y-13308002D02*
X9771676Y-13327049D01*
X9771676Y-13327049D02*
X9676438Y-13346097D01*
X9943105Y-13412764D02*
X9943105Y-13212764D01*
X9943105Y-13403240D02*
X9924057Y-13412764D01*
X9924057Y-13412764D02*
X9885962Y-13412764D01*
X9885962Y-13412764D02*
X9866915Y-13403240D01*
X9866915Y-13403240D02*
X9857391Y-13393716D01*
X9857391Y-13393716D02*
X9847867Y-13374668D01*
X9847867Y-13374668D02*
X9847867Y-13317526D01*
X9847867Y-13317526D02*
X9857391Y-13298478D01*
X9857391Y-13298478D02*
X9866915Y-13288954D01*
X9866915Y-13288954D02*
X9885962Y-13279430D01*
X9885962Y-13279430D02*
X9924057Y-13279430D01*
X9924057Y-13279430D02*
X9943105Y-13288954D01*
X10019296Y-13488954D02*
X10028819Y-13479430D01*
X10028819Y-13479430D02*
X10047867Y-13450859D01*
X10047867Y-13450859D02*
X10057391Y-13431811D01*
X10057391Y-13431811D02*
X10066915Y-13403240D01*
X10066915Y-13403240D02*
X10076438Y-13355621D01*
X10076438Y-13355621D02*
X10076438Y-13317526D01*
X10076438Y-13317526D02*
X10066915Y-13269907D01*
X10066915Y-13269907D02*
X10057391Y-13241335D01*
X10057391Y-13241335D02*
X10047867Y-13222288D01*
X10047867Y-13222288D02*
X10028819Y-13193716D01*
X10028819Y-13193716D02*
X10019296Y-13184192D01*
M02*
