M48
; DRILL file {KiCad 8.0.5} date 2024-11-13T13:31:56-0500
; FORMAT={-:-/ absolute / metric / decimal}
; #@! TF.CreationDate,2024-11-13T13:31:56-05:00
; #@! TF.GenerationSoftware,Kicad,Pcbnew,8.0.5
; #@! TF.FileFunction,Plated,1,4,PTH
FMAT,2
METRIC
; #@! TA.AperFunction,Plated,PTH,ComponentDrill
T1C0.203
; #@! TA.AperFunction,Plated,PTH,ViaDrill
T2C0.300
; #@! TA.AperFunction,Plated,PTH,ViaDrill
T3C0.400
; #@! TA.AperFunction,Plated,PTH,ComponentDrill
T4C0.800
; #@! TA.AperFunction,Plated,PTH,ComponentDrill
T5C0.920
; #@! TA.AperFunction,Plated,PTH,ComponentDrill
T6C1.200
; #@! TA.AperFunction,Plated,PTH,ComponentDrill
T7C2.330
; #@! TA.AperFunction,Plated,PTH,ComponentDrill
T8C2.700
%
G90
G05
T1
X120.729Y-48.477
X121.229Y-47.777
X121.229Y-49.177
X121.729Y-48.477
T2
X105.795Y-73.306
X131.762Y-47.659
X155.65Y-82.463
X162.123Y-74.624
X162.25Y-84.53
X167.33Y-77.291
X168.932Y-81.199
X174.901Y-75.611
X176.044Y-61.133
X177.208Y-52.582
X182.808Y-80.893
X188.104Y-84.59
X189.887Y-79.167
X193.184Y-77.732
T3
X106.702Y-85.517
X106.702Y-89.327
X106.702Y-93.772
X107.972Y-77.897
X108.607Y-81.707
X109.242Y-86.152
X109.478Y-71.274
X109.478Y-72.798
X109.877Y-93.772
X109.877Y-95.677
X110.444Y-66.398
X110.512Y-89.962
X111.782Y-56.307
X111.782Y-58.212
X111.782Y-60.117
X112.524Y-66.262
X113.669Y-72.417
X113.669Y-74.068
X113.687Y-89.962
X113.687Y-96.947
X113.687Y-100.122
X114.239Y-53.326
X114.322Y-56.307
X114.322Y-58.212
X114.322Y-60.117
X114.322Y-93.772
X114.939Y-71.274
X114.939Y-73.687
X114.957Y-36.622
X114.957Y-38.527
X114.957Y-40.432
X115.357Y-53.326
X116.227Y-96.312
X116.474Y-53.276
X116.844Y-73.941
X116.862Y-56.307
X116.862Y-58.212
X116.862Y-60.117
X116.862Y-62.022
X116.862Y-63.927
X116.862Y-90.597
X116.862Y-101.392
X117.497Y-36.622
X117.497Y-38.527
X117.497Y-40.432
X117.497Y-88.692
X117.694Y-53.225
X118.76Y-52.514
X119.402Y-54.402
X119.402Y-56.307
X119.402Y-58.212
X119.402Y-60.117
X119.402Y-62.022
X119.402Y-63.927
X119.402Y-94.407
X119.403Y-73.679
X119.511Y-84.99
X119.726Y-51.701
X119.829Y-99.307
X119.994Y-66.448
X120.037Y-36.622
X120.037Y-38.527
X120.037Y-40.432
X120.037Y-91.867
X120.272Y-72.012
X120.672Y-75.992
X120.672Y-79.167
X120.691Y-50.837
X121.25Y-44.284
X121.942Y-54.402
X121.942Y-56.307
X121.942Y-58.212
X121.942Y-60.117
X121.942Y-62.022
X121.942Y-63.927
X122.122Y-66.462
X122.577Y-36.622
X122.577Y-38.527
X122.577Y-40.432
X122.577Y-80.437
X124.482Y-54.402
X124.482Y-56.307
X124.482Y-58.212
X124.482Y-60.117
X124.482Y-62.022
X124.482Y-63.927
X124.482Y-78.532
X124.482Y-82.977
X125.117Y-36.622
X125.117Y-38.527
X125.117Y-40.432
X125.117Y-69.642
X125.117Y-71.547
X125.117Y-73.452
X125.117Y-85.517
X127.022Y-54.402
X127.022Y-56.307
X127.022Y-58.212
X127.022Y-60.117
X127.022Y-62.022
X127.022Y-63.927
X127.022Y-69.642
X127.022Y-71.547
X127.022Y-73.452
X127.022Y-75.357
X127.022Y-81.707
X127.022Y-84.247
X127.657Y-36.622
X127.657Y-38.527
X127.657Y-40.432
X128.722Y-73.312
X128.866Y-46.135
X128.927Y-86.152
X129.562Y-54.402
X129.562Y-56.307
X129.562Y-58.212
X129.562Y-60.117
X129.562Y-62.022
X129.562Y-63.927
X129.562Y-75.992
X129.562Y-78.532
X130.197Y-84.247
X130.644Y-46.135
X130.832Y-36.622
X130.832Y-38.527
X130.832Y-40.432
X131.467Y-49.703
X131.467Y-75.992
X131.467Y-78.532
X131.467Y-81.072
X131.467Y-86.787
X132.021Y-99.434
X132.102Y-54.402
X132.102Y-56.307
X132.102Y-58.212
X132.102Y-60.117
X132.102Y-62.022
X132.102Y-63.927
X132.219Y-50.301
X132.219Y-51.317
X132.398Y-71.528
X132.45Y-73.56
X132.656Y-91.941
X133.133Y-51.317
X133.372Y-36.622
X133.372Y-38.527
X133.372Y-40.432
X133.372Y-88.057
X133.387Y-43.138
X133.416Y-66.448
X134.007Y-54.402
X134.007Y-95.677
X134.302Y-49.082
X134.606Y-43.341
X134.642Y-56.307
X134.642Y-58.212
X134.642Y-60.117
X134.642Y-62.022
X134.642Y-63.927
X135.277Y-100.122
X135.522Y-66.462
X135.522Y-87.062
X135.724Y-43.544
X135.912Y-36.622
X135.912Y-38.527
X135.912Y-40.432
X135.912Y-93.137
X136.547Y-96.312
X136.579Y-72.482
X136.641Y-74.068
X136.994Y-43.951
X137.182Y-54.402
X137.182Y-56.307
X137.182Y-58.212
X137.182Y-60.117
X137.182Y-62.022
X137.182Y-63.927
X137.592Y-71.519
X137.597Y-73.687
X137.817Y-36.622
X137.817Y-38.527
X137.817Y-40.432
X138.213Y-43.951
X139.087Y-98.217
X139.087Y-102.662
X139.308Y-74.068
X139.585Y-50.098
X139.722Y-54.402
X139.722Y-56.307
X139.722Y-58.212
X139.722Y-60.117
X139.722Y-62.022
X139.722Y-63.927
X139.722Y-95.042
X139.89Y-48.015
X140.357Y-36.622
X140.357Y-38.527
X140.357Y-40.432
X140.992Y-100.122
X142.072Y-73.612
X142.262Y-54.402
X142.262Y-56.307
X142.262Y-58.212
X142.262Y-60.117
X142.262Y-62.022
X142.262Y-63.927
X142.262Y-85.517
X142.262Y-87.422
X142.262Y-89.327
X142.262Y-91.232
X142.56Y-66.398
X142.722Y-72.062
X142.897Y-36.622
X142.897Y-38.527
X142.897Y-40.432
X142.897Y-75.992
X142.897Y-77.897
X142.897Y-79.802
X142.897Y-81.707
X142.897Y-96.312
X142.897Y-98.852
X142.925Y-83.781
X143.532Y-102.662
X144.622Y-66.362
X144.802Y-56.307
X144.802Y-58.212
X144.802Y-60.117
X144.802Y-62.022
X144.802Y-63.927
X144.802Y-75.992
X144.802Y-77.897
X144.802Y-79.802
X144.802Y-81.707
X144.802Y-83.612
X144.802Y-85.517
X144.802Y-87.422
X144.802Y-89.327
X144.802Y-91.232
X144.802Y-93.137
X145.437Y-50.592
X146.02Y-54.132
X146.072Y-100.757
X147.022Y-52.462
X147.342Y-50.592
X147.342Y-56.307
X147.342Y-58.212
X147.342Y-60.117
X147.342Y-62.022
X147.342Y-63.927
X147.342Y-75.992
X147.342Y-77.897
X147.342Y-79.802
X147.342Y-81.707
X147.342Y-83.612
X147.342Y-85.517
X147.342Y-87.422
X147.342Y-89.327
X147.342Y-91.232
X147.342Y-93.137
X147.342Y-95.042
X147.977Y-102.662
X148.722Y-75.562
X148.846Y-77.684
X149.247Y-36.622
X149.247Y-38.527
X149.247Y-40.432
X149.247Y-83.612
X149.247Y-85.517
X149.247Y-87.422
X149.247Y-89.327
X149.247Y-91.232
X149.247Y-93.137
X149.247Y-95.042
X149.247Y-96.947
X149.882Y-56.307
X149.882Y-58.212
X149.882Y-60.117
X149.882Y-62.022
X149.882Y-63.927
X149.882Y-65.832
X149.882Y-67.737
X149.882Y-69.642
X151.152Y-83.612
X151.152Y-85.517
X151.152Y-87.422
X151.152Y-89.327
X151.152Y-91.232
X151.152Y-93.137
X151.152Y-95.042
X151.152Y-96.947
X151.152Y-99.487
X151.472Y-54.162
X151.787Y-36.622
X151.787Y-38.527
X151.787Y-40.432
X152.422Y-56.307
X152.422Y-58.212
X152.422Y-60.117
X152.422Y-62.022
X152.422Y-63.927
X152.422Y-65.832
X152.422Y-67.737
X152.422Y-69.642
X154.327Y-36.622
X154.327Y-38.527
X154.327Y-40.432
X154.327Y-89.327
X154.327Y-91.232
X154.327Y-93.137
X154.327Y-95.042
X154.327Y-96.947
X154.327Y-99.487
X154.327Y-101.392
X154.962Y-54.402
X154.962Y-56.307
X154.962Y-58.212
X154.962Y-60.117
X154.962Y-62.022
X154.962Y-63.927
X154.962Y-65.832
X154.962Y-67.737
X154.962Y-69.642
X155.672Y-74.562
X156.232Y-93.137
X156.232Y-95.042
X156.867Y-97.582
X156.867Y-99.487
X156.867Y-101.392
X157.502Y-54.402
X157.502Y-56.307
X157.502Y-58.212
X157.502Y-60.117
X157.502Y-62.022
X157.502Y-63.927
X157.502Y-65.832
X157.502Y-67.737
X157.502Y-69.642
X157.502Y-82.977
X157.922Y-77.662
X158.137Y-86.152
X158.137Y-88.692
X158.137Y-95.042
X158.772Y-90.597
X159.407Y-58.212
X159.407Y-60.117
X159.407Y-62.022
X159.407Y-63.927
X159.407Y-97.582
X159.407Y-99.487
X159.407Y-101.392
X159.522Y-77.462
X160.042Y-54.402
X160.042Y-56.307
X160.042Y-65.832
X160.042Y-67.737
X160.042Y-69.642
X160.677Y-88.057
X160.677Y-89.962
X160.912Y-43.953
X160.912Y-50.811
X160.934Y-38.268
X161.312Y-91.867
X161.947Y-58.212
X161.947Y-60.117
X161.947Y-62.022
X161.947Y-63.927
X161.947Y-97.582
X161.947Y-99.487
X161.947Y-101.392
X162.582Y-54.402
X162.582Y-56.307
X162.582Y-65.832
X162.582Y-67.737
X162.582Y-69.642
X162.582Y-93.137
X163.217Y-94.407
X163.217Y-95.677
X163.322Y-77.462
X163.572Y-73.762
X163.852Y-49.957
X164.487Y-51.862
X164.487Y-53.767
X164.487Y-55.037
X164.487Y-56.942
X164.487Y-58.212
X164.487Y-60.117
X164.487Y-62.022
X164.487Y-63.927
X165.552Y-77.672
X165.822Y-48.212
X166.117Y-49.34
X166.392Y-36.622
X166.392Y-38.527
X166.392Y-40.432
X166.392Y-51.862
X166.392Y-53.767
X166.392Y-55.037
X166.392Y-56.942
X167.027Y-89.962
X167.027Y-91.867
X167.027Y-93.772
X167.051Y-46.116
X167.222Y-73.762
X167.662Y-101.392
X168.905Y-79.196
X168.932Y-36.622
X168.932Y-38.527
X168.932Y-40.432
X168.932Y-51.862
X168.932Y-53.767
X168.932Y-55.037
X168.932Y-56.942
X169.567Y-89.962
X169.567Y-91.867
X169.567Y-93.772
X169.922Y-64.462
X171.472Y-36.622
X171.472Y-38.527
X171.472Y-40.432
X171.472Y-55.037
X171.472Y-56.942
X171.472Y-69.007
X171.472Y-73.452
X171.972Y-51.412
X172.072Y-52.462
X172.107Y-84.882
X172.107Y-91.867
X172.107Y-93.772
X172.222Y-50.262
X172.7Y-67.028
X172.742Y-71.547
X172.742Y-86.787
X172.954Y-59.967
X173.022Y-51.212
X173.372Y-52.212
X173.372Y-53.312
X173.377Y-99.487
X173.572Y-50.362
X174.012Y-55.037
X174.012Y-56.942
X174.012Y-69.642
X174.012Y-79.802
X174.012Y-81.707
X174.647Y-36.622
X174.647Y-38.527
X174.647Y-88.692
X174.822Y-64.462
X175.087Y-77.718
X175.282Y-81.707
X175.282Y-83.612
X175.917Y-70.912
X176.552Y-69.007
X176.552Y-82.977
X176.552Y-84.882
X176.552Y-89.962
X177.187Y-36.622
X177.187Y-38.527
X177.822Y-84.247
X177.822Y-86.152
X177.822Y-90.597
X177.822Y-93.137
X177.822Y-95.677
X177.822Y-101.392
X178.457Y-60.117
X178.457Y-70.912
X178.602Y-45.216
X178.63Y-49.534
X178.722Y-67.862
X178.872Y-44.262
X179.092Y-87.422
X179.727Y-36.622
X179.727Y-38.527
X180.362Y-58.212
X180.362Y-62.022
X180.87Y-44.369
X180.87Y-47.544
X180.87Y-48.814
X180.87Y-50.084
X180.87Y-51.354
X180.997Y-55.672
X180.997Y-88.692
X180.997Y-90.597
X180.997Y-92.502
X180.997Y-94.407
X180.997Y-96.312
X182.022Y-74.562
X182.267Y-36.622
X182.267Y-38.527
X182.267Y-40.432
X182.267Y-60.117
X182.394Y-42.591
X182.394Y-46.02
X182.394Y-47.671
X182.572Y-50.212
X182.902Y-53.767
X182.902Y-57.577
X182.999Y-49.382
X184.172Y-69.642
X184.172Y-72.182
X184.172Y-74.722
X184.172Y-91.232
X184.322Y-77.662
X184.807Y-36.622
X184.807Y-38.527
X184.807Y-40.432
X184.807Y-60.117
X184.807Y-82.342
X184.807Y-84.882
X185.442Y-86.787
X185.442Y-88.692
X185.442Y-93.137
X186.077Y-69.642
X186.077Y-72.182
X186.077Y-74.722
X186.712Y-53.767
X186.712Y-90.597
X187.012Y-44.251
X187.012Y-50.5
X187.022Y-77.662
X187.114Y-46.385
X187.347Y-36.622
X187.347Y-38.527
X187.347Y-40.432
X187.347Y-55.672
X187.347Y-86.152
X187.347Y-88.057
X187.982Y-69.642
X187.982Y-72.182
X188.003Y-74.634
X189.222Y-77.462
X189.252Y-53.767
X189.45Y-51.262
X189.887Y-57.577
X189.887Y-64.562
X190.619Y-44.607
X192.427Y-54.402
X192.427Y-58.847
X194.332Y-76.627
X194.861Y-79.256
T4
X112.496Y-82.848
X115.996Y-82.848
X134.96Y-82.569
X138.46Y-82.569
X154.2Y-85.552
X156.2Y-85.552
X164.324Y-88.208
X164.324Y-90.208
X165.937Y-68.187
X165.937Y-70.187
X180.673Y-85.354
X182.673Y-85.354
X184.406Y-63.159
X184.406Y-66.659
X190.251Y-88.268
X190.251Y-90.268
X191.94Y-68.247
X191.94Y-70.247
T5
X149.998Y-47.116
X149.998Y-49.116
X152.498Y-47.116
X152.498Y-49.116
T6
X165.685Y-95.707
X165.685Y-100.707
X170.685Y-95.707
X170.685Y-100.707
X175.685Y-95.707
X175.685Y-100.707
T7
X145.228Y-44.406
X157.268Y-44.406
T8
X109.422Y-39.062
X109.422Y-99.562
X191.422Y-39.062
X191.422Y-99.562
M30
