G04 #@! TF.GenerationSoftware,KiCad,Pcbnew,8.0.5*
G04 #@! TF.CreationDate,2024-11-13T13:31:48-05:00*
G04 #@! TF.ProjectId,DacAmp,44616341-6d70-42e6-9b69-6361645f7063,rev?*
G04 #@! TF.SameCoordinates,Original*
G04 #@! TF.FileFunction,Legend,Top*
G04 #@! TF.FilePolarity,Positive*
%FSLAX46Y46*%
G04 Gerber Fmt 4.6, Leading zero omitted, Abs format (unit mm)*
G04 Created by KiCad (PCBNEW 8.0.5) date 2024-11-13 13:31:48*
%MOMM*%
%LPD*%
G01*
G04 APERTURE LIST*
G04 Aperture macros list*
%AMRoundRect*
0 Rectangle with rounded corners*
0 $1 Rounding radius*
0 $2 $3 $4 $5 $6 $7 $8 $9 X,Y pos of 4 corners*
0 Add a 4 corners polygon primitive as box body*
4,1,4,$2,$3,$4,$5,$6,$7,$8,$9,$2,$3,0*
0 Add four circle primitives for the rounded corners*
1,1,$1+$1,$2,$3*
1,1,$1+$1,$4,$5*
1,1,$1+$1,$6,$7*
1,1,$1+$1,$8,$9*
0 Add four rect primitives between the rounded corners*
20,1,$1+$1,$2,$3,$4,$5,0*
20,1,$1+$1,$4,$5,$6,$7,0*
20,1,$1+$1,$6,$7,$8,$9,0*
20,1,$1+$1,$8,$9,$2,$3,0*%
G04 Aperture macros list end*
%ADD10C,0.153000*%
%ADD11C,0.200000*%
%ADD12C,0.120000*%
%ADD13C,0.150000*%
%ADD14C,0.152400*%
%ADD15C,0.127000*%
%ADD16C,4.500000*%
%ADD17RoundRect,0.155000X-0.155000X0.212500X-0.155000X-0.212500X0.155000X-0.212500X0.155000X0.212500X0*%
%ADD18RoundRect,0.250000X-0.475000X0.337500X-0.475000X-0.337500X0.475000X-0.337500X0.475000X0.337500X0*%
%ADD19RoundRect,0.150000X0.150000X-0.825000X0.150000X0.825000X-0.150000X0.825000X-0.150000X-0.825000X0*%
%ADD20RoundRect,0.155000X0.212500X0.155000X-0.212500X0.155000X-0.212500X-0.155000X0.212500X-0.155000X0*%
%ADD21C,1.500000*%
%ADD22RoundRect,0.150000X-0.512500X-0.150000X0.512500X-0.150000X0.512500X0.150000X-0.512500X0.150000X0*%
%ADD23RoundRect,0.160000X-0.160000X0.197500X-0.160000X-0.197500X0.160000X-0.197500X0.160000X0.197500X0*%
%ADD24RoundRect,0.237500X-0.237500X0.250000X-0.237500X-0.250000X0.237500X-0.250000X0.237500X0.250000X0*%
%ADD25RoundRect,0.160000X0.160000X-0.197500X0.160000X0.197500X-0.160000X0.197500X-0.160000X-0.197500X0*%
%ADD26RoundRect,0.160000X-0.197500X-0.160000X0.197500X-0.160000X0.197500X0.160000X-0.197500X0.160000X0*%
%ADD27RoundRect,0.160000X0.197500X0.160000X-0.197500X0.160000X-0.197500X-0.160000X0.197500X-0.160000X0*%
%ADD28R,1.600000X1.600000*%
%ADD29C,1.600000*%
%ADD30RoundRect,0.250000X0.475000X-0.337500X0.475000X0.337500X-0.475000X0.337500X-0.475000X-0.337500X0*%
%ADD31RoundRect,0.250000X0.337500X0.475000X-0.337500X0.475000X-0.337500X-0.475000X0.337500X-0.475000X0*%
%ADD32R,1.750000X0.450000*%
%ADD33RoundRect,0.155000X-0.212500X-0.155000X0.212500X-0.155000X0.212500X0.155000X-0.212500X0.155000X0*%
%ADD34RoundRect,0.237500X0.237500X-0.300000X0.237500X0.300000X-0.237500X0.300000X-0.237500X-0.300000X0*%
%ADD35R,0.499999X0.599999*%
%ADD36C,1.700000*%
%ADD37R,2.800000X2.200000*%
%ADD38R,2.800000X2.800000*%
%ADD39R,0.406400X0.711200*%
%ADD40C,2.004000*%
%ADD41RoundRect,0.150000X-0.150000X0.825000X-0.150000X-0.825000X0.150000X-0.825000X0.150000X0.825000X0*%
%ADD42RoundRect,0.237500X0.287500X0.237500X-0.287500X0.237500X-0.287500X-0.237500X0.287500X-0.237500X0*%
%ADD43RoundRect,0.150000X-0.825000X-0.150000X0.825000X-0.150000X0.825000X0.150000X-0.825000X0.150000X0*%
%ADD44RoundRect,0.250000X-0.337500X-0.475000X0.337500X-0.475000X0.337500X0.475000X-0.337500X0.475000X0*%
%ADD45RoundRect,0.102000X1.500000X-0.500000X1.500000X0.500000X-1.500000X0.500000X-1.500000X-0.500000X0*%
%ADD46R,1.700000X1.700000*%
%ADD47C,3.500000*%
%ADD48RoundRect,0.102000X0.525000X0.650000X-0.525000X0.650000X-0.525000X-0.650000X0.525000X-0.650000X0*%
%ADD49R,2.514600X2.641600*%
%ADD50RoundRect,0.250000X1.100000X-0.412500X1.100000X0.412500X-1.100000X0.412500X-1.100000X-0.412500X0*%
%ADD51RoundRect,0.150000X-0.150000X0.512500X-0.150000X-0.512500X0.150000X-0.512500X0.150000X0.512500X0*%
%ADD52C,0.499999*%
%ADD53R,2.200001X2.999999*%
%ADD54R,0.499999X0.299999*%
G04 APERTURE END LIST*
D10*
X133195199Y-94361124D02*
X133195199Y-95575410D01*
X133195199Y-95575410D02*
X133266628Y-95718267D01*
X133266628Y-95718267D02*
X133338057Y-95789696D01*
X133338057Y-95789696D02*
X133480914Y-95861124D01*
X133480914Y-95861124D02*
X133766628Y-95861124D01*
X133766628Y-95861124D02*
X133909485Y-95789696D01*
X133909485Y-95789696D02*
X133980914Y-95718267D01*
X133980914Y-95718267D02*
X134052342Y-95575410D01*
X134052342Y-95575410D02*
X134052342Y-94361124D01*
X134695200Y-95789696D02*
X134909486Y-95861124D01*
X134909486Y-95861124D02*
X135266628Y-95861124D01*
X135266628Y-95861124D02*
X135409486Y-95789696D01*
X135409486Y-95789696D02*
X135480914Y-95718267D01*
X135480914Y-95718267D02*
X135552343Y-95575410D01*
X135552343Y-95575410D02*
X135552343Y-95432553D01*
X135552343Y-95432553D02*
X135480914Y-95289696D01*
X135480914Y-95289696D02*
X135409486Y-95218267D01*
X135409486Y-95218267D02*
X135266628Y-95146838D01*
X135266628Y-95146838D02*
X134980914Y-95075410D01*
X134980914Y-95075410D02*
X134838057Y-95003981D01*
X134838057Y-95003981D02*
X134766628Y-94932553D01*
X134766628Y-94932553D02*
X134695200Y-94789696D01*
X134695200Y-94789696D02*
X134695200Y-94646838D01*
X134695200Y-94646838D02*
X134766628Y-94503981D01*
X134766628Y-94503981D02*
X134838057Y-94432553D01*
X134838057Y-94432553D02*
X134980914Y-94361124D01*
X134980914Y-94361124D02*
X135338057Y-94361124D01*
X135338057Y-94361124D02*
X135552343Y-94432553D01*
X136695199Y-95075410D02*
X136909485Y-95146838D01*
X136909485Y-95146838D02*
X136980914Y-95218267D01*
X136980914Y-95218267D02*
X137052342Y-95361124D01*
X137052342Y-95361124D02*
X137052342Y-95575410D01*
X137052342Y-95575410D02*
X136980914Y-95718267D01*
X136980914Y-95718267D02*
X136909485Y-95789696D01*
X136909485Y-95789696D02*
X136766628Y-95861124D01*
X136766628Y-95861124D02*
X136195199Y-95861124D01*
X136195199Y-95861124D02*
X136195199Y-94361124D01*
X136195199Y-94361124D02*
X136695199Y-94361124D01*
X136695199Y-94361124D02*
X136838057Y-94432553D01*
X136838057Y-94432553D02*
X136909485Y-94503981D01*
X136909485Y-94503981D02*
X136980914Y-94646838D01*
X136980914Y-94646838D02*
X136980914Y-94789696D01*
X136980914Y-94789696D02*
X136909485Y-94932553D01*
X136909485Y-94932553D02*
X136838057Y-95003981D01*
X136838057Y-95003981D02*
X136695199Y-95075410D01*
X136695199Y-95075410D02*
X136195199Y-95075410D01*
X138838056Y-95861124D02*
X138838056Y-94361124D01*
X138838056Y-95075410D02*
X139695199Y-95075410D01*
X139695199Y-95861124D02*
X139695199Y-94361124D01*
X140980914Y-95789696D02*
X140838057Y-95861124D01*
X140838057Y-95861124D02*
X140552343Y-95861124D01*
X140552343Y-95861124D02*
X140409485Y-95789696D01*
X140409485Y-95789696D02*
X140338057Y-95646838D01*
X140338057Y-95646838D02*
X140338057Y-95075410D01*
X140338057Y-95075410D02*
X140409485Y-94932553D01*
X140409485Y-94932553D02*
X140552343Y-94861124D01*
X140552343Y-94861124D02*
X140838057Y-94861124D01*
X140838057Y-94861124D02*
X140980914Y-94932553D01*
X140980914Y-94932553D02*
X141052343Y-95075410D01*
X141052343Y-95075410D02*
X141052343Y-95218267D01*
X141052343Y-95218267D02*
X140338057Y-95361124D01*
X142338057Y-95861124D02*
X142338057Y-95075410D01*
X142338057Y-95075410D02*
X142266628Y-94932553D01*
X142266628Y-94932553D02*
X142123771Y-94861124D01*
X142123771Y-94861124D02*
X141838057Y-94861124D01*
X141838057Y-94861124D02*
X141695199Y-94932553D01*
X142338057Y-95789696D02*
X142195199Y-95861124D01*
X142195199Y-95861124D02*
X141838057Y-95861124D01*
X141838057Y-95861124D02*
X141695199Y-95789696D01*
X141695199Y-95789696D02*
X141623771Y-95646838D01*
X141623771Y-95646838D02*
X141623771Y-95503981D01*
X141623771Y-95503981D02*
X141695199Y-95361124D01*
X141695199Y-95361124D02*
X141838057Y-95289696D01*
X141838057Y-95289696D02*
X142195199Y-95289696D01*
X142195199Y-95289696D02*
X142338057Y-95218267D01*
X143695200Y-95861124D02*
X143695200Y-94361124D01*
X143695200Y-95789696D02*
X143552342Y-95861124D01*
X143552342Y-95861124D02*
X143266628Y-95861124D01*
X143266628Y-95861124D02*
X143123771Y-95789696D01*
X143123771Y-95789696D02*
X143052342Y-95718267D01*
X143052342Y-95718267D02*
X142980914Y-95575410D01*
X142980914Y-95575410D02*
X142980914Y-95146838D01*
X142980914Y-95146838D02*
X143052342Y-95003981D01*
X143052342Y-95003981D02*
X143123771Y-94932553D01*
X143123771Y-94932553D02*
X143266628Y-94861124D01*
X143266628Y-94861124D02*
X143552342Y-94861124D01*
X143552342Y-94861124D02*
X143695200Y-94932553D01*
X144409485Y-94861124D02*
X144409485Y-96361124D01*
X144409485Y-94932553D02*
X144552343Y-94861124D01*
X144552343Y-94861124D02*
X144838057Y-94861124D01*
X144838057Y-94861124D02*
X144980914Y-94932553D01*
X144980914Y-94932553D02*
X145052343Y-95003981D01*
X145052343Y-95003981D02*
X145123771Y-95146838D01*
X145123771Y-95146838D02*
X145123771Y-95575410D01*
X145123771Y-95575410D02*
X145052343Y-95718267D01*
X145052343Y-95718267D02*
X144980914Y-95789696D01*
X144980914Y-95789696D02*
X144838057Y-95861124D01*
X144838057Y-95861124D02*
X144552343Y-95861124D01*
X144552343Y-95861124D02*
X144409485Y-95789696D01*
X145766628Y-95861124D02*
X145766628Y-94361124D01*
X146409486Y-95861124D02*
X146409486Y-95075410D01*
X146409486Y-95075410D02*
X146338057Y-94932553D01*
X146338057Y-94932553D02*
X146195200Y-94861124D01*
X146195200Y-94861124D02*
X145980914Y-94861124D01*
X145980914Y-94861124D02*
X145838057Y-94932553D01*
X145838057Y-94932553D02*
X145766628Y-95003981D01*
X147338057Y-95861124D02*
X147195200Y-95789696D01*
X147195200Y-95789696D02*
X147123771Y-95718267D01*
X147123771Y-95718267D02*
X147052343Y-95575410D01*
X147052343Y-95575410D02*
X147052343Y-95146838D01*
X147052343Y-95146838D02*
X147123771Y-95003981D01*
X147123771Y-95003981D02*
X147195200Y-94932553D01*
X147195200Y-94932553D02*
X147338057Y-94861124D01*
X147338057Y-94861124D02*
X147552343Y-94861124D01*
X147552343Y-94861124D02*
X147695200Y-94932553D01*
X147695200Y-94932553D02*
X147766629Y-95003981D01*
X147766629Y-95003981D02*
X147838057Y-95146838D01*
X147838057Y-95146838D02*
X147838057Y-95575410D01*
X147838057Y-95575410D02*
X147766629Y-95718267D01*
X147766629Y-95718267D02*
X147695200Y-95789696D01*
X147695200Y-95789696D02*
X147552343Y-95861124D01*
X147552343Y-95861124D02*
X147338057Y-95861124D01*
X148480914Y-94861124D02*
X148480914Y-95861124D01*
X148480914Y-95003981D02*
X148552343Y-94932553D01*
X148552343Y-94932553D02*
X148695200Y-94861124D01*
X148695200Y-94861124D02*
X148909486Y-94861124D01*
X148909486Y-94861124D02*
X149052343Y-94932553D01*
X149052343Y-94932553D02*
X149123772Y-95075410D01*
X149123772Y-95075410D02*
X149123772Y-95861124D01*
X150409486Y-95789696D02*
X150266629Y-95861124D01*
X150266629Y-95861124D02*
X149980915Y-95861124D01*
X149980915Y-95861124D02*
X149838057Y-95789696D01*
X149838057Y-95789696D02*
X149766629Y-95646838D01*
X149766629Y-95646838D02*
X149766629Y-95075410D01*
X149766629Y-95075410D02*
X149838057Y-94932553D01*
X149838057Y-94932553D02*
X149980915Y-94861124D01*
X149980915Y-94861124D02*
X150266629Y-94861124D01*
X150266629Y-94861124D02*
X150409486Y-94932553D01*
X150409486Y-94932553D02*
X150480915Y-95075410D01*
X150480915Y-95075410D02*
X150480915Y-95218267D01*
X150480915Y-95218267D02*
X149766629Y-95361124D01*
X152195200Y-95432553D02*
X152909486Y-95432553D01*
X152052343Y-95861124D02*
X152552343Y-94361124D01*
X152552343Y-94361124D02*
X153052343Y-95861124D01*
X153552342Y-95861124D02*
X153552342Y-94861124D01*
X153552342Y-95003981D02*
X153623771Y-94932553D01*
X153623771Y-94932553D02*
X153766628Y-94861124D01*
X153766628Y-94861124D02*
X153980914Y-94861124D01*
X153980914Y-94861124D02*
X154123771Y-94932553D01*
X154123771Y-94932553D02*
X154195200Y-95075410D01*
X154195200Y-95075410D02*
X154195200Y-95861124D01*
X154195200Y-95075410D02*
X154266628Y-94932553D01*
X154266628Y-94932553D02*
X154409485Y-94861124D01*
X154409485Y-94861124D02*
X154623771Y-94861124D01*
X154623771Y-94861124D02*
X154766628Y-94932553D01*
X154766628Y-94932553D02*
X154838057Y-95075410D01*
X154838057Y-95075410D02*
X154838057Y-95861124D01*
X155552342Y-94861124D02*
X155552342Y-96361124D01*
X155552342Y-94932553D02*
X155695200Y-94861124D01*
X155695200Y-94861124D02*
X155980914Y-94861124D01*
X155980914Y-94861124D02*
X156123771Y-94932553D01*
X156123771Y-94932553D02*
X156195200Y-95003981D01*
X156195200Y-95003981D02*
X156266628Y-95146838D01*
X156266628Y-95146838D02*
X156266628Y-95575410D01*
X156266628Y-95575410D02*
X156195200Y-95718267D01*
X156195200Y-95718267D02*
X156123771Y-95789696D01*
X156123771Y-95789696D02*
X155980914Y-95861124D01*
X155980914Y-95861124D02*
X155695200Y-95861124D01*
X155695200Y-95861124D02*
X155552342Y-95789696D01*
X157123771Y-95861124D02*
X156980914Y-95789696D01*
X156980914Y-95789696D02*
X156909485Y-95646838D01*
X156909485Y-95646838D02*
X156909485Y-94361124D01*
X157695199Y-95861124D02*
X157695199Y-94861124D01*
X157695199Y-94361124D02*
X157623771Y-94432553D01*
X157623771Y-94432553D02*
X157695199Y-94503981D01*
X157695199Y-94503981D02*
X157766628Y-94432553D01*
X157766628Y-94432553D02*
X157695199Y-94361124D01*
X157695199Y-94361124D02*
X157695199Y-94503981D01*
X158195200Y-94861124D02*
X158766628Y-94861124D01*
X158409485Y-95861124D02*
X158409485Y-94575410D01*
X158409485Y-94575410D02*
X158480914Y-94432553D01*
X158480914Y-94432553D02*
X158623771Y-94361124D01*
X158623771Y-94361124D02*
X158766628Y-94361124D01*
X159266628Y-95861124D02*
X159266628Y-94861124D01*
X159266628Y-94361124D02*
X159195200Y-94432553D01*
X159195200Y-94432553D02*
X159266628Y-94503981D01*
X159266628Y-94503981D02*
X159338057Y-94432553D01*
X159338057Y-94432553D02*
X159266628Y-94361124D01*
X159266628Y-94361124D02*
X159266628Y-94503981D01*
X160552343Y-95789696D02*
X160409486Y-95861124D01*
X160409486Y-95861124D02*
X160123772Y-95861124D01*
X160123772Y-95861124D02*
X159980914Y-95789696D01*
X159980914Y-95789696D02*
X159909486Y-95646838D01*
X159909486Y-95646838D02*
X159909486Y-95075410D01*
X159909486Y-95075410D02*
X159980914Y-94932553D01*
X159980914Y-94932553D02*
X160123772Y-94861124D01*
X160123772Y-94861124D02*
X160409486Y-94861124D01*
X160409486Y-94861124D02*
X160552343Y-94932553D01*
X160552343Y-94932553D02*
X160623772Y-95075410D01*
X160623772Y-95075410D02*
X160623772Y-95218267D01*
X160623772Y-95218267D02*
X159909486Y-95361124D01*
X161266628Y-95861124D02*
X161266628Y-94861124D01*
X161266628Y-95146838D02*
X161338057Y-95003981D01*
X161338057Y-95003981D02*
X161409486Y-94932553D01*
X161409486Y-94932553D02*
X161552343Y-94861124D01*
X161552343Y-94861124D02*
X161695200Y-94861124D01*
X133195199Y-96776040D02*
X133195199Y-97990326D01*
X133195199Y-97990326D02*
X133266628Y-98133183D01*
X133266628Y-98133183D02*
X133338057Y-98204612D01*
X133338057Y-98204612D02*
X133480914Y-98276040D01*
X133480914Y-98276040D02*
X133766628Y-98276040D01*
X133766628Y-98276040D02*
X133909485Y-98204612D01*
X133909485Y-98204612D02*
X133980914Y-98133183D01*
X133980914Y-98133183D02*
X134052342Y-97990326D01*
X134052342Y-97990326D02*
X134052342Y-96776040D01*
X134623771Y-97276040D02*
X135409486Y-97276040D01*
X135409486Y-97276040D02*
X134623771Y-98276040D01*
X134623771Y-98276040D02*
X135409486Y-98276040D01*
X136623772Y-98276040D02*
X136623772Y-97490326D01*
X136623772Y-97490326D02*
X136552343Y-97347469D01*
X136552343Y-97347469D02*
X136409486Y-97276040D01*
X136409486Y-97276040D02*
X136123772Y-97276040D01*
X136123772Y-97276040D02*
X135980914Y-97347469D01*
X136623772Y-98204612D02*
X136480914Y-98276040D01*
X136480914Y-98276040D02*
X136123772Y-98276040D01*
X136123772Y-98276040D02*
X135980914Y-98204612D01*
X135980914Y-98204612D02*
X135909486Y-98061754D01*
X135909486Y-98061754D02*
X135909486Y-97918897D01*
X135909486Y-97918897D02*
X135980914Y-97776040D01*
X135980914Y-97776040D02*
X136123772Y-97704612D01*
X136123772Y-97704612D02*
X136480914Y-97704612D01*
X136480914Y-97704612D02*
X136623772Y-97633183D01*
X137338057Y-98276040D02*
X137338057Y-97276040D01*
X137338057Y-96776040D02*
X137266629Y-96847469D01*
X137266629Y-96847469D02*
X137338057Y-96918897D01*
X137338057Y-96918897D02*
X137409486Y-96847469D01*
X137409486Y-96847469D02*
X137338057Y-96776040D01*
X137338057Y-96776040D02*
X137338057Y-96918897D01*
X138052343Y-98276040D02*
X138052343Y-97276040D01*
X138052343Y-97561754D02*
X138123772Y-97418897D01*
X138123772Y-97418897D02*
X138195201Y-97347469D01*
X138195201Y-97347469D02*
X138338058Y-97276040D01*
X138338058Y-97276040D02*
X138480915Y-97276040D01*
X140052343Y-98204612D02*
X140266629Y-98276040D01*
X140266629Y-98276040D02*
X140623771Y-98276040D01*
X140623771Y-98276040D02*
X140766629Y-98204612D01*
X140766629Y-98204612D02*
X140838057Y-98133183D01*
X140838057Y-98133183D02*
X140909486Y-97990326D01*
X140909486Y-97990326D02*
X140909486Y-97847469D01*
X140909486Y-97847469D02*
X140838057Y-97704612D01*
X140838057Y-97704612D02*
X140766629Y-97633183D01*
X140766629Y-97633183D02*
X140623771Y-97561754D01*
X140623771Y-97561754D02*
X140338057Y-97490326D01*
X140338057Y-97490326D02*
X140195200Y-97418897D01*
X140195200Y-97418897D02*
X140123771Y-97347469D01*
X140123771Y-97347469D02*
X140052343Y-97204612D01*
X140052343Y-97204612D02*
X140052343Y-97061754D01*
X140052343Y-97061754D02*
X140123771Y-96918897D01*
X140123771Y-96918897D02*
X140195200Y-96847469D01*
X140195200Y-96847469D02*
X140338057Y-96776040D01*
X140338057Y-96776040D02*
X140695200Y-96776040D01*
X140695200Y-96776040D02*
X140909486Y-96847469D01*
X141409485Y-97276040D02*
X141766628Y-98276040D01*
X142123771Y-97276040D02*
X141766628Y-98276040D01*
X141766628Y-98276040D02*
X141623771Y-98633183D01*
X141623771Y-98633183D02*
X141552342Y-98704612D01*
X141552342Y-98704612D02*
X141409485Y-98776040D01*
X143266628Y-98204612D02*
X143123771Y-98276040D01*
X143123771Y-98276040D02*
X142838057Y-98276040D01*
X142838057Y-98276040D02*
X142695199Y-98204612D01*
X142695199Y-98204612D02*
X142623771Y-98061754D01*
X142623771Y-98061754D02*
X142623771Y-97490326D01*
X142623771Y-97490326D02*
X142695199Y-97347469D01*
X142695199Y-97347469D02*
X142838057Y-97276040D01*
X142838057Y-97276040D02*
X143123771Y-97276040D01*
X143123771Y-97276040D02*
X143266628Y-97347469D01*
X143266628Y-97347469D02*
X143338057Y-97490326D01*
X143338057Y-97490326D02*
X143338057Y-97633183D01*
X143338057Y-97633183D02*
X142623771Y-97776040D01*
X144623771Y-98276040D02*
X144623771Y-96776040D01*
X144623771Y-98204612D02*
X144480913Y-98276040D01*
X144480913Y-98276040D02*
X144195199Y-98276040D01*
X144195199Y-98276040D02*
X144052342Y-98204612D01*
X144052342Y-98204612D02*
X143980913Y-98133183D01*
X143980913Y-98133183D02*
X143909485Y-97990326D01*
X143909485Y-97990326D02*
X143909485Y-97561754D01*
X143909485Y-97561754D02*
X143980913Y-97418897D01*
X143980913Y-97418897D02*
X144052342Y-97347469D01*
X144052342Y-97347469D02*
X144195199Y-97276040D01*
X144195199Y-97276040D02*
X144480913Y-97276040D01*
X144480913Y-97276040D02*
X144623771Y-97347469D01*
X133195199Y-100690956D02*
X133195199Y-99190956D01*
X133195199Y-99190956D02*
X134052342Y-100690956D01*
X134052342Y-100690956D02*
X134052342Y-99190956D01*
X134980914Y-100690956D02*
X134838057Y-100619528D01*
X134838057Y-100619528D02*
X134766628Y-100548099D01*
X134766628Y-100548099D02*
X134695200Y-100405242D01*
X134695200Y-100405242D02*
X134695200Y-99976670D01*
X134695200Y-99976670D02*
X134766628Y-99833813D01*
X134766628Y-99833813D02*
X134838057Y-99762385D01*
X134838057Y-99762385D02*
X134980914Y-99690956D01*
X134980914Y-99690956D02*
X135195200Y-99690956D01*
X135195200Y-99690956D02*
X135338057Y-99762385D01*
X135338057Y-99762385D02*
X135409486Y-99833813D01*
X135409486Y-99833813D02*
X135480914Y-99976670D01*
X135480914Y-99976670D02*
X135480914Y-100405242D01*
X135480914Y-100405242D02*
X135409486Y-100548099D01*
X135409486Y-100548099D02*
X135338057Y-100619528D01*
X135338057Y-100619528D02*
X135195200Y-100690956D01*
X135195200Y-100690956D02*
X134980914Y-100690956D01*
X135980914Y-99690956D02*
X136338057Y-100690956D01*
X136338057Y-100690956D02*
X136695200Y-99690956D01*
X137838057Y-100619528D02*
X137695200Y-100690956D01*
X137695200Y-100690956D02*
X137409486Y-100690956D01*
X137409486Y-100690956D02*
X137266628Y-100619528D01*
X137266628Y-100619528D02*
X137195200Y-100476670D01*
X137195200Y-100476670D02*
X137195200Y-99905242D01*
X137195200Y-99905242D02*
X137266628Y-99762385D01*
X137266628Y-99762385D02*
X137409486Y-99690956D01*
X137409486Y-99690956D02*
X137695200Y-99690956D01*
X137695200Y-99690956D02*
X137838057Y-99762385D01*
X137838057Y-99762385D02*
X137909486Y-99905242D01*
X137909486Y-99905242D02*
X137909486Y-100048099D01*
X137909486Y-100048099D02*
X137195200Y-100190956D01*
X138552342Y-100690956D02*
X138552342Y-99690956D01*
X138552342Y-99833813D02*
X138623771Y-99762385D01*
X138623771Y-99762385D02*
X138766628Y-99690956D01*
X138766628Y-99690956D02*
X138980914Y-99690956D01*
X138980914Y-99690956D02*
X139123771Y-99762385D01*
X139123771Y-99762385D02*
X139195200Y-99905242D01*
X139195200Y-99905242D02*
X139195200Y-100690956D01*
X139195200Y-99905242D02*
X139266628Y-99762385D01*
X139266628Y-99762385D02*
X139409485Y-99690956D01*
X139409485Y-99690956D02*
X139623771Y-99690956D01*
X139623771Y-99690956D02*
X139766628Y-99762385D01*
X139766628Y-99762385D02*
X139838057Y-99905242D01*
X139838057Y-99905242D02*
X139838057Y-100690956D01*
X140552342Y-100690956D02*
X140552342Y-99190956D01*
X140552342Y-99762385D02*
X140695200Y-99690956D01*
X140695200Y-99690956D02*
X140980914Y-99690956D01*
X140980914Y-99690956D02*
X141123771Y-99762385D01*
X141123771Y-99762385D02*
X141195200Y-99833813D01*
X141195200Y-99833813D02*
X141266628Y-99976670D01*
X141266628Y-99976670D02*
X141266628Y-100405242D01*
X141266628Y-100405242D02*
X141195200Y-100548099D01*
X141195200Y-100548099D02*
X141123771Y-100619528D01*
X141123771Y-100619528D02*
X140980914Y-100690956D01*
X140980914Y-100690956D02*
X140695200Y-100690956D01*
X140695200Y-100690956D02*
X140552342Y-100619528D01*
X142480914Y-100619528D02*
X142338057Y-100690956D01*
X142338057Y-100690956D02*
X142052343Y-100690956D01*
X142052343Y-100690956D02*
X141909485Y-100619528D01*
X141909485Y-100619528D02*
X141838057Y-100476670D01*
X141838057Y-100476670D02*
X141838057Y-99905242D01*
X141838057Y-99905242D02*
X141909485Y-99762385D01*
X141909485Y-99762385D02*
X142052343Y-99690956D01*
X142052343Y-99690956D02*
X142338057Y-99690956D01*
X142338057Y-99690956D02*
X142480914Y-99762385D01*
X142480914Y-99762385D02*
X142552343Y-99905242D01*
X142552343Y-99905242D02*
X142552343Y-100048099D01*
X142552343Y-100048099D02*
X141838057Y-100190956D01*
X143195199Y-100690956D02*
X143195199Y-99690956D01*
X143195199Y-99976670D02*
X143266628Y-99833813D01*
X143266628Y-99833813D02*
X143338057Y-99762385D01*
X143338057Y-99762385D02*
X143480914Y-99690956D01*
X143480914Y-99690956D02*
X143623771Y-99690956D01*
X145195199Y-99333813D02*
X145266627Y-99262385D01*
X145266627Y-99262385D02*
X145409485Y-99190956D01*
X145409485Y-99190956D02*
X145766627Y-99190956D01*
X145766627Y-99190956D02*
X145909485Y-99262385D01*
X145909485Y-99262385D02*
X145980913Y-99333813D01*
X145980913Y-99333813D02*
X146052342Y-99476670D01*
X146052342Y-99476670D02*
X146052342Y-99619528D01*
X146052342Y-99619528D02*
X145980913Y-99833813D01*
X145980913Y-99833813D02*
X145123770Y-100690956D01*
X145123770Y-100690956D02*
X146052342Y-100690956D01*
X146980913Y-99190956D02*
X147123770Y-99190956D01*
X147123770Y-99190956D02*
X147266627Y-99262385D01*
X147266627Y-99262385D02*
X147338056Y-99333813D01*
X147338056Y-99333813D02*
X147409484Y-99476670D01*
X147409484Y-99476670D02*
X147480913Y-99762385D01*
X147480913Y-99762385D02*
X147480913Y-100119528D01*
X147480913Y-100119528D02*
X147409484Y-100405242D01*
X147409484Y-100405242D02*
X147338056Y-100548099D01*
X147338056Y-100548099D02*
X147266627Y-100619528D01*
X147266627Y-100619528D02*
X147123770Y-100690956D01*
X147123770Y-100690956D02*
X146980913Y-100690956D01*
X146980913Y-100690956D02*
X146838056Y-100619528D01*
X146838056Y-100619528D02*
X146766627Y-100548099D01*
X146766627Y-100548099D02*
X146695198Y-100405242D01*
X146695198Y-100405242D02*
X146623770Y-100119528D01*
X146623770Y-100119528D02*
X146623770Y-99762385D01*
X146623770Y-99762385D02*
X146695198Y-99476670D01*
X146695198Y-99476670D02*
X146766627Y-99333813D01*
X146766627Y-99333813D02*
X146838056Y-99262385D01*
X146838056Y-99262385D02*
X146980913Y-99190956D01*
X148052341Y-99333813D02*
X148123769Y-99262385D01*
X148123769Y-99262385D02*
X148266627Y-99190956D01*
X148266627Y-99190956D02*
X148623769Y-99190956D01*
X148623769Y-99190956D02*
X148766627Y-99262385D01*
X148766627Y-99262385D02*
X148838055Y-99333813D01*
X148838055Y-99333813D02*
X148909484Y-99476670D01*
X148909484Y-99476670D02*
X148909484Y-99619528D01*
X148909484Y-99619528D02*
X148838055Y-99833813D01*
X148838055Y-99833813D02*
X147980912Y-100690956D01*
X147980912Y-100690956D02*
X148909484Y-100690956D01*
X150195198Y-99690956D02*
X150195198Y-100690956D01*
X149838055Y-99119528D02*
X149480912Y-100190956D01*
X149480912Y-100190956D02*
X150409483Y-100190956D01*
X134052342Y-103105872D02*
X133552342Y-102391586D01*
X133195199Y-103105872D02*
X133195199Y-101605872D01*
X133195199Y-101605872D02*
X133766628Y-101605872D01*
X133766628Y-101605872D02*
X133909485Y-101677301D01*
X133909485Y-101677301D02*
X133980914Y-101748729D01*
X133980914Y-101748729D02*
X134052342Y-101891586D01*
X134052342Y-101891586D02*
X134052342Y-102105872D01*
X134052342Y-102105872D02*
X133980914Y-102248729D01*
X133980914Y-102248729D02*
X133909485Y-102320158D01*
X133909485Y-102320158D02*
X133766628Y-102391586D01*
X133766628Y-102391586D02*
X133195199Y-102391586D01*
X135266628Y-103034444D02*
X135123771Y-103105872D01*
X135123771Y-103105872D02*
X134838057Y-103105872D01*
X134838057Y-103105872D02*
X134695199Y-103034444D01*
X134695199Y-103034444D02*
X134623771Y-102891586D01*
X134623771Y-102891586D02*
X134623771Y-102320158D01*
X134623771Y-102320158D02*
X134695199Y-102177301D01*
X134695199Y-102177301D02*
X134838057Y-102105872D01*
X134838057Y-102105872D02*
X135123771Y-102105872D01*
X135123771Y-102105872D02*
X135266628Y-102177301D01*
X135266628Y-102177301D02*
X135338057Y-102320158D01*
X135338057Y-102320158D02*
X135338057Y-102463015D01*
X135338057Y-102463015D02*
X134623771Y-102605872D01*
X135838056Y-102105872D02*
X136195199Y-103105872D01*
X136195199Y-103105872D02*
X136552342Y-102105872D01*
X137123770Y-103105872D02*
X137123770Y-102105872D01*
X137123770Y-101605872D02*
X137052342Y-101677301D01*
X137052342Y-101677301D02*
X137123770Y-101748729D01*
X137123770Y-101748729D02*
X137195199Y-101677301D01*
X137195199Y-101677301D02*
X137123770Y-101605872D01*
X137123770Y-101605872D02*
X137123770Y-101748729D01*
X137766628Y-103034444D02*
X137909485Y-103105872D01*
X137909485Y-103105872D02*
X138195199Y-103105872D01*
X138195199Y-103105872D02*
X138338056Y-103034444D01*
X138338056Y-103034444D02*
X138409485Y-102891586D01*
X138409485Y-102891586D02*
X138409485Y-102820158D01*
X138409485Y-102820158D02*
X138338056Y-102677301D01*
X138338056Y-102677301D02*
X138195199Y-102605872D01*
X138195199Y-102605872D02*
X137980914Y-102605872D01*
X137980914Y-102605872D02*
X137838056Y-102534444D01*
X137838056Y-102534444D02*
X137766628Y-102391586D01*
X137766628Y-102391586D02*
X137766628Y-102320158D01*
X137766628Y-102320158D02*
X137838056Y-102177301D01*
X137838056Y-102177301D02*
X137980914Y-102105872D01*
X137980914Y-102105872D02*
X138195199Y-102105872D01*
X138195199Y-102105872D02*
X138338056Y-102177301D01*
X139052342Y-103105872D02*
X139052342Y-102105872D01*
X139052342Y-101605872D02*
X138980914Y-101677301D01*
X138980914Y-101677301D02*
X139052342Y-101748729D01*
X139052342Y-101748729D02*
X139123771Y-101677301D01*
X139123771Y-101677301D02*
X139052342Y-101605872D01*
X139052342Y-101605872D02*
X139052342Y-101748729D01*
X139980914Y-103105872D02*
X139838057Y-103034444D01*
X139838057Y-103034444D02*
X139766628Y-102963015D01*
X139766628Y-102963015D02*
X139695200Y-102820158D01*
X139695200Y-102820158D02*
X139695200Y-102391586D01*
X139695200Y-102391586D02*
X139766628Y-102248729D01*
X139766628Y-102248729D02*
X139838057Y-102177301D01*
X139838057Y-102177301D02*
X139980914Y-102105872D01*
X139980914Y-102105872D02*
X140195200Y-102105872D01*
X140195200Y-102105872D02*
X140338057Y-102177301D01*
X140338057Y-102177301D02*
X140409486Y-102248729D01*
X140409486Y-102248729D02*
X140480914Y-102391586D01*
X140480914Y-102391586D02*
X140480914Y-102820158D01*
X140480914Y-102820158D02*
X140409486Y-102963015D01*
X140409486Y-102963015D02*
X140338057Y-103034444D01*
X140338057Y-103034444D02*
X140195200Y-103105872D01*
X140195200Y-103105872D02*
X139980914Y-103105872D01*
X141123771Y-102105872D02*
X141123771Y-103105872D01*
X141123771Y-102248729D02*
X141195200Y-102177301D01*
X141195200Y-102177301D02*
X141338057Y-102105872D01*
X141338057Y-102105872D02*
X141552343Y-102105872D01*
X141552343Y-102105872D02*
X141695200Y-102177301D01*
X141695200Y-102177301D02*
X141766629Y-102320158D01*
X141766629Y-102320158D02*
X141766629Y-103105872D01*
X143623771Y-102534444D02*
X144766629Y-102534444D01*
D11*
X160268319Y-51513599D02*
X160506414Y-51513599D01*
X160411176Y-51751694D02*
X160506414Y-51513599D01*
X160506414Y-51513599D02*
X160411176Y-51275504D01*
X160696890Y-51656456D02*
X160506414Y-51513599D01*
X160506414Y-51513599D02*
X160696890Y-51370742D01*
X161163880Y-43230800D02*
X160925785Y-43230800D01*
X161021023Y-42992705D02*
X160925785Y-43230800D01*
X160925785Y-43230800D02*
X161021023Y-43468895D01*
X160735309Y-43087943D02*
X160925785Y-43230800D01*
X160925785Y-43230800D02*
X160735309Y-43373657D01*
D10*
X123072111Y-51762802D02*
X123072111Y-51096135D01*
X123500682Y-51762802D02*
X123500682Y-51238993D01*
X123500682Y-51238993D02*
X123453063Y-51143755D01*
X123453063Y-51143755D02*
X123357825Y-51096135D01*
X123357825Y-51096135D02*
X123214968Y-51096135D01*
X123214968Y-51096135D02*
X123119730Y-51143755D01*
X123119730Y-51143755D02*
X123072111Y-51191374D01*
D12*
X185967200Y-43579365D02*
X185967200Y-43811035D01*
X186687200Y-43579365D02*
X186687200Y-43811035D01*
X175413000Y-76401548D02*
X175413000Y-76924052D01*
X176883000Y-76401548D02*
X176883000Y-76924052D01*
X151184800Y-78448000D02*
X151184800Y-76498000D01*
X151184800Y-78448000D02*
X151184800Y-80398000D01*
X156304800Y-78448000D02*
X156304800Y-76498000D01*
X156304800Y-78448000D02*
X156304800Y-80398000D01*
X151279800Y-81148000D02*
X150949800Y-81388000D01*
X150949800Y-80908000D01*
X151279800Y-81148000D01*
G36*
X151279800Y-81148000D02*
G01*
X150949800Y-81388000D01*
X150949800Y-80908000D01*
X151279800Y-81148000D01*
G37*
X147417235Y-53780400D02*
X147185565Y-53780400D01*
X147417235Y-54500400D02*
X147185565Y-54500400D01*
X130689000Y-50495200D02*
G75*
G02*
X128789000Y-50495200I-950000J0D01*
G01*
X128789000Y-50495200D02*
G75*
G02*
X130689000Y-50495200I950000J0D01*
G01*
X169477000Y-47604600D02*
X168677000Y-47604600D01*
X169477000Y-47604600D02*
X170277000Y-47604600D01*
X169477000Y-50724600D02*
X168677000Y-50724600D01*
X169477000Y-50724600D02*
X170277000Y-50724600D01*
X168177000Y-47654600D02*
X167937000Y-47324600D01*
X168417000Y-47324600D01*
X168177000Y-47654600D01*
G36*
X168177000Y-47654600D02*
G01*
X167937000Y-47324600D01*
X168417000Y-47324600D01*
X168177000Y-47654600D01*
G37*
X192835000Y-76083179D02*
X192835000Y-76418421D01*
X193595000Y-76083179D02*
X193595000Y-76418421D01*
X178927000Y-64964779D02*
X178927000Y-65300021D01*
X179687000Y-64964779D02*
X179687000Y-65300021D01*
X138172400Y-50138400D02*
G75*
G02*
X136272400Y-50138400I-950000J0D01*
G01*
X136272400Y-50138400D02*
G75*
G02*
X138172400Y-50138400I950000J0D01*
G01*
X137074500Y-76106076D02*
X137074500Y-76615524D01*
X138119500Y-76106076D02*
X138119500Y-76615524D01*
X185810800Y-81685621D02*
X185810800Y-81350379D01*
X186570800Y-81685621D02*
X186570800Y-81350379D01*
X132594979Y-43438000D02*
X132930221Y-43438000D01*
X132594979Y-44198000D02*
X132930221Y-44198000D01*
X180281835Y-72529000D02*
X180050165Y-72529000D01*
X180281835Y-73249000D02*
X180050165Y-73249000D01*
X174869021Y-51815000D02*
X174533779Y-51815000D01*
X174869021Y-52575000D02*
X174533779Y-52575000D01*
X163356800Y-69147225D02*
X164896800Y-69147225D01*
X163356800Y-69187225D02*
X164896800Y-69187225D01*
X163357800Y-69107225D02*
X164896800Y-69107225D01*
X163358800Y-69067225D02*
X164896800Y-69067225D01*
X163360800Y-69027225D02*
X164896800Y-69027225D01*
X163363800Y-68987225D02*
X164896800Y-68987225D01*
X163367800Y-68947225D02*
X164896800Y-68947225D01*
X163371800Y-68907225D02*
X164896800Y-68907225D01*
X163375800Y-68867225D02*
X164896800Y-68867225D01*
X163380800Y-68827225D02*
X164896800Y-68827225D01*
X163386800Y-68787225D02*
X164896800Y-68787225D01*
X163393800Y-68747225D02*
X164896800Y-68747225D01*
X163400800Y-68707225D02*
X164896800Y-68707225D01*
X163408800Y-68667225D02*
X164896800Y-68667225D01*
X163416800Y-68627225D02*
X164896800Y-68627225D01*
X163425800Y-68587225D02*
X164896800Y-68587225D01*
X163435800Y-68547225D02*
X164896800Y-68547225D01*
X163445800Y-68507225D02*
X164896800Y-68507225D01*
X163456800Y-68466225D02*
X164896800Y-68466225D01*
X163468800Y-68426225D02*
X164896800Y-68426225D01*
X163481800Y-68386225D02*
X164896800Y-68386225D01*
X163494800Y-68346225D02*
X164896800Y-68346225D01*
X163508800Y-68306225D02*
X164896800Y-68306225D01*
X163522800Y-68266225D02*
X164896800Y-68266225D01*
X163538800Y-68226225D02*
X164896800Y-68226225D01*
X163554800Y-68186225D02*
X164896800Y-68186225D01*
X163571800Y-68146225D02*
X164896800Y-68146225D01*
X163588800Y-68106225D02*
X164896800Y-68106225D01*
X163607800Y-68066225D02*
X164896800Y-68066225D01*
X163626800Y-68026225D02*
X164896800Y-68026225D01*
X163646800Y-67986225D02*
X164896800Y-67986225D01*
X163668800Y-67946225D02*
X164896800Y-67946225D01*
X163689800Y-67906225D02*
X164896800Y-67906225D01*
X163712800Y-67866225D02*
X164896800Y-67866225D01*
X163736800Y-67826225D02*
X164896800Y-67826225D01*
X163761800Y-67786225D02*
X164896800Y-67786225D01*
X163787800Y-67746225D02*
X164896800Y-67746225D01*
X163814800Y-67706225D02*
X164896800Y-67706225D01*
X163841800Y-67666225D02*
X164896800Y-67666225D01*
X163871800Y-67626225D02*
X164896800Y-67626225D01*
X163901800Y-67586225D02*
X164896800Y-67586225D01*
X163932800Y-67546225D02*
X164896800Y-67546225D01*
X163965800Y-67506225D02*
X164896800Y-67506225D01*
X163999800Y-67466225D02*
X164896800Y-67466225D01*
X164035800Y-67426225D02*
X164896800Y-67426225D01*
X164072800Y-67386225D02*
X164896800Y-67386225D01*
X164110800Y-67346225D02*
X164896800Y-67346225D01*
X164151800Y-67306225D02*
X164896800Y-67306225D01*
X164193800Y-67266225D02*
X164896800Y-67266225D01*
X164211800Y-71742000D02*
X164711800Y-71742000D01*
X164237800Y-67226225D02*
X164896800Y-67226225D01*
X164283800Y-67186225D02*
X164896800Y-67186225D01*
X164331800Y-67146225D02*
X167541800Y-67146225D01*
X164382800Y-67106225D02*
X167490800Y-67106225D01*
X164436800Y-67066225D02*
X167436800Y-67066225D01*
X164461800Y-71992000D02*
X164461800Y-71492000D01*
X164493800Y-67026225D02*
X167379800Y-67026225D01*
X164553800Y-66986225D02*
X167319800Y-66986225D01*
X164617800Y-66946225D02*
X167255800Y-66946225D01*
X164685800Y-66906225D02*
X167187800Y-66906225D01*
X164758800Y-66866225D02*
X167114800Y-66866225D01*
X164838800Y-66826225D02*
X167034800Y-66826225D01*
X164925800Y-66786225D02*
X166947800Y-66786225D01*
X165021800Y-66746225D02*
X166851800Y-66746225D01*
X165131800Y-66706225D02*
X166741800Y-66706225D01*
X165259800Y-66666225D02*
X166613800Y-66666225D01*
X165418800Y-66626225D02*
X166454800Y-66626225D01*
X165652800Y-66586225D02*
X166220800Y-66586225D01*
X166976800Y-67186225D02*
X167589800Y-67186225D01*
X166976800Y-67226225D02*
X167635800Y-67226225D01*
X166976800Y-67266225D02*
X167679800Y-67266225D01*
X166976800Y-67306225D02*
X167721800Y-67306225D01*
X166976800Y-67346225D02*
X167762800Y-67346225D01*
X166976800Y-67386225D02*
X167800800Y-67386225D01*
X166976800Y-67426225D02*
X167837800Y-67426225D01*
X166976800Y-67466225D02*
X167873800Y-67466225D01*
X166976800Y-67506225D02*
X167907800Y-67506225D01*
X166976800Y-67546225D02*
X167940800Y-67546225D01*
X166976800Y-67586225D02*
X167971800Y-67586225D01*
X166976800Y-67626225D02*
X168001800Y-67626225D01*
X166976800Y-67666225D02*
X168031800Y-67666225D01*
X166976800Y-67706225D02*
X168058800Y-67706225D01*
X166976800Y-67746225D02*
X168085800Y-67746225D01*
X166976800Y-67786225D02*
X168111800Y-67786225D01*
X166976800Y-67826225D02*
X168136800Y-67826225D01*
X166976800Y-67866225D02*
X168160800Y-67866225D01*
X166976800Y-67906225D02*
X168183800Y-67906225D01*
X166976800Y-67946225D02*
X168204800Y-67946225D01*
X166976800Y-67986225D02*
X168226800Y-67986225D01*
X166976800Y-68026225D02*
X168246800Y-68026225D01*
X166976800Y-68066225D02*
X168265800Y-68066225D01*
X166976800Y-68106225D02*
X168284800Y-68106225D01*
X166976800Y-68146225D02*
X168301800Y-68146225D01*
X166976800Y-68186225D02*
X168318800Y-68186225D01*
X166976800Y-68226225D02*
X168334800Y-68226225D01*
X166976800Y-68266225D02*
X168350800Y-68266225D01*
X166976800Y-68306225D02*
X168364800Y-68306225D01*
X166976800Y-68346225D02*
X168378800Y-68346225D01*
X166976800Y-68386225D02*
X168391800Y-68386225D01*
X166976800Y-68426225D02*
X168404800Y-68426225D01*
X166976800Y-68466225D02*
X168416800Y-68466225D01*
X166976800Y-68507225D02*
X168427800Y-68507225D01*
X166976800Y-68547225D02*
X168437800Y-68547225D01*
X166976800Y-68587225D02*
X168447800Y-68587225D01*
X166976800Y-68627225D02*
X168456800Y-68627225D01*
X166976800Y-68667225D02*
X168464800Y-68667225D01*
X166976800Y-68707225D02*
X168472800Y-68707225D01*
X166976800Y-68747225D02*
X168479800Y-68747225D01*
X166976800Y-68787225D02*
X168486800Y-68787225D01*
X166976800Y-68827225D02*
X168492800Y-68827225D01*
X166976800Y-68867225D02*
X168497800Y-68867225D01*
X166976800Y-68907225D02*
X168501800Y-68907225D01*
X166976800Y-68947225D02*
X168505800Y-68947225D01*
X166976800Y-68987225D02*
X168509800Y-68987225D01*
X166976800Y-69027225D02*
X168512800Y-69027225D01*
X166976800Y-69067225D02*
X168514800Y-69067225D01*
X166976800Y-69107225D02*
X168515800Y-69107225D01*
X166976800Y-69147225D02*
X168516800Y-69147225D01*
X166976800Y-69187225D02*
X168516800Y-69187225D01*
X168556800Y-69187225D02*
G75*
G02*
X163316800Y-69187225I-2620000J0D01*
G01*
X163316800Y-69187225D02*
G75*
G02*
X168556800Y-69187225I2620000J0D01*
G01*
X162298800Y-40382621D02*
X162298800Y-40047379D01*
X163058800Y-40382621D02*
X163058800Y-40047379D01*
X193038000Y-80535052D02*
X193038000Y-80012548D01*
X194508000Y-80535052D02*
X194508000Y-80012548D01*
X134720052Y-66796800D02*
X134197548Y-66796800D01*
X134720052Y-68266800D02*
X134197548Y-68266800D01*
D13*
X177932400Y-42002400D02*
X177932400Y-42577400D01*
X177932400Y-42002400D02*
X183682400Y-42002400D01*
X177932400Y-52077400D02*
X177932400Y-52652400D01*
X177932400Y-52652400D02*
X183682400Y-52652400D01*
X183682400Y-42002400D02*
X183682400Y-42577400D01*
X183682400Y-52077400D02*
X183682400Y-52652400D01*
D12*
X177432400Y-42577400D02*
X177192400Y-42247400D01*
X177672400Y-42247400D01*
X177432400Y-42577400D01*
G36*
X177432400Y-42577400D02*
G01*
X177192400Y-42247400D01*
X177672400Y-42247400D01*
X177432400Y-42577400D01*
G37*
X109836800Y-80532800D02*
X110636800Y-80532800D01*
X110236800Y-80132800D02*
X110236800Y-80932800D01*
X114246498Y-78767800D02*
X114246498Y-86927800D01*
X114286498Y-78767800D02*
X114286498Y-86927800D01*
X114326498Y-78767800D02*
X114326498Y-86927800D01*
X114366498Y-78768800D02*
X114366498Y-86926800D01*
X114406498Y-78770800D02*
X114406498Y-86924800D01*
X114446498Y-78771800D02*
X114446498Y-86923800D01*
X114486498Y-78773800D02*
X114486498Y-86921800D01*
X114526498Y-78776800D02*
X114526498Y-86918800D01*
X114566498Y-78779800D02*
X114566498Y-86915800D01*
X114606498Y-78782800D02*
X114606498Y-86912800D01*
X114646498Y-78786800D02*
X114646498Y-86908800D01*
X114686498Y-78790800D02*
X114686498Y-86904800D01*
X114726498Y-78795800D02*
X114726498Y-86899800D01*
X114766498Y-78799800D02*
X114766498Y-86895800D01*
X114806498Y-78805800D02*
X114806498Y-86889800D01*
X114846498Y-78810800D02*
X114846498Y-86884800D01*
X114886498Y-78817800D02*
X114886498Y-86877800D01*
X114926498Y-78823800D02*
X114926498Y-86871800D01*
X114967498Y-78830800D02*
X114967498Y-81807800D01*
X114967498Y-83887800D02*
X114967498Y-86864800D01*
X115007498Y-78837800D02*
X115007498Y-81807800D01*
X115007498Y-83887800D02*
X115007498Y-86857800D01*
X115047498Y-78845800D02*
X115047498Y-81807800D01*
X115047498Y-83887800D02*
X115047498Y-86849800D01*
X115087498Y-78853800D02*
X115087498Y-81807800D01*
X115087498Y-83887800D02*
X115087498Y-86841800D01*
X115127498Y-78862800D02*
X115127498Y-81807800D01*
X115127498Y-83887800D02*
X115127498Y-86832800D01*
X115167498Y-78871800D02*
X115167498Y-81807800D01*
X115167498Y-83887800D02*
X115167498Y-86823800D01*
X115207498Y-78880800D02*
X115207498Y-81807800D01*
X115207498Y-83887800D02*
X115207498Y-86814800D01*
X115247498Y-78890800D02*
X115247498Y-81807800D01*
X115247498Y-83887800D02*
X115247498Y-86804800D01*
X115287498Y-78900800D02*
X115287498Y-81807800D01*
X115287498Y-83887800D02*
X115287498Y-86794800D01*
X115327498Y-78911800D02*
X115327498Y-81807800D01*
X115327498Y-83887800D02*
X115327498Y-86783800D01*
X115367498Y-78922800D02*
X115367498Y-81807800D01*
X115367498Y-83887800D02*
X115367498Y-86772800D01*
X115407498Y-78933800D02*
X115407498Y-81807800D01*
X115407498Y-83887800D02*
X115407498Y-86761800D01*
X115447498Y-78945800D02*
X115447498Y-81807800D01*
X115447498Y-83887800D02*
X115447498Y-86749800D01*
X115487498Y-78958800D02*
X115487498Y-81807800D01*
X115487498Y-83887800D02*
X115487498Y-86736800D01*
X115527498Y-78970800D02*
X115527498Y-81807800D01*
X115527498Y-83887800D02*
X115527498Y-86724800D01*
X115567498Y-78984800D02*
X115567498Y-81807800D01*
X115567498Y-83887800D02*
X115567498Y-86710800D01*
X115607498Y-78997800D02*
X115607498Y-81807800D01*
X115607498Y-83887800D02*
X115607498Y-86697800D01*
X115647498Y-79012800D02*
X115647498Y-81807800D01*
X115647498Y-83887800D02*
X115647498Y-86682800D01*
X115687498Y-79026800D02*
X115687498Y-81807800D01*
X115687498Y-83887800D02*
X115687498Y-86668800D01*
X115727498Y-79042800D02*
X115727498Y-81807800D01*
X115727498Y-83887800D02*
X115727498Y-86652800D01*
X115767498Y-79057800D02*
X115767498Y-81807800D01*
X115767498Y-83887800D02*
X115767498Y-86637800D01*
X115807498Y-79073800D02*
X115807498Y-81807800D01*
X115807498Y-83887800D02*
X115807498Y-86621800D01*
X115847498Y-79090800D02*
X115847498Y-81807800D01*
X115847498Y-83887800D02*
X115847498Y-86604800D01*
X115887498Y-79107800D02*
X115887498Y-81807800D01*
X115887498Y-83887800D02*
X115887498Y-86587800D01*
X115927498Y-79125800D02*
X115927498Y-81807800D01*
X115927498Y-83887800D02*
X115927498Y-86569800D01*
X115967498Y-79143800D02*
X115967498Y-81807800D01*
X115967498Y-83887800D02*
X115967498Y-86551800D01*
X116007498Y-79161800D02*
X116007498Y-81807800D01*
X116007498Y-83887800D02*
X116007498Y-86533800D01*
X116047498Y-79181800D02*
X116047498Y-81807800D01*
X116047498Y-83887800D02*
X116047498Y-86513800D01*
X116087498Y-79200800D02*
X116087498Y-81807800D01*
X116087498Y-83887800D02*
X116087498Y-86494800D01*
X116127498Y-79220800D02*
X116127498Y-81807800D01*
X116127498Y-83887800D02*
X116127498Y-86474800D01*
X116167498Y-79241800D02*
X116167498Y-81807800D01*
X116167498Y-83887800D02*
X116167498Y-86453800D01*
X116207498Y-79263800D02*
X116207498Y-81807800D01*
X116207498Y-83887800D02*
X116207498Y-86431800D01*
X116247498Y-79285800D02*
X116247498Y-81807800D01*
X116247498Y-83887800D02*
X116247498Y-86409800D01*
X116287498Y-79307800D02*
X116287498Y-81807800D01*
X116287498Y-83887800D02*
X116287498Y-86387800D01*
X116327498Y-79330800D02*
X116327498Y-81807800D01*
X116327498Y-83887800D02*
X116327498Y-86364800D01*
X116367498Y-79354800D02*
X116367498Y-81807800D01*
X116367498Y-83887800D02*
X116367498Y-86340800D01*
X116407498Y-79378800D02*
X116407498Y-81807800D01*
X116407498Y-83887800D02*
X116407498Y-86316800D01*
X116447498Y-79403800D02*
X116447498Y-81807800D01*
X116447498Y-83887800D02*
X116447498Y-86291800D01*
X116487498Y-79429800D02*
X116487498Y-81807800D01*
X116487498Y-83887800D02*
X116487498Y-86265800D01*
X116527498Y-79455800D02*
X116527498Y-81807800D01*
X116527498Y-83887800D02*
X116527498Y-86239800D01*
X116567498Y-79482800D02*
X116567498Y-81807800D01*
X116567498Y-83887800D02*
X116567498Y-86212800D01*
X116607498Y-79509800D02*
X116607498Y-81807800D01*
X116607498Y-83887800D02*
X116607498Y-86185800D01*
X116647498Y-79538800D02*
X116647498Y-81807800D01*
X116647498Y-83887800D02*
X116647498Y-86156800D01*
X116687498Y-79567800D02*
X116687498Y-81807800D01*
X116687498Y-83887800D02*
X116687498Y-86127800D01*
X116727498Y-79597800D02*
X116727498Y-81807800D01*
X116727498Y-83887800D02*
X116727498Y-86097800D01*
X116767498Y-79627800D02*
X116767498Y-81807800D01*
X116767498Y-83887800D02*
X116767498Y-86067800D01*
X116807498Y-79658800D02*
X116807498Y-81807800D01*
X116807498Y-83887800D02*
X116807498Y-86036800D01*
X116847498Y-79691800D02*
X116847498Y-81807800D01*
X116847498Y-83887800D02*
X116847498Y-86003800D01*
X116887498Y-79723800D02*
X116887498Y-81807800D01*
X116887498Y-83887800D02*
X116887498Y-85971800D01*
X116927498Y-79757800D02*
X116927498Y-81807800D01*
X116927498Y-83887800D02*
X116927498Y-85937800D01*
X116967498Y-79792800D02*
X116967498Y-81807800D01*
X116967498Y-83887800D02*
X116967498Y-85902800D01*
X117007498Y-79828800D02*
X117007498Y-81807800D01*
X117007498Y-83887800D02*
X117007498Y-85866800D01*
X117047498Y-79864800D02*
X117047498Y-85830800D01*
X117087498Y-79902800D02*
X117087498Y-85792800D01*
X117127498Y-79940800D02*
X117127498Y-85754800D01*
X117167498Y-79980800D02*
X117167498Y-85714800D01*
X117207498Y-80021800D02*
X117207498Y-85673800D01*
X117247498Y-80063800D02*
X117247498Y-85631800D01*
X117287498Y-80106800D02*
X117287498Y-85588800D01*
X117327498Y-80150800D02*
X117327498Y-85544800D01*
X117367498Y-80196800D02*
X117367498Y-85498800D01*
X117407498Y-80243800D02*
X117407498Y-85451800D01*
X117447498Y-80291800D02*
X117447498Y-85403800D01*
X117487498Y-80342800D02*
X117487498Y-85352800D01*
X117527498Y-80393800D02*
X117527498Y-85301800D01*
X117567498Y-80447800D02*
X117567498Y-85247800D01*
X117607498Y-80502800D02*
X117607498Y-85192800D01*
X117647498Y-80560800D02*
X117647498Y-85134800D01*
X117687498Y-80619800D02*
X117687498Y-85075800D01*
X117727498Y-80681800D02*
X117727498Y-85013800D01*
X117767498Y-80745800D02*
X117767498Y-84949800D01*
X117807498Y-80813800D02*
X117807498Y-84881800D01*
X117847498Y-80883800D02*
X117847498Y-84811800D01*
X117887498Y-80957800D02*
X117887498Y-84737800D01*
X117927498Y-81034800D02*
X117927498Y-84660800D01*
X117967498Y-81116800D02*
X117967498Y-84578800D01*
X118007498Y-81202800D02*
X118007498Y-84492800D01*
X118047498Y-81295800D02*
X118047498Y-84399800D01*
X118087498Y-81394800D02*
X118087498Y-84300800D01*
X118127498Y-81501800D02*
X118127498Y-84193800D01*
X118167498Y-81618800D02*
X118167498Y-84076800D01*
X118207498Y-81749800D02*
X118207498Y-83945800D01*
X118247498Y-81899800D02*
X118247498Y-83795800D01*
X118287498Y-82079800D02*
X118287498Y-83615800D01*
X118327498Y-82314800D02*
X118327498Y-83380800D01*
X118366498Y-82847800D02*
G75*
G02*
X110126498Y-82847800I-4120000J0D01*
G01*
X110126498Y-82847800D02*
G75*
G02*
X118366498Y-82847800I4120000J0D01*
G01*
X141543800Y-83351621D02*
X141543800Y-83016379D01*
X142303800Y-83351621D02*
X142303800Y-83016379D01*
X150068565Y-53792400D02*
X150300235Y-53792400D01*
X150068565Y-54512400D02*
X150300235Y-54512400D01*
X174238252Y-60349000D02*
X173715748Y-60349000D01*
X174238252Y-61819000D02*
X173715748Y-61819000D01*
X111255500Y-76233076D02*
X111255500Y-76742524D01*
X112300500Y-76233076D02*
X112300500Y-76742524D01*
X173917200Y-49094948D02*
X173917200Y-49617452D01*
X175387200Y-49094948D02*
X175387200Y-49617452D01*
X133869635Y-49877200D02*
X133637965Y-49877200D01*
X133869635Y-50597200D02*
X133637965Y-50597200D01*
X150025800Y-81140621D02*
X150025800Y-80805379D01*
X150785800Y-81140621D02*
X150785800Y-80805379D01*
X189927565Y-44937000D02*
X190159235Y-44937000D01*
X189927565Y-45657000D02*
X190159235Y-45657000D01*
X167035800Y-80490252D02*
X167035800Y-79967748D01*
X168505800Y-80490252D02*
X168505800Y-79967748D01*
X159824000Y-78446267D02*
X159824000Y-78153733D01*
X160844000Y-78446267D02*
X160844000Y-78153733D01*
X122536252Y-44811800D02*
X122013748Y-44811800D01*
X122536252Y-46281800D02*
X122013748Y-46281800D01*
X165129379Y-73662800D02*
X165464621Y-73662800D01*
X165129379Y-74422800D02*
X165464621Y-74422800D01*
X123189000Y-87254000D02*
X129389000Y-87254000D01*
X123189000Y-96154000D02*
X123189000Y-87254000D01*
X123189000Y-101954000D02*
X123189000Y-98754000D01*
X123689000Y-101954000D02*
X123189000Y-101954000D01*
X123689000Y-104454000D02*
X123689000Y-101954000D01*
X128889000Y-101954000D02*
X128889000Y-104454000D01*
X128889000Y-104454000D02*
X123689000Y-104454000D01*
X129389000Y-87254000D02*
X129389000Y-88454000D01*
X129389000Y-91654000D02*
X129389000Y-98154000D01*
X129389000Y-98154000D02*
X131389000Y-98154000D01*
X129389000Y-100754000D02*
X129389000Y-101954000D01*
X129389000Y-100754000D02*
X131389000Y-100754000D01*
X129389000Y-101954000D02*
X128889000Y-101954000D01*
X143848252Y-66769000D02*
X143325748Y-66769000D01*
X143848252Y-68239000D02*
X143325748Y-68239000D01*
X153837835Y-73830000D02*
X153606165Y-73830000D01*
X153837835Y-74550000D02*
X153606165Y-74550000D01*
D14*
X160370000Y-48502200D02*
X160370000Y-50051600D01*
X161462200Y-50051600D02*
X161462200Y-48502200D01*
D12*
X189211000Y-89267575D02*
X187671000Y-89267575D01*
X189211000Y-89307575D02*
X187671000Y-89307575D01*
X189211000Y-89347575D02*
X187672000Y-89347575D01*
X189211000Y-89387575D02*
X187673000Y-89387575D01*
X189211000Y-89427575D02*
X187675000Y-89427575D01*
X189211000Y-89467575D02*
X187678000Y-89467575D01*
X189211000Y-89507575D02*
X187682000Y-89507575D01*
X189211000Y-89547575D02*
X187686000Y-89547575D01*
X189211000Y-89587575D02*
X187690000Y-89587575D01*
X189211000Y-89627575D02*
X187695000Y-89627575D01*
X189211000Y-89667575D02*
X187701000Y-89667575D01*
X189211000Y-89707575D02*
X187708000Y-89707575D01*
X189211000Y-89747575D02*
X187715000Y-89747575D01*
X189211000Y-89787575D02*
X187723000Y-89787575D01*
X189211000Y-89827575D02*
X187731000Y-89827575D01*
X189211000Y-89867575D02*
X187740000Y-89867575D01*
X189211000Y-89907575D02*
X187750000Y-89907575D01*
X189211000Y-89947575D02*
X187760000Y-89947575D01*
X189211000Y-89988575D02*
X187771000Y-89988575D01*
X189211000Y-90028575D02*
X187783000Y-90028575D01*
X189211000Y-90068575D02*
X187796000Y-90068575D01*
X189211000Y-90108575D02*
X187809000Y-90108575D01*
X189211000Y-90148575D02*
X187823000Y-90148575D01*
X189211000Y-90188575D02*
X187837000Y-90188575D01*
X189211000Y-90228575D02*
X187853000Y-90228575D01*
X189211000Y-90268575D02*
X187869000Y-90268575D01*
X189211000Y-90308575D02*
X187886000Y-90308575D01*
X189211000Y-90348575D02*
X187903000Y-90348575D01*
X189211000Y-90388575D02*
X187922000Y-90388575D01*
X189211000Y-90428575D02*
X187941000Y-90428575D01*
X189211000Y-90468575D02*
X187961000Y-90468575D01*
X189211000Y-90508575D02*
X187983000Y-90508575D01*
X189211000Y-90548575D02*
X188004000Y-90548575D01*
X189211000Y-90588575D02*
X188027000Y-90588575D01*
X189211000Y-90628575D02*
X188051000Y-90628575D01*
X189211000Y-90668575D02*
X188076000Y-90668575D01*
X189211000Y-90708575D02*
X188102000Y-90708575D01*
X189211000Y-90748575D02*
X188129000Y-90748575D01*
X189211000Y-90788575D02*
X188156000Y-90788575D01*
X189211000Y-90828575D02*
X188186000Y-90828575D01*
X189211000Y-90868575D02*
X188216000Y-90868575D01*
X189211000Y-90908575D02*
X188247000Y-90908575D01*
X189211000Y-90948575D02*
X188280000Y-90948575D01*
X189211000Y-90988575D02*
X188314000Y-90988575D01*
X189211000Y-91028575D02*
X188350000Y-91028575D01*
X189211000Y-91068575D02*
X188387000Y-91068575D01*
X189211000Y-91108575D02*
X188425000Y-91108575D01*
X189211000Y-91148575D02*
X188466000Y-91148575D01*
X189211000Y-91188575D02*
X188508000Y-91188575D01*
X189211000Y-91228575D02*
X188552000Y-91228575D01*
X189211000Y-91268575D02*
X188598000Y-91268575D01*
X190535000Y-91868575D02*
X189967000Y-91868575D01*
X190769000Y-91828575D02*
X189733000Y-91828575D01*
X190928000Y-91788575D02*
X189574000Y-91788575D01*
X191056000Y-91748575D02*
X189446000Y-91748575D01*
X191166000Y-91708575D02*
X189336000Y-91708575D01*
X191262000Y-91668575D02*
X189240000Y-91668575D01*
X191349000Y-91628575D02*
X189153000Y-91628575D01*
X191429000Y-91588575D02*
X189073000Y-91588575D01*
X191502000Y-91548575D02*
X189000000Y-91548575D01*
X191570000Y-91508575D02*
X188932000Y-91508575D01*
X191634000Y-91468575D02*
X188868000Y-91468575D01*
X191694000Y-91428575D02*
X188808000Y-91428575D01*
X191726000Y-86462800D02*
X191726000Y-86962800D01*
X191751000Y-91388575D02*
X188751000Y-91388575D01*
X191805000Y-91348575D02*
X188697000Y-91348575D01*
X191856000Y-91308575D02*
X188646000Y-91308575D01*
X191904000Y-91268575D02*
X191291000Y-91268575D01*
X191950000Y-91228575D02*
X191291000Y-91228575D01*
X191976000Y-86712800D02*
X191476000Y-86712800D01*
X191994000Y-91188575D02*
X191291000Y-91188575D01*
X192036000Y-91148575D02*
X191291000Y-91148575D01*
X192077000Y-91108575D02*
X191291000Y-91108575D01*
X192115000Y-91068575D02*
X191291000Y-91068575D01*
X192152000Y-91028575D02*
X191291000Y-91028575D01*
X192188000Y-90988575D02*
X191291000Y-90988575D01*
X192222000Y-90948575D02*
X191291000Y-90948575D01*
X192255000Y-90908575D02*
X191291000Y-90908575D01*
X192286000Y-90868575D02*
X191291000Y-90868575D01*
X192316000Y-90828575D02*
X191291000Y-90828575D01*
X192346000Y-90788575D02*
X191291000Y-90788575D01*
X192373000Y-90748575D02*
X191291000Y-90748575D01*
X192400000Y-90708575D02*
X191291000Y-90708575D01*
X192426000Y-90668575D02*
X191291000Y-90668575D01*
X192451000Y-90628575D02*
X191291000Y-90628575D01*
X192475000Y-90588575D02*
X191291000Y-90588575D01*
X192498000Y-90548575D02*
X191291000Y-90548575D01*
X192519000Y-90508575D02*
X191291000Y-90508575D01*
X192541000Y-90468575D02*
X191291000Y-90468575D01*
X192561000Y-90428575D02*
X191291000Y-90428575D01*
X192580000Y-90388575D02*
X191291000Y-90388575D01*
X192599000Y-90348575D02*
X191291000Y-90348575D01*
X192616000Y-90308575D02*
X191291000Y-90308575D01*
X192633000Y-90268575D02*
X191291000Y-90268575D01*
X192649000Y-90228575D02*
X191291000Y-90228575D01*
X192665000Y-90188575D02*
X191291000Y-90188575D01*
X192679000Y-90148575D02*
X191291000Y-90148575D01*
X192693000Y-90108575D02*
X191291000Y-90108575D01*
X192706000Y-90068575D02*
X191291000Y-90068575D01*
X192719000Y-90028575D02*
X191291000Y-90028575D01*
X192731000Y-89988575D02*
X191291000Y-89988575D01*
X192742000Y-89947575D02*
X191291000Y-89947575D01*
X192752000Y-89907575D02*
X191291000Y-89907575D01*
X192762000Y-89867575D02*
X191291000Y-89867575D01*
X192771000Y-89827575D02*
X191291000Y-89827575D01*
X192779000Y-89787575D02*
X191291000Y-89787575D01*
X192787000Y-89747575D02*
X191291000Y-89747575D01*
X192794000Y-89707575D02*
X191291000Y-89707575D01*
X192801000Y-89667575D02*
X191291000Y-89667575D01*
X192807000Y-89627575D02*
X191291000Y-89627575D01*
X192812000Y-89587575D02*
X191291000Y-89587575D01*
X192816000Y-89547575D02*
X191291000Y-89547575D01*
X192820000Y-89507575D02*
X191291000Y-89507575D01*
X192824000Y-89467575D02*
X191291000Y-89467575D01*
X192827000Y-89427575D02*
X191291000Y-89427575D01*
X192829000Y-89387575D02*
X191291000Y-89387575D01*
X192830000Y-89347575D02*
X191291000Y-89347575D01*
X192831000Y-89267575D02*
X191291000Y-89267575D01*
X192831000Y-89307575D02*
X191291000Y-89307575D01*
X192871000Y-89267575D02*
G75*
G02*
X187631000Y-89267575I-2620000J0D01*
G01*
X187631000Y-89267575D02*
G75*
G02*
X192871000Y-89267575I2620000J0D01*
G01*
X135393500Y-76106076D02*
X135393500Y-76615524D01*
X136438500Y-76106076D02*
X136438500Y-76615524D01*
X154842400Y-52758400D02*
G75*
G02*
X152942400Y-52758400I-950000J0D01*
G01*
X152942400Y-52758400D02*
G75*
G02*
X154842400Y-52758400I950000J0D01*
G01*
X153892621Y-72741000D02*
X153557379Y-72741000D01*
X153892621Y-73501000D02*
X153557379Y-73501000D01*
X191370621Y-72745000D02*
X191035379Y-72745000D01*
X191370621Y-73505000D02*
X191035379Y-73505000D01*
D15*
X162184800Y-93106800D02*
X162184800Y-104506800D01*
X179184800Y-93106800D02*
X162184800Y-93106800D01*
X179184800Y-104506800D02*
X179184800Y-93106800D01*
D11*
X161684800Y-100706800D02*
G75*
G02*
X161484800Y-100706800I-100000J0D01*
G01*
X161484800Y-100706800D02*
G75*
G02*
X161684800Y-100706800I100000J0D01*
G01*
D12*
X156753000Y-78101179D02*
X156753000Y-78436421D01*
X157513000Y-78101179D02*
X157513000Y-78436421D01*
X183156000Y-78210179D02*
X183156000Y-78545421D01*
X183916000Y-78210179D02*
X183916000Y-78545421D01*
X174331779Y-42129400D02*
X174667021Y-42129400D01*
X174331779Y-42889400D02*
X174667021Y-42889400D01*
X163284000Y-89207575D02*
X161744000Y-89207575D01*
X163284000Y-89247575D02*
X161744000Y-89247575D01*
X163284000Y-89287575D02*
X161745000Y-89287575D01*
X163284000Y-89327575D02*
X161746000Y-89327575D01*
X163284000Y-89367575D02*
X161748000Y-89367575D01*
X163284000Y-89407575D02*
X161751000Y-89407575D01*
X163284000Y-89447575D02*
X161755000Y-89447575D01*
X163284000Y-89487575D02*
X161759000Y-89487575D01*
X163284000Y-89527575D02*
X161763000Y-89527575D01*
X163284000Y-89567575D02*
X161768000Y-89567575D01*
X163284000Y-89607575D02*
X161774000Y-89607575D01*
X163284000Y-89647575D02*
X161781000Y-89647575D01*
X163284000Y-89687575D02*
X161788000Y-89687575D01*
X163284000Y-89727575D02*
X161796000Y-89727575D01*
X163284000Y-89767575D02*
X161804000Y-89767575D01*
X163284000Y-89807575D02*
X161813000Y-89807575D01*
X163284000Y-89847575D02*
X161823000Y-89847575D01*
X163284000Y-89887575D02*
X161833000Y-89887575D01*
X163284000Y-89928575D02*
X161844000Y-89928575D01*
X163284000Y-89968575D02*
X161856000Y-89968575D01*
X163284000Y-90008575D02*
X161869000Y-90008575D01*
X163284000Y-90048575D02*
X161882000Y-90048575D01*
X163284000Y-90088575D02*
X161896000Y-90088575D01*
X163284000Y-90128575D02*
X161910000Y-90128575D01*
X163284000Y-90168575D02*
X161926000Y-90168575D01*
X163284000Y-90208575D02*
X161942000Y-90208575D01*
X163284000Y-90248575D02*
X161959000Y-90248575D01*
X163284000Y-90288575D02*
X161976000Y-90288575D01*
X163284000Y-90328575D02*
X161995000Y-90328575D01*
X163284000Y-90368575D02*
X162014000Y-90368575D01*
X163284000Y-90408575D02*
X162034000Y-90408575D01*
X163284000Y-90448575D02*
X162056000Y-90448575D01*
X163284000Y-90488575D02*
X162077000Y-90488575D01*
X163284000Y-90528575D02*
X162100000Y-90528575D01*
X163284000Y-90568575D02*
X162124000Y-90568575D01*
X163284000Y-90608575D02*
X162149000Y-90608575D01*
X163284000Y-90648575D02*
X162175000Y-90648575D01*
X163284000Y-90688575D02*
X162202000Y-90688575D01*
X163284000Y-90728575D02*
X162229000Y-90728575D01*
X163284000Y-90768575D02*
X162259000Y-90768575D01*
X163284000Y-90808575D02*
X162289000Y-90808575D01*
X163284000Y-90848575D02*
X162320000Y-90848575D01*
X163284000Y-90888575D02*
X162353000Y-90888575D01*
X163284000Y-90928575D02*
X162387000Y-90928575D01*
X163284000Y-90968575D02*
X162423000Y-90968575D01*
X163284000Y-91008575D02*
X162460000Y-91008575D01*
X163284000Y-91048575D02*
X162498000Y-91048575D01*
X163284000Y-91088575D02*
X162539000Y-91088575D01*
X163284000Y-91128575D02*
X162581000Y-91128575D01*
X163284000Y-91168575D02*
X162625000Y-91168575D01*
X163284000Y-91208575D02*
X162671000Y-91208575D01*
X164608000Y-91808575D02*
X164040000Y-91808575D01*
X164842000Y-91768575D02*
X163806000Y-91768575D01*
X165001000Y-91728575D02*
X163647000Y-91728575D01*
X165129000Y-91688575D02*
X163519000Y-91688575D01*
X165239000Y-91648575D02*
X163409000Y-91648575D01*
X165335000Y-91608575D02*
X163313000Y-91608575D01*
X165422000Y-91568575D02*
X163226000Y-91568575D01*
X165502000Y-91528575D02*
X163146000Y-91528575D01*
X165575000Y-91488575D02*
X163073000Y-91488575D01*
X165643000Y-91448575D02*
X163005000Y-91448575D01*
X165707000Y-91408575D02*
X162941000Y-91408575D01*
X165767000Y-91368575D02*
X162881000Y-91368575D01*
X165799000Y-86402800D02*
X165799000Y-86902800D01*
X165824000Y-91328575D02*
X162824000Y-91328575D01*
X165878000Y-91288575D02*
X162770000Y-91288575D01*
X165929000Y-91248575D02*
X162719000Y-91248575D01*
X165977000Y-91208575D02*
X165364000Y-91208575D01*
X166023000Y-91168575D02*
X165364000Y-91168575D01*
X166049000Y-86652800D02*
X165549000Y-86652800D01*
X166067000Y-91128575D02*
X165364000Y-91128575D01*
X166109000Y-91088575D02*
X165364000Y-91088575D01*
X166150000Y-91048575D02*
X165364000Y-91048575D01*
X166188000Y-91008575D02*
X165364000Y-91008575D01*
X166225000Y-90968575D02*
X165364000Y-90968575D01*
X166261000Y-90928575D02*
X165364000Y-90928575D01*
X166295000Y-90888575D02*
X165364000Y-90888575D01*
X166328000Y-90848575D02*
X165364000Y-90848575D01*
X166359000Y-90808575D02*
X165364000Y-90808575D01*
X166389000Y-90768575D02*
X165364000Y-90768575D01*
X166419000Y-90728575D02*
X165364000Y-90728575D01*
X166446000Y-90688575D02*
X165364000Y-90688575D01*
X166473000Y-90648575D02*
X165364000Y-90648575D01*
X166499000Y-90608575D02*
X165364000Y-90608575D01*
X166524000Y-90568575D02*
X165364000Y-90568575D01*
X166548000Y-90528575D02*
X165364000Y-90528575D01*
X166571000Y-90488575D02*
X165364000Y-90488575D01*
X166592000Y-90448575D02*
X165364000Y-90448575D01*
X166614000Y-90408575D02*
X165364000Y-90408575D01*
X166634000Y-90368575D02*
X165364000Y-90368575D01*
X166653000Y-90328575D02*
X165364000Y-90328575D01*
X166672000Y-90288575D02*
X165364000Y-90288575D01*
X166689000Y-90248575D02*
X165364000Y-90248575D01*
X166706000Y-90208575D02*
X165364000Y-90208575D01*
X166722000Y-90168575D02*
X165364000Y-90168575D01*
X166738000Y-90128575D02*
X165364000Y-90128575D01*
X166752000Y-90088575D02*
X165364000Y-90088575D01*
X166766000Y-90048575D02*
X165364000Y-90048575D01*
X166779000Y-90008575D02*
X165364000Y-90008575D01*
X166792000Y-89968575D02*
X165364000Y-89968575D01*
X166804000Y-89928575D02*
X165364000Y-89928575D01*
X166815000Y-89887575D02*
X165364000Y-89887575D01*
X166825000Y-89847575D02*
X165364000Y-89847575D01*
X166835000Y-89807575D02*
X165364000Y-89807575D01*
X166844000Y-89767575D02*
X165364000Y-89767575D01*
X166852000Y-89727575D02*
X165364000Y-89727575D01*
X166860000Y-89687575D02*
X165364000Y-89687575D01*
X166867000Y-89647575D02*
X165364000Y-89647575D01*
X166874000Y-89607575D02*
X165364000Y-89607575D01*
X166880000Y-89567575D02*
X165364000Y-89567575D01*
X166885000Y-89527575D02*
X165364000Y-89527575D01*
X166889000Y-89487575D02*
X165364000Y-89487575D01*
X166893000Y-89447575D02*
X165364000Y-89447575D01*
X166897000Y-89407575D02*
X165364000Y-89407575D01*
X166900000Y-89367575D02*
X165364000Y-89367575D01*
X166902000Y-89327575D02*
X165364000Y-89327575D01*
X166903000Y-89287575D02*
X165364000Y-89287575D01*
X166904000Y-89207575D02*
X165364000Y-89207575D01*
X166904000Y-89247575D02*
X165364000Y-89247575D01*
X166944000Y-89207575D02*
G75*
G02*
X161704000Y-89207575I-2620000J0D01*
G01*
X161704000Y-89207575D02*
G75*
G02*
X166944000Y-89207575I2620000J0D01*
G01*
X187340000Y-78469800D02*
X187340000Y-76519800D01*
X187340000Y-78469800D02*
X187340000Y-80419800D01*
X192460000Y-78469800D02*
X192460000Y-76519800D01*
X192460000Y-78469800D02*
X192460000Y-80419800D01*
X192695000Y-76009800D02*
X192365000Y-75769800D01*
X192695000Y-75529800D01*
X192695000Y-76009800D01*
G36*
X192695000Y-76009800D02*
G01*
X192365000Y-75769800D01*
X192695000Y-75529800D01*
X192695000Y-76009800D01*
G37*
X185967200Y-46119365D02*
X185967200Y-46351035D01*
X186687200Y-46119365D02*
X186687200Y-46351035D01*
X138755500Y-76106076D02*
X138755500Y-76615524D01*
X139800500Y-76106076D02*
X139800500Y-76615524D01*
X159954000Y-81386421D02*
X159954000Y-81051179D01*
X160714000Y-81386421D02*
X160714000Y-81051179D01*
X185677000Y-78666067D02*
X185677000Y-78373533D01*
X186697000Y-78666067D02*
X186697000Y-78373533D01*
X171592800Y-46004200D02*
G75*
G02*
X169692800Y-46004200I-950000J0D01*
G01*
X169692800Y-46004200D02*
G75*
G02*
X171592800Y-46004200I950000J0D01*
G01*
X174331779Y-43357400D02*
X174667021Y-43357400D01*
X174331779Y-44117400D02*
X174667021Y-44117400D01*
X119776400Y-44636600D02*
G75*
G02*
X117876400Y-44636600I-950000J0D01*
G01*
X117876400Y-44636600D02*
G75*
G02*
X119776400Y-44636600I950000J0D01*
G01*
X149061667Y-51933400D02*
X148719133Y-51933400D01*
X149061667Y-52953400D02*
X148719133Y-52953400D01*
X132595800Y-68864800D02*
X130645800Y-68864800D01*
X132595800Y-68864800D02*
X134545800Y-68864800D01*
X132595800Y-73984800D02*
X130645800Y-73984800D01*
X132595800Y-73984800D02*
X134545800Y-73984800D01*
X129895800Y-68959800D02*
X129655800Y-68629800D01*
X130135800Y-68629800D01*
X129895800Y-68959800D01*
G36*
X129895800Y-68959800D02*
G01*
X129655800Y-68629800D01*
X130135800Y-68629800D01*
X129895800Y-68959800D01*
G37*
X149172000Y-76367548D02*
X149172000Y-76890052D01*
X150642000Y-76367548D02*
X150642000Y-76890052D01*
X152394800Y-84076800D02*
X152894800Y-84076800D01*
X152644800Y-83826800D02*
X152644800Y-84326800D01*
X155199575Y-82971800D02*
X155199575Y-84511800D01*
X155199575Y-86591800D02*
X155199575Y-88131800D01*
X155239575Y-82971800D02*
X155239575Y-84511800D01*
X155239575Y-86591800D02*
X155239575Y-88131800D01*
X155279575Y-82972800D02*
X155279575Y-84511800D01*
X155279575Y-86591800D02*
X155279575Y-88130800D01*
X155319575Y-82973800D02*
X155319575Y-84511800D01*
X155319575Y-86591800D02*
X155319575Y-88129800D01*
X155359575Y-82975800D02*
X155359575Y-84511800D01*
X155359575Y-86591800D02*
X155359575Y-88127800D01*
X155399575Y-82978800D02*
X155399575Y-84511800D01*
X155399575Y-86591800D02*
X155399575Y-88124800D01*
X155439575Y-82982800D02*
X155439575Y-84511800D01*
X155439575Y-86591800D02*
X155439575Y-88120800D01*
X155479575Y-82986800D02*
X155479575Y-84511800D01*
X155479575Y-86591800D02*
X155479575Y-88116800D01*
X155519575Y-82990800D02*
X155519575Y-84511800D01*
X155519575Y-86591800D02*
X155519575Y-88112800D01*
X155559575Y-82995800D02*
X155559575Y-84511800D01*
X155559575Y-86591800D02*
X155559575Y-88107800D01*
X155599575Y-83001800D02*
X155599575Y-84511800D01*
X155599575Y-86591800D02*
X155599575Y-88101800D01*
X155639575Y-83008800D02*
X155639575Y-84511800D01*
X155639575Y-86591800D02*
X155639575Y-88094800D01*
X155679575Y-83015800D02*
X155679575Y-84511800D01*
X155679575Y-86591800D02*
X155679575Y-88087800D01*
X155719575Y-83023800D02*
X155719575Y-84511800D01*
X155719575Y-86591800D02*
X155719575Y-88079800D01*
X155759575Y-83031800D02*
X155759575Y-84511800D01*
X155759575Y-86591800D02*
X155759575Y-88071800D01*
X155799575Y-83040800D02*
X155799575Y-84511800D01*
X155799575Y-86591800D02*
X155799575Y-88062800D01*
X155839575Y-83050800D02*
X155839575Y-84511800D01*
X155839575Y-86591800D02*
X155839575Y-88052800D01*
X155879575Y-83060800D02*
X155879575Y-84511800D01*
X155879575Y-86591800D02*
X155879575Y-88042800D01*
X155920575Y-83071800D02*
X155920575Y-84511800D01*
X155920575Y-86591800D02*
X155920575Y-88031800D01*
X155960575Y-83083800D02*
X155960575Y-84511800D01*
X155960575Y-86591800D02*
X155960575Y-88019800D01*
X156000575Y-83096800D02*
X156000575Y-84511800D01*
X156000575Y-86591800D02*
X156000575Y-88006800D01*
X156040575Y-83109800D02*
X156040575Y-84511800D01*
X156040575Y-86591800D02*
X156040575Y-87993800D01*
X156080575Y-83123800D02*
X156080575Y-84511800D01*
X156080575Y-86591800D02*
X156080575Y-87979800D01*
X156120575Y-83137800D02*
X156120575Y-84511800D01*
X156120575Y-86591800D02*
X156120575Y-87965800D01*
X156160575Y-83153800D02*
X156160575Y-84511800D01*
X156160575Y-86591800D02*
X156160575Y-87949800D01*
X156200575Y-83169800D02*
X156200575Y-84511800D01*
X156200575Y-86591800D02*
X156200575Y-87933800D01*
X156240575Y-83186800D02*
X156240575Y-84511800D01*
X156240575Y-86591800D02*
X156240575Y-87916800D01*
X156280575Y-83203800D02*
X156280575Y-84511800D01*
X156280575Y-86591800D02*
X156280575Y-87899800D01*
X156320575Y-83222800D02*
X156320575Y-84511800D01*
X156320575Y-86591800D02*
X156320575Y-87880800D01*
X156360575Y-83241800D02*
X156360575Y-84511800D01*
X156360575Y-86591800D02*
X156360575Y-87861800D01*
X156400575Y-83261800D02*
X156400575Y-84511800D01*
X156400575Y-86591800D02*
X156400575Y-87841800D01*
X156440575Y-83283800D02*
X156440575Y-84511800D01*
X156440575Y-86591800D02*
X156440575Y-87819800D01*
X156480575Y-83304800D02*
X156480575Y-84511800D01*
X156480575Y-86591800D02*
X156480575Y-87798800D01*
X156520575Y-83327800D02*
X156520575Y-84511800D01*
X156520575Y-86591800D02*
X156520575Y-87775800D01*
X156560575Y-83351800D02*
X156560575Y-84511800D01*
X156560575Y-86591800D02*
X156560575Y-87751800D01*
X156600575Y-83376800D02*
X156600575Y-84511800D01*
X156600575Y-86591800D02*
X156600575Y-87726800D01*
X156640575Y-83402800D02*
X156640575Y-84511800D01*
X156640575Y-86591800D02*
X156640575Y-87700800D01*
X156680575Y-83429800D02*
X156680575Y-84511800D01*
X156680575Y-86591800D02*
X156680575Y-87673800D01*
X156720575Y-83456800D02*
X156720575Y-84511800D01*
X156720575Y-86591800D02*
X156720575Y-87646800D01*
X156760575Y-83486800D02*
X156760575Y-84511800D01*
X156760575Y-86591800D02*
X156760575Y-87616800D01*
X156800575Y-83516800D02*
X156800575Y-84511800D01*
X156800575Y-86591800D02*
X156800575Y-87586800D01*
X156840575Y-83547800D02*
X156840575Y-84511800D01*
X156840575Y-86591800D02*
X156840575Y-87555800D01*
X156880575Y-83580800D02*
X156880575Y-84511800D01*
X156880575Y-86591800D02*
X156880575Y-87522800D01*
X156920575Y-83614800D02*
X156920575Y-84511800D01*
X156920575Y-86591800D02*
X156920575Y-87488800D01*
X156960575Y-83650800D02*
X156960575Y-84511800D01*
X156960575Y-86591800D02*
X156960575Y-87452800D01*
X157000575Y-83687800D02*
X157000575Y-84511800D01*
X157000575Y-86591800D02*
X157000575Y-87415800D01*
X157040575Y-83725800D02*
X157040575Y-84511800D01*
X157040575Y-86591800D02*
X157040575Y-87377800D01*
X157080575Y-83766800D02*
X157080575Y-84511800D01*
X157080575Y-86591800D02*
X157080575Y-87336800D01*
X157120575Y-83808800D02*
X157120575Y-84511800D01*
X157120575Y-86591800D02*
X157120575Y-87294800D01*
X157160575Y-83852800D02*
X157160575Y-84511800D01*
X157160575Y-86591800D02*
X157160575Y-87250800D01*
X157200575Y-83898800D02*
X157200575Y-84511800D01*
X157200575Y-86591800D02*
X157200575Y-87204800D01*
X157240575Y-83946800D02*
X157240575Y-87156800D01*
X157280575Y-83997800D02*
X157280575Y-87105800D01*
X157320575Y-84051800D02*
X157320575Y-87051800D01*
X157360575Y-84108800D02*
X157360575Y-86994800D01*
X157400575Y-84168800D02*
X157400575Y-86934800D01*
X157440575Y-84232800D02*
X157440575Y-86870800D01*
X157480575Y-84300800D02*
X157480575Y-86802800D01*
X157520575Y-84373800D02*
X157520575Y-86729800D01*
X157560575Y-84453800D02*
X157560575Y-86649800D01*
X157600575Y-84540800D02*
X157600575Y-86562800D01*
X157640575Y-84636800D02*
X157640575Y-86466800D01*
X157680575Y-84746800D02*
X157680575Y-86356800D01*
X157720575Y-84874800D02*
X157720575Y-86228800D01*
X157760575Y-85033800D02*
X157760575Y-86069800D01*
X157800575Y-85267800D02*
X157800575Y-85835800D01*
X157819575Y-85551800D02*
G75*
G02*
X152579575Y-85551800I-2620000J0D01*
G01*
X152579575Y-85551800D02*
G75*
G02*
X157819575Y-85551800I2620000J0D01*
G01*
X163029548Y-82548800D02*
X163552052Y-82548800D01*
X163029548Y-84018800D02*
X163552052Y-84018800D01*
D15*
X135543800Y-46743600D02*
X135543800Y-46383600D01*
X138543800Y-46743600D02*
X138543800Y-46383600D01*
D12*
X117799200Y-46966579D02*
X117799200Y-47301821D01*
X118559200Y-46966579D02*
X118559200Y-47301821D01*
X145087800Y-33996000D02*
X157407800Y-33996000D01*
X145087800Y-42356000D02*
X145087800Y-33996000D01*
X145087800Y-46456000D02*
X145087800Y-50716000D01*
X145087800Y-50716000D02*
X157407800Y-50716000D01*
X149497800Y-51436000D02*
X150497800Y-51436000D01*
X149997800Y-50936000D02*
X149497800Y-51436000D01*
X150497800Y-51436000D02*
X149997800Y-50936000D01*
X157407800Y-33996000D02*
X157407800Y-42356000D01*
X157407800Y-50716000D02*
X157407800Y-46456000D01*
X121308052Y-66794600D02*
X120785548Y-66794600D01*
X121308052Y-68264600D02*
X120785548Y-68264600D01*
X191035379Y-73764800D02*
X191370621Y-73764800D01*
X191035379Y-74524800D02*
X191370621Y-74524800D01*
X187179600Y-48192821D02*
X187179600Y-47857579D01*
X187939600Y-48192821D02*
X187939600Y-47857579D01*
X161438000Y-78409800D02*
X161438000Y-76459800D01*
X161438000Y-78409800D02*
X161438000Y-80359800D01*
X166558000Y-78409800D02*
X166558000Y-76459800D01*
X166558000Y-78409800D02*
X166558000Y-80359800D01*
X166793000Y-75949800D02*
X166463000Y-75709800D01*
X166793000Y-75469800D01*
X166793000Y-75949800D01*
G36*
X166793000Y-75949800D02*
G01*
X166463000Y-75709800D01*
X166793000Y-75469800D01*
X166793000Y-75949800D01*
G37*
X160167800Y-40569252D02*
X160167800Y-40046748D01*
X161637800Y-40569252D02*
X161637800Y-40046748D01*
X173795800Y-62572800D02*
X171845800Y-62572800D01*
X173795800Y-62572800D02*
X175745800Y-62572800D01*
X173795800Y-67692800D02*
X171845800Y-67692800D01*
X173795800Y-67692800D02*
X175745800Y-67692800D01*
X171095800Y-62667800D02*
X170855800Y-62337800D01*
X171335800Y-62337800D01*
X171095800Y-62667800D01*
G36*
X171095800Y-62667800D02*
G01*
X170855800Y-62337800D01*
X171335800Y-62337800D01*
X171095800Y-62667800D01*
G37*
X115917500Y-76233076D02*
X115917500Y-76742524D01*
X116962500Y-76233076D02*
X116962500Y-76742524D01*
X180333621Y-73622000D02*
X179998379Y-73622000D01*
X180333621Y-74382000D02*
X179998379Y-74382000D01*
X114363500Y-76233076D02*
X114363500Y-76742524D01*
X115408500Y-76233076D02*
X115408500Y-76742524D01*
X180325800Y-64829302D02*
X188485800Y-64829302D01*
X180325800Y-64869302D02*
X188485800Y-64869302D01*
X180325800Y-64909302D02*
X188485800Y-64909302D01*
X180326800Y-64789302D02*
X188484800Y-64789302D01*
X180328800Y-64749302D02*
X188482800Y-64749302D01*
X180329800Y-64709302D02*
X188481800Y-64709302D01*
X180331800Y-64669302D02*
X188479800Y-64669302D01*
X180334800Y-64629302D02*
X188476800Y-64629302D01*
X180337800Y-64589302D02*
X188473800Y-64589302D01*
X180340800Y-64549302D02*
X188470800Y-64549302D01*
X180344800Y-64509302D02*
X188466800Y-64509302D01*
X180348800Y-64469302D02*
X188462800Y-64469302D01*
X180353800Y-64429302D02*
X188457800Y-64429302D01*
X180357800Y-64389302D02*
X188453800Y-64389302D01*
X180363800Y-64349302D02*
X188447800Y-64349302D01*
X180368800Y-64309302D02*
X188442800Y-64309302D01*
X180375800Y-64269302D02*
X188435800Y-64269302D01*
X180381800Y-64229302D02*
X188429800Y-64229302D01*
X180388800Y-64188302D02*
X183365800Y-64188302D01*
X180395800Y-64148302D02*
X183365800Y-64148302D01*
X180403800Y-64108302D02*
X183365800Y-64108302D01*
X180411800Y-64068302D02*
X183365800Y-64068302D01*
X180420800Y-64028302D02*
X183365800Y-64028302D01*
X180429800Y-63988302D02*
X183365800Y-63988302D01*
X180438800Y-63948302D02*
X183365800Y-63948302D01*
X180448800Y-63908302D02*
X183365800Y-63908302D01*
X180458800Y-63868302D02*
X183365800Y-63868302D01*
X180469800Y-63828302D02*
X183365800Y-63828302D01*
X180480800Y-63788302D02*
X183365800Y-63788302D01*
X180491800Y-63748302D02*
X183365800Y-63748302D01*
X180503800Y-63708302D02*
X183365800Y-63708302D01*
X180516800Y-63668302D02*
X183365800Y-63668302D01*
X180528800Y-63628302D02*
X183365800Y-63628302D01*
X180542800Y-63588302D02*
X183365800Y-63588302D01*
X180555800Y-63548302D02*
X183365800Y-63548302D01*
X180570800Y-63508302D02*
X183365800Y-63508302D01*
X180584800Y-63468302D02*
X183365800Y-63468302D01*
X180600800Y-63428302D02*
X183365800Y-63428302D01*
X180615800Y-63388302D02*
X183365800Y-63388302D01*
X180631800Y-63348302D02*
X183365800Y-63348302D01*
X180648800Y-63308302D02*
X183365800Y-63308302D01*
X180665800Y-63268302D02*
X183365800Y-63268302D01*
X180683800Y-63228302D02*
X183365800Y-63228302D01*
X180701800Y-63188302D02*
X183365800Y-63188302D01*
X180719800Y-63148302D02*
X183365800Y-63148302D01*
X180739800Y-63108302D02*
X183365800Y-63108302D01*
X180758800Y-63068302D02*
X183365800Y-63068302D01*
X180778800Y-63028302D02*
X183365800Y-63028302D01*
X180799800Y-62988302D02*
X183365800Y-62988302D01*
X180821800Y-62948302D02*
X183365800Y-62948302D01*
X180843800Y-62908302D02*
X183365800Y-62908302D01*
X180865800Y-62868302D02*
X183365800Y-62868302D01*
X180888800Y-62828302D02*
X183365800Y-62828302D01*
X180912800Y-62788302D02*
X183365800Y-62788302D01*
X180936800Y-62748302D02*
X183365800Y-62748302D01*
X180961800Y-62708302D02*
X183365800Y-62708302D01*
X180987800Y-62668302D02*
X183365800Y-62668302D01*
X181013800Y-62628302D02*
X183365800Y-62628302D01*
X181040800Y-62588302D02*
X183365800Y-62588302D01*
X181067800Y-62548302D02*
X183365800Y-62548302D01*
X181096800Y-62508302D02*
X183365800Y-62508302D01*
X181125800Y-62468302D02*
X183365800Y-62468302D01*
X181155800Y-62428302D02*
X183365800Y-62428302D01*
X181185800Y-62388302D02*
X183365800Y-62388302D01*
X181216800Y-62348302D02*
X183365800Y-62348302D01*
X181249800Y-62308302D02*
X183365800Y-62308302D01*
X181281800Y-62268302D02*
X183365800Y-62268302D01*
X181315800Y-62228302D02*
X183365800Y-62228302D01*
X181350800Y-62188302D02*
X183365800Y-62188302D01*
X181386800Y-62148302D02*
X183365800Y-62148302D01*
X181422800Y-62108302D02*
X187388800Y-62108302D01*
X181460800Y-62068302D02*
X187350800Y-62068302D01*
X181498800Y-62028302D02*
X187312800Y-62028302D01*
X181538800Y-61988302D02*
X187272800Y-61988302D01*
X181579800Y-61948302D02*
X187231800Y-61948302D01*
X181621800Y-61908302D02*
X187189800Y-61908302D01*
X181664800Y-61868302D02*
X187146800Y-61868302D01*
X181690800Y-68919000D02*
X182490800Y-68919000D01*
X181708800Y-61828302D02*
X187102800Y-61828302D01*
X181754800Y-61788302D02*
X187056800Y-61788302D01*
X181801800Y-61748302D02*
X187009800Y-61748302D01*
X181849800Y-61708302D02*
X186961800Y-61708302D01*
X181900800Y-61668302D02*
X186910800Y-61668302D01*
X181951800Y-61628302D02*
X186859800Y-61628302D01*
X182005800Y-61588302D02*
X186805800Y-61588302D01*
X182060800Y-61548302D02*
X186750800Y-61548302D01*
X182090800Y-69319000D02*
X182090800Y-68519000D01*
X182118800Y-61508302D02*
X186692800Y-61508302D01*
X182177800Y-61468302D02*
X186633800Y-61468302D01*
X182239800Y-61428302D02*
X186571800Y-61428302D01*
X182303800Y-61388302D02*
X186507800Y-61388302D01*
X182371800Y-61348302D02*
X186439800Y-61348302D01*
X182441800Y-61308302D02*
X186369800Y-61308302D01*
X182515800Y-61268302D02*
X186295800Y-61268302D01*
X182592800Y-61228302D02*
X186218800Y-61228302D01*
X182674800Y-61188302D02*
X186136800Y-61188302D01*
X182760800Y-61148302D02*
X186050800Y-61148302D01*
X182853800Y-61108302D02*
X185957800Y-61108302D01*
X182952800Y-61068302D02*
X185858800Y-61068302D01*
X183059800Y-61028302D02*
X185751800Y-61028302D01*
X183176800Y-60988302D02*
X185634800Y-60988302D01*
X183307800Y-60948302D02*
X185503800Y-60948302D01*
X183457800Y-60908302D02*
X185353800Y-60908302D01*
X183637800Y-60868302D02*
X185173800Y-60868302D01*
X183872800Y-60828302D02*
X184938800Y-60828302D01*
X185445800Y-62148302D02*
X187424800Y-62148302D01*
X185445800Y-62188302D02*
X187460800Y-62188302D01*
X185445800Y-62228302D02*
X187495800Y-62228302D01*
X185445800Y-62268302D02*
X187529800Y-62268302D01*
X185445800Y-62308302D02*
X187561800Y-62308302D01*
X185445800Y-62348302D02*
X187594800Y-62348302D01*
X185445800Y-62388302D02*
X187625800Y-62388302D01*
X185445800Y-62428302D02*
X187655800Y-62428302D01*
X185445800Y-62468302D02*
X187685800Y-62468302D01*
X185445800Y-62508302D02*
X187714800Y-62508302D01*
X185445800Y-62548302D02*
X187743800Y-62548302D01*
X185445800Y-62588302D02*
X187770800Y-62588302D01*
X185445800Y-62628302D02*
X187797800Y-62628302D01*
X185445800Y-62668302D02*
X187823800Y-62668302D01*
X185445800Y-62708302D02*
X187849800Y-62708302D01*
X185445800Y-62748302D02*
X187874800Y-62748302D01*
X185445800Y-62788302D02*
X187898800Y-62788302D01*
X185445800Y-62828302D02*
X187922800Y-62828302D01*
X185445800Y-62868302D02*
X187945800Y-62868302D01*
X185445800Y-62908302D02*
X187967800Y-62908302D01*
X185445800Y-62948302D02*
X187989800Y-62948302D01*
X185445800Y-62988302D02*
X188011800Y-62988302D01*
X185445800Y-63028302D02*
X188032800Y-63028302D01*
X185445800Y-63068302D02*
X188052800Y-63068302D01*
X185445800Y-63108302D02*
X188071800Y-63108302D01*
X185445800Y-63148302D02*
X188091800Y-63148302D01*
X185445800Y-63188302D02*
X188109800Y-63188302D01*
X185445800Y-63228302D02*
X188127800Y-63228302D01*
X185445800Y-63268302D02*
X188145800Y-63268302D01*
X185445800Y-63308302D02*
X188162800Y-63308302D01*
X185445800Y-63348302D02*
X188179800Y-63348302D01*
X185445800Y-63388302D02*
X188195800Y-63388302D01*
X185445800Y-63428302D02*
X188210800Y-63428302D01*
X185445800Y-63468302D02*
X188226800Y-63468302D01*
X185445800Y-63508302D02*
X188240800Y-63508302D01*
X185445800Y-63548302D02*
X188255800Y-63548302D01*
X185445800Y-63588302D02*
X188268800Y-63588302D01*
X185445800Y-63628302D02*
X188282800Y-63628302D01*
X185445800Y-63668302D02*
X188294800Y-63668302D01*
X185445800Y-63708302D02*
X188307800Y-63708302D01*
X185445800Y-63748302D02*
X188319800Y-63748302D01*
X185445800Y-63788302D02*
X188330800Y-63788302D01*
X185445800Y-63828302D02*
X188341800Y-63828302D01*
X185445800Y-63868302D02*
X188352800Y-63868302D01*
X185445800Y-63908302D02*
X188362800Y-63908302D01*
X185445800Y-63948302D02*
X188372800Y-63948302D01*
X185445800Y-63988302D02*
X188381800Y-63988302D01*
X185445800Y-64028302D02*
X188390800Y-64028302D01*
X185445800Y-64068302D02*
X188399800Y-64068302D01*
X185445800Y-64108302D02*
X188407800Y-64108302D01*
X185445800Y-64148302D02*
X188415800Y-64148302D01*
X185445800Y-64188302D02*
X188422800Y-64188302D01*
X188525800Y-64909302D02*
G75*
G02*
X180285800Y-64909302I-4120000J0D01*
G01*
X180285800Y-64909302D02*
G75*
G02*
X188525800Y-64909302I4120000J0D01*
G01*
X190121235Y-50209000D02*
X189889565Y-50209000D01*
X190121235Y-50929000D02*
X189889565Y-50929000D01*
X119275800Y-68809800D02*
X117325800Y-68809800D01*
X119275800Y-68809800D02*
X121225800Y-68809800D01*
X119275800Y-73929800D02*
X117325800Y-73929800D01*
X119275800Y-73929800D02*
X121225800Y-73929800D01*
X116575800Y-68904800D02*
X116335800Y-68574800D01*
X116815800Y-68574800D01*
X116575800Y-68904800D01*
G36*
X116575800Y-68904800D02*
G01*
X116335800Y-68574800D01*
X116815800Y-68574800D01*
X116575800Y-68904800D01*
G37*
D15*
X188761400Y-48102000D02*
X188761400Y-47742000D01*
X191261400Y-48102000D02*
X191261400Y-47742000D01*
D11*
X192261400Y-49072000D02*
G75*
G02*
X192061400Y-49072000I-100000J0D01*
G01*
X192061400Y-49072000D02*
G75*
G02*
X192261400Y-49072000I100000J0D01*
G01*
D12*
X176257800Y-80741621D02*
X176257800Y-80406379D01*
X177017800Y-80741621D02*
X177017800Y-80406379D01*
X177549800Y-78482000D02*
X177549800Y-76532000D01*
X177549800Y-78482000D02*
X177549800Y-80432000D01*
X182669800Y-78482000D02*
X182669800Y-76532000D01*
X182669800Y-78482000D02*
X182669800Y-80432000D01*
X177644800Y-81182000D02*
X177314800Y-81422000D01*
X177314800Y-80942000D01*
X177644800Y-81182000D01*
G36*
X177644800Y-81182000D02*
G01*
X177314800Y-81422000D01*
X177314800Y-80942000D01*
X177644800Y-81182000D01*
G37*
D14*
X112088200Y-44434400D02*
X112088200Y-52283000D01*
X112088200Y-52283000D02*
X112936560Y-52283000D01*
X112936560Y-44434400D02*
X112088200Y-44434400D01*
X116116640Y-52283000D02*
X116965000Y-52283000D01*
X116965000Y-44434400D02*
X116116640Y-44434400D01*
X116965000Y-52283000D02*
X116965000Y-44434400D01*
D12*
X109750800Y-68785800D02*
X107800800Y-68785800D01*
X109750800Y-68785800D02*
X111700800Y-68785800D01*
X109750800Y-73905800D02*
X107800800Y-73905800D01*
X109750800Y-73905800D02*
X111700800Y-73905800D01*
X107050800Y-68880800D02*
X106810800Y-68550800D01*
X107290800Y-68550800D01*
X107050800Y-68880800D01*
G36*
X107050800Y-68880800D02*
G01*
X106810800Y-68550800D01*
X107290800Y-68550800D01*
X107050800Y-68880800D01*
G37*
X119164800Y-83605621D02*
X119164800Y-83270379D01*
X119924800Y-83605621D02*
X119924800Y-83270379D01*
X117782000Y-49711421D02*
X117782000Y-49376179D01*
X118542000Y-49711421D02*
X118542000Y-49376179D01*
X166980000Y-75642179D02*
X166980000Y-75977421D01*
X167740000Y-75642179D02*
X167740000Y-75977421D01*
X165464621Y-72558000D02*
X165129379Y-72558000D01*
X165464621Y-73318000D02*
X165129379Y-73318000D01*
X171855400Y-48869365D02*
X171855400Y-49101035D01*
X172575400Y-48869365D02*
X172575400Y-49101035D01*
X189360000Y-69207225D02*
X190900000Y-69207225D01*
X189360000Y-69247225D02*
X190900000Y-69247225D01*
X189361000Y-69167225D02*
X190900000Y-69167225D01*
X189362000Y-69127225D02*
X190900000Y-69127225D01*
X189364000Y-69087225D02*
X190900000Y-69087225D01*
X189367000Y-69047225D02*
X190900000Y-69047225D01*
X189371000Y-69007225D02*
X190900000Y-69007225D01*
X189375000Y-68967225D02*
X190900000Y-68967225D01*
X189379000Y-68927225D02*
X190900000Y-68927225D01*
X189384000Y-68887225D02*
X190900000Y-68887225D01*
X189390000Y-68847225D02*
X190900000Y-68847225D01*
X189397000Y-68807225D02*
X190900000Y-68807225D01*
X189404000Y-68767225D02*
X190900000Y-68767225D01*
X189412000Y-68727225D02*
X190900000Y-68727225D01*
X189420000Y-68687225D02*
X190900000Y-68687225D01*
X189429000Y-68647225D02*
X190900000Y-68647225D01*
X189439000Y-68607225D02*
X190900000Y-68607225D01*
X189449000Y-68567225D02*
X190900000Y-68567225D01*
X189460000Y-68526225D02*
X190900000Y-68526225D01*
X189472000Y-68486225D02*
X190900000Y-68486225D01*
X189485000Y-68446225D02*
X190900000Y-68446225D01*
X189498000Y-68406225D02*
X190900000Y-68406225D01*
X189512000Y-68366225D02*
X190900000Y-68366225D01*
X189526000Y-68326225D02*
X190900000Y-68326225D01*
X189542000Y-68286225D02*
X190900000Y-68286225D01*
X189558000Y-68246225D02*
X190900000Y-68246225D01*
X189575000Y-68206225D02*
X190900000Y-68206225D01*
X189592000Y-68166225D02*
X190900000Y-68166225D01*
X189611000Y-68126225D02*
X190900000Y-68126225D01*
X189630000Y-68086225D02*
X190900000Y-68086225D01*
X189650000Y-68046225D02*
X190900000Y-68046225D01*
X189672000Y-68006225D02*
X190900000Y-68006225D01*
X189693000Y-67966225D02*
X190900000Y-67966225D01*
X189716000Y-67926225D02*
X190900000Y-67926225D01*
X189740000Y-67886225D02*
X190900000Y-67886225D01*
X189765000Y-67846225D02*
X190900000Y-67846225D01*
X189791000Y-67806225D02*
X190900000Y-67806225D01*
X189818000Y-67766225D02*
X190900000Y-67766225D01*
X189845000Y-67726225D02*
X190900000Y-67726225D01*
X189875000Y-67686225D02*
X190900000Y-67686225D01*
X189905000Y-67646225D02*
X190900000Y-67646225D01*
X189936000Y-67606225D02*
X190900000Y-67606225D01*
X189969000Y-67566225D02*
X190900000Y-67566225D01*
X190003000Y-67526225D02*
X190900000Y-67526225D01*
X190039000Y-67486225D02*
X190900000Y-67486225D01*
X190076000Y-67446225D02*
X190900000Y-67446225D01*
X190114000Y-67406225D02*
X190900000Y-67406225D01*
X190155000Y-67366225D02*
X190900000Y-67366225D01*
X190197000Y-67326225D02*
X190900000Y-67326225D01*
X190215000Y-71802000D02*
X190715000Y-71802000D01*
X190241000Y-67286225D02*
X190900000Y-67286225D01*
X190287000Y-67246225D02*
X190900000Y-67246225D01*
X190335000Y-67206225D02*
X193545000Y-67206225D01*
X190386000Y-67166225D02*
X193494000Y-67166225D01*
X190440000Y-67126225D02*
X193440000Y-67126225D01*
X190465000Y-72052000D02*
X190465000Y-71552000D01*
X190497000Y-67086225D02*
X193383000Y-67086225D01*
X190557000Y-67046225D02*
X193323000Y-67046225D01*
X190621000Y-67006225D02*
X193259000Y-67006225D01*
X190689000Y-66966225D02*
X193191000Y-66966225D01*
X190762000Y-66926225D02*
X193118000Y-66926225D01*
X190842000Y-66886225D02*
X193038000Y-66886225D01*
X190929000Y-66846225D02*
X192951000Y-66846225D01*
X191025000Y-66806225D02*
X192855000Y-66806225D01*
X191135000Y-66766225D02*
X192745000Y-66766225D01*
X191263000Y-66726225D02*
X192617000Y-66726225D01*
X191422000Y-66686225D02*
X192458000Y-66686225D01*
X191656000Y-66646225D02*
X192224000Y-66646225D01*
X192980000Y-67246225D02*
X193593000Y-67246225D01*
X192980000Y-67286225D02*
X193639000Y-67286225D01*
X192980000Y-67326225D02*
X193683000Y-67326225D01*
X192980000Y-67366225D02*
X193725000Y-67366225D01*
X192980000Y-67406225D02*
X193766000Y-67406225D01*
X192980000Y-67446225D02*
X193804000Y-67446225D01*
X192980000Y-67486225D02*
X193841000Y-67486225D01*
X192980000Y-67526225D02*
X193877000Y-67526225D01*
X192980000Y-67566225D02*
X193911000Y-67566225D01*
X192980000Y-67606225D02*
X193944000Y-67606225D01*
X192980000Y-67646225D02*
X193975000Y-67646225D01*
X192980000Y-67686225D02*
X194005000Y-67686225D01*
X192980000Y-67726225D02*
X194035000Y-67726225D01*
X192980000Y-67766225D02*
X194062000Y-67766225D01*
X192980000Y-67806225D02*
X194089000Y-67806225D01*
X192980000Y-67846225D02*
X194115000Y-67846225D01*
X192980000Y-67886225D02*
X194140000Y-67886225D01*
X192980000Y-67926225D02*
X194164000Y-67926225D01*
X192980000Y-67966225D02*
X194187000Y-67966225D01*
X192980000Y-68006225D02*
X194208000Y-68006225D01*
X192980000Y-68046225D02*
X194230000Y-68046225D01*
X192980000Y-68086225D02*
X194250000Y-68086225D01*
X192980000Y-68126225D02*
X194269000Y-68126225D01*
X192980000Y-68166225D02*
X194288000Y-68166225D01*
X192980000Y-68206225D02*
X194305000Y-68206225D01*
X192980000Y-68246225D02*
X194322000Y-68246225D01*
X192980000Y-68286225D02*
X194338000Y-68286225D01*
X192980000Y-68326225D02*
X194354000Y-68326225D01*
X192980000Y-68366225D02*
X194368000Y-68366225D01*
X192980000Y-68406225D02*
X194382000Y-68406225D01*
X192980000Y-68446225D02*
X194395000Y-68446225D01*
X192980000Y-68486225D02*
X194408000Y-68486225D01*
X192980000Y-68526225D02*
X194420000Y-68526225D01*
X192980000Y-68567225D02*
X194431000Y-68567225D01*
X192980000Y-68607225D02*
X194441000Y-68607225D01*
X192980000Y-68647225D02*
X194451000Y-68647225D01*
X192980000Y-68687225D02*
X194460000Y-68687225D01*
X192980000Y-68727225D02*
X194468000Y-68727225D01*
X192980000Y-68767225D02*
X194476000Y-68767225D01*
X192980000Y-68807225D02*
X194483000Y-68807225D01*
X192980000Y-68847225D02*
X194490000Y-68847225D01*
X192980000Y-68887225D02*
X194496000Y-68887225D01*
X192980000Y-68927225D02*
X194501000Y-68927225D01*
X192980000Y-68967225D02*
X194505000Y-68967225D01*
X192980000Y-69007225D02*
X194509000Y-69007225D01*
X192980000Y-69047225D02*
X194513000Y-69047225D01*
X192980000Y-69087225D02*
X194516000Y-69087225D01*
X192980000Y-69127225D02*
X194518000Y-69127225D01*
X192980000Y-69167225D02*
X194519000Y-69167225D01*
X192980000Y-69207225D02*
X194520000Y-69207225D01*
X192980000Y-69247225D02*
X194520000Y-69247225D01*
X194560000Y-69247225D02*
G75*
G02*
X189320000Y-69247225I-2620000J0D01*
G01*
X189320000Y-69247225D02*
G75*
G02*
X194560000Y-69247225I2620000J0D01*
G01*
X128391400Y-47238852D02*
X128391400Y-45816348D01*
X131111400Y-47238852D02*
X131111400Y-45816348D01*
X174869021Y-52916000D02*
X174533779Y-52916000D01*
X174869021Y-53676000D02*
X174533779Y-53676000D01*
X178868450Y-83879000D02*
X179368450Y-83879000D01*
X179118450Y-83629000D02*
X179118450Y-84129000D01*
X181673225Y-82774000D02*
X181673225Y-84314000D01*
X181673225Y-86394000D02*
X181673225Y-87934000D01*
X181713225Y-82774000D02*
X181713225Y-84314000D01*
X181713225Y-86394000D02*
X181713225Y-87934000D01*
X181753225Y-82775000D02*
X181753225Y-84314000D01*
X181753225Y-86394000D02*
X181753225Y-87933000D01*
X181793225Y-82776000D02*
X181793225Y-84314000D01*
X181793225Y-86394000D02*
X181793225Y-87932000D01*
X181833225Y-82778000D02*
X181833225Y-84314000D01*
X181833225Y-86394000D02*
X181833225Y-87930000D01*
X181873225Y-82781000D02*
X181873225Y-84314000D01*
X181873225Y-86394000D02*
X181873225Y-87927000D01*
X181913225Y-82785000D02*
X181913225Y-84314000D01*
X181913225Y-86394000D02*
X181913225Y-87923000D01*
X181953225Y-82789000D02*
X181953225Y-84314000D01*
X181953225Y-86394000D02*
X181953225Y-87919000D01*
X181993225Y-82793000D02*
X181993225Y-84314000D01*
X181993225Y-86394000D02*
X181993225Y-87915000D01*
X182033225Y-82798000D02*
X182033225Y-84314000D01*
X182033225Y-86394000D02*
X182033225Y-87910000D01*
X182073225Y-82804000D02*
X182073225Y-84314000D01*
X182073225Y-86394000D02*
X182073225Y-87904000D01*
X182113225Y-82811000D02*
X182113225Y-84314000D01*
X182113225Y-86394000D02*
X182113225Y-87897000D01*
X182153225Y-82818000D02*
X182153225Y-84314000D01*
X182153225Y-86394000D02*
X182153225Y-87890000D01*
X182193225Y-82826000D02*
X182193225Y-84314000D01*
X182193225Y-86394000D02*
X182193225Y-87882000D01*
X182233225Y-82834000D02*
X182233225Y-84314000D01*
X182233225Y-86394000D02*
X182233225Y-87874000D01*
X182273225Y-82843000D02*
X182273225Y-84314000D01*
X182273225Y-86394000D02*
X182273225Y-87865000D01*
X182313225Y-82853000D02*
X182313225Y-84314000D01*
X182313225Y-86394000D02*
X182313225Y-87855000D01*
X182353225Y-82863000D02*
X182353225Y-84314000D01*
X182353225Y-86394000D02*
X182353225Y-87845000D01*
X182394225Y-82874000D02*
X182394225Y-84314000D01*
X182394225Y-86394000D02*
X182394225Y-87834000D01*
X182434225Y-82886000D02*
X182434225Y-84314000D01*
X182434225Y-86394000D02*
X182434225Y-87822000D01*
X182474225Y-82899000D02*
X182474225Y-84314000D01*
X182474225Y-86394000D02*
X182474225Y-87809000D01*
X182514225Y-82912000D02*
X182514225Y-84314000D01*
X182514225Y-86394000D02*
X182514225Y-87796000D01*
X182554225Y-82926000D02*
X182554225Y-84314000D01*
X182554225Y-86394000D02*
X182554225Y-87782000D01*
X182594225Y-82940000D02*
X182594225Y-84314000D01*
X182594225Y-86394000D02*
X182594225Y-87768000D01*
X182634225Y-82956000D02*
X182634225Y-84314000D01*
X182634225Y-86394000D02*
X182634225Y-87752000D01*
X182674225Y-82972000D02*
X182674225Y-84314000D01*
X182674225Y-86394000D02*
X182674225Y-87736000D01*
X182714225Y-82989000D02*
X182714225Y-84314000D01*
X182714225Y-86394000D02*
X182714225Y-87719000D01*
X182754225Y-83006000D02*
X182754225Y-84314000D01*
X182754225Y-86394000D02*
X182754225Y-87702000D01*
X182794225Y-83025000D02*
X182794225Y-84314000D01*
X182794225Y-86394000D02*
X182794225Y-87683000D01*
X182834225Y-83044000D02*
X182834225Y-84314000D01*
X182834225Y-86394000D02*
X182834225Y-87664000D01*
X182874225Y-83064000D02*
X182874225Y-84314000D01*
X182874225Y-86394000D02*
X182874225Y-87644000D01*
X182914225Y-83086000D02*
X182914225Y-84314000D01*
X182914225Y-86394000D02*
X182914225Y-87622000D01*
X182954225Y-83107000D02*
X182954225Y-84314000D01*
X182954225Y-86394000D02*
X182954225Y-87601000D01*
X182994225Y-83130000D02*
X182994225Y-84314000D01*
X182994225Y-86394000D02*
X182994225Y-87578000D01*
X183034225Y-83154000D02*
X183034225Y-84314000D01*
X183034225Y-86394000D02*
X183034225Y-87554000D01*
X183074225Y-83179000D02*
X183074225Y-84314000D01*
X183074225Y-86394000D02*
X183074225Y-87529000D01*
X183114225Y-83205000D02*
X183114225Y-84314000D01*
X183114225Y-86394000D02*
X183114225Y-87503000D01*
X183154225Y-83232000D02*
X183154225Y-84314000D01*
X183154225Y-86394000D02*
X183154225Y-87476000D01*
X183194225Y-83259000D02*
X183194225Y-84314000D01*
X183194225Y-86394000D02*
X183194225Y-87449000D01*
X183234225Y-83289000D02*
X183234225Y-84314000D01*
X183234225Y-86394000D02*
X183234225Y-87419000D01*
X183274225Y-83319000D02*
X183274225Y-84314000D01*
X183274225Y-86394000D02*
X183274225Y-87389000D01*
X183314225Y-83350000D02*
X183314225Y-84314000D01*
X183314225Y-86394000D02*
X183314225Y-87358000D01*
X183354225Y-83383000D02*
X183354225Y-84314000D01*
X183354225Y-86394000D02*
X183354225Y-87325000D01*
X183394225Y-83417000D02*
X183394225Y-84314000D01*
X183394225Y-86394000D02*
X183394225Y-87291000D01*
X183434225Y-83453000D02*
X183434225Y-84314000D01*
X183434225Y-86394000D02*
X183434225Y-87255000D01*
X183474225Y-83490000D02*
X183474225Y-84314000D01*
X183474225Y-86394000D02*
X183474225Y-87218000D01*
X183514225Y-83528000D02*
X183514225Y-84314000D01*
X183514225Y-86394000D02*
X183514225Y-87180000D01*
X183554225Y-83569000D02*
X183554225Y-84314000D01*
X183554225Y-86394000D02*
X183554225Y-87139000D01*
X183594225Y-83611000D02*
X183594225Y-84314000D01*
X183594225Y-86394000D02*
X183594225Y-87097000D01*
X183634225Y-83655000D02*
X183634225Y-84314000D01*
X183634225Y-86394000D02*
X183634225Y-87053000D01*
X183674225Y-83701000D02*
X183674225Y-84314000D01*
X183674225Y-86394000D02*
X183674225Y-87007000D01*
X183714225Y-83749000D02*
X183714225Y-86959000D01*
X183754225Y-83800000D02*
X183754225Y-86908000D01*
X183794225Y-83854000D02*
X183794225Y-86854000D01*
X183834225Y-83911000D02*
X183834225Y-86797000D01*
X183874225Y-83971000D02*
X183874225Y-86737000D01*
X183914225Y-84035000D02*
X183914225Y-86673000D01*
X183954225Y-84103000D02*
X183954225Y-86605000D01*
X183994225Y-84176000D02*
X183994225Y-86532000D01*
X184034225Y-84256000D02*
X184034225Y-86452000D01*
X184074225Y-84343000D02*
X184074225Y-86365000D01*
X184114225Y-84439000D02*
X184114225Y-86269000D01*
X184154225Y-84549000D02*
X184154225Y-86159000D01*
X184194225Y-84677000D02*
X184194225Y-86031000D01*
X184234225Y-84836000D02*
X184234225Y-85872000D01*
X184274225Y-85070000D02*
X184274225Y-85638000D01*
X184293225Y-85354000D02*
G75*
G02*
X179053225Y-85354000I-2620000J0D01*
G01*
X179053225Y-85354000D02*
G75*
G02*
X184293225Y-85354000I2620000J0D01*
G01*
X177807800Y-65285621D02*
X177807800Y-64950379D01*
X178567800Y-65285621D02*
X178567800Y-64950379D01*
X188883548Y-82697800D02*
X189406052Y-82697800D01*
X188883548Y-84167800D02*
X189406052Y-84167800D01*
X174667021Y-40979000D02*
X174331779Y-40979000D01*
X174667021Y-41739000D02*
X174331779Y-41739000D01*
X166408600Y-48666165D02*
X166408600Y-48897835D01*
X167128600Y-48666165D02*
X167128600Y-48897835D01*
X131758200Y-46522400D02*
X131758200Y-45722400D01*
X131758200Y-46522400D02*
X131758200Y-47322400D01*
X134878200Y-46522400D02*
X134878200Y-45722400D01*
X134878200Y-46522400D02*
X134878200Y-47322400D01*
X135158200Y-45462400D02*
X134828200Y-45222400D01*
X135158200Y-44982400D01*
X135158200Y-45462400D01*
G36*
X135158200Y-45462400D02*
G01*
X134828200Y-45222400D01*
X135158200Y-44982400D01*
X135158200Y-45462400D01*
G37*
X132300800Y-80253800D02*
X133100800Y-80253800D01*
X132700800Y-79853800D02*
X132700800Y-80653800D01*
X136710498Y-78488800D02*
X136710498Y-86648800D01*
X136750498Y-78488800D02*
X136750498Y-86648800D01*
X136790498Y-78488800D02*
X136790498Y-86648800D01*
X136830498Y-78489800D02*
X136830498Y-86647800D01*
X136870498Y-78491800D02*
X136870498Y-86645800D01*
X136910498Y-78492800D02*
X136910498Y-86644800D01*
X136950498Y-78494800D02*
X136950498Y-86642800D01*
X136990498Y-78497800D02*
X136990498Y-86639800D01*
X137030498Y-78500800D02*
X137030498Y-86636800D01*
X137070498Y-78503800D02*
X137070498Y-86633800D01*
X137110498Y-78507800D02*
X137110498Y-86629800D01*
X137150498Y-78511800D02*
X137150498Y-86625800D01*
X137190498Y-78516800D02*
X137190498Y-86620800D01*
X137230498Y-78520800D02*
X137230498Y-86616800D01*
X137270498Y-78526800D02*
X137270498Y-86610800D01*
X137310498Y-78531800D02*
X137310498Y-86605800D01*
X137350498Y-78538800D02*
X137350498Y-86598800D01*
X137390498Y-78544800D02*
X137390498Y-86592800D01*
X137431498Y-78551800D02*
X137431498Y-81528800D01*
X137431498Y-83608800D02*
X137431498Y-86585800D01*
X137471498Y-78558800D02*
X137471498Y-81528800D01*
X137471498Y-83608800D02*
X137471498Y-86578800D01*
X137511498Y-78566800D02*
X137511498Y-81528800D01*
X137511498Y-83608800D02*
X137511498Y-86570800D01*
X137551498Y-78574800D02*
X137551498Y-81528800D01*
X137551498Y-83608800D02*
X137551498Y-86562800D01*
X137591498Y-78583800D02*
X137591498Y-81528800D01*
X137591498Y-83608800D02*
X137591498Y-86553800D01*
X137631498Y-78592800D02*
X137631498Y-81528800D01*
X137631498Y-83608800D02*
X137631498Y-86544800D01*
X137671498Y-78601800D02*
X137671498Y-81528800D01*
X137671498Y-83608800D02*
X137671498Y-86535800D01*
X137711498Y-78611800D02*
X137711498Y-81528800D01*
X137711498Y-83608800D02*
X137711498Y-86525800D01*
X137751498Y-78621800D02*
X137751498Y-81528800D01*
X137751498Y-83608800D02*
X137751498Y-86515800D01*
X137791498Y-78632800D02*
X137791498Y-81528800D01*
X137791498Y-83608800D02*
X137791498Y-86504800D01*
X137831498Y-78643800D02*
X137831498Y-81528800D01*
X137831498Y-83608800D02*
X137831498Y-86493800D01*
X137871498Y-78654800D02*
X137871498Y-81528800D01*
X137871498Y-83608800D02*
X137871498Y-86482800D01*
X137911498Y-78666800D02*
X137911498Y-81528800D01*
X137911498Y-83608800D02*
X137911498Y-86470800D01*
X137951498Y-78679800D02*
X137951498Y-81528800D01*
X137951498Y-83608800D02*
X137951498Y-86457800D01*
X137991498Y-78691800D02*
X137991498Y-81528800D01*
X137991498Y-83608800D02*
X137991498Y-86445800D01*
X138031498Y-78705800D02*
X138031498Y-81528800D01*
X138031498Y-83608800D02*
X138031498Y-86431800D01*
X138071498Y-78718800D02*
X138071498Y-81528800D01*
X138071498Y-83608800D02*
X138071498Y-86418800D01*
X138111498Y-78733800D02*
X138111498Y-81528800D01*
X138111498Y-83608800D02*
X138111498Y-86403800D01*
X138151498Y-78747800D02*
X138151498Y-81528800D01*
X138151498Y-83608800D02*
X138151498Y-86389800D01*
X138191498Y-78763800D02*
X138191498Y-81528800D01*
X138191498Y-83608800D02*
X138191498Y-86373800D01*
X138231498Y-78778800D02*
X138231498Y-81528800D01*
X138231498Y-83608800D02*
X138231498Y-86358800D01*
X138271498Y-78794800D02*
X138271498Y-81528800D01*
X138271498Y-83608800D02*
X138271498Y-86342800D01*
X138311498Y-78811800D02*
X138311498Y-81528800D01*
X138311498Y-83608800D02*
X138311498Y-86325800D01*
X138351498Y-78828800D02*
X138351498Y-81528800D01*
X138351498Y-83608800D02*
X138351498Y-86308800D01*
X138391498Y-78846800D02*
X138391498Y-81528800D01*
X138391498Y-83608800D02*
X138391498Y-86290800D01*
X138431498Y-78864800D02*
X138431498Y-81528800D01*
X138431498Y-83608800D02*
X138431498Y-86272800D01*
X138471498Y-78882800D02*
X138471498Y-81528800D01*
X138471498Y-83608800D02*
X138471498Y-86254800D01*
X138511498Y-78902800D02*
X138511498Y-81528800D01*
X138511498Y-83608800D02*
X138511498Y-86234800D01*
X138551498Y-78921800D02*
X138551498Y-81528800D01*
X138551498Y-83608800D02*
X138551498Y-86215800D01*
X138591498Y-78941800D02*
X138591498Y-81528800D01*
X138591498Y-83608800D02*
X138591498Y-86195800D01*
X138631498Y-78962800D02*
X138631498Y-81528800D01*
X138631498Y-83608800D02*
X138631498Y-86174800D01*
X138671498Y-78984800D02*
X138671498Y-81528800D01*
X138671498Y-83608800D02*
X138671498Y-86152800D01*
X138711498Y-79006800D02*
X138711498Y-81528800D01*
X138711498Y-83608800D02*
X138711498Y-86130800D01*
X138751498Y-79028800D02*
X138751498Y-81528800D01*
X138751498Y-83608800D02*
X138751498Y-86108800D01*
X138791498Y-79051800D02*
X138791498Y-81528800D01*
X138791498Y-83608800D02*
X138791498Y-86085800D01*
X138831498Y-79075800D02*
X138831498Y-81528800D01*
X138831498Y-83608800D02*
X138831498Y-86061800D01*
X138871498Y-79099800D02*
X138871498Y-81528800D01*
X138871498Y-83608800D02*
X138871498Y-86037800D01*
X138911498Y-79124800D02*
X138911498Y-81528800D01*
X138911498Y-83608800D02*
X138911498Y-86012800D01*
X138951498Y-79150800D02*
X138951498Y-81528800D01*
X138951498Y-83608800D02*
X138951498Y-85986800D01*
X138991498Y-79176800D02*
X138991498Y-81528800D01*
X138991498Y-83608800D02*
X138991498Y-85960800D01*
X139031498Y-79203800D02*
X139031498Y-81528800D01*
X139031498Y-83608800D02*
X139031498Y-85933800D01*
X139071498Y-79230800D02*
X139071498Y-81528800D01*
X139071498Y-83608800D02*
X139071498Y-85906800D01*
X139111498Y-79259800D02*
X139111498Y-81528800D01*
X139111498Y-83608800D02*
X139111498Y-85877800D01*
X139151498Y-79288800D02*
X139151498Y-81528800D01*
X139151498Y-83608800D02*
X139151498Y-85848800D01*
X139191498Y-79318800D02*
X139191498Y-81528800D01*
X139191498Y-83608800D02*
X139191498Y-85818800D01*
X139231498Y-79348800D02*
X139231498Y-81528800D01*
X139231498Y-83608800D02*
X139231498Y-85788800D01*
X139271498Y-79379800D02*
X139271498Y-81528800D01*
X139271498Y-83608800D02*
X139271498Y-85757800D01*
X139311498Y-79412800D02*
X139311498Y-81528800D01*
X139311498Y-83608800D02*
X139311498Y-85724800D01*
X139351498Y-79444800D02*
X139351498Y-81528800D01*
X139351498Y-83608800D02*
X139351498Y-85692800D01*
X139391498Y-79478800D02*
X139391498Y-81528800D01*
X139391498Y-83608800D02*
X139391498Y-85658800D01*
X139431498Y-79513800D02*
X139431498Y-81528800D01*
X139431498Y-83608800D02*
X139431498Y-85623800D01*
X139471498Y-79549800D02*
X139471498Y-81528800D01*
X139471498Y-83608800D02*
X139471498Y-85587800D01*
X139511498Y-79585800D02*
X139511498Y-85551800D01*
X139551498Y-79623800D02*
X139551498Y-85513800D01*
X139591498Y-79661800D02*
X139591498Y-85475800D01*
X139631498Y-79701800D02*
X139631498Y-85435800D01*
X139671498Y-79742800D02*
X139671498Y-85394800D01*
X139711498Y-79784800D02*
X139711498Y-85352800D01*
X139751498Y-79827800D02*
X139751498Y-85309800D01*
X139791498Y-79871800D02*
X139791498Y-85265800D01*
X139831498Y-79917800D02*
X139831498Y-85219800D01*
X139871498Y-79964800D02*
X139871498Y-85172800D01*
X139911498Y-80012800D02*
X139911498Y-85124800D01*
X139951498Y-80063800D02*
X139951498Y-85073800D01*
X139991498Y-80114800D02*
X139991498Y-85022800D01*
X140031498Y-80168800D02*
X140031498Y-84968800D01*
X140071498Y-80223800D02*
X140071498Y-84913800D01*
X140111498Y-80281800D02*
X140111498Y-84855800D01*
X140151498Y-80340800D02*
X140151498Y-84796800D01*
X140191498Y-80402800D02*
X140191498Y-84734800D01*
X140231498Y-80466800D02*
X140231498Y-84670800D01*
X140271498Y-80534800D02*
X140271498Y-84602800D01*
X140311498Y-80604800D02*
X140311498Y-84532800D01*
X140351498Y-80678800D02*
X140351498Y-84458800D01*
X140391498Y-80755800D02*
X140391498Y-84381800D01*
X140431498Y-80837800D02*
X140431498Y-84299800D01*
X140471498Y-80923800D02*
X140471498Y-84213800D01*
X140511498Y-81016800D02*
X140511498Y-84120800D01*
X140551498Y-81115800D02*
X140551498Y-84021800D01*
X140591498Y-81222800D02*
X140591498Y-83914800D01*
X140631498Y-81339800D02*
X140631498Y-83797800D01*
X140671498Y-81470800D02*
X140671498Y-83666800D01*
X140711498Y-81620800D02*
X140711498Y-83516800D01*
X140751498Y-81800800D02*
X140751498Y-83336800D01*
X140791498Y-82035800D02*
X140791498Y-83101800D01*
X140830498Y-82568800D02*
G75*
G02*
X132590498Y-82568800I-4120000J0D01*
G01*
X132590498Y-82568800D02*
G75*
G02*
X140830498Y-82568800I4120000J0D01*
G01*
X111748052Y-66745800D02*
X111225548Y-66745800D01*
X111748052Y-68215800D02*
X111225548Y-68215800D01*
X141739800Y-68888800D02*
X139789800Y-68888800D01*
X141739800Y-68888800D02*
X143689800Y-68888800D01*
X141739800Y-74008800D02*
X139789800Y-74008800D01*
X141739800Y-74008800D02*
X143689800Y-74008800D01*
X139039800Y-68983800D02*
X138799800Y-68653800D01*
X139279800Y-68653800D01*
X139039800Y-68983800D01*
G36*
X139039800Y-68983800D02*
G01*
X138799800Y-68653800D01*
X139279800Y-68653800D01*
X139039800Y-68983800D01*
G37*
X112809500Y-76233076D02*
X112809500Y-76742524D01*
X113854500Y-76233076D02*
X113854500Y-76742524D01*
X129676179Y-42706800D02*
X130011421Y-42706800D01*
X129676179Y-43466800D02*
X130011421Y-43466800D01*
X185967200Y-49802365D02*
X185967200Y-50034035D01*
X186687200Y-49802365D02*
X186687200Y-50034035D01*
X133712500Y-76106076D02*
X133712500Y-76615524D01*
X134757500Y-76106076D02*
X134757500Y-76615524D01*
D14*
X160370000Y-44692800D02*
X160370000Y-46242200D01*
X161462200Y-46242200D02*
X161462200Y-44692800D01*
D11*
X123429000Y-50677400D02*
X122728997Y-50677400D01*
X123429000Y-49977399D02*
X123429000Y-50677400D01*
X119328998Y-50677400D02*
X119028999Y-50677400D01*
X119328998Y-46277403D02*
X119028999Y-46277403D01*
X119028999Y-50377398D02*
X119028999Y-50677400D01*
X119028999Y-46277403D02*
X119028999Y-46577400D01*
%LPC*%
D16*
X191422400Y-99562400D03*
D17*
X186327200Y-43127700D03*
X186327200Y-44262700D03*
D18*
X176148000Y-75625300D03*
X176148000Y-77700300D03*
D19*
X151839800Y-80923000D03*
X153109800Y-80923000D03*
X154379800Y-80923000D03*
X155649800Y-80923000D03*
X155649800Y-75973000D03*
X154379800Y-75973000D03*
X153109800Y-75973000D03*
X151839800Y-75973000D03*
D20*
X147868900Y-54140400D03*
X146733900Y-54140400D03*
D21*
X129739000Y-50495200D03*
D22*
X168339500Y-48214600D03*
X168339500Y-49164600D03*
X168339500Y-50114600D03*
X170614500Y-50114600D03*
X170614500Y-48214600D03*
D23*
X193215000Y-75653300D03*
X193215000Y-76848300D03*
X179307000Y-64534900D03*
X179307000Y-65729900D03*
D21*
X137222400Y-50138400D03*
D24*
X137597000Y-75448300D03*
X137597000Y-77273300D03*
D25*
X186190800Y-82115500D03*
X186190800Y-80920500D03*
D26*
X132165100Y-43818000D03*
X133360100Y-43818000D03*
D16*
X109422400Y-39062400D03*
D20*
X180733500Y-72889000D03*
X179598500Y-72889000D03*
D27*
X175298900Y-52195000D03*
X174103900Y-52195000D03*
D28*
X165936800Y-70187225D03*
D29*
X165936800Y-68187225D03*
D25*
X162678800Y-40812500D03*
X162678800Y-39617500D03*
D30*
X193773000Y-81311300D03*
X193773000Y-79236300D03*
D31*
X135496300Y-67531800D03*
X133421300Y-67531800D03*
D32*
X177207400Y-43102400D03*
X177207400Y-43752400D03*
X177207400Y-44402400D03*
X177207400Y-45052400D03*
X177207400Y-45702400D03*
X177207400Y-46352400D03*
X177207400Y-47002400D03*
X177207400Y-47652400D03*
X177207400Y-48302400D03*
X177207400Y-48952400D03*
X177207400Y-49602400D03*
X177207400Y-50252400D03*
X177207400Y-50902400D03*
X177207400Y-51552400D03*
X184407400Y-51552400D03*
X184407400Y-50902400D03*
X184407400Y-50252400D03*
X184407400Y-49602400D03*
X184407400Y-48952400D03*
X184407400Y-48302400D03*
X184407400Y-47652400D03*
X184407400Y-47002400D03*
X184407400Y-46352400D03*
X184407400Y-45702400D03*
X184407400Y-45052400D03*
X184407400Y-44402400D03*
X184407400Y-43752400D03*
X184407400Y-43102400D03*
D16*
X191422400Y-39062400D03*
D28*
X112496498Y-82847800D03*
D29*
X115996498Y-82847800D03*
D25*
X141923800Y-83781500D03*
X141923800Y-82586500D03*
D33*
X149616900Y-54152400D03*
X150751900Y-54152400D03*
D31*
X175014500Y-61084000D03*
X172939500Y-61084000D03*
D24*
X111778000Y-75575300D03*
X111778000Y-77400300D03*
D18*
X174652200Y-48318700D03*
X174652200Y-50393700D03*
D20*
X134321300Y-50237200D03*
X133186300Y-50237200D03*
D25*
X150405800Y-81570500D03*
X150405800Y-80375500D03*
D33*
X189475900Y-45297000D03*
X190610900Y-45297000D03*
D30*
X167770800Y-81266500D03*
X167770800Y-79191500D03*
D34*
X160334000Y-79162500D03*
X160334000Y-77437500D03*
D31*
X123312500Y-45546800D03*
X121237500Y-45546800D03*
D35*
X132721998Y-90146799D03*
X132721998Y-91146797D03*
D26*
X164699500Y-74042800D03*
X165894500Y-74042800D03*
D36*
X126289000Y-98354000D03*
X126289000Y-91354000D03*
D37*
X122589000Y-97454000D03*
X129989000Y-99454000D03*
D38*
X129989000Y-90054000D03*
D31*
X144624500Y-67504000D03*
X142549500Y-67504000D03*
D20*
X154289500Y-74190000D03*
X153154500Y-74190000D03*
D39*
X160916100Y-50077000D03*
X160916100Y-48476800D03*
D28*
X190251000Y-88267575D03*
D29*
X190251000Y-90267575D03*
D16*
X109422400Y-99562400D03*
D24*
X135916000Y-75448300D03*
X135916000Y-77273300D03*
D21*
X153892400Y-52758400D03*
D27*
X154322500Y-73121000D03*
X153127500Y-73121000D03*
X191800500Y-73125000D03*
X190605500Y-73125000D03*
D40*
X165684800Y-100706800D03*
X170684800Y-100706800D03*
X175684800Y-100706800D03*
X165684800Y-95706800D03*
X170684800Y-95706800D03*
X175684800Y-95706800D03*
D23*
X157133000Y-77671300D03*
X157133000Y-78866300D03*
X183536000Y-77780300D03*
X183536000Y-78975300D03*
D26*
X173901900Y-42509400D03*
X175096900Y-42509400D03*
D28*
X164324000Y-88207575D03*
D29*
X164324000Y-90207575D03*
D41*
X191805000Y-75994800D03*
X190535000Y-75994800D03*
X189265000Y-75994800D03*
X187995000Y-75994800D03*
X187995000Y-80944800D03*
X189265000Y-80944800D03*
X190535000Y-80944800D03*
X191805000Y-80944800D03*
D17*
X186327200Y-45667700D03*
X186327200Y-46802700D03*
D24*
X139278000Y-75448300D03*
X139278000Y-77273300D03*
D25*
X160334000Y-81816300D03*
X160334000Y-80621300D03*
D34*
X186187000Y-79382300D03*
X186187000Y-77657300D03*
D21*
X170642800Y-46004200D03*
D26*
X173901900Y-43737400D03*
X175096900Y-43737400D03*
D21*
X118826400Y-44636600D03*
D42*
X149765400Y-52443400D03*
X148015400Y-52443400D03*
D43*
X130120800Y-69519800D03*
X130120800Y-70789800D03*
X130120800Y-72059800D03*
X130120800Y-73329800D03*
X135070800Y-73329800D03*
X135070800Y-72059800D03*
X135070800Y-70789800D03*
X135070800Y-69519800D03*
D18*
X149907000Y-75591300D03*
X149907000Y-77666300D03*
D28*
X154199575Y-85551800D03*
D29*
X156199575Y-85551800D03*
D44*
X162253300Y-83283800D03*
X164328300Y-83283800D03*
D45*
X137043800Y-47563600D03*
X137043800Y-45563600D03*
D23*
X118179200Y-46536700D03*
X118179200Y-47731700D03*
D46*
X149997800Y-49116000D03*
D36*
X152497800Y-49116000D03*
X152497800Y-47116000D03*
X149997800Y-47116000D03*
D47*
X145227800Y-44406000D03*
X157267800Y-44406000D03*
D31*
X122084300Y-67529600D03*
X120009300Y-67529600D03*
D26*
X190605500Y-74144800D03*
X191800500Y-74144800D03*
D25*
X187559600Y-48622700D03*
X187559600Y-47427700D03*
D41*
X165903000Y-75934800D03*
X164633000Y-75934800D03*
X163363000Y-75934800D03*
X162093000Y-75934800D03*
X162093000Y-80884800D03*
X163363000Y-80884800D03*
X164633000Y-80884800D03*
X165903000Y-80884800D03*
D30*
X160902800Y-41345500D03*
X160902800Y-39270500D03*
D43*
X171320800Y-63227800D03*
X171320800Y-64497800D03*
X171320800Y-65767800D03*
X171320800Y-67037800D03*
X176270800Y-67037800D03*
X176270800Y-65767800D03*
X176270800Y-64497800D03*
X176270800Y-63227800D03*
D24*
X116440000Y-75575300D03*
X116440000Y-77400300D03*
D27*
X180763500Y-74002000D03*
X179568500Y-74002000D03*
D24*
X114886000Y-75575300D03*
X114886000Y-77400300D03*
D28*
X184405800Y-66659302D03*
D29*
X184405800Y-63159302D03*
D20*
X190572900Y-50569000D03*
X189437900Y-50569000D03*
D43*
X116800800Y-69464800D03*
X116800800Y-70734800D03*
X116800800Y-72004800D03*
X116800800Y-73274800D03*
X121750800Y-73274800D03*
X121750800Y-72004800D03*
X121750800Y-70734800D03*
X121750800Y-69464800D03*
D48*
X190886400Y-49072000D03*
X190886400Y-46772000D03*
X189136400Y-46772000D03*
X189136400Y-49072000D03*
D25*
X176637800Y-81171500D03*
X176637800Y-79976500D03*
D19*
X178204800Y-80957000D03*
X179474800Y-80957000D03*
X180744800Y-80957000D03*
X182014800Y-80957000D03*
X182014800Y-76007000D03*
X180744800Y-76007000D03*
X179474800Y-76007000D03*
X178204800Y-76007000D03*
D49*
X114526600Y-45628200D03*
X114526600Y-51089200D03*
D43*
X107275800Y-69440800D03*
X107275800Y-70710800D03*
X107275800Y-71980800D03*
X107275800Y-73250800D03*
X112225800Y-73250800D03*
X112225800Y-71980800D03*
X112225800Y-70710800D03*
X112225800Y-69440800D03*
D25*
X119544800Y-84035500D03*
X119544800Y-82840500D03*
D35*
X119795994Y-97512799D03*
X119795994Y-98512797D03*
D25*
X118162000Y-50141300D03*
X118162000Y-48946300D03*
D23*
X167360000Y-75212300D03*
X167360000Y-76407300D03*
D27*
X165894500Y-72938000D03*
X164699500Y-72938000D03*
D17*
X172215400Y-48417700D03*
X172215400Y-49552700D03*
D28*
X191940000Y-70247225D03*
D29*
X191940000Y-68247225D03*
D50*
X129751400Y-48090100D03*
X129751400Y-44965100D03*
D27*
X175298900Y-53296000D03*
X174103900Y-53296000D03*
D28*
X180673225Y-85354000D03*
D29*
X182673225Y-85354000D03*
D25*
X178187800Y-65715500D03*
X178187800Y-64520500D03*
D44*
X188107300Y-83432800D03*
X190182300Y-83432800D03*
D27*
X175096900Y-41359000D03*
X173901900Y-41359000D03*
D17*
X166768600Y-48214500D03*
X166768600Y-49349500D03*
D51*
X134268200Y-45384900D03*
X133318200Y-45384900D03*
X132368200Y-45384900D03*
X132368200Y-47659900D03*
X133318200Y-47659900D03*
X134268200Y-47659900D03*
D28*
X134960498Y-82568800D03*
D29*
X138460498Y-82568800D03*
D31*
X112524300Y-67480800D03*
X110449300Y-67480800D03*
D43*
X139264800Y-69543800D03*
X139264800Y-70813800D03*
X139264800Y-72083800D03*
X139264800Y-73353800D03*
X144214800Y-73353800D03*
X144214800Y-72083800D03*
X144214800Y-70813800D03*
X144214800Y-69543800D03*
D24*
X113332000Y-75575300D03*
X113332000Y-77400300D03*
D26*
X129246300Y-43086800D03*
X130441300Y-43086800D03*
D17*
X186327200Y-49350700D03*
X186327200Y-50485700D03*
D24*
X134235000Y-75448300D03*
X134235000Y-77273300D03*
D39*
X160916100Y-44667400D03*
X160916100Y-46267600D03*
D52*
X120728997Y-48477399D03*
X121228997Y-47777400D03*
D53*
X121228997Y-48477402D03*
D52*
X121228997Y-49177403D03*
X121728997Y-48477399D03*
D54*
X119578998Y-49677402D03*
X119578998Y-48877401D03*
X119578998Y-48077402D03*
X119578998Y-47277401D03*
X122878999Y-47277401D03*
X122878999Y-48077402D03*
X122878999Y-48877401D03*
X122878999Y-49677402D03*
%LPD*%
M02*
