G04 #@! TF.GenerationSoftware,KiCad,Pcbnew,8.0.5*
G04 #@! TF.CreationDate,2024-11-13T10:27:44-05:00*
G04 #@! TF.ProjectId,DacAmp,44616341-6d70-42e6-9b69-6361645f7063,rev?*
G04 #@! TF.SameCoordinates,Original*
G04 #@! TF.FileFunction,Paste,Top*
G04 #@! TF.FilePolarity,Positive*
%FSLAX46Y46*%
G04 Gerber Fmt 4.6, Leading zero omitted, Abs format (unit mm)*
G04 Created by KiCad (PCBNEW 8.0.5) date 2024-11-13 10:27:44*
%MOMM*%
%LPD*%
G01*
G04 APERTURE LIST*
G04 Aperture macros list*
%AMRoundRect*
0 Rectangle with rounded corners*
0 $1 Rounding radius*
0 $2 $3 $4 $5 $6 $7 $8 $9 X,Y pos of 4 corners*
0 Add a 4 corners polygon primitive as box body*
4,1,4,$2,$3,$4,$5,$6,$7,$8,$9,$2,$3,0*
0 Add four circle primitives for the rounded corners*
1,1,$1+$1,$2,$3*
1,1,$1+$1,$4,$5*
1,1,$1+$1,$6,$7*
1,1,$1+$1,$8,$9*
0 Add four rect primitives between the rounded corners*
20,1,$1+$1,$2,$3,$4,$5,0*
20,1,$1+$1,$4,$5,$6,$7,0*
20,1,$1+$1,$6,$7,$8,$9,0*
20,1,$1+$1,$8,$9,$2,$3,0*%
G04 Aperture macros list end*
%ADD10C,0.000000*%
%ADD11RoundRect,0.155000X-0.155000X0.212500X-0.155000X-0.212500X0.155000X-0.212500X0.155000X0.212500X0*%
%ADD12RoundRect,0.250000X-0.475000X0.337500X-0.475000X-0.337500X0.475000X-0.337500X0.475000X0.337500X0*%
%ADD13RoundRect,0.150000X0.150000X-0.825000X0.150000X0.825000X-0.150000X0.825000X-0.150000X-0.825000X0*%
%ADD14RoundRect,0.155000X0.212500X0.155000X-0.212500X0.155000X-0.212500X-0.155000X0.212500X-0.155000X0*%
%ADD15RoundRect,0.150000X-0.512500X-0.150000X0.512500X-0.150000X0.512500X0.150000X-0.512500X0.150000X0*%
%ADD16RoundRect,0.160000X-0.160000X0.197500X-0.160000X-0.197500X0.160000X-0.197500X0.160000X0.197500X0*%
%ADD17RoundRect,0.237500X-0.237500X0.250000X-0.237500X-0.250000X0.237500X-0.250000X0.237500X0.250000X0*%
%ADD18RoundRect,0.160000X0.160000X-0.197500X0.160000X0.197500X-0.160000X0.197500X-0.160000X-0.197500X0*%
%ADD19RoundRect,0.160000X-0.197500X-0.160000X0.197500X-0.160000X0.197500X0.160000X-0.197500X0.160000X0*%
%ADD20RoundRect,0.160000X0.197500X0.160000X-0.197500X0.160000X-0.197500X-0.160000X0.197500X-0.160000X0*%
%ADD21RoundRect,0.250000X0.475000X-0.337500X0.475000X0.337500X-0.475000X0.337500X-0.475000X-0.337500X0*%
%ADD22RoundRect,0.250000X0.337500X0.475000X-0.337500X0.475000X-0.337500X-0.475000X0.337500X-0.475000X0*%
%ADD23R,1.750000X0.450000*%
%ADD24RoundRect,0.155000X-0.212500X-0.155000X0.212500X-0.155000X0.212500X0.155000X-0.212500X0.155000X0*%
%ADD25RoundRect,0.237500X0.237500X-0.300000X0.237500X0.300000X-0.237500X0.300000X-0.237500X-0.300000X0*%
%ADD26R,0.499999X0.599999*%
%ADD27R,2.800000X2.200000*%
%ADD28R,2.800000X2.800000*%
%ADD29R,0.406400X0.711200*%
%ADD30RoundRect,0.150000X-0.150000X0.825000X-0.150000X-0.825000X0.150000X-0.825000X0.150000X0.825000X0*%
%ADD31RoundRect,0.237500X0.287500X0.237500X-0.287500X0.237500X-0.287500X-0.237500X0.287500X-0.237500X0*%
%ADD32RoundRect,0.150000X-0.825000X-0.150000X0.825000X-0.150000X0.825000X0.150000X-0.825000X0.150000X0*%
%ADD33RoundRect,0.250000X-0.337500X-0.475000X0.337500X-0.475000X0.337500X0.475000X-0.337500X0.475000X0*%
%ADD34R,3.000000X1.000000*%
%ADD35R,1.050000X1.300000*%
%ADD36R,2.514600X2.641600*%
%ADD37R,0.499999X0.299999*%
%ADD38RoundRect,0.250000X1.100000X-0.412500X1.100000X0.412500X-1.100000X0.412500X-1.100000X-0.412500X0*%
%ADD39RoundRect,0.150000X-0.150000X0.512500X-0.150000X-0.512500X0.150000X-0.512500X0.150000X0.512500X0*%
G04 APERTURE END LIST*
D10*
G36*
X121078992Y-48327399D02*
G01*
X120228991Y-48327399D01*
X120228991Y-47077399D01*
X121078992Y-47077399D01*
X121078992Y-48327399D01*
G37*
G36*
X121078992Y-49877399D02*
G01*
X120228991Y-49877399D01*
X120228991Y-48627399D01*
X121078992Y-48627399D01*
X121078992Y-49877399D01*
G37*
G36*
X122228998Y-48327399D02*
G01*
X121378997Y-48327399D01*
X121378997Y-47077399D01*
X122228998Y-47077399D01*
X122228998Y-48327399D01*
G37*
G36*
X122228998Y-49877399D02*
G01*
X121378997Y-49877399D01*
X121378997Y-48627399D01*
X122228998Y-48627399D01*
X122228998Y-49877399D01*
G37*
D11*
X186327200Y-43127700D03*
X186327200Y-44262700D03*
D12*
X176148000Y-75625300D03*
X176148000Y-77700300D03*
D13*
X151839800Y-80923000D03*
X153109800Y-80923000D03*
X154379800Y-80923000D03*
X155649800Y-80923000D03*
X155649800Y-75973000D03*
X154379800Y-75973000D03*
X153109800Y-75973000D03*
X151839800Y-75973000D03*
D14*
X147868900Y-54140400D03*
X146733900Y-54140400D03*
D15*
X168339500Y-48214600D03*
X168339500Y-49164600D03*
X168339500Y-50114600D03*
X170614500Y-50114600D03*
X170614500Y-48214600D03*
D16*
X193215000Y-75653300D03*
X193215000Y-76848300D03*
X179307000Y-64534900D03*
X179307000Y-65729900D03*
D17*
X137597000Y-75448300D03*
X137597000Y-77273300D03*
D18*
X186190800Y-82115500D03*
X186190800Y-80920500D03*
D19*
X132165100Y-43818000D03*
X133360100Y-43818000D03*
D14*
X180733500Y-72889000D03*
X179598500Y-72889000D03*
D20*
X175298900Y-52195000D03*
X174103900Y-52195000D03*
D18*
X162678800Y-40812500D03*
X162678800Y-39617500D03*
D21*
X193773000Y-81311300D03*
X193773000Y-79236300D03*
D22*
X135496300Y-67531800D03*
X133421300Y-67531800D03*
D23*
X177207400Y-43102400D03*
X177207400Y-43752400D03*
X177207400Y-44402400D03*
X177207400Y-45052400D03*
X177207400Y-45702400D03*
X177207400Y-46352400D03*
X177207400Y-47002400D03*
X177207400Y-47652400D03*
X177207400Y-48302400D03*
X177207400Y-48952400D03*
X177207400Y-49602400D03*
X177207400Y-50252400D03*
X177207400Y-50902400D03*
X177207400Y-51552400D03*
X184407400Y-51552400D03*
X184407400Y-50902400D03*
X184407400Y-50252400D03*
X184407400Y-49602400D03*
X184407400Y-48952400D03*
X184407400Y-48302400D03*
X184407400Y-47652400D03*
X184407400Y-47002400D03*
X184407400Y-46352400D03*
X184407400Y-45702400D03*
X184407400Y-45052400D03*
X184407400Y-44402400D03*
X184407400Y-43752400D03*
X184407400Y-43102400D03*
D18*
X141923800Y-83781500D03*
X141923800Y-82586500D03*
D24*
X149616900Y-54152400D03*
X150751900Y-54152400D03*
D22*
X175014500Y-61084000D03*
X172939500Y-61084000D03*
D17*
X111778000Y-75575300D03*
X111778000Y-77400300D03*
D12*
X174652200Y-48318700D03*
X174652200Y-50393700D03*
D14*
X134321300Y-50237200D03*
X133186300Y-50237200D03*
D18*
X150405800Y-81570500D03*
X150405800Y-80375500D03*
D24*
X189475900Y-45297000D03*
X190610900Y-45297000D03*
D21*
X167770800Y-81266500D03*
X167770800Y-79191500D03*
D25*
X160334000Y-79162500D03*
X160334000Y-77437500D03*
D22*
X123312500Y-45546800D03*
X121237500Y-45546800D03*
D26*
X132721998Y-90146799D03*
X132721998Y-91146797D03*
D19*
X164699500Y-74042800D03*
X165894500Y-74042800D03*
D27*
X122589000Y-97454000D03*
X129989000Y-99454000D03*
D28*
X129989000Y-90054000D03*
D22*
X144624500Y-67504000D03*
X142549500Y-67504000D03*
D14*
X154289500Y-74190000D03*
X153154500Y-74190000D03*
D29*
X160916100Y-50077000D03*
X160916100Y-48476800D03*
D17*
X135916000Y-75448300D03*
X135916000Y-77273300D03*
D20*
X154322500Y-73121000D03*
X153127500Y-73121000D03*
X191800500Y-73125000D03*
X190605500Y-73125000D03*
D16*
X157133000Y-77671300D03*
X157133000Y-78866300D03*
X183536000Y-77780300D03*
X183536000Y-78975300D03*
D19*
X173901900Y-42509400D03*
X175096900Y-42509400D03*
D30*
X191805000Y-75994800D03*
X190535000Y-75994800D03*
X189265000Y-75994800D03*
X187995000Y-75994800D03*
X187995000Y-80944800D03*
X189265000Y-80944800D03*
X190535000Y-80944800D03*
X191805000Y-80944800D03*
D11*
X186327200Y-45667700D03*
X186327200Y-46802700D03*
D17*
X139278000Y-75448300D03*
X139278000Y-77273300D03*
D18*
X160334000Y-81816300D03*
X160334000Y-80621300D03*
D25*
X186187000Y-79382300D03*
X186187000Y-77657300D03*
D19*
X173901900Y-43737400D03*
X175096900Y-43737400D03*
D31*
X149765400Y-52443400D03*
X148015400Y-52443400D03*
D32*
X130120800Y-69519800D03*
X130120800Y-70789800D03*
X130120800Y-72059800D03*
X130120800Y-73329800D03*
X135070800Y-73329800D03*
X135070800Y-72059800D03*
X135070800Y-70789800D03*
X135070800Y-69519800D03*
D12*
X149907000Y-75591300D03*
X149907000Y-77666300D03*
D33*
X162253300Y-83283800D03*
X164328300Y-83283800D03*
D34*
X137043800Y-47563600D03*
X137043800Y-45563600D03*
D16*
X118179200Y-46536700D03*
X118179200Y-47731700D03*
D22*
X122084300Y-67529600D03*
X120009300Y-67529600D03*
D19*
X190605500Y-74144800D03*
X191800500Y-74144800D03*
D18*
X187559600Y-48622700D03*
X187559600Y-47427700D03*
D30*
X165903000Y-75934800D03*
X164633000Y-75934800D03*
X163363000Y-75934800D03*
X162093000Y-75934800D03*
X162093000Y-80884800D03*
X163363000Y-80884800D03*
X164633000Y-80884800D03*
X165903000Y-80884800D03*
D21*
X160902800Y-41345500D03*
X160902800Y-39270500D03*
D32*
X171320800Y-63227800D03*
X171320800Y-64497800D03*
X171320800Y-65767800D03*
X171320800Y-67037800D03*
X176270800Y-67037800D03*
X176270800Y-65767800D03*
X176270800Y-64497800D03*
X176270800Y-63227800D03*
D17*
X116440000Y-75575300D03*
X116440000Y-77400300D03*
D20*
X180763500Y-74002000D03*
X179568500Y-74002000D03*
D17*
X114886000Y-75575300D03*
X114886000Y-77400300D03*
D14*
X190572900Y-50569000D03*
X189437900Y-50569000D03*
D32*
X116800800Y-69464800D03*
X116800800Y-70734800D03*
X116800800Y-72004800D03*
X116800800Y-73274800D03*
X121750800Y-73274800D03*
X121750800Y-72004800D03*
X121750800Y-70734800D03*
X121750800Y-69464800D03*
D35*
X190886400Y-49072000D03*
X190886400Y-46772000D03*
X189136400Y-46772000D03*
X189136400Y-49072000D03*
D18*
X176637800Y-81171500D03*
X176637800Y-79976500D03*
D13*
X178204800Y-80957000D03*
X179474800Y-80957000D03*
X180744800Y-80957000D03*
X182014800Y-80957000D03*
X182014800Y-76007000D03*
X180744800Y-76007000D03*
X179474800Y-76007000D03*
X178204800Y-76007000D03*
D36*
X114526600Y-45628200D03*
X114526600Y-51089200D03*
D32*
X107275800Y-69440800D03*
X107275800Y-70710800D03*
X107275800Y-71980800D03*
X107275800Y-73250800D03*
X112225800Y-73250800D03*
X112225800Y-71980800D03*
X112225800Y-70710800D03*
X112225800Y-69440800D03*
D18*
X119544800Y-84035500D03*
X119544800Y-82840500D03*
D26*
X119795994Y-97512799D03*
X119795994Y-98512797D03*
D18*
X118162000Y-50141300D03*
X118162000Y-48946300D03*
D16*
X167360000Y-75212300D03*
X167360000Y-76407300D03*
D20*
X165894500Y-72938000D03*
X164699500Y-72938000D03*
D11*
X172215400Y-48417700D03*
X172215400Y-49552700D03*
D37*
X122878999Y-49677402D03*
X122878999Y-48877401D03*
X122878999Y-48077402D03*
X122878999Y-47277401D03*
X119578998Y-47277401D03*
X119578998Y-48077402D03*
X119578998Y-48877401D03*
X119578998Y-49677402D03*
D38*
X129751400Y-48090100D03*
X129751400Y-44965100D03*
D20*
X175298900Y-53296000D03*
X174103900Y-53296000D03*
D18*
X178187800Y-65715500D03*
X178187800Y-64520500D03*
D33*
X188107300Y-83432800D03*
X190182300Y-83432800D03*
D20*
X175096900Y-41359000D03*
X173901900Y-41359000D03*
D11*
X166768600Y-48214500D03*
X166768600Y-49349500D03*
D39*
X134268200Y-45384900D03*
X133318200Y-45384900D03*
X132368200Y-45384900D03*
X132368200Y-47659900D03*
X133318200Y-47659900D03*
X134268200Y-47659900D03*
D22*
X112524300Y-67480800D03*
X110449300Y-67480800D03*
D32*
X139264800Y-69543800D03*
X139264800Y-70813800D03*
X139264800Y-72083800D03*
X139264800Y-73353800D03*
X144214800Y-73353800D03*
X144214800Y-72083800D03*
X144214800Y-70813800D03*
X144214800Y-69543800D03*
D17*
X113332000Y-75575300D03*
X113332000Y-77400300D03*
D19*
X129246300Y-43086800D03*
X130441300Y-43086800D03*
D11*
X186327200Y-49350700D03*
X186327200Y-50485700D03*
D17*
X134235000Y-75448300D03*
X134235000Y-77273300D03*
D29*
X160916100Y-44667400D03*
X160916100Y-46267600D03*
M02*
