G04 #@! TF.GenerationSoftware,KiCad,Pcbnew,8.0.5*
G04 #@! TF.CreationDate,2024-11-13T10:27:44-05:00*
G04 #@! TF.ProjectId,DacAmp,44616341-6d70-42e6-9b69-6361645f7063,rev?*
G04 #@! TF.SameCoordinates,Original*
G04 #@! TF.FileFunction,Copper,L3,Inr*
G04 #@! TF.FilePolarity,Positive*
%FSLAX46Y46*%
G04 Gerber Fmt 4.6, Leading zero omitted, Abs format (unit mm)*
G04 Created by KiCad (PCBNEW 8.0.5) date 2024-11-13 10:27:44*
%MOMM*%
%LPD*%
G01*
G04 APERTURE LIST*
G04 #@! TA.AperFunction,ComponentPad*
%ADD10C,4.500000*%
G04 #@! TD*
G04 #@! TA.AperFunction,ComponentPad*
%ADD11R,1.600000X1.600000*%
G04 #@! TD*
G04 #@! TA.AperFunction,ComponentPad*
%ADD12C,1.600000*%
G04 #@! TD*
G04 #@! TA.AperFunction,ComponentPad*
%ADD13C,1.800000*%
G04 #@! TD*
G04 #@! TA.AperFunction,ComponentPad*
%ADD14R,1.700000X1.700000*%
G04 #@! TD*
G04 #@! TA.AperFunction,ComponentPad*
%ADD15C,1.700000*%
G04 #@! TD*
G04 #@! TA.AperFunction,ComponentPad*
%ADD16C,3.500000*%
G04 #@! TD*
G04 #@! TA.AperFunction,ComponentPad*
%ADD17C,0.499999*%
G04 #@! TD*
G04 #@! TA.AperFunction,ViaPad*
%ADD18C,0.600000*%
G04 #@! TD*
G04 #@! TA.AperFunction,ViaPad*
%ADD19C,0.500000*%
G04 #@! TD*
G04 APERTURE END LIST*
D10*
X191422400Y-99562400D03*
X109422400Y-39062400D03*
D11*
X165936800Y-70187225D03*
D12*
X165936800Y-68187225D03*
D10*
X191422400Y-39062400D03*
D11*
X112496498Y-82847800D03*
D12*
X115996498Y-82847800D03*
D11*
X190251000Y-88267575D03*
D12*
X190251000Y-90267575D03*
D10*
X109422400Y-99562400D03*
D13*
X165684800Y-100706800D03*
X170684800Y-100706800D03*
X175684800Y-100706800D03*
X165684800Y-95706800D03*
X170684800Y-95706800D03*
X175684800Y-95706800D03*
D11*
X164324000Y-88207575D03*
D12*
X164324000Y-90207575D03*
D11*
X154199575Y-85551800D03*
D12*
X156199575Y-85551800D03*
D14*
X149997800Y-49116000D03*
D15*
X152497800Y-49116000D03*
X152497800Y-47116000D03*
X149997800Y-47116000D03*
D16*
X145227800Y-44406000D03*
X157267800Y-44406000D03*
D11*
X184405800Y-66659302D03*
D12*
X184405800Y-63159302D03*
D11*
X191940000Y-70247225D03*
D12*
X191940000Y-68247225D03*
D17*
X121728997Y-48477399D03*
X121228997Y-49177403D03*
X121228997Y-47777400D03*
X120728997Y-48477399D03*
D11*
X180673225Y-85354000D03*
D12*
X182673225Y-85354000D03*
D11*
X134960498Y-82568800D03*
D12*
X138460498Y-82568800D03*
D18*
X177187400Y-38527400D03*
X179727400Y-38527400D03*
X174647400Y-36622400D03*
X177187400Y-36622400D03*
X179727400Y-36622400D03*
X174647400Y-38527400D03*
X187347400Y-40432400D03*
X184807400Y-38527400D03*
X187347400Y-38527400D03*
X182267400Y-36622400D03*
X184807400Y-36622400D03*
X187347400Y-36622400D03*
X184807400Y-40432400D03*
X182267400Y-38527400D03*
X182267400Y-40432400D03*
X171472400Y-40432400D03*
X168932400Y-38527400D03*
X171472400Y-38527400D03*
X166392400Y-36622400D03*
X168932400Y-36622400D03*
X171472400Y-36622400D03*
X168932400Y-40432400D03*
X166392400Y-38527400D03*
X166392400Y-40432400D03*
X154327400Y-40432400D03*
X151787400Y-38527400D03*
X154327400Y-38527400D03*
X149247400Y-36622400D03*
X151787400Y-36622400D03*
X154327400Y-36622400D03*
X151787400Y-40432400D03*
X149247400Y-38527400D03*
X149247400Y-40432400D03*
X142897400Y-40432400D03*
X140357400Y-38527400D03*
X142897400Y-38527400D03*
X137817400Y-36622400D03*
X140357400Y-36622400D03*
X142897400Y-36622400D03*
X140357400Y-40432400D03*
X137817400Y-38527400D03*
X137817400Y-40432400D03*
X135912400Y-40432400D03*
X133372400Y-38527400D03*
X135912400Y-38527400D03*
X130832400Y-36622400D03*
X133372400Y-36622400D03*
X135912400Y-36622400D03*
X133372400Y-40432400D03*
X130832400Y-38527400D03*
X130832400Y-40432400D03*
X127657400Y-40432400D03*
X125117400Y-38527400D03*
X127657400Y-38527400D03*
X122577400Y-36622400D03*
X125117400Y-36622400D03*
X127657400Y-36622400D03*
X125117400Y-40432400D03*
X122577400Y-38527400D03*
X122577400Y-40432400D03*
X120037400Y-40432400D03*
X117497400Y-38527400D03*
X120037400Y-38527400D03*
X114957400Y-36622400D03*
X117497400Y-36622400D03*
X120037400Y-36622400D03*
X117497400Y-40432400D03*
X114957400Y-38527400D03*
X114957400Y-40432400D03*
X192427400Y-58847400D03*
X192427400Y-54402400D03*
X189887400Y-57577400D03*
X189252400Y-53767400D03*
X187347400Y-55672400D03*
X186712400Y-53767400D03*
X182902400Y-53767400D03*
X180997400Y-55672400D03*
X178457400Y-60117400D03*
X180362400Y-58212400D03*
X182902400Y-57577400D03*
X189887400Y-64562400D03*
X184807400Y-60117400D03*
X182267400Y-60117400D03*
X180362400Y-62022400D03*
X178457400Y-70912400D03*
X176552400Y-69007400D03*
X171472400Y-69007400D03*
X174012400Y-69642400D03*
X175917400Y-70912400D03*
X172742400Y-71547400D03*
X171472400Y-73452400D03*
X174012400Y-79802400D03*
X174012400Y-81707400D03*
X175282400Y-81707400D03*
X175282400Y-83612400D03*
X176552400Y-84882400D03*
X176552400Y-82977400D03*
X177822400Y-84247400D03*
X177822400Y-86152400D03*
X179092400Y-87422400D03*
X180997400Y-88692400D03*
X180997400Y-90597400D03*
X180997400Y-92502400D03*
X180997400Y-94407400D03*
X180997400Y-96312400D03*
X185442400Y-93137400D03*
X187347400Y-88057400D03*
X186712400Y-90597400D03*
X184172400Y-91232400D03*
X185442400Y-86787400D03*
X184807400Y-82342400D03*
X184807400Y-84882400D03*
X185442400Y-88692400D03*
X184172400Y-69642400D03*
X186077400Y-69642400D03*
X187982400Y-69642400D03*
X187982400Y-72182400D03*
X186077400Y-72182400D03*
X184172400Y-72182400D03*
X184172400Y-74722400D03*
X186077400Y-74722400D03*
X194332400Y-76627400D03*
X187347400Y-86152400D03*
X177822400Y-101392400D03*
X173377400Y-99487400D03*
X167662400Y-101392400D03*
X177822400Y-90597400D03*
X177822400Y-95677400D03*
X177822400Y-93137400D03*
X176552400Y-89962400D03*
X174647400Y-88692400D03*
X172742400Y-86787400D03*
X172107400Y-84882400D03*
X172107400Y-93772400D03*
X169567400Y-91867400D03*
X172107400Y-91867400D03*
X167027400Y-89962400D03*
X169567400Y-89962400D03*
X169567400Y-93772400D03*
X167027400Y-91867400D03*
X167027400Y-93772400D03*
X163217400Y-95677400D03*
X163217400Y-94407400D03*
X162582400Y-93137400D03*
X161312400Y-91867400D03*
X158772400Y-90597400D03*
X160677400Y-89962400D03*
X160677400Y-88057400D03*
X158137400Y-88692400D03*
X158137400Y-86152400D03*
X157502400Y-82977400D03*
X146072400Y-100757400D03*
X142897400Y-96312400D03*
X136547400Y-96312400D03*
X139722400Y-95042400D03*
X140992400Y-100122400D03*
X139087400Y-98217400D03*
X142897400Y-98852400D03*
X147977400Y-102662400D03*
X143532400Y-102662400D03*
X139087400Y-102662400D03*
X135277400Y-100122400D03*
X134007400Y-95677400D03*
X135912400Y-93137400D03*
X106702400Y-93772400D03*
X106702400Y-89327400D03*
X106702400Y-85517400D03*
X107972400Y-77897400D03*
X108607400Y-81707400D03*
X109242400Y-86152400D03*
X119402400Y-94407400D03*
X113687400Y-100122400D03*
X116862400Y-101392400D03*
X113687400Y-96947400D03*
X109877400Y-95677400D03*
X109877400Y-93772400D03*
X114322400Y-93772400D03*
X116227400Y-96312400D03*
X120037400Y-91867400D03*
X117497400Y-88692400D03*
X116862400Y-90597400D03*
X113687400Y-89962400D03*
X110512400Y-89962400D03*
X133372400Y-88057400D03*
X131467400Y-86787400D03*
X128927400Y-86152400D03*
X125117400Y-85517400D03*
X120672400Y-79167400D03*
X124482400Y-82977400D03*
X124482400Y-78532400D03*
X120672400Y-75992400D03*
X122577400Y-80437400D03*
X127022400Y-84247400D03*
X130197400Y-84247400D03*
X127022400Y-81707400D03*
X131467400Y-81072400D03*
X127022400Y-73452400D03*
X127022400Y-69642400D03*
X125117400Y-69642400D03*
X125117400Y-71547400D03*
X127022400Y-71547400D03*
X125117400Y-73452400D03*
X127022400Y-75357400D03*
X129562400Y-78532400D03*
X129562400Y-75992400D03*
X131467400Y-78532400D03*
X131467400Y-75992400D03*
X154327400Y-101392400D03*
X154327400Y-99487400D03*
X151152400Y-99487400D03*
X147342400Y-95042400D03*
X147342400Y-93137400D03*
X144802400Y-93137400D03*
X158137400Y-95042400D03*
X156232400Y-95042400D03*
X156232400Y-93137400D03*
X154327400Y-91232400D03*
X154327400Y-89327400D03*
X151152400Y-83612400D03*
X151152400Y-85517400D03*
X151152400Y-87422400D03*
X151152400Y-89327400D03*
X151152400Y-91232400D03*
X149247400Y-91232400D03*
X149247400Y-89327400D03*
X149247400Y-87422400D03*
X149247400Y-85517400D03*
X149247400Y-83612400D03*
X142897400Y-75992400D03*
X142897400Y-77897400D03*
X142897400Y-79802400D03*
X142897400Y-81707400D03*
X147342400Y-77897400D03*
X147342400Y-75992400D03*
X144802400Y-75992400D03*
X144802400Y-77897400D03*
X144802400Y-79802400D03*
X147342400Y-79802400D03*
X147342400Y-81707400D03*
X144802400Y-81707400D03*
X144802400Y-83612400D03*
X147342400Y-83612400D03*
X147342400Y-85517400D03*
X144802400Y-85517400D03*
X142262400Y-85517400D03*
X161947400Y-101392400D03*
X159407400Y-99487400D03*
X161947400Y-99487400D03*
X156867400Y-97582400D03*
X159407400Y-97582400D03*
X161947400Y-97582400D03*
X159407400Y-101392400D03*
X156867400Y-99487400D03*
X156867400Y-101392400D03*
X154327400Y-96947400D03*
X151152400Y-95042400D03*
X154327400Y-95042400D03*
X149247400Y-93137400D03*
X151152400Y-93137400D03*
X154327400Y-93137400D03*
X151152400Y-96947400D03*
X149247400Y-95042400D03*
X149247400Y-96947400D03*
X142262400Y-87422400D03*
X144802400Y-89327400D03*
X142262400Y-89327400D03*
X147342400Y-91232400D03*
X144802400Y-91232400D03*
X142262400Y-91232400D03*
X144802400Y-87422400D03*
X147342400Y-89327400D03*
X147342400Y-87422400D03*
X114322400Y-60117400D03*
X111782400Y-58212400D03*
X114322400Y-58212400D03*
X111782400Y-56307400D03*
X114322400Y-56307400D03*
X111782400Y-60117400D03*
X162582400Y-69642400D03*
X160042400Y-67737400D03*
X162582400Y-67737400D03*
X157502400Y-65832400D03*
X160042400Y-65832400D03*
X162582400Y-65832400D03*
X160042400Y-69642400D03*
X157502400Y-67737400D03*
X157502400Y-69642400D03*
X154962400Y-69642400D03*
X152422400Y-67737400D03*
X154962400Y-67737400D03*
X149882400Y-65832400D03*
X152422400Y-65832400D03*
X154962400Y-65832400D03*
X152422400Y-69642400D03*
X149882400Y-67737400D03*
X149882400Y-69642400D03*
X154962400Y-54402400D03*
X154962400Y-56307400D03*
X152422400Y-56307400D03*
X149882400Y-56307400D03*
X147342400Y-56307400D03*
X119402400Y-56307400D03*
X121942400Y-56307400D03*
X116862400Y-56307400D03*
X121942400Y-54402400D03*
X119402400Y-54402400D03*
X124482400Y-54402400D03*
X127022400Y-56307400D03*
X129562400Y-56307400D03*
X124482400Y-56307400D03*
X129562400Y-54402400D03*
X127022400Y-54402400D03*
X132102400Y-54402400D03*
X134642400Y-56307400D03*
X137182400Y-56307400D03*
X132102400Y-56307400D03*
X137182400Y-54402400D03*
X134007400Y-54402400D03*
X139722400Y-54402400D03*
X142262400Y-56307400D03*
X144802400Y-56307400D03*
X139722400Y-56307400D03*
X142262400Y-54402400D03*
X157502400Y-54402400D03*
X160042400Y-56307400D03*
X162582400Y-56307400D03*
X157502400Y-56307400D03*
X162582400Y-54402400D03*
X160042400Y-54402400D03*
X164487400Y-56942400D03*
X164487400Y-55037400D03*
X166392400Y-56942400D03*
X166392400Y-55037400D03*
X164487400Y-51862400D03*
X166392400Y-53767400D03*
X168932400Y-53767400D03*
X164487400Y-53767400D03*
X168932400Y-51862400D03*
X166392400Y-51862400D03*
X168932400Y-55037400D03*
X171472400Y-56942400D03*
X174012400Y-56942400D03*
X168932400Y-56942400D03*
X174012400Y-55037400D03*
X171472400Y-55037400D03*
X164487400Y-63927400D03*
X161947400Y-62022400D03*
X164487400Y-62022400D03*
X159407400Y-60117400D03*
X161947400Y-60117400D03*
X164487400Y-60117400D03*
X164487400Y-58212400D03*
X161947400Y-63927400D03*
X161947400Y-58212400D03*
X159407400Y-58212400D03*
X159407400Y-62022400D03*
X159407400Y-63927400D03*
X147342400Y-62022400D03*
X147342400Y-60117400D03*
X147342400Y-58212400D03*
X147342400Y-63927400D03*
X149882400Y-58212400D03*
X154962400Y-58212400D03*
X149882400Y-63927400D03*
X152422400Y-63927400D03*
X152422400Y-58212400D03*
X152422400Y-62022400D03*
X149882400Y-62022400D03*
X149882400Y-60117400D03*
X157502400Y-63927400D03*
X154962400Y-62022400D03*
X154962400Y-63927400D03*
X157502400Y-62022400D03*
X152422400Y-60117400D03*
X154962400Y-60117400D03*
X157502400Y-58212400D03*
X157502400Y-60117400D03*
X134642400Y-60117400D03*
X132102400Y-60117400D03*
X134642400Y-58212400D03*
X134642400Y-63927400D03*
X132102400Y-58212400D03*
X132102400Y-63927400D03*
X134642400Y-62022400D03*
X132102400Y-62022400D03*
X144802400Y-58212400D03*
X142262400Y-63927400D03*
X144802400Y-62022400D03*
X144802400Y-60117400D03*
X144802400Y-63927400D03*
X137182400Y-60117400D03*
X139722400Y-60117400D03*
X142262400Y-60117400D03*
X142262400Y-62022400D03*
X142262400Y-58212400D03*
X137182400Y-63927400D03*
X139722400Y-63927400D03*
X139722400Y-62022400D03*
X139722400Y-58212400D03*
X137182400Y-58212400D03*
X137182400Y-62022400D03*
X129562400Y-60117400D03*
X127022400Y-60117400D03*
X129562400Y-58212400D03*
X129562400Y-63927400D03*
X127022400Y-58212400D03*
X127022400Y-63927400D03*
X129562400Y-62022400D03*
X127022400Y-62022400D03*
X124482400Y-60117400D03*
X121942400Y-60117400D03*
X124482400Y-58212400D03*
X124482400Y-63927400D03*
X121942400Y-58212400D03*
X121942400Y-63927400D03*
X124482400Y-62022400D03*
X121942400Y-62022400D03*
X119402400Y-63927400D03*
X116862400Y-63927400D03*
X119402400Y-62022400D03*
X116862400Y-62022400D03*
X119402400Y-60117400D03*
X116862400Y-60117400D03*
X119402400Y-58212400D03*
X116862400Y-58212400D03*
X182394400Y-47671400D03*
X182394400Y-46020400D03*
X182394400Y-42591400D03*
X180870400Y-44369400D03*
X180870400Y-47544400D03*
X180870400Y-48814400D03*
X180870400Y-50084400D03*
X180870400Y-51354400D03*
X176044400Y-61133400D03*
X189887400Y-79167400D03*
X174901400Y-75611400D03*
X168932400Y-81199400D03*
X138213200Y-43950800D03*
X132021400Y-99434400D03*
X187012000Y-44251200D03*
X133133200Y-51316800D03*
X172222400Y-50262400D03*
X178630000Y-49534400D03*
X139308400Y-74068400D03*
X128722400Y-73312400D03*
X190618800Y-44606800D03*
X121249600Y-44284000D03*
X189450400Y-51261600D03*
X119994000Y-66448400D03*
X105795400Y-73306400D03*
X182808400Y-80893400D03*
X162123400Y-74624400D03*
X155649800Y-82463000D03*
X173022400Y-51212400D03*
X130644000Y-46135200D03*
X148846000Y-77684400D03*
X132218800Y-51316800D03*
X136994000Y-43950800D03*
X172072400Y-52462400D03*
X171972400Y-51412400D03*
X173572400Y-50362400D03*
X132218800Y-50300800D03*
X173372400Y-52212400D03*
X139889600Y-48014800D03*
X120690800Y-50837200D03*
X119725600Y-51700800D03*
X139584800Y-50097600D03*
X142925500Y-83781500D03*
X166117200Y-49340400D03*
X115356800Y-53326400D03*
X128866000Y-46135200D03*
X160934000Y-38267600D03*
X118760400Y-52513600D03*
X146019800Y-54131800D03*
X178601800Y-45216400D03*
X117693600Y-53224800D03*
X182998800Y-49382000D03*
X135724000Y-43544400D03*
X165552400Y-77672400D03*
X132656400Y-91941400D03*
X133387200Y-43138000D03*
X160912400Y-50811200D03*
X116474400Y-53275600D03*
X188002800Y-74633600D03*
X133415600Y-66448400D03*
X119511400Y-84990400D03*
X187113600Y-46384800D03*
X160912400Y-43953200D03*
X172954000Y-59967200D03*
X173372400Y-53312400D03*
X175086800Y-77718400D03*
X114239200Y-53326400D03*
X119829400Y-99307400D03*
X142559600Y-66397600D03*
X187012000Y-50499600D03*
X172700000Y-67028400D03*
X194860800Y-79256400D03*
X116844400Y-73941400D03*
X134606400Y-43341200D03*
X151472400Y-54162400D03*
X168905200Y-79196400D03*
X110443600Y-66397600D03*
X182572400Y-50212400D03*
X165822400Y-48212400D03*
X178872400Y-44262400D03*
X134301600Y-49081600D03*
X147022400Y-52462400D03*
D19*
X131761600Y-47659200D03*
X177207600Y-52582400D03*
D18*
X167330400Y-77291400D03*
X162250400Y-84530400D03*
X193184400Y-77732400D03*
X188104400Y-84590400D03*
X144622400Y-66362400D03*
X122122400Y-66462400D03*
X112524300Y-66262400D03*
X148722400Y-75562400D03*
X135522400Y-66462400D03*
X109478400Y-71274400D03*
X109478400Y-72798400D03*
X113669400Y-74068400D03*
X113669400Y-72417400D03*
X114939400Y-73687400D03*
X114939400Y-71274400D03*
X120272400Y-72012400D03*
X119402578Y-73679291D03*
X132450400Y-73560400D03*
X132398488Y-71528400D03*
X136579044Y-72482044D03*
X136641400Y-74068400D03*
X137591641Y-71519043D03*
X137597000Y-73687400D03*
X142722400Y-72062400D03*
X142072400Y-73612400D03*
X135522400Y-87062400D03*
X163572400Y-73762400D03*
X167222400Y-73762400D03*
X187022400Y-77662400D03*
X174822400Y-64462400D03*
X189222400Y-77462400D03*
X184322400Y-77662400D03*
X182022400Y-74562400D03*
X178722400Y-67862400D03*
X159522400Y-77462400D03*
X157922400Y-77662400D03*
X155672400Y-74562400D03*
X169922400Y-64462400D03*
X163322400Y-77462400D03*
X131467400Y-49703400D03*
G04 #@! TA.AperFunction,Conductor*
G36*
X191425102Y-34263017D02*
G01*
X191835317Y-34280928D01*
X191846054Y-34281868D01*
X192250457Y-34335108D01*
X192261095Y-34336983D01*
X192659325Y-34425269D01*
X192669765Y-34428067D01*
X193058763Y-34550717D01*
X193068924Y-34554415D01*
X193445763Y-34710508D01*
X193455555Y-34715074D01*
X193817365Y-34903420D01*
X193826705Y-34908813D01*
X194112036Y-35090589D01*
X194170709Y-35127968D01*
X194179570Y-35134172D01*
X194503166Y-35382476D01*
X194511453Y-35389430D01*
X194812167Y-35664983D01*
X194819816Y-35672632D01*
X195095369Y-35973346D01*
X195102323Y-35981633D01*
X195350627Y-36305229D01*
X195356831Y-36314090D01*
X195575978Y-36658080D01*
X195581387Y-36667448D01*
X195769722Y-37029238D01*
X195774294Y-37039042D01*
X195930383Y-37415873D01*
X195934083Y-37426039D01*
X196056731Y-37815030D01*
X196059531Y-37825478D01*
X196147814Y-38223696D01*
X196149692Y-38234350D01*
X196202929Y-38638726D01*
X196203872Y-38649502D01*
X196221782Y-39059697D01*
X196221900Y-39065106D01*
X196221900Y-99559693D01*
X196221782Y-99565102D01*
X196203872Y-99975297D01*
X196202929Y-99986073D01*
X196149692Y-100390449D01*
X196147814Y-100401103D01*
X196059531Y-100799321D01*
X196056731Y-100809769D01*
X195934083Y-101198760D01*
X195930383Y-101208926D01*
X195774294Y-101585757D01*
X195769722Y-101595561D01*
X195581387Y-101957351D01*
X195575978Y-101966719D01*
X195356831Y-102310709D01*
X195350627Y-102319570D01*
X195102323Y-102643166D01*
X195095369Y-102651453D01*
X194819816Y-102952167D01*
X194812167Y-102959816D01*
X194511453Y-103235369D01*
X194503166Y-103242323D01*
X194179570Y-103490627D01*
X194170709Y-103496831D01*
X193826719Y-103715978D01*
X193817351Y-103721387D01*
X193455561Y-103909722D01*
X193445757Y-103914294D01*
X193068926Y-104070383D01*
X193058760Y-104074083D01*
X192669769Y-104196731D01*
X192659321Y-104199531D01*
X192261103Y-104287814D01*
X192250449Y-104289692D01*
X191846073Y-104342929D01*
X191835297Y-104343872D01*
X191425103Y-104361782D01*
X191419694Y-104361900D01*
X109425106Y-104361900D01*
X109419697Y-104361782D01*
X109009502Y-104343872D01*
X108998726Y-104342929D01*
X108594350Y-104289692D01*
X108583696Y-104287814D01*
X108185478Y-104199531D01*
X108175030Y-104196731D01*
X107786039Y-104074083D01*
X107775873Y-104070383D01*
X107399042Y-103914294D01*
X107389238Y-103909722D01*
X107269526Y-103847404D01*
X107027442Y-103721383D01*
X107018086Y-103715982D01*
X106846085Y-103606404D01*
X106674090Y-103496831D01*
X106665229Y-103490627D01*
X106341633Y-103242323D01*
X106333346Y-103235369D01*
X106032632Y-102959816D01*
X106024983Y-102952167D01*
X105749430Y-102651453D01*
X105742476Y-102643166D01*
X105494172Y-102319570D01*
X105487968Y-102310709D01*
X105434470Y-102226734D01*
X105268813Y-101966705D01*
X105263420Y-101957365D01*
X105075074Y-101595555D01*
X105070505Y-101585757D01*
X105028855Y-101485206D01*
X104914415Y-101208924D01*
X104910716Y-101198760D01*
X104788068Y-100809769D01*
X104785268Y-100799321D01*
X104764757Y-100706800D01*
X104764757Y-100706799D01*
X164529371Y-100706799D01*
X164529371Y-100706800D01*
X164549044Y-100919110D01*
X164607396Y-101124192D01*
X164607396Y-101124194D01*
X164702432Y-101315053D01*
X164702434Y-101315055D01*
X164830928Y-101485207D01*
X164988498Y-101628852D01*
X165169781Y-101741098D01*
X165368602Y-101818121D01*
X165578190Y-101857300D01*
X165578192Y-101857300D01*
X165791408Y-101857300D01*
X165791410Y-101857300D01*
X166000998Y-101818121D01*
X166199819Y-101741098D01*
X166381102Y-101628852D01*
X166538672Y-101485207D01*
X166667166Y-101315055D01*
X166667167Y-101315053D01*
X166762203Y-101124194D01*
X166762203Y-101124193D01*
X166762205Y-101124189D01*
X166820556Y-100919110D01*
X166840229Y-100706800D01*
X166840229Y-100706799D01*
X169529371Y-100706799D01*
X169529371Y-100706800D01*
X169549044Y-100919110D01*
X169607396Y-101124192D01*
X169607396Y-101124194D01*
X169702432Y-101315053D01*
X169702434Y-101315055D01*
X169830928Y-101485207D01*
X169988498Y-101628852D01*
X170169781Y-101741098D01*
X170368602Y-101818121D01*
X170578190Y-101857300D01*
X170578192Y-101857300D01*
X170791408Y-101857300D01*
X170791410Y-101857300D01*
X171000998Y-101818121D01*
X171199819Y-101741098D01*
X171381102Y-101628852D01*
X171538672Y-101485207D01*
X171667166Y-101315055D01*
X171667167Y-101315053D01*
X171762203Y-101124194D01*
X171762203Y-101124193D01*
X171762205Y-101124189D01*
X171820556Y-100919110D01*
X171840229Y-100706800D01*
X171840229Y-100706799D01*
X174529371Y-100706799D01*
X174529371Y-100706800D01*
X174549044Y-100919110D01*
X174607396Y-101124192D01*
X174607396Y-101124194D01*
X174702432Y-101315053D01*
X174702434Y-101315055D01*
X174830928Y-101485207D01*
X174988498Y-101628852D01*
X175169781Y-101741098D01*
X175368602Y-101818121D01*
X175578190Y-101857300D01*
X175578192Y-101857300D01*
X175791408Y-101857300D01*
X175791410Y-101857300D01*
X176000998Y-101818121D01*
X176199819Y-101741098D01*
X176381102Y-101628852D01*
X176538672Y-101485207D01*
X176667166Y-101315055D01*
X176667167Y-101315053D01*
X176762203Y-101124194D01*
X176762203Y-101124193D01*
X176762205Y-101124189D01*
X176820556Y-100919110D01*
X176840229Y-100706800D01*
X176820556Y-100494490D01*
X176762205Y-100289411D01*
X176762203Y-100289406D01*
X176762203Y-100289405D01*
X176667167Y-100098546D01*
X176538672Y-99928393D01*
X176381102Y-99784748D01*
X176199819Y-99672502D01*
X176199817Y-99672501D01*
X176100408Y-99633990D01*
X176000998Y-99595479D01*
X175791410Y-99556300D01*
X175578190Y-99556300D01*
X175368602Y-99595479D01*
X175368599Y-99595479D01*
X175368599Y-99595480D01*
X175169782Y-99672501D01*
X175169780Y-99672502D01*
X174988499Y-99784747D01*
X174830927Y-99928393D01*
X174702432Y-100098546D01*
X174607396Y-100289405D01*
X174607396Y-100289407D01*
X174549044Y-100494489D01*
X174529371Y-100706799D01*
X171840229Y-100706799D01*
X171820556Y-100494490D01*
X171762205Y-100289411D01*
X171762203Y-100289406D01*
X171762203Y-100289405D01*
X171667167Y-100098546D01*
X171538672Y-99928393D01*
X171381102Y-99784748D01*
X171199819Y-99672502D01*
X171199817Y-99672501D01*
X171100408Y-99633990D01*
X171000998Y-99595479D01*
X170791410Y-99556300D01*
X170578190Y-99556300D01*
X170368602Y-99595479D01*
X170368599Y-99595479D01*
X170368599Y-99595480D01*
X170169782Y-99672501D01*
X170169780Y-99672502D01*
X169988499Y-99784747D01*
X169830927Y-99928393D01*
X169702432Y-100098546D01*
X169607396Y-100289405D01*
X169607396Y-100289407D01*
X169549044Y-100494489D01*
X169529371Y-100706799D01*
X166840229Y-100706799D01*
X166820556Y-100494490D01*
X166762205Y-100289411D01*
X166762203Y-100289406D01*
X166762203Y-100289405D01*
X166667167Y-100098546D01*
X166538672Y-99928393D01*
X166381102Y-99784748D01*
X166199819Y-99672502D01*
X166199817Y-99672501D01*
X166100408Y-99633990D01*
X166000998Y-99595479D01*
X165791410Y-99556300D01*
X165578190Y-99556300D01*
X165368602Y-99595479D01*
X165368599Y-99595479D01*
X165368599Y-99595480D01*
X165169782Y-99672501D01*
X165169780Y-99672502D01*
X164988499Y-99784747D01*
X164830927Y-99928393D01*
X164702432Y-100098546D01*
X164607396Y-100289405D01*
X164607396Y-100289407D01*
X164549044Y-100494489D01*
X164529371Y-100706799D01*
X104764757Y-100706799D01*
X104696983Y-100401095D01*
X104695107Y-100390449D01*
X104641868Y-99986054D01*
X104640928Y-99975317D01*
X104623018Y-99565102D01*
X104622900Y-99559693D01*
X104622900Y-98267389D01*
X125188500Y-98267389D01*
X125188500Y-98440611D01*
X125215598Y-98611701D01*
X125269127Y-98776445D01*
X125347768Y-98930788D01*
X125449586Y-99070928D01*
X125572072Y-99193414D01*
X125712212Y-99295232D01*
X125866555Y-99373873D01*
X126031299Y-99427402D01*
X126202389Y-99454500D01*
X126202390Y-99454500D01*
X126375610Y-99454500D01*
X126375611Y-99454500D01*
X126546701Y-99427402D01*
X126711445Y-99373873D01*
X126865788Y-99295232D01*
X127005928Y-99193414D01*
X127128414Y-99070928D01*
X127230232Y-98930788D01*
X127308873Y-98776445D01*
X127362402Y-98611701D01*
X127389500Y-98440611D01*
X127389500Y-98267389D01*
X127362402Y-98096299D01*
X127308873Y-97931555D01*
X127230232Y-97777212D01*
X127128414Y-97637072D01*
X127005928Y-97514586D01*
X126865788Y-97412768D01*
X126711445Y-97334127D01*
X126546701Y-97280598D01*
X126546699Y-97280597D01*
X126546698Y-97280597D01*
X126415271Y-97259781D01*
X126375611Y-97253500D01*
X126202389Y-97253500D01*
X126162728Y-97259781D01*
X126031302Y-97280597D01*
X125866552Y-97334128D01*
X125712211Y-97412768D01*
X125632256Y-97470859D01*
X125572072Y-97514586D01*
X125572070Y-97514588D01*
X125572069Y-97514588D01*
X125449588Y-97637069D01*
X125449588Y-97637070D01*
X125449586Y-97637072D01*
X125405859Y-97697256D01*
X125347768Y-97777211D01*
X125269128Y-97931552D01*
X125215597Y-98096302D01*
X125188500Y-98267389D01*
X104622900Y-98267389D01*
X104622900Y-95706799D01*
X164529371Y-95706799D01*
X164529371Y-95706800D01*
X164549044Y-95919110D01*
X164607396Y-96124192D01*
X164607396Y-96124194D01*
X164702432Y-96315053D01*
X164702434Y-96315055D01*
X164830928Y-96485207D01*
X164988498Y-96628852D01*
X165169781Y-96741098D01*
X165368602Y-96818121D01*
X165578190Y-96857300D01*
X165578192Y-96857300D01*
X165791408Y-96857300D01*
X165791410Y-96857300D01*
X166000998Y-96818121D01*
X166199819Y-96741098D01*
X166381102Y-96628852D01*
X166538672Y-96485207D01*
X166667166Y-96315055D01*
X166762205Y-96124189D01*
X166820556Y-95919110D01*
X166840229Y-95706800D01*
X166840229Y-95706799D01*
X169529371Y-95706799D01*
X169529371Y-95706800D01*
X169549044Y-95919110D01*
X169607396Y-96124192D01*
X169607396Y-96124194D01*
X169702432Y-96315053D01*
X169702434Y-96315055D01*
X169830928Y-96485207D01*
X169988498Y-96628852D01*
X170169781Y-96741098D01*
X170368602Y-96818121D01*
X170578190Y-96857300D01*
X170578192Y-96857300D01*
X170791408Y-96857300D01*
X170791410Y-96857300D01*
X171000998Y-96818121D01*
X171199819Y-96741098D01*
X171381102Y-96628852D01*
X171538672Y-96485207D01*
X171667166Y-96315055D01*
X171762205Y-96124189D01*
X171820556Y-95919110D01*
X171840229Y-95706800D01*
X171840229Y-95706799D01*
X174529371Y-95706799D01*
X174529371Y-95706800D01*
X174549044Y-95919110D01*
X174607396Y-96124192D01*
X174607396Y-96124194D01*
X174702432Y-96315053D01*
X174702434Y-96315055D01*
X174830928Y-96485207D01*
X174988498Y-96628852D01*
X175169781Y-96741098D01*
X175368602Y-96818121D01*
X175578190Y-96857300D01*
X175578192Y-96857300D01*
X175791408Y-96857300D01*
X175791410Y-96857300D01*
X176000998Y-96818121D01*
X176199819Y-96741098D01*
X176381102Y-96628852D01*
X176538672Y-96485207D01*
X176667166Y-96315055D01*
X176762205Y-96124189D01*
X176820556Y-95919110D01*
X176840229Y-95706800D01*
X176820556Y-95494490D01*
X176762205Y-95289411D01*
X176762203Y-95289406D01*
X176762203Y-95289405D01*
X176667167Y-95098546D01*
X176538672Y-94928393D01*
X176381102Y-94784748D01*
X176199819Y-94672502D01*
X176199817Y-94672501D01*
X176100408Y-94633990D01*
X176000998Y-94595479D01*
X175791410Y-94556300D01*
X175578190Y-94556300D01*
X175368602Y-94595479D01*
X175368599Y-94595479D01*
X175368599Y-94595480D01*
X175169782Y-94672501D01*
X175169780Y-94672502D01*
X174988499Y-94784747D01*
X174830927Y-94928393D01*
X174702432Y-95098546D01*
X174607396Y-95289405D01*
X174607396Y-95289407D01*
X174549044Y-95494489D01*
X174529371Y-95706799D01*
X171840229Y-95706799D01*
X171820556Y-95494490D01*
X171762205Y-95289411D01*
X171762203Y-95289406D01*
X171762203Y-95289405D01*
X171667167Y-95098546D01*
X171538672Y-94928393D01*
X171381102Y-94784748D01*
X171199819Y-94672502D01*
X171199817Y-94672501D01*
X171100408Y-94633990D01*
X171000998Y-94595479D01*
X170791410Y-94556300D01*
X170578190Y-94556300D01*
X170368602Y-94595479D01*
X170368599Y-94595479D01*
X170368599Y-94595480D01*
X170169782Y-94672501D01*
X170169780Y-94672502D01*
X169988499Y-94784747D01*
X169830927Y-94928393D01*
X169702432Y-95098546D01*
X169607396Y-95289405D01*
X169607396Y-95289407D01*
X169549044Y-95494489D01*
X169529371Y-95706799D01*
X166840229Y-95706799D01*
X166820556Y-95494490D01*
X166762205Y-95289411D01*
X166762203Y-95289406D01*
X166762203Y-95289405D01*
X166667167Y-95098546D01*
X166538672Y-94928393D01*
X166381102Y-94784748D01*
X166199819Y-94672502D01*
X166199817Y-94672501D01*
X166100408Y-94633990D01*
X166000998Y-94595479D01*
X165791410Y-94556300D01*
X165578190Y-94556300D01*
X165368602Y-94595479D01*
X165368599Y-94595479D01*
X165368599Y-94595480D01*
X165169782Y-94672501D01*
X165169780Y-94672502D01*
X164988499Y-94784747D01*
X164830927Y-94928393D01*
X164702432Y-95098546D01*
X164607396Y-95289405D01*
X164607396Y-95289407D01*
X164549044Y-95494489D01*
X164529371Y-95706799D01*
X104622900Y-95706799D01*
X104622900Y-91267389D01*
X125188500Y-91267389D01*
X125188500Y-91440611D01*
X125215598Y-91611701D01*
X125269127Y-91776445D01*
X125347768Y-91930788D01*
X125449586Y-92070928D01*
X125572072Y-92193414D01*
X125712212Y-92295232D01*
X125866555Y-92373873D01*
X126031299Y-92427402D01*
X126202389Y-92454500D01*
X126202390Y-92454500D01*
X126375610Y-92454500D01*
X126375611Y-92454500D01*
X126546701Y-92427402D01*
X126711445Y-92373873D01*
X126865788Y-92295232D01*
X127005928Y-92193414D01*
X127128414Y-92070928D01*
X127230232Y-91930788D01*
X127308873Y-91776445D01*
X127362402Y-91611701D01*
X127389500Y-91440611D01*
X127389500Y-91267389D01*
X127362402Y-91096299D01*
X127308873Y-90931555D01*
X127230232Y-90777212D01*
X127128414Y-90637072D01*
X127005928Y-90514586D01*
X126865788Y-90412768D01*
X126711445Y-90334127D01*
X126546701Y-90280598D01*
X126546699Y-90280597D01*
X126546698Y-90280597D01*
X126415271Y-90259781D01*
X126375611Y-90253500D01*
X126202389Y-90253500D01*
X126162728Y-90259781D01*
X126031302Y-90280597D01*
X125866552Y-90334128D01*
X125712211Y-90412768D01*
X125632256Y-90470859D01*
X125572072Y-90514586D01*
X125572070Y-90514588D01*
X125572069Y-90514588D01*
X125449588Y-90637069D01*
X125449588Y-90637070D01*
X125449586Y-90637072D01*
X125424550Y-90671531D01*
X125347768Y-90777211D01*
X125269128Y-90931552D01*
X125215597Y-91096302D01*
X125207843Y-91145260D01*
X125188500Y-91267389D01*
X104622900Y-91267389D01*
X104622900Y-90207575D01*
X163268417Y-90207575D01*
X163288699Y-90413507D01*
X163318734Y-90512519D01*
X163348768Y-90611529D01*
X163446315Y-90794025D01*
X163446317Y-90794027D01*
X163577589Y-90953985D01*
X163674209Y-91033277D01*
X163737550Y-91085260D01*
X163920046Y-91182807D01*
X164118066Y-91242875D01*
X164118065Y-91242875D01*
X164136529Y-91244693D01*
X164324000Y-91263158D01*
X164529934Y-91242875D01*
X164727954Y-91182807D01*
X164910450Y-91085260D01*
X165070410Y-90953985D01*
X165201685Y-90794025D01*
X165299232Y-90611529D01*
X165359300Y-90413509D01*
X165373673Y-90267575D01*
X189195417Y-90267575D01*
X189215699Y-90473507D01*
X189215700Y-90473509D01*
X189275768Y-90671529D01*
X189373315Y-90854025D01*
X189373317Y-90854027D01*
X189504589Y-91013985D01*
X189591436Y-91085257D01*
X189664550Y-91145260D01*
X189847046Y-91242807D01*
X190045066Y-91302875D01*
X190045065Y-91302875D01*
X190063529Y-91304693D01*
X190251000Y-91323158D01*
X190456934Y-91302875D01*
X190654954Y-91242807D01*
X190837450Y-91145260D01*
X190997410Y-91013985D01*
X191128685Y-90854025D01*
X191226232Y-90671529D01*
X191286300Y-90473509D01*
X191306583Y-90267575D01*
X191286300Y-90061641D01*
X191226232Y-89863621D01*
X191128685Y-89681125D01*
X190997410Y-89521165D01*
X190996227Y-89519723D01*
X190968915Y-89455413D01*
X190980706Y-89386546D01*
X191027859Y-89334986D01*
X191070035Y-89320951D01*
X191069700Y-89319264D01*
X191148735Y-89303542D01*
X191148735Y-89303541D01*
X191148740Y-89303541D01*
X191231601Y-89248176D01*
X191286966Y-89165315D01*
X191301500Y-89092249D01*
X191301500Y-87442901D01*
X191301500Y-87442898D01*
X191301499Y-87442896D01*
X191286967Y-87369839D01*
X191286966Y-87369835D01*
X191267046Y-87340022D01*
X191231601Y-87286974D01*
X191148740Y-87231609D01*
X191148739Y-87231608D01*
X191148735Y-87231607D01*
X191075677Y-87217075D01*
X191075674Y-87217075D01*
X189426326Y-87217075D01*
X189426323Y-87217075D01*
X189353264Y-87231607D01*
X189353260Y-87231608D01*
X189270399Y-87286974D01*
X189215033Y-87369835D01*
X189215032Y-87369839D01*
X189200500Y-87442896D01*
X189200500Y-89092253D01*
X189215032Y-89165310D01*
X189215033Y-89165314D01*
X189215034Y-89165315D01*
X189270399Y-89248176D01*
X189310524Y-89274986D01*
X189353260Y-89303541D01*
X189353264Y-89303542D01*
X189432300Y-89319264D01*
X189431835Y-89321600D01*
X189486850Y-89343810D01*
X189527214Y-89400840D01*
X189530338Y-89470640D01*
X189505772Y-89519723D01*
X189373317Y-89681121D01*
X189275769Y-89863618D01*
X189215699Y-90061642D01*
X189195417Y-90267575D01*
X165373673Y-90267575D01*
X165379583Y-90207575D01*
X165359300Y-90001641D01*
X165299232Y-89803621D01*
X165201685Y-89621125D01*
X165070410Y-89461165D01*
X165069227Y-89459723D01*
X165041915Y-89395413D01*
X165053706Y-89326546D01*
X165100859Y-89274986D01*
X165143035Y-89260951D01*
X165142700Y-89259264D01*
X165221735Y-89243542D01*
X165221735Y-89243541D01*
X165221740Y-89243541D01*
X165304601Y-89188176D01*
X165359966Y-89105315D01*
X165374500Y-89032249D01*
X165374500Y-87382901D01*
X165374500Y-87382898D01*
X165374499Y-87382896D01*
X165359967Y-87309839D01*
X165359966Y-87309835D01*
X165344691Y-87286974D01*
X165304601Y-87226974D01*
X165221740Y-87171609D01*
X165221739Y-87171608D01*
X165221735Y-87171607D01*
X165148677Y-87157075D01*
X165148674Y-87157075D01*
X163499326Y-87157075D01*
X163499323Y-87157075D01*
X163426264Y-87171607D01*
X163426260Y-87171608D01*
X163343399Y-87226974D01*
X163288033Y-87309835D01*
X163288032Y-87309839D01*
X163273500Y-87382896D01*
X163273500Y-89032253D01*
X163288032Y-89105310D01*
X163288033Y-89105314D01*
X163288034Y-89105315D01*
X163343399Y-89188176D01*
X163426260Y-89243541D01*
X163426264Y-89243542D01*
X163505300Y-89259264D01*
X163504835Y-89261600D01*
X163559850Y-89283810D01*
X163600214Y-89340840D01*
X163603338Y-89410640D01*
X163578772Y-89459723D01*
X163446317Y-89621121D01*
X163348769Y-89803618D01*
X163288699Y-90001642D01*
X163268417Y-90207575D01*
X104622900Y-90207575D01*
X104622900Y-87062400D01*
X134967150Y-87062400D01*
X134979614Y-87157075D01*
X134986070Y-87206108D01*
X134986071Y-87206112D01*
X135041537Y-87340022D01*
X135041538Y-87340024D01*
X135041539Y-87340025D01*
X135129779Y-87455021D01*
X135244775Y-87543261D01*
X135378691Y-87598730D01*
X135505680Y-87615448D01*
X135522399Y-87617650D01*
X135522400Y-87617650D01*
X135522401Y-87617650D01*
X135537377Y-87615678D01*
X135666109Y-87598730D01*
X135800025Y-87543261D01*
X135915021Y-87455021D01*
X136003261Y-87340025D01*
X136058730Y-87206109D01*
X136077650Y-87062400D01*
X136058730Y-86918691D01*
X136003261Y-86784775D01*
X135915021Y-86669779D01*
X135800025Y-86581539D01*
X135800024Y-86581538D01*
X135800022Y-86581537D01*
X135666112Y-86526071D01*
X135666110Y-86526070D01*
X135666109Y-86526070D01*
X135594254Y-86516610D01*
X135522401Y-86507150D01*
X135522399Y-86507150D01*
X135378691Y-86526070D01*
X135378687Y-86526071D01*
X135244777Y-86581537D01*
X135129779Y-86669779D01*
X135041537Y-86784777D01*
X134986071Y-86918687D01*
X134986070Y-86918691D01*
X134967150Y-87062400D01*
X104622900Y-87062400D01*
X104622900Y-84727121D01*
X153149075Y-84727121D01*
X153149075Y-86376478D01*
X153163607Y-86449535D01*
X153163608Y-86449539D01*
X153163609Y-86449540D01*
X153218974Y-86532401D01*
X153300838Y-86587100D01*
X153301835Y-86587766D01*
X153301839Y-86587767D01*
X153374896Y-86602299D01*
X153374899Y-86602300D01*
X153374901Y-86602300D01*
X155024251Y-86602300D01*
X155024252Y-86602299D01*
X155097315Y-86587766D01*
X155180176Y-86532401D01*
X155235541Y-86449540D01*
X155243489Y-86409583D01*
X155251264Y-86370500D01*
X155253601Y-86370964D01*
X155275806Y-86315954D01*
X155332834Y-86275587D01*
X155402634Y-86272460D01*
X155451723Y-86297027D01*
X155497508Y-86334601D01*
X155613125Y-86429485D01*
X155795621Y-86527032D01*
X155993641Y-86587100D01*
X155993640Y-86587100D01*
X156012104Y-86588918D01*
X156199575Y-86607383D01*
X156405509Y-86587100D01*
X156603529Y-86527032D01*
X156786025Y-86429485D01*
X156945985Y-86298210D01*
X157077260Y-86138250D01*
X157174807Y-85955754D01*
X157234875Y-85757734D01*
X157255158Y-85551800D01*
X157234875Y-85345866D01*
X157174807Y-85147846D01*
X157077260Y-84965350D01*
X156997388Y-84868025D01*
X156945985Y-84805389D01*
X156786027Y-84674117D01*
X156786028Y-84674117D01*
X156786025Y-84674115D01*
X156603529Y-84576568D01*
X156451332Y-84530400D01*
X161695150Y-84530400D01*
X161711430Y-84654060D01*
X161714070Y-84674108D01*
X161714071Y-84674112D01*
X161769537Y-84808022D01*
X161769538Y-84808024D01*
X161769539Y-84808025D01*
X161857779Y-84923021D01*
X161972775Y-85011261D01*
X162106691Y-85066730D01*
X162233680Y-85083448D01*
X162250399Y-85085650D01*
X162250400Y-85085650D01*
X162250401Y-85085650D01*
X162265377Y-85083678D01*
X162394109Y-85066730D01*
X162528025Y-85011261D01*
X162643021Y-84923021D01*
X162731261Y-84808025D01*
X162786730Y-84674109D01*
X162805650Y-84530400D01*
X162805508Y-84529321D01*
X179622725Y-84529321D01*
X179622725Y-86178678D01*
X179637257Y-86251735D01*
X179637258Y-86251739D01*
X179637259Y-86251740D01*
X179692624Y-86334601D01*
X179774488Y-86389300D01*
X179775485Y-86389966D01*
X179775489Y-86389967D01*
X179848546Y-86404499D01*
X179848549Y-86404500D01*
X179848551Y-86404500D01*
X181497901Y-86404500D01*
X181497902Y-86404499D01*
X181570965Y-86389966D01*
X181653826Y-86334601D01*
X181709191Y-86251740D01*
X181713181Y-86231682D01*
X181724914Y-86172700D01*
X181727251Y-86173164D01*
X181749456Y-86118154D01*
X181806484Y-86077787D01*
X181876284Y-86074660D01*
X181925373Y-86099227D01*
X181926815Y-86100410D01*
X182086775Y-86231685D01*
X182269271Y-86329232D01*
X182467291Y-86389300D01*
X182467290Y-86389300D01*
X182485754Y-86391118D01*
X182673225Y-86409583D01*
X182879159Y-86389300D01*
X183077179Y-86329232D01*
X183259675Y-86231685D01*
X183419635Y-86100410D01*
X183550910Y-85940450D01*
X183648457Y-85757954D01*
X183708525Y-85559934D01*
X183728808Y-85354000D01*
X183708525Y-85148066D01*
X183648457Y-84950046D01*
X183550910Y-84767550D01*
X183474232Y-84674117D01*
X183419635Y-84607589D01*
X183398690Y-84590400D01*
X187549150Y-84590400D01*
X187560171Y-84674115D01*
X187568070Y-84734108D01*
X187568071Y-84734112D01*
X187623537Y-84868022D01*
X187623538Y-84868024D01*
X187623539Y-84868025D01*
X187711779Y-84983021D01*
X187826775Y-85071261D01*
X187960691Y-85126730D01*
X188087680Y-85143448D01*
X188104399Y-85145650D01*
X188104400Y-85145650D01*
X188104401Y-85145650D01*
X188119377Y-85143678D01*
X188248109Y-85126730D01*
X188382025Y-85071261D01*
X188497021Y-84983021D01*
X188585261Y-84868025D01*
X188640730Y-84734109D01*
X188659650Y-84590400D01*
X188640730Y-84446691D01*
X188587439Y-84318033D01*
X188585262Y-84312777D01*
X188585261Y-84312776D01*
X188585261Y-84312775D01*
X188497021Y-84197779D01*
X188382025Y-84109539D01*
X188382024Y-84109538D01*
X188382022Y-84109537D01*
X188248112Y-84054071D01*
X188248110Y-84054070D01*
X188248109Y-84054070D01*
X188176254Y-84044610D01*
X188104401Y-84035150D01*
X188104399Y-84035150D01*
X187960691Y-84054070D01*
X187960687Y-84054071D01*
X187826777Y-84109537D01*
X187711779Y-84197779D01*
X187623537Y-84312777D01*
X187568071Y-84446687D01*
X187568070Y-84446691D01*
X187549150Y-84590400D01*
X183398690Y-84590400D01*
X183259677Y-84476317D01*
X183259678Y-84476317D01*
X183259675Y-84476315D01*
X183077179Y-84378768D01*
X182879159Y-84318700D01*
X182879157Y-84318699D01*
X182879159Y-84318699D01*
X182673225Y-84298417D01*
X182467292Y-84318699D01*
X182269268Y-84378769D01*
X182086771Y-84476317D01*
X181925373Y-84608772D01*
X181861063Y-84636084D01*
X181792196Y-84624293D01*
X181740636Y-84577140D01*
X181726600Y-84534964D01*
X181724914Y-84535300D01*
X181709192Y-84456264D01*
X181709191Y-84456260D01*
X181702795Y-84446687D01*
X181653826Y-84373399D01*
X181571962Y-84318700D01*
X181570964Y-84318033D01*
X181570960Y-84318032D01*
X181497902Y-84303500D01*
X181497899Y-84303500D01*
X179848551Y-84303500D01*
X179848548Y-84303500D01*
X179775489Y-84318032D01*
X179775485Y-84318033D01*
X179692624Y-84373399D01*
X179637258Y-84456260D01*
X179637257Y-84456264D01*
X179622725Y-84529321D01*
X162805508Y-84529321D01*
X162786730Y-84386691D01*
X162731261Y-84252775D01*
X162643021Y-84137779D01*
X162528025Y-84049539D01*
X162528024Y-84049538D01*
X162528022Y-84049537D01*
X162394112Y-83994071D01*
X162394110Y-83994070D01*
X162394109Y-83994070D01*
X162322254Y-83984610D01*
X162250401Y-83975150D01*
X162250399Y-83975150D01*
X162106691Y-83994070D01*
X162106687Y-83994071D01*
X161972777Y-84049537D01*
X161857779Y-84137779D01*
X161769537Y-84252777D01*
X161714071Y-84386687D01*
X161714070Y-84386691D01*
X161702271Y-84476315D01*
X161695150Y-84530400D01*
X156451332Y-84530400D01*
X156405509Y-84516500D01*
X156405507Y-84516499D01*
X156405509Y-84516499D01*
X156199575Y-84496217D01*
X155993642Y-84516499D01*
X155795618Y-84576569D01*
X155613121Y-84674117D01*
X155451723Y-84806572D01*
X155387413Y-84833884D01*
X155318546Y-84822093D01*
X155266986Y-84774940D01*
X155252950Y-84732764D01*
X155251264Y-84733100D01*
X155235542Y-84654064D01*
X155235541Y-84654060D01*
X155223530Y-84636084D01*
X155180176Y-84571199D01*
X155119115Y-84530400D01*
X155097314Y-84515833D01*
X155097310Y-84515832D01*
X155024252Y-84501300D01*
X155024249Y-84501300D01*
X153374901Y-84501300D01*
X153374898Y-84501300D01*
X153301839Y-84515832D01*
X153301835Y-84515833D01*
X153218974Y-84571199D01*
X153163608Y-84654060D01*
X153163607Y-84654064D01*
X153149075Y-84727121D01*
X104622900Y-84727121D01*
X104622900Y-82023121D01*
X111445998Y-82023121D01*
X111445998Y-83672478D01*
X111460530Y-83745535D01*
X111460531Y-83745539D01*
X111460532Y-83745540D01*
X111515897Y-83828401D01*
X111597761Y-83883100D01*
X111598758Y-83883766D01*
X111598762Y-83883767D01*
X111671819Y-83898299D01*
X111671822Y-83898300D01*
X111671824Y-83898300D01*
X113321174Y-83898300D01*
X113321175Y-83898299D01*
X113394238Y-83883766D01*
X113477099Y-83828401D01*
X113532464Y-83745540D01*
X113546998Y-83672474D01*
X113546998Y-82847800D01*
X114940915Y-82847800D01*
X114961197Y-83053732D01*
X114961198Y-83053734D01*
X115021266Y-83251754D01*
X115118813Y-83434250D01*
X115145312Y-83466539D01*
X115250087Y-83594210D01*
X115286854Y-83624383D01*
X115410048Y-83725485D01*
X115592544Y-83823032D01*
X115790564Y-83883100D01*
X115790563Y-83883100D01*
X115809027Y-83884918D01*
X115996498Y-83903383D01*
X116202432Y-83883100D01*
X116400452Y-83823032D01*
X116582948Y-83725485D01*
X116742908Y-83594210D01*
X116874183Y-83434250D01*
X116971730Y-83251754D01*
X117031798Y-83053734D01*
X117052081Y-82847800D01*
X117031798Y-82641866D01*
X116971730Y-82443846D01*
X116874183Y-82261350D01*
X116794985Y-82164846D01*
X116742908Y-82101389D01*
X116582950Y-81970117D01*
X116582951Y-81970117D01*
X116582948Y-81970115D01*
X116400452Y-81872568D01*
X116202432Y-81812500D01*
X116202430Y-81812499D01*
X116202432Y-81812499D01*
X115996498Y-81792217D01*
X115790565Y-81812499D01*
X115592541Y-81872569D01*
X115482396Y-81931443D01*
X115410048Y-81970115D01*
X115410046Y-81970116D01*
X115410045Y-81970117D01*
X115250087Y-82101389D01*
X115118815Y-82261347D01*
X115021267Y-82443843D01*
X114961197Y-82641867D01*
X114940915Y-82847800D01*
X113546998Y-82847800D01*
X113546998Y-82023126D01*
X113546998Y-82023123D01*
X113546997Y-82023121D01*
X113532465Y-81950064D01*
X113532464Y-81950060D01*
X113477099Y-81867199D01*
X113421733Y-81830205D01*
X113394237Y-81811833D01*
X113394233Y-81811832D01*
X113321175Y-81797300D01*
X113321172Y-81797300D01*
X111671824Y-81797300D01*
X111671821Y-81797300D01*
X111598762Y-81811832D01*
X111598758Y-81811833D01*
X111515897Y-81867199D01*
X111460531Y-81950060D01*
X111460530Y-81950064D01*
X111445998Y-82023121D01*
X104622900Y-82023121D01*
X104622900Y-81744121D01*
X133909998Y-81744121D01*
X133909998Y-83393478D01*
X133924530Y-83466535D01*
X133924531Y-83466539D01*
X133924532Y-83466540D01*
X133979897Y-83549401D01*
X134046960Y-83594210D01*
X134062758Y-83604766D01*
X134062762Y-83604767D01*
X134135819Y-83619299D01*
X134135822Y-83619300D01*
X134135824Y-83619300D01*
X135785174Y-83619300D01*
X135785175Y-83619299D01*
X135858238Y-83604766D01*
X135941099Y-83549401D01*
X135996464Y-83466540D01*
X136010998Y-83393474D01*
X136010998Y-82568800D01*
X137404915Y-82568800D01*
X137425197Y-82774732D01*
X137425198Y-82774734D01*
X137485266Y-82972754D01*
X137582813Y-83155250D01*
X137582815Y-83155252D01*
X137714087Y-83315210D01*
X137809454Y-83393474D01*
X137874048Y-83446485D01*
X138056544Y-83544032D01*
X138254564Y-83604100D01*
X138254563Y-83604100D01*
X138273027Y-83605918D01*
X138460498Y-83624383D01*
X138666432Y-83604100D01*
X138864452Y-83544032D01*
X139046948Y-83446485D01*
X139206908Y-83315210D01*
X139338183Y-83155250D01*
X139435730Y-82972754D01*
X139495798Y-82774734D01*
X139516081Y-82568800D01*
X139495798Y-82362866D01*
X139435730Y-82164846D01*
X139338183Y-81982350D01*
X139243682Y-81867199D01*
X139206908Y-81822389D01*
X139046950Y-81691117D01*
X139046951Y-81691117D01*
X139046948Y-81691115D01*
X138864452Y-81593568D01*
X138666432Y-81533500D01*
X138666430Y-81533499D01*
X138666432Y-81533499D01*
X138460498Y-81513217D01*
X138254565Y-81533499D01*
X138056541Y-81593569D01*
X137946396Y-81652443D01*
X137874048Y-81691115D01*
X137874046Y-81691116D01*
X137874045Y-81691117D01*
X137714087Y-81822389D01*
X137582815Y-81982347D01*
X137485267Y-82164843D01*
X137425197Y-82362867D01*
X137404915Y-82568800D01*
X136010998Y-82568800D01*
X136010998Y-81744126D01*
X136010998Y-81744123D01*
X136010997Y-81744121D01*
X135996465Y-81671064D01*
X135996464Y-81671060D01*
X135941099Y-81588199D01*
X135859235Y-81533500D01*
X135858237Y-81532833D01*
X135858233Y-81532832D01*
X135785175Y-81518300D01*
X135785172Y-81518300D01*
X134135824Y-81518300D01*
X134135821Y-81518300D01*
X134062762Y-81532832D01*
X134062758Y-81532833D01*
X133979897Y-81588199D01*
X133924531Y-81671060D01*
X133924530Y-81671064D01*
X133909998Y-81744121D01*
X104622900Y-81744121D01*
X104622900Y-81199399D01*
X168377150Y-81199399D01*
X168377150Y-81199400D01*
X168396070Y-81343108D01*
X168396071Y-81343112D01*
X168451537Y-81477022D01*
X168451538Y-81477024D01*
X168451539Y-81477025D01*
X168539779Y-81592021D01*
X168654775Y-81680261D01*
X168788691Y-81735730D01*
X168915680Y-81752448D01*
X168932399Y-81754650D01*
X168932400Y-81754650D01*
X168932401Y-81754650D01*
X168947377Y-81752678D01*
X169076109Y-81735730D01*
X169210025Y-81680261D01*
X169325021Y-81592021D01*
X169413261Y-81477025D01*
X169468730Y-81343109D01*
X169487650Y-81199400D01*
X169468730Y-81055691D01*
X169413261Y-80921775D01*
X169325021Y-80806779D01*
X169210025Y-80718539D01*
X169210024Y-80718538D01*
X169210022Y-80718537D01*
X169076112Y-80663071D01*
X169076110Y-80663070D01*
X169076109Y-80663070D01*
X169004254Y-80653610D01*
X168932401Y-80644150D01*
X168932399Y-80644150D01*
X168788691Y-80663070D01*
X168788687Y-80663071D01*
X168654777Y-80718537D01*
X168539779Y-80806779D01*
X168451537Y-80921777D01*
X168396071Y-81055687D01*
X168396070Y-81055691D01*
X168377150Y-81199399D01*
X104622900Y-81199399D01*
X104622900Y-79167399D01*
X189332150Y-79167399D01*
X189332150Y-79167400D01*
X189351070Y-79311108D01*
X189351071Y-79311112D01*
X189406537Y-79445022D01*
X189406538Y-79445024D01*
X189406539Y-79445025D01*
X189494779Y-79560021D01*
X189609775Y-79648261D01*
X189743691Y-79703730D01*
X189870680Y-79720448D01*
X189887399Y-79722650D01*
X189887400Y-79722650D01*
X189887401Y-79722650D01*
X189902377Y-79720678D01*
X190031109Y-79703730D01*
X190165025Y-79648261D01*
X190280021Y-79560021D01*
X190368261Y-79445025D01*
X190423730Y-79311109D01*
X190442650Y-79167400D01*
X190423730Y-79023691D01*
X190368261Y-78889775D01*
X190280021Y-78774779D01*
X190165025Y-78686539D01*
X190165024Y-78686538D01*
X190165022Y-78686537D01*
X190031112Y-78631071D01*
X190031110Y-78631070D01*
X190031109Y-78631070D01*
X189959254Y-78621610D01*
X189887401Y-78612150D01*
X189887399Y-78612150D01*
X189743691Y-78631070D01*
X189743687Y-78631071D01*
X189609777Y-78686537D01*
X189494779Y-78774779D01*
X189406537Y-78889777D01*
X189351071Y-79023687D01*
X189351070Y-79023691D01*
X189332150Y-79167399D01*
X104622900Y-79167399D01*
X104622900Y-77662399D01*
X157367150Y-77662399D01*
X157367150Y-77662400D01*
X157386070Y-77806108D01*
X157386071Y-77806112D01*
X157441537Y-77940022D01*
X157441538Y-77940024D01*
X157441539Y-77940025D01*
X157529779Y-78055021D01*
X157644775Y-78143261D01*
X157778691Y-78198730D01*
X157905680Y-78215448D01*
X157922399Y-78217650D01*
X157922400Y-78217650D01*
X157922401Y-78217650D01*
X157937377Y-78215678D01*
X158066109Y-78198730D01*
X158200025Y-78143261D01*
X158315021Y-78055021D01*
X158403261Y-77940025D01*
X158458730Y-77806109D01*
X158477650Y-77662400D01*
X158458730Y-77518691D01*
X158435414Y-77462400D01*
X158967150Y-77462400D01*
X158974560Y-77518687D01*
X158986070Y-77606108D01*
X158986071Y-77606112D01*
X159041537Y-77740022D01*
X159041538Y-77740024D01*
X159041539Y-77740025D01*
X159129779Y-77855021D01*
X159244775Y-77943261D01*
X159378691Y-77998730D01*
X159505680Y-78015448D01*
X159522399Y-78017650D01*
X159522400Y-78017650D01*
X159522401Y-78017650D01*
X159537377Y-78015678D01*
X159666109Y-77998730D01*
X159800025Y-77943261D01*
X159915021Y-77855021D01*
X160003261Y-77740025D01*
X160058730Y-77606109D01*
X160077650Y-77462400D01*
X162767150Y-77462400D01*
X162774560Y-77518687D01*
X162786070Y-77606108D01*
X162786071Y-77606112D01*
X162841537Y-77740022D01*
X162841538Y-77740024D01*
X162841539Y-77740025D01*
X162929779Y-77855021D01*
X163044775Y-77943261D01*
X163178691Y-77998730D01*
X163305680Y-78015448D01*
X163322399Y-78017650D01*
X163322400Y-78017650D01*
X163322401Y-78017650D01*
X163337377Y-78015678D01*
X163466109Y-77998730D01*
X163600025Y-77943261D01*
X163715021Y-77855021D01*
X163803261Y-77740025D01*
X163858730Y-77606109D01*
X163877650Y-77462400D01*
X163858730Y-77318691D01*
X163847425Y-77291399D01*
X166775150Y-77291399D01*
X166775150Y-77291400D01*
X166794070Y-77435108D01*
X166794071Y-77435112D01*
X166849537Y-77569022D01*
X166849538Y-77569024D01*
X166849539Y-77569025D01*
X166937779Y-77684021D01*
X167052775Y-77772261D01*
X167186691Y-77827730D01*
X167313680Y-77844448D01*
X167330399Y-77846650D01*
X167330400Y-77846650D01*
X167330401Y-77846650D01*
X167345377Y-77844678D01*
X167474109Y-77827730D01*
X167608025Y-77772261D01*
X167723021Y-77684021D01*
X167739612Y-77662399D01*
X183767150Y-77662399D01*
X183767150Y-77662400D01*
X183786070Y-77806108D01*
X183786071Y-77806112D01*
X183841537Y-77940022D01*
X183841538Y-77940024D01*
X183841539Y-77940025D01*
X183929779Y-78055021D01*
X184044775Y-78143261D01*
X184178691Y-78198730D01*
X184305680Y-78215448D01*
X184322399Y-78217650D01*
X184322400Y-78217650D01*
X184322401Y-78217650D01*
X184337377Y-78215678D01*
X184466109Y-78198730D01*
X184600025Y-78143261D01*
X184715021Y-78055021D01*
X184803261Y-77940025D01*
X184858730Y-77806109D01*
X184877650Y-77662400D01*
X184877650Y-77662399D01*
X186467150Y-77662399D01*
X186467150Y-77662400D01*
X186486070Y-77806108D01*
X186486071Y-77806112D01*
X186541537Y-77940022D01*
X186541538Y-77940024D01*
X186541539Y-77940025D01*
X186629779Y-78055021D01*
X186744775Y-78143261D01*
X186878691Y-78198730D01*
X187005680Y-78215448D01*
X187022399Y-78217650D01*
X187022400Y-78217650D01*
X187022401Y-78217650D01*
X187037377Y-78215678D01*
X187166109Y-78198730D01*
X187300025Y-78143261D01*
X187415021Y-78055021D01*
X187503261Y-77940025D01*
X187558730Y-77806109D01*
X187577650Y-77662400D01*
X187558730Y-77518691D01*
X187535414Y-77462400D01*
X188667150Y-77462400D01*
X188674560Y-77518687D01*
X188686070Y-77606108D01*
X188686071Y-77606112D01*
X188741537Y-77740022D01*
X188741538Y-77740024D01*
X188741539Y-77740025D01*
X188829779Y-77855021D01*
X188944775Y-77943261D01*
X189078691Y-77998730D01*
X189205680Y-78015448D01*
X189222399Y-78017650D01*
X189222400Y-78017650D01*
X189222401Y-78017650D01*
X189237377Y-78015678D01*
X189366109Y-77998730D01*
X189500025Y-77943261D01*
X189615021Y-77855021D01*
X189703261Y-77740025D01*
X189706420Y-77732399D01*
X192629150Y-77732399D01*
X192629150Y-77732400D01*
X192648070Y-77876108D01*
X192648071Y-77876112D01*
X192703537Y-78010022D01*
X192703538Y-78010024D01*
X192703539Y-78010025D01*
X192791779Y-78125021D01*
X192906775Y-78213261D01*
X193040691Y-78268730D01*
X193167680Y-78285448D01*
X193184399Y-78287650D01*
X193184400Y-78287650D01*
X193184401Y-78287650D01*
X193199377Y-78285678D01*
X193328109Y-78268730D01*
X193462025Y-78213261D01*
X193577021Y-78125021D01*
X193665261Y-78010025D01*
X193720730Y-77876109D01*
X193739650Y-77732400D01*
X193720730Y-77588691D01*
X193665261Y-77454775D01*
X193577021Y-77339779D01*
X193462025Y-77251539D01*
X193462024Y-77251538D01*
X193462022Y-77251537D01*
X193328112Y-77196071D01*
X193328110Y-77196070D01*
X193328109Y-77196070D01*
X193242317Y-77184775D01*
X193184401Y-77177150D01*
X193184399Y-77177150D01*
X193040691Y-77196070D01*
X193040687Y-77196071D01*
X192906777Y-77251537D01*
X192791779Y-77339779D01*
X192703537Y-77454777D01*
X192648071Y-77588687D01*
X192648070Y-77588691D01*
X192629150Y-77732399D01*
X189706420Y-77732399D01*
X189758730Y-77606109D01*
X189777650Y-77462400D01*
X189758730Y-77318691D01*
X189707940Y-77196071D01*
X189703262Y-77184777D01*
X189703261Y-77184776D01*
X189703261Y-77184775D01*
X189615021Y-77069779D01*
X189500025Y-76981539D01*
X189500024Y-76981538D01*
X189500022Y-76981537D01*
X189366112Y-76926071D01*
X189366110Y-76926070D01*
X189366109Y-76926070D01*
X189294254Y-76916610D01*
X189222401Y-76907150D01*
X189222399Y-76907150D01*
X189078691Y-76926070D01*
X189078687Y-76926071D01*
X188944777Y-76981537D01*
X188829779Y-77069779D01*
X188741537Y-77184777D01*
X188686071Y-77318687D01*
X188686070Y-77318691D01*
X188668154Y-77454777D01*
X188667150Y-77462400D01*
X187535414Y-77462400D01*
X187503261Y-77384775D01*
X187415021Y-77269779D01*
X187300025Y-77181539D01*
X187300024Y-77181538D01*
X187300022Y-77181537D01*
X187166112Y-77126071D01*
X187166110Y-77126070D01*
X187166109Y-77126070D01*
X187094254Y-77116610D01*
X187022401Y-77107150D01*
X187022399Y-77107150D01*
X186878691Y-77126070D01*
X186878687Y-77126071D01*
X186744777Y-77181537D01*
X186629779Y-77269779D01*
X186541537Y-77384777D01*
X186486071Y-77518687D01*
X186486070Y-77518691D01*
X186467150Y-77662399D01*
X184877650Y-77662399D01*
X184858730Y-77518691D01*
X184803261Y-77384775D01*
X184715021Y-77269779D01*
X184600025Y-77181539D01*
X184600024Y-77181538D01*
X184600022Y-77181537D01*
X184466112Y-77126071D01*
X184466110Y-77126070D01*
X184466109Y-77126070D01*
X184394254Y-77116610D01*
X184322401Y-77107150D01*
X184322399Y-77107150D01*
X184178691Y-77126070D01*
X184178687Y-77126071D01*
X184044777Y-77181537D01*
X183929779Y-77269779D01*
X183841537Y-77384777D01*
X183786071Y-77518687D01*
X183786070Y-77518691D01*
X183767150Y-77662399D01*
X167739612Y-77662399D01*
X167811261Y-77569025D01*
X167866730Y-77435109D01*
X167885650Y-77291400D01*
X167866730Y-77147691D01*
X167811261Y-77013775D01*
X167723021Y-76898779D01*
X167608025Y-76810539D01*
X167608024Y-76810538D01*
X167608022Y-76810537D01*
X167474112Y-76755071D01*
X167474110Y-76755070D01*
X167474109Y-76755070D01*
X167402254Y-76745610D01*
X167330401Y-76736150D01*
X167330399Y-76736150D01*
X167186691Y-76755070D01*
X167186687Y-76755071D01*
X167052777Y-76810537D01*
X166937779Y-76898779D01*
X166849537Y-77013777D01*
X166794071Y-77147687D01*
X166794070Y-77147691D01*
X166775150Y-77291399D01*
X163847425Y-77291399D01*
X163807940Y-77196071D01*
X163803262Y-77184777D01*
X163803261Y-77184776D01*
X163803261Y-77184775D01*
X163715021Y-77069779D01*
X163600025Y-76981539D01*
X163600024Y-76981538D01*
X163600022Y-76981537D01*
X163466112Y-76926071D01*
X163466110Y-76926070D01*
X163466109Y-76926070D01*
X163394254Y-76916610D01*
X163322401Y-76907150D01*
X163322399Y-76907150D01*
X163178691Y-76926070D01*
X163178687Y-76926071D01*
X163044777Y-76981537D01*
X162929779Y-77069779D01*
X162841537Y-77184777D01*
X162786071Y-77318687D01*
X162786070Y-77318691D01*
X162768154Y-77454777D01*
X162767150Y-77462400D01*
X160077650Y-77462400D01*
X160058730Y-77318691D01*
X160007940Y-77196071D01*
X160003262Y-77184777D01*
X160003261Y-77184776D01*
X160003261Y-77184775D01*
X159915021Y-77069779D01*
X159800025Y-76981539D01*
X159800024Y-76981538D01*
X159800022Y-76981537D01*
X159666112Y-76926071D01*
X159666110Y-76926070D01*
X159666109Y-76926070D01*
X159594254Y-76916610D01*
X159522401Y-76907150D01*
X159522399Y-76907150D01*
X159378691Y-76926070D01*
X159378687Y-76926071D01*
X159244777Y-76981537D01*
X159129779Y-77069779D01*
X159041537Y-77184777D01*
X158986071Y-77318687D01*
X158986070Y-77318691D01*
X158968154Y-77454777D01*
X158967150Y-77462400D01*
X158435414Y-77462400D01*
X158403261Y-77384775D01*
X158315021Y-77269779D01*
X158200025Y-77181539D01*
X158200024Y-77181538D01*
X158200022Y-77181537D01*
X158066112Y-77126071D01*
X158066110Y-77126070D01*
X158066109Y-77126070D01*
X157994254Y-77116610D01*
X157922401Y-77107150D01*
X157922399Y-77107150D01*
X157778691Y-77126070D01*
X157778687Y-77126071D01*
X157644777Y-77181537D01*
X157529779Y-77269779D01*
X157441537Y-77384777D01*
X157386071Y-77518687D01*
X157386070Y-77518691D01*
X157367150Y-77662399D01*
X104622900Y-77662399D01*
X104622900Y-75562399D01*
X148167150Y-75562399D01*
X148167150Y-75562400D01*
X148186070Y-75706108D01*
X148186071Y-75706112D01*
X148241537Y-75840022D01*
X148241538Y-75840024D01*
X148241539Y-75840025D01*
X148329779Y-75955021D01*
X148444775Y-76043261D01*
X148578691Y-76098730D01*
X148705680Y-76115448D01*
X148722399Y-76117650D01*
X148722400Y-76117650D01*
X148722401Y-76117650D01*
X148737377Y-76115678D01*
X148866109Y-76098730D01*
X149000025Y-76043261D01*
X149115021Y-75955021D01*
X149203261Y-75840025D01*
X149258730Y-75706109D01*
X149271199Y-75611399D01*
X174346150Y-75611399D01*
X174346150Y-75611400D01*
X174365070Y-75755108D01*
X174365071Y-75755112D01*
X174420537Y-75889022D01*
X174420538Y-75889024D01*
X174420539Y-75889025D01*
X174508779Y-76004021D01*
X174623775Y-76092261D01*
X174757691Y-76147730D01*
X174884680Y-76164448D01*
X174901399Y-76166650D01*
X174901400Y-76166650D01*
X174901401Y-76166650D01*
X174916377Y-76164678D01*
X175045109Y-76147730D01*
X175179025Y-76092261D01*
X175294021Y-76004021D01*
X175382261Y-75889025D01*
X175437730Y-75755109D01*
X175456650Y-75611400D01*
X175437730Y-75467691D01*
X175382261Y-75333775D01*
X175294021Y-75218779D01*
X175179025Y-75130539D01*
X175179024Y-75130538D01*
X175179022Y-75130537D01*
X175045112Y-75075071D01*
X175045110Y-75075070D01*
X175045109Y-75075070D01*
X174973254Y-75065610D01*
X174901401Y-75056150D01*
X174901399Y-75056150D01*
X174757691Y-75075070D01*
X174757687Y-75075071D01*
X174623777Y-75130537D01*
X174508779Y-75218779D01*
X174420537Y-75333777D01*
X174365071Y-75467687D01*
X174365070Y-75467691D01*
X174346150Y-75611399D01*
X149271199Y-75611399D01*
X149277650Y-75562400D01*
X149258730Y-75418691D01*
X149203261Y-75284775D01*
X149115021Y-75169779D01*
X149000025Y-75081539D01*
X149000024Y-75081538D01*
X149000022Y-75081537D01*
X148866112Y-75026071D01*
X148866110Y-75026070D01*
X148866109Y-75026070D01*
X148794254Y-75016610D01*
X148722401Y-75007150D01*
X148722399Y-75007150D01*
X148578691Y-75026070D01*
X148578687Y-75026071D01*
X148444777Y-75081537D01*
X148329779Y-75169779D01*
X148241537Y-75284777D01*
X148186071Y-75418687D01*
X148186070Y-75418691D01*
X148167150Y-75562399D01*
X104622900Y-75562399D01*
X104622900Y-74068399D01*
X113114150Y-74068399D01*
X113114150Y-74068400D01*
X113133070Y-74212108D01*
X113133071Y-74212112D01*
X113188537Y-74346022D01*
X113188538Y-74346023D01*
X113188539Y-74346025D01*
X113276779Y-74461021D01*
X113391775Y-74549261D01*
X113525691Y-74604730D01*
X113652680Y-74621448D01*
X113669399Y-74623650D01*
X113669400Y-74623650D01*
X113669401Y-74623650D01*
X113684377Y-74621678D01*
X113813109Y-74604730D01*
X113947025Y-74549261D01*
X114062021Y-74461021D01*
X114150261Y-74346025D01*
X114205730Y-74212109D01*
X114224650Y-74068400D01*
X114218663Y-74022927D01*
X114229428Y-73953893D01*
X114275807Y-73901637D01*
X114343076Y-73882751D01*
X114409877Y-73903231D01*
X114455001Y-73956575D01*
X114456153Y-73959266D01*
X114458539Y-73965025D01*
X114546779Y-74080021D01*
X114661775Y-74168261D01*
X114661776Y-74168261D01*
X114661777Y-74168262D01*
X114701610Y-74184761D01*
X114795691Y-74223730D01*
X114922680Y-74240448D01*
X114939399Y-74242650D01*
X114939400Y-74242650D01*
X114939401Y-74242650D01*
X114954377Y-74240678D01*
X115083109Y-74223730D01*
X115217025Y-74168261D01*
X115332021Y-74080021D01*
X115420261Y-73965025D01*
X115475730Y-73831109D01*
X115494650Y-73687400D01*
X115493582Y-73679291D01*
X118847328Y-73679291D01*
X118862005Y-73790775D01*
X118866248Y-73822999D01*
X118866249Y-73823003D01*
X118921715Y-73956913D01*
X118921716Y-73956915D01*
X118921717Y-73956916D01*
X119009957Y-74071912D01*
X119124953Y-74160152D01*
X119124954Y-74160152D01*
X119124955Y-74160153D01*
X119148195Y-74169779D01*
X119258869Y-74215621D01*
X119385858Y-74232339D01*
X119402577Y-74234541D01*
X119402578Y-74234541D01*
X119402579Y-74234541D01*
X119417555Y-74232569D01*
X119546287Y-74215621D01*
X119680203Y-74160152D01*
X119795199Y-74071912D01*
X119883439Y-73956916D01*
X119938908Y-73823000D01*
X119957828Y-73679291D01*
X119942175Y-73560400D01*
X131895150Y-73560400D01*
X131911870Y-73687402D01*
X131914070Y-73704108D01*
X131914071Y-73704112D01*
X131969537Y-73838022D01*
X131969538Y-73838024D01*
X131969539Y-73838025D01*
X132057779Y-73953021D01*
X132172775Y-74041261D01*
X132306691Y-74096730D01*
X132433680Y-74113448D01*
X132450399Y-74115650D01*
X132450400Y-74115650D01*
X132450401Y-74115650D01*
X132465377Y-74113678D01*
X132594109Y-74096730D01*
X132662507Y-74068399D01*
X136086150Y-74068399D01*
X136086150Y-74068400D01*
X136105070Y-74212108D01*
X136105071Y-74212112D01*
X136160537Y-74346022D01*
X136160538Y-74346023D01*
X136160539Y-74346025D01*
X136248779Y-74461021D01*
X136363775Y-74549261D01*
X136497691Y-74604730D01*
X136624680Y-74621448D01*
X136641399Y-74623650D01*
X136641400Y-74623650D01*
X136641401Y-74623650D01*
X136656377Y-74621678D01*
X136785109Y-74604730D01*
X136887307Y-74562399D01*
X155117150Y-74562399D01*
X155117150Y-74562400D01*
X155136070Y-74706108D01*
X155136071Y-74706112D01*
X155191537Y-74840022D01*
X155191538Y-74840024D01*
X155191539Y-74840025D01*
X155279779Y-74955021D01*
X155394775Y-75043261D01*
X155528691Y-75098730D01*
X155655680Y-75115448D01*
X155672399Y-75117650D01*
X155672400Y-75117650D01*
X155672401Y-75117650D01*
X155687377Y-75115678D01*
X155816109Y-75098730D01*
X155950025Y-75043261D01*
X156065021Y-74955021D01*
X156153261Y-74840025D01*
X156208730Y-74706109D01*
X156227650Y-74562400D01*
X156227650Y-74562399D01*
X181467150Y-74562399D01*
X181467150Y-74562400D01*
X181486070Y-74706108D01*
X181486071Y-74706112D01*
X181541537Y-74840022D01*
X181541538Y-74840024D01*
X181541539Y-74840025D01*
X181629779Y-74955021D01*
X181744775Y-75043261D01*
X181878691Y-75098730D01*
X182005680Y-75115448D01*
X182022399Y-75117650D01*
X182022400Y-75117650D01*
X182022401Y-75117650D01*
X182037377Y-75115678D01*
X182166109Y-75098730D01*
X182300025Y-75043261D01*
X182415021Y-74955021D01*
X182503261Y-74840025D01*
X182558730Y-74706109D01*
X182577650Y-74562400D01*
X182558730Y-74418691D01*
X182509041Y-74298729D01*
X182503262Y-74284777D01*
X182503261Y-74284776D01*
X182503261Y-74284775D01*
X182415021Y-74169779D01*
X182300025Y-74081539D01*
X182300024Y-74081538D01*
X182300022Y-74081537D01*
X182166112Y-74026071D01*
X182166110Y-74026070D01*
X182166109Y-74026070D01*
X182094254Y-74016610D01*
X182022401Y-74007150D01*
X182022399Y-74007150D01*
X181878691Y-74026070D01*
X181878687Y-74026071D01*
X181744777Y-74081537D01*
X181629779Y-74169779D01*
X181541537Y-74284777D01*
X181486071Y-74418687D01*
X181486070Y-74418691D01*
X181467150Y-74562399D01*
X156227650Y-74562399D01*
X156208730Y-74418691D01*
X156159041Y-74298729D01*
X156153262Y-74284777D01*
X156153261Y-74284776D01*
X156153261Y-74284775D01*
X156065021Y-74169779D01*
X155950025Y-74081539D01*
X155950024Y-74081538D01*
X155950022Y-74081537D01*
X155816112Y-74026071D01*
X155816110Y-74026070D01*
X155816109Y-74026070D01*
X155744254Y-74016610D01*
X155672401Y-74007150D01*
X155672399Y-74007150D01*
X155528691Y-74026070D01*
X155528687Y-74026071D01*
X155394777Y-74081537D01*
X155279779Y-74169779D01*
X155191537Y-74284777D01*
X155136071Y-74418687D01*
X155136070Y-74418691D01*
X155117150Y-74562399D01*
X136887307Y-74562399D01*
X136919025Y-74549261D01*
X137034021Y-74461021D01*
X137122261Y-74346025D01*
X137166524Y-74239161D01*
X137210363Y-74184761D01*
X137276657Y-74162695D01*
X137328532Y-74172054D01*
X137453291Y-74223730D01*
X137580280Y-74240448D01*
X137596999Y-74242650D01*
X137597000Y-74242650D01*
X137597001Y-74242650D01*
X137611977Y-74240678D01*
X137740709Y-74223730D01*
X137874625Y-74168261D01*
X137989621Y-74080021D01*
X138077861Y-73965025D01*
X138133330Y-73831109D01*
X138152250Y-73687400D01*
X138142376Y-73612399D01*
X141517150Y-73612399D01*
X141517150Y-73612400D01*
X141536070Y-73756108D01*
X141536071Y-73756112D01*
X141591537Y-73890022D01*
X141591538Y-73890024D01*
X141591539Y-73890025D01*
X141679779Y-74005021D01*
X141794775Y-74093261D01*
X141794776Y-74093261D01*
X141794777Y-74093262D01*
X141803150Y-74096730D01*
X141928691Y-74148730D01*
X142055680Y-74165448D01*
X142072399Y-74167650D01*
X142072400Y-74167650D01*
X142072401Y-74167650D01*
X142087377Y-74165678D01*
X142216109Y-74148730D01*
X142350025Y-74093261D01*
X142465021Y-74005021D01*
X142553261Y-73890025D01*
X142606124Y-73762400D01*
X163017150Y-73762400D01*
X163033952Y-73890025D01*
X163036070Y-73906108D01*
X163036071Y-73906112D01*
X163091537Y-74040022D01*
X163091538Y-74040024D01*
X163091539Y-74040025D01*
X163179779Y-74155021D01*
X163294775Y-74243261D01*
X163428691Y-74298730D01*
X163555680Y-74315448D01*
X163572399Y-74317650D01*
X163572400Y-74317650D01*
X163572401Y-74317650D01*
X163587377Y-74315678D01*
X163716109Y-74298730D01*
X163850025Y-74243261D01*
X163965021Y-74155021D01*
X164053261Y-74040025D01*
X164108730Y-73906109D01*
X164127650Y-73762400D01*
X166667150Y-73762400D01*
X166683952Y-73890025D01*
X166686070Y-73906108D01*
X166686071Y-73906112D01*
X166741537Y-74040022D01*
X166741538Y-74040024D01*
X166741539Y-74040025D01*
X166829779Y-74155021D01*
X166944775Y-74243261D01*
X167078691Y-74298730D01*
X167205680Y-74315448D01*
X167222399Y-74317650D01*
X167222400Y-74317650D01*
X167222401Y-74317650D01*
X167237377Y-74315678D01*
X167366109Y-74298730D01*
X167500025Y-74243261D01*
X167615021Y-74155021D01*
X167703261Y-74040025D01*
X167758730Y-73906109D01*
X167777650Y-73762400D01*
X167758730Y-73618691D01*
X167703261Y-73484775D01*
X167615021Y-73369779D01*
X167500025Y-73281539D01*
X167500024Y-73281538D01*
X167500022Y-73281537D01*
X167366112Y-73226071D01*
X167366110Y-73226070D01*
X167366109Y-73226070D01*
X167294254Y-73216610D01*
X167222401Y-73207150D01*
X167222399Y-73207150D01*
X167078691Y-73226070D01*
X167078687Y-73226071D01*
X166944777Y-73281537D01*
X166829779Y-73369779D01*
X166741537Y-73484777D01*
X166686071Y-73618687D01*
X166686070Y-73618691D01*
X166671038Y-73732872D01*
X166667150Y-73762400D01*
X164127650Y-73762400D01*
X164108730Y-73618691D01*
X164053261Y-73484775D01*
X163965021Y-73369779D01*
X163850025Y-73281539D01*
X163850024Y-73281538D01*
X163850022Y-73281537D01*
X163716112Y-73226071D01*
X163716110Y-73226070D01*
X163716109Y-73226070D01*
X163644254Y-73216610D01*
X163572401Y-73207150D01*
X163572399Y-73207150D01*
X163428691Y-73226070D01*
X163428687Y-73226071D01*
X163294777Y-73281537D01*
X163179779Y-73369779D01*
X163091537Y-73484777D01*
X163036071Y-73618687D01*
X163036070Y-73618691D01*
X163021038Y-73732872D01*
X163017150Y-73762400D01*
X142606124Y-73762400D01*
X142608730Y-73756109D01*
X142627650Y-73612400D01*
X142608730Y-73468691D01*
X142553261Y-73334775D01*
X142465021Y-73219779D01*
X142350025Y-73131539D01*
X142350024Y-73131538D01*
X142350022Y-73131537D01*
X142216112Y-73076071D01*
X142216110Y-73076070D01*
X142216109Y-73076070D01*
X142144254Y-73066610D01*
X142072401Y-73057150D01*
X142072399Y-73057150D01*
X141928691Y-73076070D01*
X141928687Y-73076071D01*
X141794777Y-73131537D01*
X141679779Y-73219779D01*
X141591537Y-73334777D01*
X141536071Y-73468687D01*
X141536070Y-73468691D01*
X141517150Y-73612399D01*
X138142376Y-73612399D01*
X138133330Y-73543691D01*
X138077861Y-73409775D01*
X137989621Y-73294779D01*
X137874625Y-73206539D01*
X137874624Y-73206538D01*
X137874622Y-73206537D01*
X137740712Y-73151071D01*
X137740710Y-73151070D01*
X137740709Y-73151070D01*
X137668854Y-73141610D01*
X137597001Y-73132150D01*
X137596999Y-73132150D01*
X137453291Y-73151070D01*
X137453287Y-73151071D01*
X137319377Y-73206537D01*
X137204379Y-73294779D01*
X137116138Y-73409776D01*
X137071876Y-73516636D01*
X137028035Y-73571039D01*
X136961741Y-73593104D01*
X136909863Y-73583744D01*
X136785112Y-73532071D01*
X136785110Y-73532070D01*
X136785109Y-73532070D01*
X136713254Y-73522610D01*
X136641401Y-73513150D01*
X136641399Y-73513150D01*
X136497691Y-73532070D01*
X136497687Y-73532071D01*
X136363777Y-73587537D01*
X136248779Y-73675779D01*
X136160537Y-73790777D01*
X136105071Y-73924687D01*
X136105070Y-73924691D01*
X136086150Y-74068399D01*
X132662507Y-74068399D01*
X132728025Y-74041261D01*
X132843021Y-73953021D01*
X132931261Y-73838025D01*
X132986730Y-73704109D01*
X133005650Y-73560400D01*
X132986730Y-73416691D01*
X132931261Y-73282775D01*
X132843021Y-73167779D01*
X132728025Y-73079539D01*
X132728024Y-73079538D01*
X132728022Y-73079537D01*
X132594112Y-73024071D01*
X132594110Y-73024070D01*
X132594109Y-73024070D01*
X132522254Y-73014610D01*
X132450401Y-73005150D01*
X132450399Y-73005150D01*
X132306691Y-73024070D01*
X132306687Y-73024071D01*
X132172777Y-73079537D01*
X132057779Y-73167779D01*
X131969537Y-73282777D01*
X131914071Y-73416687D01*
X131914070Y-73416691D01*
X131895150Y-73560400D01*
X119942175Y-73560400D01*
X119938908Y-73535582D01*
X119901928Y-73446304D01*
X119883440Y-73401668D01*
X119883439Y-73401667D01*
X119883439Y-73401666D01*
X119795199Y-73286670D01*
X119680203Y-73198430D01*
X119680202Y-73198429D01*
X119680200Y-73198428D01*
X119546290Y-73142962D01*
X119546288Y-73142961D01*
X119546287Y-73142961D01*
X119459515Y-73131537D01*
X119402579Y-73124041D01*
X119402577Y-73124041D01*
X119258869Y-73142961D01*
X119258865Y-73142962D01*
X119124955Y-73198428D01*
X119009957Y-73286670D01*
X118921715Y-73401668D01*
X118866249Y-73535578D01*
X118866248Y-73535582D01*
X118856135Y-73612400D01*
X118847328Y-73679291D01*
X115493582Y-73679291D01*
X115475730Y-73543691D01*
X115420261Y-73409775D01*
X115332021Y-73294779D01*
X115217025Y-73206539D01*
X115217024Y-73206538D01*
X115217022Y-73206537D01*
X115083112Y-73151071D01*
X115083110Y-73151070D01*
X115083109Y-73151070D01*
X115011254Y-73141610D01*
X114939401Y-73132150D01*
X114939399Y-73132150D01*
X114795691Y-73151070D01*
X114795687Y-73151071D01*
X114661777Y-73206537D01*
X114546779Y-73294779D01*
X114458537Y-73409777D01*
X114403071Y-73543687D01*
X114403070Y-73543691D01*
X114384150Y-73687399D01*
X114384150Y-73687402D01*
X114390136Y-73732872D01*
X114379370Y-73801907D01*
X114332990Y-73854163D01*
X114265721Y-73873048D01*
X114198921Y-73852567D01*
X114153797Y-73799222D01*
X114152635Y-73796507D01*
X114150261Y-73790775D01*
X114062021Y-73675779D01*
X113947025Y-73587539D01*
X113947024Y-73587538D01*
X113947022Y-73587537D01*
X113813112Y-73532071D01*
X113813110Y-73532070D01*
X113813109Y-73532070D01*
X113741254Y-73522610D01*
X113669401Y-73513150D01*
X113669399Y-73513150D01*
X113525691Y-73532070D01*
X113525687Y-73532071D01*
X113391777Y-73587537D01*
X113276779Y-73675779D01*
X113188537Y-73790777D01*
X113133071Y-73924687D01*
X113133070Y-73924691D01*
X113114150Y-74068399D01*
X104622900Y-74068399D01*
X104622900Y-72798399D01*
X108923150Y-72798399D01*
X108923150Y-72798400D01*
X108942070Y-72942108D01*
X108942071Y-72942112D01*
X108997537Y-73076022D01*
X108997538Y-73076024D01*
X108997539Y-73076025D01*
X109085779Y-73191021D01*
X109200775Y-73279261D01*
X109200776Y-73279261D01*
X109200777Y-73279262D01*
X109218662Y-73286670D01*
X109334691Y-73334730D01*
X109461680Y-73351448D01*
X109478399Y-73353650D01*
X109478400Y-73353650D01*
X109478401Y-73353650D01*
X109493377Y-73351678D01*
X109622109Y-73334730D01*
X109756025Y-73279261D01*
X109871021Y-73191021D01*
X109959261Y-73076025D01*
X110014730Y-72942109D01*
X110033650Y-72798400D01*
X110014730Y-72654691D01*
X109959261Y-72520775D01*
X109879938Y-72417400D01*
X113114150Y-72417400D01*
X113124137Y-72493261D01*
X113133070Y-72561108D01*
X113133071Y-72561112D01*
X113188537Y-72695022D01*
X113188538Y-72695024D01*
X113188539Y-72695025D01*
X113276779Y-72810021D01*
X113391775Y-72898261D01*
X113525691Y-72953730D01*
X113652680Y-72970448D01*
X113669399Y-72972650D01*
X113669400Y-72972650D01*
X113669401Y-72972650D01*
X113684377Y-72970678D01*
X113813109Y-72953730D01*
X113947025Y-72898261D01*
X114062021Y-72810021D01*
X114150261Y-72695025D01*
X114205730Y-72561109D01*
X114224650Y-72417400D01*
X114205730Y-72273691D01*
X114150261Y-72139775D01*
X114062021Y-72024779D01*
X114045888Y-72012400D01*
X119717150Y-72012400D01*
X119727290Y-72089423D01*
X119736070Y-72156108D01*
X119736071Y-72156112D01*
X119791537Y-72290022D01*
X119791538Y-72290024D01*
X119791539Y-72290025D01*
X119879779Y-72405021D01*
X119994775Y-72493261D01*
X120128691Y-72548730D01*
X120255680Y-72565448D01*
X120272399Y-72567650D01*
X120272400Y-72567650D01*
X120272401Y-72567650D01*
X120287377Y-72565678D01*
X120416109Y-72548730D01*
X120550025Y-72493261D01*
X120564643Y-72482044D01*
X136023794Y-72482044D01*
X136035064Y-72567650D01*
X136042714Y-72625752D01*
X136042715Y-72625756D01*
X136098181Y-72759666D01*
X136098182Y-72759668D01*
X136098183Y-72759669D01*
X136186423Y-72874665D01*
X136301419Y-72962905D01*
X136435335Y-73018374D01*
X136562324Y-73035092D01*
X136579043Y-73037294D01*
X136579044Y-73037294D01*
X136579045Y-73037294D01*
X136594021Y-73035322D01*
X136722753Y-73018374D01*
X136856669Y-72962905D01*
X136971665Y-72874665D01*
X137059905Y-72759669D01*
X137115374Y-72625753D01*
X137134294Y-72482044D01*
X137115374Y-72338335D01*
X137059905Y-72204419D01*
X136971665Y-72089423D01*
X136856669Y-72001183D01*
X136856668Y-72001182D01*
X136856666Y-72001181D01*
X136722756Y-71945715D01*
X136722754Y-71945714D01*
X136722753Y-71945714D01*
X136650898Y-71936254D01*
X136579045Y-71926794D01*
X136579043Y-71926794D01*
X136435335Y-71945714D01*
X136435331Y-71945715D01*
X136301421Y-72001181D01*
X136186423Y-72089423D01*
X136098181Y-72204421D01*
X136042715Y-72338331D01*
X136042714Y-72338335D01*
X136023794Y-72482044D01*
X120564643Y-72482044D01*
X120665021Y-72405021D01*
X120753261Y-72290025D01*
X120808730Y-72156109D01*
X120827650Y-72012400D01*
X120808730Y-71868691D01*
X120761747Y-71755262D01*
X120753262Y-71734777D01*
X120753261Y-71734776D01*
X120753261Y-71734775D01*
X120665021Y-71619779D01*
X120550025Y-71531539D01*
X120550024Y-71531538D01*
X120550022Y-71531537D01*
X120542448Y-71528400D01*
X131843238Y-71528400D01*
X131860926Y-71662755D01*
X131862158Y-71672108D01*
X131862159Y-71672112D01*
X131917625Y-71806022D01*
X131917626Y-71806024D01*
X131917627Y-71806025D01*
X132005867Y-71921021D01*
X132120863Y-72009261D01*
X132254779Y-72064730D01*
X132381768Y-72081448D01*
X132398487Y-72083650D01*
X132398488Y-72083650D01*
X132398489Y-72083650D01*
X132413465Y-72081678D01*
X132542197Y-72064730D01*
X132676113Y-72009261D01*
X132791109Y-71921021D01*
X132879349Y-71806025D01*
X132934818Y-71672109D01*
X132953738Y-71528400D01*
X132952506Y-71519042D01*
X137036391Y-71519042D01*
X137036391Y-71519043D01*
X137055311Y-71662751D01*
X137055312Y-71662755D01*
X137110778Y-71796665D01*
X137110779Y-71796667D01*
X137110780Y-71796668D01*
X137199020Y-71911664D01*
X137314016Y-71999904D01*
X137314017Y-71999904D01*
X137314018Y-71999905D01*
X137344182Y-72012399D01*
X137447932Y-72055373D01*
X137574921Y-72072091D01*
X137591640Y-72074293D01*
X137591641Y-72074293D01*
X137591642Y-72074293D01*
X137606618Y-72072321D01*
X137681983Y-72062399D01*
X142167150Y-72062399D01*
X142167150Y-72062400D01*
X142186070Y-72206108D01*
X142186071Y-72206112D01*
X142241537Y-72340022D01*
X142241538Y-72340024D01*
X142241539Y-72340025D01*
X142329779Y-72455021D01*
X142444775Y-72543261D01*
X142444776Y-72543261D01*
X142444777Y-72543262D01*
X142487862Y-72561108D01*
X142578691Y-72598730D01*
X142705680Y-72615448D01*
X142722399Y-72617650D01*
X142722400Y-72617650D01*
X142722401Y-72617650D01*
X142737377Y-72615678D01*
X142866109Y-72598730D01*
X143000025Y-72543261D01*
X143115021Y-72455021D01*
X143203261Y-72340025D01*
X143258730Y-72206109D01*
X143277650Y-72062400D01*
X143258730Y-71918691D01*
X143203261Y-71784775D01*
X143115021Y-71669779D01*
X143000025Y-71581539D01*
X143000024Y-71581538D01*
X143000022Y-71581537D01*
X142866112Y-71526071D01*
X142866110Y-71526070D01*
X142866109Y-71526070D01*
X142794254Y-71516610D01*
X142722401Y-71507150D01*
X142722399Y-71507150D01*
X142578691Y-71526070D01*
X142578687Y-71526071D01*
X142444777Y-71581537D01*
X142329779Y-71669779D01*
X142241537Y-71784777D01*
X142186071Y-71918687D01*
X142186070Y-71918691D01*
X142167150Y-72062399D01*
X137681983Y-72062399D01*
X137735350Y-72055373D01*
X137869266Y-71999904D01*
X137984262Y-71911664D01*
X138072502Y-71796668D01*
X138127971Y-71662752D01*
X138146891Y-71519043D01*
X138127971Y-71375334D01*
X138072502Y-71241418D01*
X137984262Y-71126422D01*
X137869266Y-71038182D01*
X137869265Y-71038181D01*
X137869263Y-71038180D01*
X137735353Y-70982714D01*
X137735351Y-70982713D01*
X137735350Y-70982713D01*
X137662713Y-70973150D01*
X137591642Y-70963793D01*
X137591640Y-70963793D01*
X137447932Y-70982713D01*
X137447928Y-70982714D01*
X137314018Y-71038180D01*
X137199020Y-71126422D01*
X137110778Y-71241420D01*
X137055312Y-71375330D01*
X137055311Y-71375334D01*
X137036391Y-71519042D01*
X132952506Y-71519042D01*
X132934818Y-71384691D01*
X132879349Y-71250775D01*
X132791109Y-71135779D01*
X132676113Y-71047539D01*
X132676112Y-71047538D01*
X132676110Y-71047537D01*
X132542200Y-70992071D01*
X132542198Y-70992070D01*
X132542197Y-70992070D01*
X132470342Y-70982610D01*
X132398489Y-70973150D01*
X132398487Y-70973150D01*
X132254779Y-70992070D01*
X132254775Y-70992071D01*
X132120865Y-71047537D01*
X132005867Y-71135779D01*
X131917625Y-71250777D01*
X131862159Y-71384687D01*
X131862158Y-71384691D01*
X131843545Y-71526071D01*
X131843238Y-71528400D01*
X120542448Y-71528400D01*
X120416112Y-71476071D01*
X120416110Y-71476070D01*
X120416109Y-71476070D01*
X120344254Y-71466610D01*
X120272401Y-71457150D01*
X120272399Y-71457150D01*
X120128691Y-71476070D01*
X120128687Y-71476071D01*
X119994777Y-71531537D01*
X119879779Y-71619779D01*
X119791537Y-71734777D01*
X119736071Y-71868687D01*
X119736070Y-71868691D01*
X119725930Y-71945714D01*
X119717150Y-72012400D01*
X114045888Y-72012400D01*
X113947025Y-71936539D01*
X113947024Y-71936538D01*
X113947022Y-71936537D01*
X113813112Y-71881071D01*
X113813110Y-71881070D01*
X113813109Y-71881070D01*
X113719053Y-71868687D01*
X113669401Y-71862150D01*
X113669399Y-71862150D01*
X113525691Y-71881070D01*
X113525687Y-71881071D01*
X113391777Y-71936537D01*
X113276779Y-72024779D01*
X113188537Y-72139777D01*
X113133071Y-72273687D01*
X113133070Y-72273691D01*
X113114150Y-72417400D01*
X109879938Y-72417400D01*
X109871021Y-72405779D01*
X109756025Y-72317539D01*
X109756024Y-72317538D01*
X109756022Y-72317537D01*
X109622112Y-72262071D01*
X109622110Y-72262070D01*
X109622109Y-72262070D01*
X109550254Y-72252610D01*
X109478401Y-72243150D01*
X109478399Y-72243150D01*
X109334691Y-72262070D01*
X109334687Y-72262071D01*
X109200777Y-72317537D01*
X109085779Y-72405779D01*
X108997537Y-72520777D01*
X108942071Y-72654687D01*
X108942070Y-72654691D01*
X108923150Y-72798399D01*
X104622900Y-72798399D01*
X104622900Y-71274400D01*
X108923150Y-71274400D01*
X108936438Y-71375334D01*
X108942070Y-71418108D01*
X108942071Y-71418112D01*
X108997537Y-71552022D01*
X108997538Y-71552024D01*
X108997539Y-71552025D01*
X109085779Y-71667021D01*
X109200775Y-71755261D01*
X109334691Y-71810730D01*
X109461680Y-71827448D01*
X109478399Y-71829650D01*
X109478400Y-71829650D01*
X109478401Y-71829650D01*
X109493377Y-71827678D01*
X109622109Y-71810730D01*
X109756025Y-71755261D01*
X109871021Y-71667021D01*
X109959261Y-71552025D01*
X110014730Y-71418109D01*
X110033650Y-71274400D01*
X114384150Y-71274400D01*
X114397438Y-71375334D01*
X114403070Y-71418108D01*
X114403071Y-71418112D01*
X114458537Y-71552022D01*
X114458538Y-71552024D01*
X114458539Y-71552025D01*
X114546779Y-71667021D01*
X114661775Y-71755261D01*
X114795691Y-71810730D01*
X114922680Y-71827448D01*
X114939399Y-71829650D01*
X114939400Y-71829650D01*
X114939401Y-71829650D01*
X114954377Y-71827678D01*
X115083109Y-71810730D01*
X115217025Y-71755261D01*
X115332021Y-71667021D01*
X115420261Y-71552025D01*
X115475730Y-71418109D01*
X115494650Y-71274400D01*
X115475730Y-71130691D01*
X115426526Y-71011901D01*
X115420262Y-70996777D01*
X115420261Y-70996776D01*
X115420261Y-70996775D01*
X115332021Y-70881779D01*
X115217025Y-70793539D01*
X115217024Y-70793538D01*
X115217022Y-70793537D01*
X115083112Y-70738071D01*
X115083110Y-70738070D01*
X115083109Y-70738070D01*
X115011254Y-70728610D01*
X114939401Y-70719150D01*
X114939399Y-70719150D01*
X114795691Y-70738070D01*
X114795687Y-70738071D01*
X114661777Y-70793537D01*
X114546779Y-70881779D01*
X114458537Y-70996777D01*
X114403071Y-71130687D01*
X114403070Y-71130691D01*
X114388979Y-71237724D01*
X114384150Y-71274400D01*
X110033650Y-71274400D01*
X110014730Y-71130691D01*
X109965526Y-71011901D01*
X109959262Y-70996777D01*
X109959261Y-70996776D01*
X109959261Y-70996775D01*
X109871021Y-70881779D01*
X109756025Y-70793539D01*
X109756024Y-70793538D01*
X109756022Y-70793537D01*
X109622112Y-70738071D01*
X109622110Y-70738070D01*
X109622109Y-70738070D01*
X109550254Y-70728610D01*
X109478401Y-70719150D01*
X109478399Y-70719150D01*
X109334691Y-70738070D01*
X109334687Y-70738071D01*
X109200777Y-70793537D01*
X109085779Y-70881779D01*
X108997537Y-70996777D01*
X108942071Y-71130687D01*
X108942070Y-71130691D01*
X108927979Y-71237724D01*
X108923150Y-71274400D01*
X104622900Y-71274400D01*
X104622900Y-68187225D01*
X164881217Y-68187225D01*
X164901499Y-68393157D01*
X164931534Y-68492169D01*
X164961568Y-68591179D01*
X165059115Y-68773675D01*
X165108355Y-68833675D01*
X165191572Y-68935076D01*
X165218884Y-68999386D01*
X165207093Y-69068253D01*
X165159940Y-69119813D01*
X165117766Y-69133859D01*
X165118100Y-69135536D01*
X165039064Y-69151257D01*
X165039060Y-69151258D01*
X164956199Y-69206624D01*
X164900833Y-69289485D01*
X164900832Y-69289489D01*
X164886300Y-69362546D01*
X164886300Y-71011903D01*
X164900832Y-71084960D01*
X164900833Y-71084964D01*
X164900834Y-71084965D01*
X164956199Y-71167826D01*
X165039060Y-71223191D01*
X165039064Y-71223192D01*
X165112121Y-71237724D01*
X165112124Y-71237725D01*
X165112126Y-71237725D01*
X166761476Y-71237725D01*
X166761477Y-71237724D01*
X166834540Y-71223191D01*
X166917401Y-71167826D01*
X166972766Y-71084965D01*
X166987300Y-71011899D01*
X166987300Y-69362551D01*
X166987300Y-69362548D01*
X166987299Y-69362546D01*
X166972767Y-69289489D01*
X166972766Y-69289485D01*
X166957491Y-69266624D01*
X166917401Y-69206624D01*
X166834540Y-69151259D01*
X166834539Y-69151258D01*
X166834535Y-69151257D01*
X166755500Y-69135536D01*
X166755962Y-69133210D01*
X166700901Y-69110951D01*
X166660565Y-69053901D01*
X166657476Y-68984099D01*
X166682028Y-68935075D01*
X166765243Y-68833677D01*
X166814485Y-68773675D01*
X166912032Y-68591179D01*
X166972100Y-68393159D01*
X166992383Y-68187225D01*
X166972100Y-67981291D01*
X166936035Y-67862399D01*
X178167150Y-67862399D01*
X178167150Y-67862400D01*
X178186070Y-68006108D01*
X178186071Y-68006112D01*
X178241537Y-68140022D01*
X178241538Y-68140024D01*
X178241539Y-68140025D01*
X178329779Y-68255021D01*
X178444775Y-68343261D01*
X178578691Y-68398730D01*
X178705680Y-68415448D01*
X178722399Y-68417650D01*
X178722400Y-68417650D01*
X178722401Y-68417650D01*
X178737377Y-68415678D01*
X178866109Y-68398730D01*
X179000025Y-68343261D01*
X179115021Y-68255021D01*
X179121003Y-68247225D01*
X190884417Y-68247225D01*
X190904699Y-68453157D01*
X190904700Y-68453159D01*
X190964768Y-68651179D01*
X191062315Y-68833675D01*
X191112334Y-68894624D01*
X191194772Y-68995076D01*
X191222084Y-69059386D01*
X191210293Y-69128253D01*
X191163140Y-69179813D01*
X191120966Y-69193859D01*
X191121300Y-69195536D01*
X191042264Y-69211257D01*
X191042260Y-69211258D01*
X190959399Y-69266624D01*
X190904033Y-69349485D01*
X190904032Y-69349489D01*
X190889500Y-69422546D01*
X190889500Y-71071903D01*
X190904032Y-71144960D01*
X190904033Y-71144964D01*
X190904034Y-71144965D01*
X190959399Y-71227826D01*
X191029102Y-71274399D01*
X191042260Y-71283191D01*
X191042264Y-71283192D01*
X191115321Y-71297724D01*
X191115324Y-71297725D01*
X191115326Y-71297725D01*
X192764676Y-71297725D01*
X192764677Y-71297724D01*
X192837740Y-71283191D01*
X192920601Y-71227826D01*
X192975966Y-71144965D01*
X192990500Y-71071899D01*
X192990500Y-69422551D01*
X192990500Y-69422548D01*
X192990499Y-69422546D01*
X192975967Y-69349489D01*
X192975966Y-69349485D01*
X192920601Y-69266624D01*
X192837740Y-69211259D01*
X192837739Y-69211258D01*
X192837735Y-69211257D01*
X192758700Y-69195536D01*
X192759162Y-69193210D01*
X192704101Y-69170951D01*
X192663765Y-69113901D01*
X192660676Y-69044099D01*
X192685228Y-68995075D01*
X192694236Y-68984099D01*
X192817685Y-68833675D01*
X192915232Y-68651179D01*
X192975300Y-68453159D01*
X192995583Y-68247225D01*
X192975300Y-68041291D01*
X192915232Y-67843271D01*
X192817685Y-67660775D01*
X192765702Y-67597434D01*
X192686410Y-67500814D01*
X192526452Y-67369542D01*
X192526453Y-67369542D01*
X192526450Y-67369540D01*
X192343954Y-67271993D01*
X192145934Y-67211925D01*
X192145932Y-67211924D01*
X192145934Y-67211924D01*
X191940000Y-67191642D01*
X191734067Y-67211924D01*
X191536043Y-67271994D01*
X191470272Y-67307150D01*
X191353550Y-67369540D01*
X191353548Y-67369541D01*
X191353547Y-67369542D01*
X191193589Y-67500814D01*
X191062317Y-67660772D01*
X191062315Y-67660775D01*
X191036110Y-67709801D01*
X190964769Y-67843268D01*
X190904699Y-68041292D01*
X190884417Y-68247225D01*
X179121003Y-68247225D01*
X179203261Y-68140025D01*
X179258730Y-68006109D01*
X179277650Y-67862400D01*
X179258730Y-67718691D01*
X179203261Y-67584775D01*
X179115021Y-67469779D01*
X179000025Y-67381539D01*
X179000024Y-67381538D01*
X179000022Y-67381537D01*
X178866112Y-67326071D01*
X178866110Y-67326070D01*
X178866109Y-67326070D01*
X178740554Y-67309540D01*
X178722401Y-67307150D01*
X178722399Y-67307150D01*
X178578691Y-67326070D01*
X178578687Y-67326071D01*
X178444777Y-67381537D01*
X178329779Y-67469779D01*
X178241537Y-67584777D01*
X178186071Y-67718687D01*
X178186070Y-67718691D01*
X178167150Y-67862399D01*
X166936035Y-67862399D01*
X166912032Y-67783271D01*
X166814485Y-67600775D01*
X166762502Y-67537434D01*
X166683210Y-67440814D01*
X166523252Y-67309542D01*
X166523253Y-67309542D01*
X166523250Y-67309540D01*
X166340754Y-67211993D01*
X166142734Y-67151925D01*
X166142732Y-67151924D01*
X166142734Y-67151924D01*
X165936800Y-67131642D01*
X165730867Y-67151924D01*
X165555492Y-67205123D01*
X165533074Y-67211924D01*
X165532843Y-67211994D01*
X165422698Y-67270868D01*
X165350350Y-67309540D01*
X165350348Y-67309541D01*
X165350347Y-67309542D01*
X165190389Y-67440814D01*
X165072244Y-67584777D01*
X165059115Y-67600775D01*
X165027046Y-67660772D01*
X164961569Y-67783268D01*
X164901499Y-67981292D01*
X164881217Y-68187225D01*
X104622900Y-68187225D01*
X104622900Y-66262400D01*
X111969050Y-66262400D01*
X111982215Y-66362400D01*
X111987970Y-66406108D01*
X111987971Y-66406112D01*
X112043437Y-66540022D01*
X112043438Y-66540024D01*
X112043439Y-66540025D01*
X112131679Y-66655021D01*
X112246675Y-66743261D01*
X112246676Y-66743261D01*
X112246677Y-66743262D01*
X112291313Y-66761750D01*
X112380591Y-66798730D01*
X112507580Y-66815448D01*
X112524299Y-66817650D01*
X112524300Y-66817650D01*
X112524301Y-66817650D01*
X112539277Y-66815678D01*
X112668009Y-66798730D01*
X112801925Y-66743261D01*
X112916921Y-66655021D01*
X113005161Y-66540025D01*
X113037314Y-66462399D01*
X121567150Y-66462399D01*
X121567150Y-66462400D01*
X121586070Y-66606108D01*
X121586071Y-66606112D01*
X121641537Y-66740022D01*
X121641538Y-66740024D01*
X121641539Y-66740025D01*
X121729779Y-66855021D01*
X121844775Y-66943261D01*
X121978691Y-66998730D01*
X122105680Y-67015448D01*
X122122399Y-67017650D01*
X122122400Y-67017650D01*
X122122401Y-67017650D01*
X122137377Y-67015678D01*
X122266109Y-66998730D01*
X122400025Y-66943261D01*
X122515021Y-66855021D01*
X122603261Y-66740025D01*
X122658730Y-66606109D01*
X122677650Y-66462400D01*
X122677650Y-66462399D01*
X134967150Y-66462399D01*
X134967150Y-66462400D01*
X134986070Y-66606108D01*
X134986071Y-66606112D01*
X135041537Y-66740022D01*
X135041538Y-66740024D01*
X135041539Y-66740025D01*
X135129779Y-66855021D01*
X135244775Y-66943261D01*
X135378691Y-66998730D01*
X135505680Y-67015448D01*
X135522399Y-67017650D01*
X135522400Y-67017650D01*
X135522401Y-67017650D01*
X135537377Y-67015678D01*
X135666109Y-66998730D01*
X135800025Y-66943261D01*
X135915021Y-66855021D01*
X136003261Y-66740025D01*
X136058730Y-66606109D01*
X136077650Y-66462400D01*
X136064485Y-66362400D01*
X144067150Y-66362400D01*
X144080315Y-66462400D01*
X144086070Y-66506108D01*
X144086071Y-66506112D01*
X144141537Y-66640022D01*
X144141538Y-66640024D01*
X144141539Y-66640025D01*
X144229779Y-66755021D01*
X144344775Y-66843261D01*
X144344776Y-66843261D01*
X144344777Y-66843262D01*
X144389413Y-66861750D01*
X144478691Y-66898730D01*
X144605680Y-66915448D01*
X144622399Y-66917650D01*
X144622400Y-66917650D01*
X144622401Y-66917650D01*
X144637377Y-66915678D01*
X144766109Y-66898730D01*
X144900025Y-66843261D01*
X145015021Y-66755021D01*
X145103261Y-66640025D01*
X145158730Y-66506109D01*
X145177650Y-66362400D01*
X145158730Y-66218691D01*
X145103261Y-66084775D01*
X145015021Y-65969779D01*
X144900025Y-65881539D01*
X144900024Y-65881538D01*
X144900022Y-65881537D01*
X144786759Y-65834623D01*
X183355300Y-65834623D01*
X183355300Y-67483980D01*
X183369832Y-67557037D01*
X183369833Y-67557041D01*
X183369834Y-67557042D01*
X183425199Y-67639903D01*
X183508060Y-67695268D01*
X183508064Y-67695269D01*
X183581121Y-67709801D01*
X183581124Y-67709802D01*
X183581126Y-67709802D01*
X185230476Y-67709802D01*
X185230477Y-67709801D01*
X185303540Y-67695268D01*
X185386401Y-67639903D01*
X185441766Y-67557042D01*
X185456300Y-67483976D01*
X185456300Y-65834628D01*
X185456300Y-65834625D01*
X185456299Y-65834623D01*
X185441767Y-65761566D01*
X185441766Y-65761562D01*
X185418051Y-65726070D01*
X185386401Y-65678701D01*
X185303540Y-65623336D01*
X185303539Y-65623335D01*
X185303535Y-65623334D01*
X185230477Y-65608802D01*
X185230474Y-65608802D01*
X183581126Y-65608802D01*
X183581123Y-65608802D01*
X183508064Y-65623334D01*
X183508060Y-65623335D01*
X183425199Y-65678701D01*
X183369833Y-65761562D01*
X183369832Y-65761566D01*
X183355300Y-65834623D01*
X144786759Y-65834623D01*
X144766112Y-65826071D01*
X144766110Y-65826070D01*
X144766109Y-65826070D01*
X144694254Y-65816610D01*
X144622401Y-65807150D01*
X144622399Y-65807150D01*
X144478691Y-65826070D01*
X144478687Y-65826071D01*
X144344777Y-65881537D01*
X144229779Y-65969779D01*
X144141537Y-66084777D01*
X144086071Y-66218687D01*
X144086070Y-66218691D01*
X144072905Y-66318691D01*
X144067150Y-66362400D01*
X136064485Y-66362400D01*
X136058730Y-66318691D01*
X136003261Y-66184775D01*
X135915021Y-66069779D01*
X135800025Y-65981539D01*
X135800024Y-65981538D01*
X135800022Y-65981537D01*
X135666112Y-65926071D01*
X135666110Y-65926070D01*
X135666109Y-65926070D01*
X135594254Y-65916610D01*
X135522401Y-65907150D01*
X135522399Y-65907150D01*
X135378691Y-65926070D01*
X135378687Y-65926071D01*
X135244777Y-65981537D01*
X135129779Y-66069779D01*
X135041537Y-66184777D01*
X134986071Y-66318687D01*
X134986070Y-66318691D01*
X134967150Y-66462399D01*
X122677650Y-66462399D01*
X122658730Y-66318691D01*
X122603261Y-66184775D01*
X122515021Y-66069779D01*
X122400025Y-65981539D01*
X122400024Y-65981538D01*
X122400022Y-65981537D01*
X122266112Y-65926071D01*
X122266110Y-65926070D01*
X122266109Y-65926070D01*
X122194254Y-65916610D01*
X122122401Y-65907150D01*
X122122399Y-65907150D01*
X121978691Y-65926070D01*
X121978687Y-65926071D01*
X121844777Y-65981537D01*
X121729779Y-66069779D01*
X121641537Y-66184777D01*
X121586071Y-66318687D01*
X121586070Y-66318691D01*
X121567150Y-66462399D01*
X113037314Y-66462399D01*
X113060630Y-66406109D01*
X113079550Y-66262400D01*
X113060630Y-66118691D01*
X113005161Y-65984775D01*
X112916921Y-65869779D01*
X112801925Y-65781539D01*
X112801924Y-65781538D01*
X112801922Y-65781537D01*
X112668012Y-65726071D01*
X112668010Y-65726070D01*
X112668009Y-65726070D01*
X112596154Y-65716610D01*
X112524301Y-65707150D01*
X112524299Y-65707150D01*
X112380591Y-65726070D01*
X112380587Y-65726071D01*
X112246677Y-65781537D01*
X112131679Y-65869779D01*
X112043437Y-65984777D01*
X111987971Y-66118687D01*
X111987970Y-66118691D01*
X111974805Y-66218691D01*
X111969050Y-66262400D01*
X104622900Y-66262400D01*
X104622900Y-64462399D01*
X169367150Y-64462399D01*
X169367150Y-64462400D01*
X169386070Y-64606108D01*
X169386071Y-64606112D01*
X169441537Y-64740022D01*
X169441538Y-64740024D01*
X169441539Y-64740025D01*
X169529779Y-64855021D01*
X169644775Y-64943261D01*
X169778691Y-64998730D01*
X169905680Y-65015448D01*
X169922399Y-65017650D01*
X169922400Y-65017650D01*
X169922401Y-65017650D01*
X169937377Y-65015678D01*
X170066109Y-64998730D01*
X170200025Y-64943261D01*
X170315021Y-64855021D01*
X170403261Y-64740025D01*
X170458730Y-64606109D01*
X170477650Y-64462400D01*
X170477650Y-64462399D01*
X174267150Y-64462399D01*
X174267150Y-64462400D01*
X174286070Y-64606108D01*
X174286071Y-64606112D01*
X174341537Y-64740022D01*
X174341538Y-64740024D01*
X174341539Y-64740025D01*
X174429779Y-64855021D01*
X174544775Y-64943261D01*
X174678691Y-64998730D01*
X174805680Y-65015448D01*
X174822399Y-65017650D01*
X174822400Y-65017650D01*
X174822401Y-65017650D01*
X174837377Y-65015678D01*
X174966109Y-64998730D01*
X175100025Y-64943261D01*
X175215021Y-64855021D01*
X175303261Y-64740025D01*
X175358730Y-64606109D01*
X175377650Y-64462400D01*
X175358730Y-64318691D01*
X175303261Y-64184775D01*
X175215021Y-64069779D01*
X175100025Y-63981539D01*
X175100024Y-63981538D01*
X175100022Y-63981537D01*
X174966112Y-63926071D01*
X174966110Y-63926070D01*
X174966109Y-63926070D01*
X174894254Y-63916610D01*
X174822401Y-63907150D01*
X174822399Y-63907150D01*
X174678691Y-63926070D01*
X174678687Y-63926071D01*
X174544777Y-63981537D01*
X174429779Y-64069779D01*
X174341537Y-64184777D01*
X174286071Y-64318687D01*
X174286070Y-64318691D01*
X174267150Y-64462399D01*
X170477650Y-64462399D01*
X170458730Y-64318691D01*
X170403261Y-64184775D01*
X170315021Y-64069779D01*
X170200025Y-63981539D01*
X170200024Y-63981538D01*
X170200022Y-63981537D01*
X170066112Y-63926071D01*
X170066110Y-63926070D01*
X170066109Y-63926070D01*
X169994254Y-63916610D01*
X169922401Y-63907150D01*
X169922399Y-63907150D01*
X169778691Y-63926070D01*
X169778687Y-63926071D01*
X169644777Y-63981537D01*
X169529779Y-64069779D01*
X169441537Y-64184777D01*
X169386071Y-64318687D01*
X169386070Y-64318691D01*
X169367150Y-64462399D01*
X104622900Y-64462399D01*
X104622900Y-61133399D01*
X175489150Y-61133399D01*
X175489150Y-61133400D01*
X175508070Y-61277108D01*
X175508071Y-61277112D01*
X175563537Y-61411022D01*
X175563538Y-61411024D01*
X175563539Y-61411025D01*
X175651779Y-61526021D01*
X175766775Y-61614261D01*
X175900691Y-61669730D01*
X176027680Y-61686448D01*
X176044399Y-61688650D01*
X176044400Y-61688650D01*
X176044401Y-61688650D01*
X176059377Y-61686678D01*
X176188109Y-61669730D01*
X176322025Y-61614261D01*
X176437021Y-61526021D01*
X176525261Y-61411025D01*
X176580730Y-61277109D01*
X176599650Y-61133400D01*
X176580730Y-60989691D01*
X176525261Y-60855775D01*
X176437021Y-60740779D01*
X176322025Y-60652539D01*
X176322024Y-60652538D01*
X176322022Y-60652537D01*
X176188112Y-60597071D01*
X176188110Y-60597070D01*
X176188109Y-60597070D01*
X176116254Y-60587610D01*
X176044401Y-60578150D01*
X176044399Y-60578150D01*
X175900691Y-60597070D01*
X175900687Y-60597071D01*
X175766777Y-60652537D01*
X175651779Y-60740779D01*
X175563537Y-60855777D01*
X175508071Y-60989687D01*
X175508070Y-60989691D01*
X175489150Y-61133399D01*
X104622900Y-61133399D01*
X104622900Y-52462399D01*
X146467150Y-52462399D01*
X146467150Y-52462400D01*
X146486070Y-52606108D01*
X146486071Y-52606112D01*
X146541537Y-52740022D01*
X146541538Y-52740024D01*
X146541539Y-52740025D01*
X146629779Y-52855021D01*
X146744775Y-52943261D01*
X146878691Y-52998730D01*
X147005680Y-53015448D01*
X147022399Y-53017650D01*
X147022400Y-53017650D01*
X147022401Y-53017650D01*
X147037377Y-53015678D01*
X147166109Y-52998730D01*
X147300025Y-52943261D01*
X147415021Y-52855021D01*
X147503261Y-52740025D01*
X147558730Y-52606109D01*
X147561851Y-52582400D01*
X176701953Y-52582400D01*
X176722434Y-52724856D01*
X176782222Y-52855771D01*
X176782223Y-52855773D01*
X176876472Y-52964543D01*
X176997547Y-53042353D01*
X176997550Y-53042354D01*
X176997549Y-53042354D01*
X177135636Y-53082899D01*
X177135638Y-53082900D01*
X177135639Y-53082900D01*
X177279562Y-53082900D01*
X177279562Y-53082899D01*
X177417653Y-53042353D01*
X177538728Y-52964543D01*
X177632977Y-52855773D01*
X177692765Y-52724857D01*
X177713247Y-52582400D01*
X177692765Y-52439943D01*
X177632977Y-52309027D01*
X177538728Y-52200257D01*
X177417653Y-52122447D01*
X177417651Y-52122446D01*
X177417649Y-52122445D01*
X177417650Y-52122445D01*
X177279563Y-52081900D01*
X177279561Y-52081900D01*
X177135639Y-52081900D01*
X177135636Y-52081900D01*
X176997549Y-52122445D01*
X176876473Y-52200256D01*
X176782223Y-52309026D01*
X176782222Y-52309028D01*
X176722434Y-52439943D01*
X176701953Y-52582400D01*
X147561851Y-52582400D01*
X147577650Y-52462400D01*
X147558730Y-52318691D01*
X147503261Y-52184775D01*
X147415021Y-52069779D01*
X147300025Y-51981539D01*
X147300024Y-51981538D01*
X147300022Y-51981537D01*
X147166112Y-51926071D01*
X147166110Y-51926070D01*
X147166109Y-51926070D01*
X147094254Y-51916610D01*
X147022401Y-51907150D01*
X147022399Y-51907150D01*
X146878691Y-51926070D01*
X146878687Y-51926071D01*
X146744777Y-51981537D01*
X146629779Y-52069779D01*
X146541537Y-52184777D01*
X146486071Y-52318687D01*
X146486070Y-52318691D01*
X146467150Y-52462399D01*
X104622900Y-52462399D01*
X104622900Y-49081599D01*
X133746350Y-49081599D01*
X133746350Y-49081600D01*
X133765270Y-49225308D01*
X133765271Y-49225312D01*
X133820737Y-49359222D01*
X133820738Y-49359224D01*
X133820739Y-49359225D01*
X133908979Y-49474221D01*
X134023975Y-49562461D01*
X134157891Y-49617930D01*
X134284880Y-49634648D01*
X134301599Y-49636850D01*
X134301600Y-49636850D01*
X134301601Y-49636850D01*
X134316577Y-49634878D01*
X134445309Y-49617930D01*
X134579225Y-49562461D01*
X134694221Y-49474221D01*
X134782461Y-49359225D01*
X134837930Y-49225309D01*
X134856850Y-49081600D01*
X134837930Y-48937891D01*
X134782461Y-48803975D01*
X134694221Y-48688979D01*
X134579225Y-48600739D01*
X134579224Y-48600738D01*
X134579222Y-48600737D01*
X134445312Y-48545271D01*
X134445310Y-48545270D01*
X134445309Y-48545270D01*
X134361066Y-48534179D01*
X134301601Y-48526350D01*
X134301599Y-48526350D01*
X134157891Y-48545270D01*
X134157887Y-48545271D01*
X134023977Y-48600737D01*
X133908979Y-48688979D01*
X133820737Y-48803977D01*
X133765271Y-48937887D01*
X133765270Y-48937891D01*
X133746350Y-49081599D01*
X104622900Y-49081599D01*
X104622900Y-48241321D01*
X148897300Y-48241321D01*
X148897300Y-49990678D01*
X148911832Y-50063735D01*
X148911833Y-50063739D01*
X148911834Y-50063740D01*
X148967199Y-50146601D01*
X149050060Y-50201966D01*
X149050064Y-50201967D01*
X149123121Y-50216499D01*
X149123124Y-50216500D01*
X149123126Y-50216500D01*
X150872476Y-50216500D01*
X150872477Y-50216499D01*
X150945540Y-50201966D01*
X151028401Y-50146601D01*
X151083766Y-50063740D01*
X151098300Y-49990674D01*
X151098300Y-48241326D01*
X151098300Y-48241323D01*
X151098299Y-48241321D01*
X151083767Y-48168264D01*
X151083766Y-48168260D01*
X151078046Y-48159699D01*
X151028401Y-48085399D01*
X150973035Y-48048405D01*
X150945539Y-48030033D01*
X150945535Y-48030032D01*
X150872477Y-48015500D01*
X150872474Y-48015500D01*
X149123126Y-48015500D01*
X149123123Y-48015500D01*
X149050064Y-48030032D01*
X149050060Y-48030033D01*
X148967199Y-48085399D01*
X148911833Y-48168260D01*
X148911832Y-48168264D01*
X148897300Y-48241321D01*
X104622900Y-48241321D01*
X104622900Y-47659200D01*
X131255953Y-47659200D01*
X131276434Y-47801656D01*
X131284711Y-47819779D01*
X131336223Y-47932573D01*
X131430472Y-48041343D01*
X131551547Y-48119153D01*
X131551550Y-48119154D01*
X131551549Y-48119154D01*
X131689636Y-48159699D01*
X131689638Y-48159700D01*
X131689639Y-48159700D01*
X131833562Y-48159700D01*
X131833562Y-48159699D01*
X131940721Y-48128235D01*
X131971650Y-48119154D01*
X131971650Y-48119153D01*
X131971653Y-48119153D01*
X132092728Y-48041343D01*
X132186977Y-47932573D01*
X132246765Y-47801657D01*
X132267247Y-47659200D01*
X132246765Y-47516743D01*
X132186977Y-47385827D01*
X132092728Y-47277057D01*
X131971653Y-47199247D01*
X131971651Y-47199246D01*
X131971649Y-47199245D01*
X131971650Y-47199245D01*
X131833563Y-47158700D01*
X131833561Y-47158700D01*
X131689639Y-47158700D01*
X131689636Y-47158700D01*
X131551549Y-47199245D01*
X131430473Y-47277056D01*
X131336223Y-47385826D01*
X131336222Y-47385828D01*
X131276434Y-47516743D01*
X131255953Y-47659200D01*
X104622900Y-47659200D01*
X104622900Y-47115999D01*
X151392585Y-47115999D01*
X151392585Y-47116000D01*
X151411402Y-47319082D01*
X151467217Y-47515247D01*
X151467222Y-47515260D01*
X151558127Y-47697821D01*
X151681037Y-47860581D01*
X151762425Y-47934775D01*
X151831759Y-47997981D01*
X151852094Y-48010572D01*
X151852096Y-48010573D01*
X151898731Y-48062601D01*
X151909835Y-48131583D01*
X151881882Y-48195617D01*
X151852096Y-48221427D01*
X151831757Y-48234020D01*
X151681037Y-48371418D01*
X151558127Y-48534178D01*
X151467222Y-48716739D01*
X151467217Y-48716752D01*
X151411402Y-48912917D01*
X151392585Y-49115999D01*
X151392585Y-49116000D01*
X151411402Y-49319082D01*
X151467217Y-49515247D01*
X151467222Y-49515260D01*
X151558127Y-49697821D01*
X151681037Y-49860581D01*
X151831758Y-49997980D01*
X151831760Y-49997982D01*
X151930941Y-50059392D01*
X152005163Y-50105348D01*
X152195344Y-50179024D01*
X152395824Y-50216500D01*
X152395826Y-50216500D01*
X152599774Y-50216500D01*
X152599776Y-50216500D01*
X152621715Y-50212399D01*
X182017150Y-50212399D01*
X182017150Y-50212400D01*
X182036070Y-50356108D01*
X182036071Y-50356112D01*
X182091537Y-50490022D01*
X182091538Y-50490024D01*
X182091539Y-50490025D01*
X182179779Y-50605021D01*
X182294775Y-50693261D01*
X182428691Y-50748730D01*
X182555680Y-50765448D01*
X182572399Y-50767650D01*
X182572400Y-50767650D01*
X182572401Y-50767650D01*
X182587377Y-50765678D01*
X182716109Y-50748730D01*
X182850025Y-50693261D01*
X182965021Y-50605021D01*
X183053261Y-50490025D01*
X183108730Y-50356109D01*
X183127650Y-50212400D01*
X183108730Y-50068691D01*
X183053261Y-49934775D01*
X182965021Y-49819779D01*
X182850025Y-49731539D01*
X182850024Y-49731538D01*
X182850022Y-49731537D01*
X182716112Y-49676071D01*
X182716110Y-49676070D01*
X182716109Y-49676070D01*
X182644254Y-49666610D01*
X182572401Y-49657150D01*
X182572399Y-49657150D01*
X182428691Y-49676070D01*
X182428687Y-49676071D01*
X182294777Y-49731537D01*
X182179779Y-49819779D01*
X182091537Y-49934777D01*
X182036071Y-50068687D01*
X182036070Y-50068691D01*
X182017150Y-50212399D01*
X152621715Y-50212399D01*
X152800256Y-50179024D01*
X152990437Y-50105348D01*
X153163841Y-49997981D01*
X153314564Y-49860579D01*
X153437473Y-49697821D01*
X153528382Y-49515250D01*
X153584197Y-49319083D01*
X153603015Y-49116000D01*
X153599827Y-49081600D01*
X153584197Y-48912917D01*
X153528382Y-48716750D01*
X153516686Y-48693262D01*
X153442996Y-48545271D01*
X153437473Y-48534179D01*
X153314564Y-48371421D01*
X153314562Y-48371418D01*
X153163842Y-48234019D01*
X153152523Y-48227011D01*
X153143504Y-48221426D01*
X153135412Y-48212399D01*
X165267150Y-48212399D01*
X165267150Y-48212400D01*
X165286070Y-48356108D01*
X165286071Y-48356112D01*
X165341537Y-48490022D01*
X165341538Y-48490024D01*
X165341539Y-48490025D01*
X165429779Y-48605021D01*
X165544775Y-48693261D01*
X165678691Y-48748730D01*
X165805680Y-48765448D01*
X165822399Y-48767650D01*
X165822400Y-48767650D01*
X165822401Y-48767650D01*
X165837377Y-48765678D01*
X165966109Y-48748730D01*
X166100025Y-48693261D01*
X166215021Y-48605021D01*
X166303261Y-48490025D01*
X166358730Y-48356109D01*
X166377650Y-48212400D01*
X166358730Y-48068691D01*
X166303261Y-47934775D01*
X166215021Y-47819779D01*
X166100025Y-47731539D01*
X166100024Y-47731538D01*
X166100022Y-47731537D01*
X165966112Y-47676071D01*
X165966110Y-47676070D01*
X165966109Y-47676070D01*
X165894254Y-47666610D01*
X165822401Y-47657150D01*
X165822399Y-47657150D01*
X165678691Y-47676070D01*
X165678687Y-47676071D01*
X165544777Y-47731537D01*
X165429779Y-47819779D01*
X165341537Y-47934777D01*
X165286071Y-48068687D01*
X165286070Y-48068691D01*
X165267150Y-48212399D01*
X153135412Y-48212399D01*
X153096869Y-48169401D01*
X153085764Y-48100419D01*
X153113716Y-48036385D01*
X153143503Y-48010573D01*
X153163841Y-47997981D01*
X153314564Y-47860579D01*
X153437473Y-47697821D01*
X153528382Y-47515250D01*
X153584197Y-47319083D01*
X153603015Y-47116000D01*
X153584197Y-46912917D01*
X153528382Y-46716750D01*
X153437473Y-46534179D01*
X153344913Y-46411610D01*
X153314562Y-46371418D01*
X153163841Y-46234019D01*
X153163839Y-46234017D01*
X152990442Y-46126655D01*
X152990435Y-46126651D01*
X152895346Y-46089814D01*
X152800256Y-46052976D01*
X152599776Y-46015500D01*
X152395824Y-46015500D01*
X152195344Y-46052976D01*
X152195341Y-46052976D01*
X152195341Y-46052977D01*
X152005164Y-46126651D01*
X152005157Y-46126655D01*
X151831760Y-46234017D01*
X151831758Y-46234019D01*
X151681037Y-46371418D01*
X151558127Y-46534178D01*
X151467222Y-46716739D01*
X151467217Y-46716752D01*
X151411402Y-46912917D01*
X151392585Y-47115999D01*
X104622900Y-47115999D01*
X104622900Y-44405998D01*
X143222190Y-44405998D01*
X143222190Y-44406001D01*
X143242604Y-44691433D01*
X143303428Y-44971037D01*
X143403435Y-45239166D01*
X143540570Y-45490309D01*
X143540575Y-45490317D01*
X143712054Y-45719387D01*
X143712070Y-45719405D01*
X143914394Y-45921729D01*
X143914412Y-45921745D01*
X144143482Y-46093224D01*
X144143490Y-46093229D01*
X144394633Y-46230364D01*
X144394632Y-46230364D01*
X144394636Y-46230365D01*
X144394639Y-46230367D01*
X144662754Y-46330369D01*
X144662760Y-46330370D01*
X144662762Y-46330371D01*
X144942366Y-46391195D01*
X144942368Y-46391195D01*
X144942372Y-46391196D01*
X145196020Y-46409337D01*
X145227799Y-46411610D01*
X145227800Y-46411610D01*
X145227801Y-46411610D01*
X145256395Y-46409564D01*
X145513228Y-46391196D01*
X145604133Y-46371421D01*
X145792837Y-46330371D01*
X145792837Y-46330370D01*
X145792846Y-46330369D01*
X146060961Y-46230367D01*
X146312115Y-46093226D01*
X146541195Y-45921739D01*
X146743539Y-45719395D01*
X146915026Y-45490315D01*
X147052167Y-45239161D01*
X147152169Y-44971046D01*
X147201720Y-44743262D01*
X147212995Y-44691433D01*
X147212995Y-44691432D01*
X147212996Y-44691428D01*
X147233410Y-44406000D01*
X147233410Y-44405998D01*
X155262190Y-44405998D01*
X155262190Y-44406001D01*
X155282604Y-44691433D01*
X155343428Y-44971037D01*
X155443435Y-45239166D01*
X155580570Y-45490309D01*
X155580575Y-45490317D01*
X155752054Y-45719387D01*
X155752070Y-45719405D01*
X155954394Y-45921729D01*
X155954412Y-45921745D01*
X156183482Y-46093224D01*
X156183490Y-46093229D01*
X156434633Y-46230364D01*
X156434632Y-46230364D01*
X156434636Y-46230365D01*
X156434639Y-46230367D01*
X156702754Y-46330369D01*
X156702760Y-46330370D01*
X156702762Y-46330371D01*
X156982366Y-46391195D01*
X156982368Y-46391195D01*
X156982372Y-46391196D01*
X157236020Y-46409337D01*
X157267799Y-46411610D01*
X157267800Y-46411610D01*
X157267801Y-46411610D01*
X157296395Y-46409564D01*
X157553228Y-46391196D01*
X157644133Y-46371421D01*
X157832837Y-46330371D01*
X157832837Y-46330370D01*
X157832846Y-46330369D01*
X158100961Y-46230367D01*
X158352115Y-46093226D01*
X158581195Y-45921739D01*
X158783539Y-45719395D01*
X158955026Y-45490315D01*
X159092167Y-45239161D01*
X159192169Y-44971046D01*
X159241720Y-44743262D01*
X159252995Y-44691433D01*
X159252995Y-44691432D01*
X159252996Y-44691428D01*
X159273410Y-44406000D01*
X159263140Y-44262400D01*
X178317150Y-44262400D01*
X178336055Y-44405998D01*
X178336070Y-44406108D01*
X178336071Y-44406112D01*
X178391537Y-44540022D01*
X178391538Y-44540024D01*
X178391539Y-44540025D01*
X178479779Y-44655021D01*
X178594775Y-44743261D01*
X178728691Y-44798730D01*
X178855680Y-44815448D01*
X178872399Y-44817650D01*
X178872400Y-44817650D01*
X178872401Y-44817650D01*
X178887377Y-44815678D01*
X179016109Y-44798730D01*
X179150025Y-44743261D01*
X179265021Y-44655021D01*
X179353261Y-44540025D01*
X179408730Y-44406109D01*
X179427650Y-44262400D01*
X179408730Y-44118691D01*
X179353261Y-43984775D01*
X179265021Y-43869779D01*
X179150025Y-43781539D01*
X179150024Y-43781538D01*
X179150022Y-43781537D01*
X179016112Y-43726071D01*
X179016110Y-43726070D01*
X179016109Y-43726070D01*
X178944254Y-43716610D01*
X178872401Y-43707150D01*
X178872399Y-43707150D01*
X178728691Y-43726070D01*
X178728687Y-43726071D01*
X178594777Y-43781537D01*
X178479779Y-43869779D01*
X178391537Y-43984777D01*
X178336071Y-44118687D01*
X178336070Y-44118691D01*
X178317150Y-44262400D01*
X159263140Y-44262400D01*
X159252996Y-44120572D01*
X159223455Y-43984775D01*
X159192171Y-43840962D01*
X159192170Y-43840960D01*
X159192169Y-43840954D01*
X159092167Y-43572839D01*
X158955026Y-43321685D01*
X158955024Y-43321682D01*
X158783545Y-43092612D01*
X158783529Y-43092594D01*
X158581205Y-42890270D01*
X158581187Y-42890254D01*
X158352117Y-42718775D01*
X158352109Y-42718770D01*
X158100966Y-42581635D01*
X158100967Y-42581635D01*
X157993715Y-42541632D01*
X157832846Y-42481631D01*
X157832843Y-42481630D01*
X157832837Y-42481628D01*
X157553233Y-42420804D01*
X157267801Y-42400390D01*
X157267799Y-42400390D01*
X156982366Y-42420804D01*
X156702762Y-42481628D01*
X156434633Y-42581635D01*
X156183490Y-42718770D01*
X156183482Y-42718775D01*
X155954412Y-42890254D01*
X155954394Y-42890270D01*
X155752070Y-43092594D01*
X155752054Y-43092612D01*
X155580575Y-43321682D01*
X155580570Y-43321690D01*
X155443435Y-43572833D01*
X155343428Y-43840962D01*
X155282604Y-44120566D01*
X155262190Y-44405998D01*
X147233410Y-44405998D01*
X147212996Y-44120572D01*
X147183455Y-43984775D01*
X147152171Y-43840962D01*
X147152170Y-43840960D01*
X147152169Y-43840954D01*
X147052167Y-43572839D01*
X146915026Y-43321685D01*
X146915024Y-43321682D01*
X146743545Y-43092612D01*
X146743529Y-43092594D01*
X146541205Y-42890270D01*
X146541187Y-42890254D01*
X146312117Y-42718775D01*
X146312109Y-42718770D01*
X146060966Y-42581635D01*
X146060967Y-42581635D01*
X145953715Y-42541632D01*
X145792846Y-42481631D01*
X145792843Y-42481630D01*
X145792837Y-42481628D01*
X145513233Y-42420804D01*
X145227801Y-42400390D01*
X145227799Y-42400390D01*
X144942366Y-42420804D01*
X144662762Y-42481628D01*
X144394633Y-42581635D01*
X144143490Y-42718770D01*
X144143482Y-42718775D01*
X143914412Y-42890254D01*
X143914394Y-42890270D01*
X143712070Y-43092594D01*
X143712054Y-43092612D01*
X143540575Y-43321682D01*
X143540570Y-43321690D01*
X143403435Y-43572833D01*
X143303428Y-43840962D01*
X143242604Y-44120566D01*
X143222190Y-44405998D01*
X104622900Y-44405998D01*
X104622900Y-39065106D01*
X104623018Y-39059697D01*
X104632291Y-38847306D01*
X104640928Y-38649480D01*
X104641868Y-38638747D01*
X104695109Y-38234338D01*
X104696982Y-38223708D01*
X104785270Y-37825468D01*
X104788068Y-37815030D01*
X104910716Y-37426039D01*
X104914416Y-37415873D01*
X105016111Y-37170361D01*
X105070511Y-37039027D01*
X105075069Y-37029253D01*
X105263425Y-36667424D01*
X105268807Y-36658103D01*
X105487974Y-36314080D01*
X105494165Y-36305237D01*
X105742483Y-35981624D01*
X105749421Y-35973355D01*
X106024994Y-35672620D01*
X106032620Y-35664994D01*
X106333355Y-35389421D01*
X106341624Y-35382483D01*
X106665237Y-35134165D01*
X106674080Y-35127974D01*
X107018103Y-34908807D01*
X107027424Y-34903425D01*
X107389253Y-34715069D01*
X107399027Y-34710511D01*
X107775882Y-34554412D01*
X107786029Y-34550719D01*
X108175039Y-34428065D01*
X108185468Y-34425270D01*
X108583708Y-34336982D01*
X108594338Y-34335109D01*
X108998747Y-34281868D01*
X109009480Y-34280928D01*
X109419697Y-34263017D01*
X109425106Y-34262900D01*
X109462282Y-34262900D01*
X191382518Y-34262900D01*
X191419694Y-34262900D01*
X191425102Y-34263017D01*
G37*
G04 #@! TD.AperFunction*
M02*
