G04 #@! TF.GenerationSoftware,KiCad,Pcbnew,8.0.5*
G04 #@! TF.CreationDate,2024-11-12T11:03:32-05:00*
G04 #@! TF.ProjectId,DacAmp,44616341-6d70-42e6-9b69-6361645f7063,rev?*
G04 #@! TF.SameCoordinates,Original*
G04 #@! TF.FileFunction,Copper,L4,Bot*
G04 #@! TF.FilePolarity,Positive*
%FSLAX46Y46*%
G04 Gerber Fmt 4.6, Leading zero omitted, Abs format (unit mm)*
G04 Created by KiCad (PCBNEW 8.0.5) date 2024-11-12 11:03:32*
%MOMM*%
%LPD*%
G01*
G04 APERTURE LIST*
G04 Aperture macros list*
%AMRoundRect*
0 Rectangle with rounded corners*
0 $1 Rounding radius*
0 $2 $3 $4 $5 $6 $7 $8 $9 X,Y pos of 4 corners*
0 Add a 4 corners polygon primitive as box body*
4,1,4,$2,$3,$4,$5,$6,$7,$8,$9,$2,$3,0*
0 Add four circle primitives for the rounded corners*
1,1,$1+$1,$2,$3*
1,1,$1+$1,$4,$5*
1,1,$1+$1,$6,$7*
1,1,$1+$1,$8,$9*
0 Add four rect primitives between the rounded corners*
20,1,$1+$1,$2,$3,$4,$5,0*
20,1,$1+$1,$4,$5,$6,$7,0*
20,1,$1+$1,$6,$7,$8,$9,0*
20,1,$1+$1,$8,$9,$2,$3,0*%
G04 Aperture macros list end*
G04 #@! TA.AperFunction,ComponentPad*
%ADD10C,0.499999*%
G04 #@! TD*
G04 #@! TA.AperFunction,ComponentPad*
%ADD11C,4.500000*%
G04 #@! TD*
G04 #@! TA.AperFunction,ComponentPad*
%ADD12R,1.600000X1.600000*%
G04 #@! TD*
G04 #@! TA.AperFunction,ComponentPad*
%ADD13C,1.600000*%
G04 #@! TD*
G04 #@! TA.AperFunction,ComponentPad*
%ADD14C,1.800000*%
G04 #@! TD*
G04 #@! TA.AperFunction,ComponentPad*
%ADD15R,1.700000X1.700000*%
G04 #@! TD*
G04 #@! TA.AperFunction,ComponentPad*
%ADD16C,1.700000*%
G04 #@! TD*
G04 #@! TA.AperFunction,ComponentPad*
%ADD17C,3.500000*%
G04 #@! TD*
G04 #@! TA.AperFunction,SMDPad,CuDef*
%ADD18RoundRect,0.250000X-0.337500X-0.475000X0.337500X-0.475000X0.337500X0.475000X-0.337500X0.475000X0*%
G04 #@! TD*
G04 #@! TA.AperFunction,SMDPad,CuDef*
%ADD19RoundRect,0.155000X-0.212500X-0.155000X0.212500X-0.155000X0.212500X0.155000X-0.212500X0.155000X0*%
G04 #@! TD*
G04 #@! TA.AperFunction,SMDPad,CuDef*
%ADD20RoundRect,0.155000X0.212500X0.155000X-0.212500X0.155000X-0.212500X-0.155000X0.212500X-0.155000X0*%
G04 #@! TD*
G04 #@! TA.AperFunction,ViaPad*
%ADD21C,0.600000*%
G04 #@! TD*
G04 #@! TA.AperFunction,ViaPad*
%ADD22C,0.500000*%
G04 #@! TD*
G04 #@! TA.AperFunction,Conductor*
%ADD23C,0.508000*%
G04 #@! TD*
G04 #@! TA.AperFunction,Conductor*
%ADD24C,0.200000*%
G04 #@! TD*
G04 #@! TA.AperFunction,Conductor*
%ADD25C,0.254000*%
G04 #@! TD*
G04 APERTURE END LIST*
D10*
X129027799Y-47527003D03*
X128327800Y-47027003D03*
X129727803Y-47027003D03*
X129027799Y-46527003D03*
D11*
X40277800Y-32807800D03*
X135527800Y-119167800D03*
D12*
X55876800Y-80177225D03*
D13*
X55876800Y-78177225D03*
D11*
X40277800Y-119167800D03*
D12*
X97626498Y-104807800D03*
D13*
X101126498Y-104807800D03*
D12*
X39351000Y-99197575D03*
D13*
X39351000Y-101197575D03*
D11*
X135527800Y-32807800D03*
D14*
X58654800Y-122606800D03*
X63654800Y-122606800D03*
X68654800Y-122606800D03*
X58654800Y-117606800D03*
X63654800Y-117606800D03*
X68654800Y-117606800D03*
D12*
X54264000Y-99197575D03*
D13*
X54264000Y-101197575D03*
D12*
X69723000Y-83449575D03*
D13*
X69723000Y-85449575D03*
D15*
X86557800Y-40266000D03*
D16*
X89057800Y-40266000D03*
X89057800Y-38266000D03*
X86557800Y-38266000D03*
D17*
X81787800Y-35556000D03*
X93827800Y-35556000D03*
D12*
X124195800Y-76609302D03*
D13*
X124195800Y-73109302D03*
D12*
X41040000Y-80177225D03*
D13*
X41040000Y-78177225D03*
D12*
X69700800Y-97703225D03*
D13*
X69700800Y-99703225D03*
D12*
X127090498Y-104528800D03*
D13*
X130590498Y-104528800D03*
D18*
X82950100Y-52314400D03*
X85025100Y-52314400D03*
D19*
X84055900Y-59507200D03*
X85190900Y-59507200D03*
D20*
X90448900Y-52241600D03*
X89313900Y-52241600D03*
D21*
X135502400Y-101362400D03*
X138042400Y-101362400D03*
X135502400Y-103902400D03*
X138042400Y-103902400D03*
X135502400Y-108982400D03*
X138042400Y-108982400D03*
X135502400Y-111522400D03*
X138042400Y-111522400D03*
X125342400Y-111522400D03*
X127882400Y-111522400D03*
X125342400Y-114062400D03*
X127882400Y-114062400D03*
X130422400Y-111522400D03*
X132962400Y-111522400D03*
X130422400Y-114062400D03*
X132962400Y-114062400D03*
X125342400Y-116602400D03*
X127882400Y-116602400D03*
X125342400Y-119142400D03*
X127882400Y-119142400D03*
X125342400Y-121682400D03*
X127882400Y-121682400D03*
X125342400Y-124222400D03*
X127882400Y-124222400D03*
X99942400Y-40402400D03*
X102482400Y-40402400D03*
X99942400Y-42942400D03*
X102482400Y-42942400D03*
X102482400Y-35322400D03*
X105022400Y-35322400D03*
X102482400Y-37862400D03*
X105022400Y-37862400D03*
X107562400Y-35322400D03*
X110102400Y-35322400D03*
X107562400Y-37862400D03*
X110102400Y-37862400D03*
X112642400Y-35322400D03*
X115182400Y-35322400D03*
X112642400Y-37862400D03*
X115182400Y-37862400D03*
X117722400Y-35322400D03*
X120262400Y-35322400D03*
X117722400Y-37862400D03*
X120262400Y-37862400D03*
X122802400Y-35322400D03*
X125342400Y-35322400D03*
X122802400Y-37862400D03*
X125342400Y-37862400D03*
X127882400Y-35322400D03*
X130422400Y-35322400D03*
X127882400Y-37862400D03*
X130422400Y-37862400D03*
X127882400Y-30242400D03*
X130422400Y-30242400D03*
X127882400Y-32782400D03*
X130422400Y-32782400D03*
X122802400Y-30242400D03*
X125342400Y-30242400D03*
X122802400Y-32782400D03*
X125342400Y-32782400D03*
X117722400Y-30242400D03*
X120262400Y-30242400D03*
X117722400Y-32782400D03*
X120262400Y-32782400D03*
X112642400Y-30242400D03*
X115182400Y-30242400D03*
X112642400Y-32782400D03*
X115182400Y-32782400D03*
X107562400Y-30242400D03*
X110102400Y-30242400D03*
X107562400Y-32782400D03*
X110102400Y-32782400D03*
X102482400Y-30242400D03*
X105022400Y-30242400D03*
X102482400Y-32782400D03*
X105022400Y-32782400D03*
X122802400Y-68342400D03*
X125342400Y-68342400D03*
X122802400Y-70882400D03*
X125342400Y-70882400D03*
X127882400Y-68342400D03*
X130422400Y-68342400D03*
X127882400Y-70882400D03*
X130422400Y-70882400D03*
X127882400Y-73422400D03*
X130422400Y-73422400D03*
X127882400Y-75962400D03*
X130422400Y-75962400D03*
X127882400Y-78502400D03*
X130422400Y-78502400D03*
X127882400Y-81042400D03*
X130422400Y-81042400D03*
X127882400Y-83582400D03*
X130422400Y-83582400D03*
X127882400Y-86122400D03*
X130422400Y-86122400D03*
X132962400Y-83582400D03*
X135502400Y-83582400D03*
X132962400Y-86122400D03*
X135502400Y-86122400D03*
X132962400Y-78502400D03*
X135502400Y-78502400D03*
X132962400Y-81042400D03*
X135502400Y-81042400D03*
X132962400Y-73422400D03*
X135502400Y-73422400D03*
X132962400Y-75962400D03*
X135502400Y-75962400D03*
X132962400Y-68342400D03*
X135502400Y-68342400D03*
X132962400Y-70882400D03*
X135502400Y-70882400D03*
X132962400Y-63262400D03*
X135502400Y-63262400D03*
X132962400Y-65802400D03*
X135502400Y-65802400D03*
X127882400Y-63262400D03*
X130422400Y-63262400D03*
X127882400Y-65802400D03*
X130422400Y-65802400D03*
X122802400Y-63262400D03*
X125342400Y-63262400D03*
X122802400Y-65802400D03*
X125342400Y-65802400D03*
X132962400Y-58182400D03*
X135502400Y-58182400D03*
X132962400Y-60722400D03*
X135502400Y-60722400D03*
X127882400Y-58182400D03*
X130422400Y-58182400D03*
X127882400Y-60722400D03*
X130422400Y-60722400D03*
X122802400Y-58182400D03*
X125342400Y-58182400D03*
X122802400Y-60722400D03*
X125342400Y-60722400D03*
X117722400Y-96282400D03*
X120262400Y-96282400D03*
X117722400Y-98822400D03*
X120262400Y-98822400D03*
X112642400Y-96282400D03*
X115182400Y-96282400D03*
X112642400Y-98822400D03*
X115182400Y-98822400D03*
X122802400Y-101362400D03*
X122802400Y-103902400D03*
X117722400Y-101362400D03*
X120262400Y-101362400D03*
X117722400Y-103902400D03*
X120262400Y-103902400D03*
X112642400Y-101362400D03*
X115182400Y-101362400D03*
X112642400Y-103902400D03*
X115182400Y-103902400D03*
X107562400Y-101362400D03*
X110102400Y-101362400D03*
X107562400Y-103902400D03*
X110102400Y-103902400D03*
X102482400Y-111522400D03*
X105022400Y-111522400D03*
X102482400Y-114062400D03*
X105022400Y-114062400D03*
X97402400Y-111522400D03*
X99942400Y-111522400D03*
X97402400Y-114062400D03*
X99942400Y-114062400D03*
X97402400Y-116602400D03*
X99942400Y-116602400D03*
X97402400Y-119142400D03*
X99942400Y-119142400D03*
X102482400Y-116602400D03*
X105022400Y-116602400D03*
X102482400Y-119142400D03*
X105022400Y-119142400D03*
X102482400Y-121682400D03*
X105022400Y-121682400D03*
X102482400Y-124222400D03*
X105022400Y-124222400D03*
X97402400Y-121682400D03*
X99942400Y-121682400D03*
X97402400Y-124222400D03*
X99942400Y-124222400D03*
X92322400Y-121682400D03*
X94862400Y-121682400D03*
X92322400Y-124222400D03*
X94862400Y-124222400D03*
X92322400Y-116602400D03*
X94862400Y-116602400D03*
X92322400Y-119142400D03*
X94862400Y-119142400D03*
X87242400Y-121682400D03*
X89782400Y-121682400D03*
X87242400Y-124222400D03*
X89782400Y-124222400D03*
X92322400Y-106442400D03*
X94862400Y-106442400D03*
X92322400Y-108982400D03*
X94862400Y-108982400D03*
X92322400Y-111522400D03*
X94862400Y-111522400D03*
X92322400Y-114062400D03*
X94862400Y-114062400D03*
X87242400Y-111522400D03*
X89782400Y-111522400D03*
X87242400Y-114062400D03*
X89782400Y-114062400D03*
X87242400Y-116602400D03*
X89782400Y-116602400D03*
X87242400Y-119142400D03*
X89782400Y-119142400D03*
X82162400Y-116602400D03*
X84702400Y-116602400D03*
X82162400Y-119142400D03*
X84702400Y-119142400D03*
X82162400Y-121682400D03*
X84702400Y-121682400D03*
X82162400Y-124222400D03*
X84702400Y-124222400D03*
X77082400Y-121682400D03*
X79622400Y-121682400D03*
X77082400Y-124222400D03*
X79622400Y-124222400D03*
X77082400Y-116602400D03*
X79622400Y-116602400D03*
X77082400Y-119142400D03*
X79622400Y-119142400D03*
X82162400Y-111522400D03*
X84702400Y-111522400D03*
X82162400Y-114062400D03*
X84702400Y-114062400D03*
X87242400Y-106442400D03*
X89782400Y-106442400D03*
X87242400Y-108982400D03*
X89782400Y-108982400D03*
X94862400Y-103902400D03*
X92322400Y-103902400D03*
X89782400Y-103902400D03*
X87242400Y-103902400D03*
X92322400Y-96282400D03*
X89782400Y-96282400D03*
X94862400Y-98822400D03*
X92322400Y-98822400D03*
X89782400Y-98822400D03*
X87242400Y-98822400D03*
X105022400Y-70882400D03*
X107562400Y-70882400D03*
X105022400Y-73422400D03*
X94862400Y-55642400D03*
X97402400Y-55642400D03*
X94862400Y-58182400D03*
X97402400Y-58182400D03*
X99942400Y-55642400D03*
X102482400Y-55642400D03*
X99942400Y-58182400D03*
X102482400Y-58182400D03*
X105022400Y-55642400D03*
X107562400Y-55642400D03*
X105022400Y-58182400D03*
X107562400Y-58182400D03*
X105022400Y-60722400D03*
X107562400Y-60722400D03*
X105022400Y-63262400D03*
X107562400Y-63262400D03*
X105022400Y-65802400D03*
X107562400Y-65802400D03*
X105022400Y-68342400D03*
X107562400Y-68342400D03*
X99942400Y-65802400D03*
X102482400Y-65802400D03*
X99942400Y-68342400D03*
X102482400Y-68342400D03*
X99942400Y-60722400D03*
X102482400Y-60722400D03*
X99942400Y-63262400D03*
X102482400Y-63262400D03*
X94862400Y-60722400D03*
X97402400Y-60722400D03*
X94862400Y-63262400D03*
X97402400Y-63262400D03*
X94862400Y-65802400D03*
X97402400Y-65802400D03*
X94862400Y-68342400D03*
X97402400Y-68342400D03*
X102482400Y-78502400D03*
X102482400Y-75962400D03*
X74542400Y-78502400D03*
X79622400Y-75962400D03*
X77082400Y-75962400D03*
X74542400Y-75962400D03*
X99942400Y-70882400D03*
X102482400Y-70882400D03*
X99942400Y-73422400D03*
X102482400Y-73422400D03*
X97402400Y-75962400D03*
X99942400Y-75962400D03*
X97402400Y-78502400D03*
X99942400Y-78502400D03*
X94862400Y-70882400D03*
X97402400Y-70882400D03*
X94862400Y-73422400D03*
X97402400Y-73422400D03*
X92322400Y-75962400D03*
X94862400Y-75962400D03*
X92322400Y-78502400D03*
X94862400Y-78502400D03*
X87242400Y-75962400D03*
X89782400Y-75962400D03*
X87242400Y-78502400D03*
X89782400Y-78502400D03*
X82162400Y-75962400D03*
X84702400Y-75962400D03*
X82162400Y-78502400D03*
X84702400Y-78502400D03*
X89782400Y-70882400D03*
X92322400Y-70882400D03*
X89782400Y-73422400D03*
X92322400Y-73422400D03*
X84702400Y-70882400D03*
X87242400Y-70882400D03*
X84702400Y-73422400D03*
X87242400Y-73422400D03*
X61842400Y-70882400D03*
X59302400Y-73422400D03*
X61842400Y-73422400D03*
X59302400Y-75962400D03*
X61842400Y-75962400D03*
X59302400Y-78502400D03*
X61842400Y-78502400D03*
X59302400Y-81042400D03*
X61842400Y-81042400D03*
X59302400Y-83582400D03*
X61842400Y-83582400D03*
X64382400Y-81042400D03*
X66922400Y-81042400D03*
X64382400Y-83582400D03*
X66922400Y-83582400D03*
X64382400Y-75962400D03*
X66922400Y-75962400D03*
X64382400Y-78502400D03*
X66922400Y-78502400D03*
X69462400Y-75962400D03*
X72002400Y-75962400D03*
X69462400Y-78502400D03*
X72002400Y-78502400D03*
X79622400Y-70882400D03*
X82162400Y-70882400D03*
X79622400Y-73422400D03*
X82162400Y-73422400D03*
X74542400Y-70882400D03*
X77082400Y-70882400D03*
X74542400Y-73422400D03*
X77082400Y-73422400D03*
X69462400Y-70882400D03*
X72002400Y-70882400D03*
X69462400Y-73422400D03*
X72002400Y-73422400D03*
X64382400Y-70882400D03*
X66922400Y-70882400D03*
X64382400Y-73422400D03*
X66922400Y-73422400D03*
X77082400Y-91202400D03*
X77082400Y-88662400D03*
X74542400Y-88662400D03*
X72002400Y-88662400D03*
X69462400Y-88662400D03*
X66922400Y-88662400D03*
X79622400Y-88662400D03*
X74542400Y-91202400D03*
X72002400Y-91202400D03*
X69462400Y-91202400D03*
X66922400Y-91202400D03*
X66922400Y-96282400D03*
X66922400Y-98822400D03*
X66922400Y-101362400D03*
X66922400Y-103902400D03*
X77082400Y-103902400D03*
X72002400Y-103902400D03*
X74542400Y-103902400D03*
X74542400Y-106442400D03*
X72002400Y-106442400D03*
X72002400Y-108982400D03*
X69462400Y-108982400D03*
X69462400Y-111522400D03*
X79622400Y-106442400D03*
X79622400Y-108982400D03*
X77082400Y-108982400D03*
X77082400Y-111522400D03*
X74542400Y-111522400D03*
X74542400Y-114062400D03*
X56762400Y-98822400D03*
X59302400Y-98822400D03*
X56762400Y-101362400D03*
X59302400Y-101362400D03*
X59302400Y-103902400D03*
X61842400Y-103902400D03*
X59302400Y-106442400D03*
X61842400Y-106442400D03*
X56762400Y-108982400D03*
X59302400Y-108982400D03*
X56762400Y-111522400D03*
X59302400Y-111522400D03*
X49142400Y-114062400D03*
X51682400Y-114062400D03*
X49142400Y-116602400D03*
X51682400Y-116602400D03*
X49142400Y-108982400D03*
X51682400Y-108982400D03*
X49142400Y-111522400D03*
X51682400Y-111522400D03*
X49142400Y-103902400D03*
X51682400Y-103902400D03*
X49142400Y-106442400D03*
X51682400Y-106442400D03*
X49142400Y-98822400D03*
X51682400Y-98822400D03*
X49142400Y-101362400D03*
X51682400Y-101362400D03*
X44062400Y-108982400D03*
X46602400Y-108982400D03*
X44062400Y-111522400D03*
X46602400Y-111522400D03*
X44062400Y-103902400D03*
X46602400Y-103902400D03*
X44062400Y-106442400D03*
X46602400Y-106442400D03*
X44062400Y-98822400D03*
X46602400Y-98822400D03*
X44062400Y-101362400D03*
X46602400Y-101362400D03*
X36442400Y-81042400D03*
X38982400Y-81042400D03*
X36442400Y-83582400D03*
X36442400Y-75962400D03*
X38982400Y-75962400D03*
X36442400Y-78502400D03*
X38982400Y-78502400D03*
X36442400Y-70882400D03*
X38982400Y-70882400D03*
X36442400Y-73422400D03*
X38982400Y-73422400D03*
X36442400Y-65802400D03*
X36442400Y-68342400D03*
X38982400Y-65802400D03*
X41522400Y-65802400D03*
X38982400Y-68342400D03*
X41522400Y-68342400D03*
X44062400Y-81042400D03*
X46602400Y-81042400D03*
X44062400Y-83582400D03*
X46602400Y-83582400D03*
X49142400Y-81042400D03*
X51682400Y-81042400D03*
X49142400Y-83582400D03*
X51682400Y-83582400D03*
X49142400Y-75962400D03*
X51682400Y-75962400D03*
X49142400Y-78502400D03*
X51682400Y-78502400D03*
X44062400Y-75962400D03*
X46602400Y-75962400D03*
X44062400Y-78502400D03*
X46602400Y-78502400D03*
X44062400Y-70882400D03*
X44062400Y-73422400D03*
X49142400Y-65802400D03*
X46602400Y-68342400D03*
X49142400Y-68342400D03*
X46602400Y-70882400D03*
X49142400Y-70882400D03*
X46602400Y-73422400D03*
X49142400Y-73422400D03*
X51682400Y-70882400D03*
X54222400Y-70882400D03*
X51682400Y-73422400D03*
X54222400Y-73422400D03*
X54222400Y-60722400D03*
X51682400Y-63262400D03*
X54222400Y-63262400D03*
X51682400Y-65802400D03*
X54222400Y-65802400D03*
X51682400Y-68342400D03*
X54222400Y-68342400D03*
X56762400Y-65802400D03*
X59302400Y-65802400D03*
X56762400Y-68342400D03*
X59302400Y-68342400D03*
X77082400Y-63262400D03*
X74542400Y-63262400D03*
X72002400Y-63262400D03*
X69462400Y-63262400D03*
X66922400Y-63262400D03*
X64382400Y-63262400D03*
X61842400Y-63262400D03*
X56762400Y-63262400D03*
X59302400Y-60722400D03*
X59302400Y-63262400D03*
X56762400Y-60722400D03*
X61842400Y-60722400D03*
X64382400Y-60722400D03*
X66922400Y-60722400D03*
X69462400Y-60722400D03*
X72002400Y-60722400D03*
X74542400Y-60722400D03*
X77082400Y-60722400D03*
X49142400Y-58182400D03*
X46602400Y-58182400D03*
X49142400Y-60722400D03*
X44062400Y-58182400D03*
X46602400Y-60722400D03*
X46602400Y-63262400D03*
X44062400Y-63262400D03*
X44062400Y-60722400D03*
X41522400Y-63262400D03*
X41522400Y-58182400D03*
X38982400Y-58182400D03*
X41522400Y-60722400D03*
X36442400Y-58182400D03*
X38982400Y-60722400D03*
X38982400Y-63262400D03*
X36442400Y-63262400D03*
X36442400Y-60722400D03*
X41522400Y-55642400D03*
X41522400Y-50562400D03*
X51682400Y-50562400D03*
X56762400Y-50562400D03*
X61842400Y-53102400D03*
X59302400Y-55642400D03*
X44062400Y-55642400D03*
X38982400Y-50562400D03*
X49142400Y-50562400D03*
X56762400Y-53102400D03*
X49142400Y-53102400D03*
X46602400Y-50562400D03*
X41522400Y-53102400D03*
X44062400Y-50562400D03*
X61842400Y-50562400D03*
X36442400Y-50562400D03*
X51682400Y-53102400D03*
X38982400Y-53102400D03*
X38982400Y-55642400D03*
X61842400Y-55642400D03*
X54222400Y-53102400D03*
X51682400Y-55642400D03*
X59302400Y-53102400D03*
X64382400Y-53102400D03*
X64382400Y-50562400D03*
X44062400Y-53102400D03*
X49142400Y-55642400D03*
X54222400Y-50562400D03*
X46602400Y-55642400D03*
X36442400Y-55642400D03*
X46602400Y-53102400D03*
X36442400Y-53102400D03*
X64382400Y-55642400D03*
X54222400Y-55642400D03*
X59302400Y-50562400D03*
X56762400Y-55642400D03*
X64382400Y-48022400D03*
X61842400Y-45482400D03*
X59302400Y-48022400D03*
X59302400Y-45482400D03*
X61842400Y-48022400D03*
X64382400Y-45482400D03*
X61842400Y-42942400D03*
X64382400Y-42942400D03*
X59302400Y-42942400D03*
X56762400Y-48022400D03*
X54222400Y-45482400D03*
X51682400Y-48022400D03*
X51682400Y-45482400D03*
X54222400Y-48022400D03*
X56762400Y-45482400D03*
X54222400Y-42942400D03*
X56762400Y-42942400D03*
X51682400Y-42942400D03*
X49142400Y-48022400D03*
X46602400Y-45482400D03*
X44062400Y-48022400D03*
X44062400Y-45482400D03*
X46602400Y-48022400D03*
X49142400Y-45482400D03*
X46602400Y-42942400D03*
X49142400Y-42942400D03*
X44062400Y-42942400D03*
X41522400Y-48022400D03*
X38982400Y-45482400D03*
X36442400Y-48022400D03*
X36442400Y-45482400D03*
X38982400Y-48022400D03*
X41522400Y-45482400D03*
X38982400Y-42942400D03*
X41522400Y-42942400D03*
X36442400Y-42942400D03*
X64382400Y-35322400D03*
X56762400Y-35322400D03*
X64382400Y-40402400D03*
X66922400Y-40402400D03*
X54222400Y-40402400D03*
X69462400Y-40402400D03*
X49142400Y-40402400D03*
X61842400Y-40402400D03*
X59302400Y-40402400D03*
X56762400Y-40402400D03*
X51682400Y-40402400D03*
X54222400Y-35322400D03*
X59302400Y-35322400D03*
X51682400Y-37862400D03*
X69462400Y-37862400D03*
X66922400Y-32782400D03*
X51682400Y-32782400D03*
X56762400Y-37862400D03*
X49142400Y-37862400D03*
X66922400Y-37862400D03*
X61842400Y-37862400D03*
X59302400Y-37862400D03*
X56762400Y-32782400D03*
X66922400Y-30242400D03*
X64382400Y-30242400D03*
X64382400Y-37862400D03*
X61842400Y-32782400D03*
X54222400Y-32782400D03*
X59302400Y-32782400D03*
X49142400Y-35322400D03*
X61842400Y-35322400D03*
X69462400Y-35322400D03*
X49142400Y-32782400D03*
X51682400Y-30242400D03*
X64382400Y-32782400D03*
X66922400Y-35322400D03*
X51682400Y-35322400D03*
X54222400Y-37862400D03*
X69462400Y-32782400D03*
X56762400Y-30242400D03*
X49142400Y-30242400D03*
X69462400Y-30242400D03*
X61842400Y-30242400D03*
X54222400Y-30242400D03*
X59302400Y-30242400D03*
X49269400Y-88408400D03*
X83051400Y-84979400D03*
X106292400Y-78502400D03*
X113404400Y-82947400D03*
X77336400Y-101489400D03*
X76955400Y-87265400D03*
X52190400Y-88535400D03*
X38347400Y-88408400D03*
X36188400Y-88662400D03*
X107765600Y-47463600D03*
X121151400Y-121174400D03*
X90290400Y-62094000D03*
X112845600Y-40097600D03*
X85007200Y-53712000D03*
X131438400Y-96028400D03*
X89934800Y-65700800D03*
X124834400Y-47006400D03*
X83280000Y-64532400D03*
X105124000Y-88408400D03*
X90925400Y-95266400D03*
X74161400Y-99838400D03*
X53079400Y-96155400D03*
X52063400Y-85614400D03*
X51174400Y-96155400D03*
X41141400Y-88789400D03*
X72811800Y-84899800D03*
X36188400Y-96282400D03*
X115334800Y-45279200D03*
X84143600Y-48682800D03*
X77590400Y-78096000D03*
X113760000Y-40097600D03*
X58540400Y-88535400D03*
X108984800Y-47463600D03*
X113760000Y-41113600D03*
X82365600Y-48479600D03*
X106089200Y-43399600D03*
X131387600Y-47565200D03*
X132251200Y-48530400D03*
X106394000Y-41316800D03*
X135055500Y-105741500D03*
X43427400Y-88535400D03*
X75101200Y-41469200D03*
X133876800Y-52899200D03*
X117112800Y-45279200D03*
X97504000Y-33747600D03*
X133064000Y-49495600D03*
X83280000Y-45990400D03*
X38220400Y-96282400D03*
X89325200Y-53683800D03*
X133775200Y-50562400D03*
X85159600Y-58080800D03*
X110254800Y-47870000D03*
X55492400Y-88662400D03*
X121786400Y-113681400D03*
X112591600Y-48276400D03*
X89020400Y-43704400D03*
X133826000Y-51781600D03*
X111575600Y-40097600D03*
X37102800Y-85563600D03*
X125545600Y-88408400D03*
X104641400Y-106950400D03*
X88156800Y-62195600D03*
X95878400Y-43704400D03*
X112744000Y-69917200D03*
X81248000Y-48479600D03*
X77336400Y-92116800D03*
X133876800Y-54016800D03*
X108959400Y-121047400D03*
X107664000Y-39488000D03*
D22*
X83838800Y-46752400D03*
D21*
X134689600Y-88357600D03*
X74186800Y-47565200D03*
X84042000Y-62094000D03*
X112490000Y-76978400D03*
X43960800Y-90186400D03*
X101974400Y-95901400D03*
X114572800Y-41926400D03*
X111372400Y-48073200D03*
X58845200Y-90186400D03*
X95573600Y-88357600D03*
X84042000Y-58080800D03*
X90442800Y-53762800D03*
X84448400Y-46142800D03*
X107816400Y-42383600D03*
X111677200Y-42332800D03*
D22*
X114217200Y-43755200D03*
X81959200Y-52289600D03*
D21*
X57270400Y-88281400D03*
X52190400Y-95520400D03*
X42284400Y-88662400D03*
X37204400Y-95520400D03*
X97656400Y-88357600D03*
X79419200Y-92116800D03*
X127628400Y-88408400D03*
X124224800Y-53712000D03*
X43960800Y-92269200D03*
X136772400Y-88357600D03*
X58794400Y-92269200D03*
X79673200Y-78096000D03*
X107206800Y-88408400D03*
X114877600Y-69764800D03*
X94608400Y-93234400D03*
X94608400Y-94758400D03*
X98799400Y-96028400D03*
X98799400Y-94377400D03*
X100069400Y-95647400D03*
X100069400Y-93234400D03*
X124580400Y-95520400D03*
X124528488Y-93488400D03*
X128709044Y-94442044D03*
X128771400Y-96028400D03*
X129721641Y-93479043D03*
X129727000Y-95647400D03*
X114725200Y-75708400D03*
X114268000Y-77892800D03*
X81527400Y-99203400D03*
X81527400Y-95393400D03*
D23*
X99815400Y-84979400D02*
X83051400Y-84979400D01*
X106292400Y-78502400D02*
X99815400Y-84979400D01*
X52063400Y-88408400D02*
X52190400Y-88535400D01*
X49269400Y-88408400D02*
X52063400Y-88408400D01*
X38982400Y-88408400D02*
X38347400Y-88408400D01*
X39744400Y-87646400D02*
X38982400Y-88408400D01*
X47618400Y-87646400D02*
X39744400Y-87646400D01*
X49269400Y-88408400D02*
X48380400Y-88408400D01*
X48380400Y-88408400D02*
X47618400Y-87646400D01*
X113404400Y-92472400D02*
X113404400Y-82947400D01*
X77336400Y-101489400D02*
X104387400Y-101489400D01*
X108578400Y-97298400D02*
X113404400Y-92472400D01*
X104387400Y-101489400D02*
X108578400Y-97298400D01*
X74107575Y-86703575D02*
X74669400Y-87265400D01*
X74669400Y-87265400D02*
X76955400Y-87265400D01*
X53587400Y-87519400D02*
X54403225Y-86703575D01*
X52571400Y-88535400D02*
X53587400Y-87519400D01*
X52190400Y-88535400D02*
X52571400Y-88535400D01*
X54403225Y-86703575D02*
X74107575Y-86703575D01*
X38093400Y-88662400D02*
X38347400Y-88408400D01*
X36188400Y-88662400D02*
X38093400Y-88662400D01*
X59759600Y-93234400D02*
X58794400Y-92269200D01*
X79419200Y-92116800D02*
X78301600Y-93234400D01*
X78301600Y-93234400D02*
X59759600Y-93234400D01*
X44494200Y-92269200D02*
X43960800Y-92269200D01*
X49523400Y-97298400D02*
X44494200Y-92269200D01*
X55619400Y-97298400D02*
X49523400Y-97298400D01*
X58794400Y-94123400D02*
X55619400Y-97298400D01*
X58794400Y-92269200D02*
X58794400Y-94123400D01*
X81984600Y-80407400D02*
X81984600Y-89551400D01*
X79673200Y-78096000D02*
X81984600Y-80407400D01*
X81984600Y-89551400D02*
X79419200Y-92116800D01*
X96132400Y-89551400D02*
X81984600Y-89551400D01*
X97326200Y-88357600D02*
X96132400Y-89551400D01*
X97656400Y-88357600D02*
X97326200Y-88357600D01*
X99764600Y-88357600D02*
X97656400Y-88357600D01*
X100958400Y-89551400D02*
X99764600Y-88357600D01*
X106063800Y-89551400D02*
X100958400Y-89551400D01*
X107206800Y-88408400D02*
X106063800Y-89551400D01*
X111118400Y-84496800D02*
X107206800Y-88408400D01*
X111118400Y-73524000D02*
X111118400Y-84496800D01*
X114877600Y-69764800D02*
X111118400Y-73524000D01*
X135553200Y-87138400D02*
X136772400Y-88357600D01*
X127628400Y-88408400D02*
X129279400Y-88408400D01*
X129279400Y-88408400D02*
X130549400Y-87138400D01*
X130549400Y-87138400D02*
X135553200Y-87138400D01*
X126612400Y-84090400D02*
X126612400Y-87392400D01*
X126612400Y-87392400D02*
X127628400Y-88408400D01*
X114877600Y-72355600D02*
X126612400Y-84090400D01*
X114877600Y-69764800D02*
X114877600Y-72355600D01*
D24*
X89325200Y-53683800D02*
X89313900Y-53672500D01*
D23*
X85190900Y-58112100D02*
X85159600Y-58080800D01*
X85190900Y-59507200D02*
X85190900Y-58112100D01*
X89313900Y-53672500D02*
X89313900Y-52241600D01*
D25*
X85025100Y-52314400D02*
X85025100Y-53694100D01*
X85025100Y-53694100D02*
X85007200Y-53712000D01*
D23*
X84055900Y-59507200D02*
X84055900Y-58094700D01*
X84055900Y-58094700D02*
X84042000Y-58080800D01*
X95621600Y-52241600D02*
X90448900Y-52241600D01*
X105479600Y-42383600D02*
X95621600Y-52241600D01*
D24*
X90442800Y-53762800D02*
X90448900Y-53756700D01*
D23*
X90448900Y-53756700D02*
X90448900Y-52241600D01*
D25*
X114217200Y-43755200D02*
X112794800Y-42332800D01*
D23*
X84448400Y-46142800D02*
X90448900Y-52143300D01*
D25*
X112794800Y-42332800D02*
X111677200Y-42332800D01*
D23*
X107816400Y-42383600D02*
X105479600Y-42383600D01*
X90448900Y-52143300D02*
X90448900Y-52241600D01*
D25*
X81984000Y-52314400D02*
X81959200Y-52289600D01*
X82950100Y-52314400D02*
X81984000Y-52314400D01*
X52190400Y-93361400D02*
X57270400Y-88281400D01*
X52190400Y-95520400D02*
X52190400Y-93361400D01*
X37204400Y-95520400D02*
X37204400Y-94250400D01*
X37204400Y-94250400D02*
X38982400Y-92472400D01*
X42284400Y-89170400D02*
X42284400Y-88662400D01*
X38982400Y-92472400D02*
X42284400Y-89170400D01*
D23*
X124224800Y-53712000D02*
X114877600Y-63059200D01*
X114877600Y-63059200D02*
X114877600Y-69764800D01*
X94608400Y-93234400D02*
X94608400Y-94758400D01*
X98799400Y-96028400D02*
X98799400Y-94377400D01*
X100069400Y-95647400D02*
X100069400Y-93234400D01*
X124528488Y-93488400D02*
X124580400Y-93540312D01*
X124580400Y-93540312D02*
X124580400Y-95520400D01*
X128771400Y-94504400D02*
X128709044Y-94442044D01*
X128771400Y-96028400D02*
X128771400Y-94504400D01*
X129727000Y-95647400D02*
X129787400Y-95587000D01*
X129787400Y-95587000D02*
X129787400Y-93544802D01*
X129787400Y-93544802D02*
X129721641Y-93479043D01*
X114725200Y-75708400D02*
X114725200Y-77435600D01*
X114725200Y-77435600D02*
X114268000Y-77892800D01*
X81527400Y-99203400D02*
X81527400Y-95393400D01*
G04 #@! TA.AperFunction,Conductor*
G36*
X130449461Y-25388345D02*
G01*
X131121166Y-25406541D01*
X131127857Y-25406904D01*
X131795895Y-25461301D01*
X131802550Y-25462024D01*
X132466703Y-25552513D01*
X132473275Y-25553591D01*
X133131520Y-25679897D01*
X133138060Y-25681336D01*
X133788532Y-25843101D01*
X133794970Y-25844889D01*
X134435711Y-26041627D01*
X134442040Y-26043759D01*
X135071203Y-26274901D01*
X135077418Y-26277378D01*
X135693131Y-26542239D01*
X135699205Y-26545049D01*
X135918370Y-26653745D01*
X136299669Y-26842852D01*
X136305598Y-26845996D01*
X136602897Y-27014082D01*
X136889040Y-27175860D01*
X136894787Y-27179317D01*
X137459547Y-27540304D01*
X137465064Y-27544045D01*
X137794873Y-27780947D01*
X138009447Y-27935076D01*
X138014793Y-27939140D01*
X138537174Y-28359040D01*
X138542293Y-28363387D01*
X139041210Y-28810986D01*
X139046085Y-28815605D01*
X139519994Y-29289514D01*
X139524613Y-29294389D01*
X139972212Y-29793306D01*
X139976559Y-29798425D01*
X140396459Y-30320806D01*
X140400523Y-30326152D01*
X140637411Y-30655940D01*
X140791548Y-30870527D01*
X140795309Y-30876073D01*
X141156277Y-31440805D01*
X141159739Y-31446559D01*
X141489601Y-32029997D01*
X141492747Y-32035930D01*
X141790545Y-32636384D01*
X141793365Y-32642479D01*
X142058216Y-33258169D01*
X142060702Y-33264408D01*
X142291834Y-33893542D01*
X142293978Y-33899906D01*
X142490705Y-34540613D01*
X142492502Y-34547084D01*
X142654261Y-35197530D01*
X142655704Y-35204089D01*
X142782003Y-35862297D01*
X142783090Y-35868924D01*
X142873573Y-36533038D01*
X142874299Y-36539714D01*
X142928694Y-37207735D01*
X142929058Y-37214441D01*
X142947255Y-37886138D01*
X142947300Y-37889496D01*
X142947300Y-114086103D01*
X142947255Y-114089461D01*
X142929058Y-114761158D01*
X142928694Y-114767864D01*
X142874299Y-115435885D01*
X142873573Y-115442561D01*
X142783090Y-116106675D01*
X142782003Y-116113302D01*
X142655704Y-116771510D01*
X142654261Y-116778069D01*
X142492502Y-117428515D01*
X142490705Y-117434986D01*
X142293978Y-118075693D01*
X142291834Y-118082057D01*
X142060702Y-118711191D01*
X142058216Y-118717430D01*
X141793365Y-119333120D01*
X141790545Y-119339215D01*
X141492747Y-119939669D01*
X141489601Y-119945602D01*
X141159739Y-120529040D01*
X141156277Y-120534794D01*
X140795309Y-121099526D01*
X140791540Y-121105085D01*
X140400523Y-121649447D01*
X140396459Y-121654793D01*
X139976559Y-122177174D01*
X139972212Y-122182293D01*
X139524613Y-122681210D01*
X139519994Y-122686085D01*
X139046085Y-123159994D01*
X139041210Y-123164613D01*
X138542293Y-123612212D01*
X138537174Y-123616559D01*
X138014793Y-124036459D01*
X138009447Y-124040523D01*
X137465085Y-124431540D01*
X137459526Y-124435309D01*
X136894794Y-124796277D01*
X136889040Y-124799739D01*
X136305602Y-125129601D01*
X136299669Y-125132747D01*
X135699215Y-125430545D01*
X135693120Y-125433365D01*
X135077430Y-125698216D01*
X135071191Y-125700702D01*
X134442057Y-125931834D01*
X134435693Y-125933978D01*
X133794986Y-126130705D01*
X133788515Y-126132502D01*
X133138069Y-126294261D01*
X133131510Y-126295704D01*
X132473302Y-126422003D01*
X132466675Y-126423090D01*
X131802561Y-126513573D01*
X131795885Y-126514299D01*
X131127864Y-126568694D01*
X131121158Y-126569058D01*
X130449461Y-126587255D01*
X130446103Y-126587300D01*
X45359497Y-126587300D01*
X45356139Y-126587255D01*
X44684441Y-126569058D01*
X44677735Y-126568694D01*
X44009714Y-126514299D01*
X44003038Y-126513573D01*
X43338924Y-126423090D01*
X43332297Y-126422003D01*
X42674089Y-126295704D01*
X42667530Y-126294261D01*
X42017084Y-126132502D01*
X42010613Y-126130705D01*
X41369906Y-125933978D01*
X41363542Y-125931834D01*
X40734408Y-125700702D01*
X40728169Y-125698216D01*
X40112479Y-125433365D01*
X40106384Y-125430545D01*
X39505930Y-125132747D01*
X39499997Y-125129601D01*
X38916559Y-124799739D01*
X38910805Y-124796277D01*
X38555681Y-124569287D01*
X38346061Y-124435300D01*
X38340527Y-124431548D01*
X38125940Y-124277411D01*
X37796152Y-124040523D01*
X37790806Y-124036459D01*
X37268425Y-123616559D01*
X37263306Y-123612212D01*
X36764389Y-123164613D01*
X36759514Y-123159994D01*
X36285605Y-122686085D01*
X36280986Y-122681210D01*
X36214229Y-122606799D01*
X57499371Y-122606799D01*
X57499371Y-122606800D01*
X57519044Y-122819110D01*
X57577396Y-123024192D01*
X57577396Y-123024194D01*
X57672432Y-123215053D01*
X57672434Y-123215055D01*
X57800928Y-123385207D01*
X57958498Y-123528852D01*
X58139781Y-123641098D01*
X58338602Y-123718121D01*
X58548190Y-123757300D01*
X58548192Y-123757300D01*
X58761408Y-123757300D01*
X58761410Y-123757300D01*
X58970998Y-123718121D01*
X59169819Y-123641098D01*
X59351102Y-123528852D01*
X59508672Y-123385207D01*
X59637166Y-123215055D01*
X59732205Y-123024189D01*
X59790556Y-122819110D01*
X59810229Y-122606800D01*
X59810229Y-122606799D01*
X62499371Y-122606799D01*
X62499371Y-122606800D01*
X62519044Y-122819110D01*
X62577396Y-123024192D01*
X62577396Y-123024194D01*
X62672432Y-123215053D01*
X62672434Y-123215055D01*
X62800928Y-123385207D01*
X62958498Y-123528852D01*
X63139781Y-123641098D01*
X63338602Y-123718121D01*
X63548190Y-123757300D01*
X63548192Y-123757300D01*
X63761408Y-123757300D01*
X63761410Y-123757300D01*
X63970998Y-123718121D01*
X64169819Y-123641098D01*
X64351102Y-123528852D01*
X64508672Y-123385207D01*
X64637166Y-123215055D01*
X64732205Y-123024189D01*
X64790556Y-122819110D01*
X64810229Y-122606800D01*
X64810229Y-122606799D01*
X67499371Y-122606799D01*
X67499371Y-122606800D01*
X67519044Y-122819110D01*
X67577396Y-123024192D01*
X67577396Y-123024194D01*
X67672432Y-123215053D01*
X67672434Y-123215055D01*
X67800928Y-123385207D01*
X67958498Y-123528852D01*
X68139781Y-123641098D01*
X68338602Y-123718121D01*
X68548190Y-123757300D01*
X68548192Y-123757300D01*
X68761408Y-123757300D01*
X68761410Y-123757300D01*
X68970998Y-123718121D01*
X69169819Y-123641098D01*
X69351102Y-123528852D01*
X69508672Y-123385207D01*
X69637166Y-123215055D01*
X69732205Y-123024189D01*
X69790556Y-122819110D01*
X69810229Y-122606800D01*
X69790556Y-122394490D01*
X69732205Y-122189411D01*
X69732203Y-122189406D01*
X69732203Y-122189405D01*
X69637167Y-121998546D01*
X69508672Y-121828393D01*
X69351102Y-121684748D01*
X69169819Y-121572502D01*
X69169817Y-121572501D01*
X69070408Y-121533990D01*
X68970998Y-121495479D01*
X68761410Y-121456300D01*
X68548190Y-121456300D01*
X68338602Y-121495479D01*
X68338599Y-121495479D01*
X68338599Y-121495480D01*
X68139782Y-121572501D01*
X68139780Y-121572502D01*
X67958499Y-121684747D01*
X67800927Y-121828393D01*
X67672432Y-121998546D01*
X67577396Y-122189405D01*
X67577396Y-122189407D01*
X67519044Y-122394489D01*
X67499371Y-122606799D01*
X64810229Y-122606799D01*
X64790556Y-122394490D01*
X64732205Y-122189411D01*
X64732203Y-122189406D01*
X64732203Y-122189405D01*
X64637167Y-121998546D01*
X64508672Y-121828393D01*
X64351102Y-121684748D01*
X64169819Y-121572502D01*
X64169817Y-121572501D01*
X64070408Y-121533990D01*
X63970998Y-121495479D01*
X63761410Y-121456300D01*
X63548190Y-121456300D01*
X63338602Y-121495479D01*
X63338599Y-121495479D01*
X63338599Y-121495480D01*
X63139782Y-121572501D01*
X63139780Y-121572502D01*
X62958499Y-121684747D01*
X62800927Y-121828393D01*
X62672432Y-121998546D01*
X62577396Y-122189405D01*
X62577396Y-122189407D01*
X62519044Y-122394489D01*
X62499371Y-122606799D01*
X59810229Y-122606799D01*
X59790556Y-122394490D01*
X59732205Y-122189411D01*
X59732203Y-122189406D01*
X59732203Y-122189405D01*
X59637167Y-121998546D01*
X59508672Y-121828393D01*
X59351102Y-121684748D01*
X59169819Y-121572502D01*
X59169817Y-121572501D01*
X59070408Y-121533990D01*
X58970998Y-121495479D01*
X58761410Y-121456300D01*
X58548190Y-121456300D01*
X58338602Y-121495479D01*
X58338599Y-121495479D01*
X58338599Y-121495480D01*
X58139782Y-121572501D01*
X58139780Y-121572502D01*
X57958499Y-121684747D01*
X57800927Y-121828393D01*
X57672432Y-121998546D01*
X57577396Y-122189405D01*
X57577396Y-122189407D01*
X57519044Y-122394489D01*
X57499371Y-122606799D01*
X36214229Y-122606799D01*
X35839769Y-122189407D01*
X35833385Y-122182291D01*
X35829040Y-122177174D01*
X35825731Y-122173058D01*
X35685455Y-121998546D01*
X35409140Y-121654793D01*
X35405076Y-121649447D01*
X35250947Y-121434873D01*
X35014045Y-121105064D01*
X35010304Y-121099547D01*
X34649317Y-120534787D01*
X34645860Y-120529040D01*
X34545594Y-120351697D01*
X34350931Y-120007389D01*
X114318500Y-120007389D01*
X114318500Y-120180611D01*
X114345598Y-120351701D01*
X114399127Y-120516445D01*
X114477768Y-120670788D01*
X114579586Y-120810928D01*
X114702072Y-120933414D01*
X114842212Y-121035232D01*
X114996555Y-121113873D01*
X115161299Y-121167402D01*
X115332389Y-121194500D01*
X115332390Y-121194500D01*
X115505610Y-121194500D01*
X115505611Y-121194500D01*
X115676701Y-121167402D01*
X115841445Y-121113873D01*
X115995788Y-121035232D01*
X116135928Y-120933414D01*
X116258414Y-120810928D01*
X116360232Y-120670788D01*
X116438873Y-120516445D01*
X116492402Y-120351701D01*
X116519500Y-120180611D01*
X116519500Y-120007389D01*
X116492402Y-119836299D01*
X116438873Y-119671555D01*
X116360232Y-119517212D01*
X116258414Y-119377072D01*
X116135928Y-119254586D01*
X115995788Y-119152768D01*
X115841445Y-119074127D01*
X115676701Y-119020598D01*
X115676699Y-119020597D01*
X115676698Y-119020597D01*
X115545271Y-118999781D01*
X115505611Y-118993500D01*
X115332389Y-118993500D01*
X115292728Y-118999781D01*
X115161302Y-119020597D01*
X114996552Y-119074128D01*
X114842211Y-119152768D01*
X114794527Y-119187413D01*
X114702072Y-119254586D01*
X114702070Y-119254588D01*
X114702069Y-119254588D01*
X114579588Y-119377069D01*
X114579588Y-119377070D01*
X114579586Y-119377072D01*
X114535859Y-119437256D01*
X114477768Y-119517211D01*
X114399128Y-119671552D01*
X114345597Y-119836302D01*
X114329226Y-119939669D01*
X114318500Y-120007389D01*
X34350931Y-120007389D01*
X34315996Y-119945598D01*
X34312852Y-119939669D01*
X34179878Y-119671552D01*
X34015049Y-119339205D01*
X34012234Y-119333120D01*
X33978451Y-119254586D01*
X33747378Y-118717418D01*
X33744897Y-118711191D01*
X33513759Y-118082040D01*
X33511627Y-118075711D01*
X33367649Y-117606799D01*
X57499371Y-117606799D01*
X57499371Y-117606800D01*
X57519044Y-117819110D01*
X57577396Y-118024192D01*
X57577396Y-118024194D01*
X57672432Y-118215053D01*
X57672434Y-118215055D01*
X57800928Y-118385207D01*
X57958498Y-118528852D01*
X58139781Y-118641098D01*
X58338602Y-118718121D01*
X58548190Y-118757300D01*
X58548192Y-118757300D01*
X58761408Y-118757300D01*
X58761410Y-118757300D01*
X58970998Y-118718121D01*
X59169819Y-118641098D01*
X59351102Y-118528852D01*
X59508672Y-118385207D01*
X59637166Y-118215055D01*
X59637167Y-118215053D01*
X59732203Y-118024194D01*
X59732203Y-118024193D01*
X59732205Y-118024189D01*
X59790556Y-117819110D01*
X59810229Y-117606800D01*
X59810229Y-117606799D01*
X62499371Y-117606799D01*
X62499371Y-117606800D01*
X62519044Y-117819110D01*
X62577396Y-118024192D01*
X62577396Y-118024194D01*
X62672432Y-118215053D01*
X62672434Y-118215055D01*
X62800928Y-118385207D01*
X62958498Y-118528852D01*
X63139781Y-118641098D01*
X63338602Y-118718121D01*
X63548190Y-118757300D01*
X63548192Y-118757300D01*
X63761408Y-118757300D01*
X63761410Y-118757300D01*
X63970998Y-118718121D01*
X64169819Y-118641098D01*
X64351102Y-118528852D01*
X64508672Y-118385207D01*
X64637166Y-118215055D01*
X64637167Y-118215053D01*
X64732203Y-118024194D01*
X64732203Y-118024193D01*
X64732205Y-118024189D01*
X64790556Y-117819110D01*
X64810229Y-117606800D01*
X64810229Y-117606799D01*
X67499371Y-117606799D01*
X67499371Y-117606800D01*
X67519044Y-117819110D01*
X67577396Y-118024192D01*
X67577396Y-118024194D01*
X67672432Y-118215053D01*
X67672434Y-118215055D01*
X67800928Y-118385207D01*
X67958498Y-118528852D01*
X68139781Y-118641098D01*
X68338602Y-118718121D01*
X68548190Y-118757300D01*
X68548192Y-118757300D01*
X68761408Y-118757300D01*
X68761410Y-118757300D01*
X68970998Y-118718121D01*
X69169819Y-118641098D01*
X69351102Y-118528852D01*
X69508672Y-118385207D01*
X69637166Y-118215055D01*
X69637167Y-118215053D01*
X69732203Y-118024194D01*
X69732203Y-118024193D01*
X69732205Y-118024189D01*
X69790556Y-117819110D01*
X69810229Y-117606800D01*
X69790556Y-117394490D01*
X69732205Y-117189411D01*
X69732203Y-117189406D01*
X69732203Y-117189405D01*
X69637167Y-116998546D01*
X69508672Y-116828393D01*
X69351102Y-116684748D01*
X69169819Y-116572502D01*
X69169817Y-116572501D01*
X69033600Y-116519731D01*
X68970998Y-116495479D01*
X68761410Y-116456300D01*
X68548190Y-116456300D01*
X68338602Y-116495479D01*
X68338599Y-116495479D01*
X68338599Y-116495480D01*
X68139782Y-116572501D01*
X68139780Y-116572502D01*
X67958499Y-116684747D01*
X67800927Y-116828393D01*
X67672432Y-116998546D01*
X67577396Y-117189405D01*
X67577396Y-117189407D01*
X67519044Y-117394489D01*
X67499371Y-117606799D01*
X64810229Y-117606799D01*
X64790556Y-117394490D01*
X64732205Y-117189411D01*
X64732203Y-117189406D01*
X64732203Y-117189405D01*
X64637167Y-116998546D01*
X64508672Y-116828393D01*
X64351102Y-116684748D01*
X64169819Y-116572502D01*
X64169817Y-116572501D01*
X64033600Y-116519731D01*
X63970998Y-116495479D01*
X63761410Y-116456300D01*
X63548190Y-116456300D01*
X63338602Y-116495479D01*
X63338599Y-116495479D01*
X63338599Y-116495480D01*
X63139782Y-116572501D01*
X63139780Y-116572502D01*
X62958499Y-116684747D01*
X62800927Y-116828393D01*
X62672432Y-116998546D01*
X62577396Y-117189405D01*
X62577396Y-117189407D01*
X62519044Y-117394489D01*
X62499371Y-117606799D01*
X59810229Y-117606799D01*
X59790556Y-117394490D01*
X59732205Y-117189411D01*
X59732203Y-117189406D01*
X59732203Y-117189405D01*
X59637167Y-116998546D01*
X59508672Y-116828393D01*
X59351102Y-116684748D01*
X59169819Y-116572502D01*
X59169817Y-116572501D01*
X59033600Y-116519731D01*
X58970998Y-116495479D01*
X58761410Y-116456300D01*
X58548190Y-116456300D01*
X58338602Y-116495479D01*
X58338599Y-116495479D01*
X58338599Y-116495480D01*
X58139782Y-116572501D01*
X58139780Y-116572502D01*
X57958499Y-116684747D01*
X57800927Y-116828393D01*
X57672432Y-116998546D01*
X57577396Y-117189405D01*
X57577396Y-117189407D01*
X57519044Y-117394489D01*
X57499371Y-117606799D01*
X33367649Y-117606799D01*
X33314889Y-117434970D01*
X33313101Y-117428532D01*
X33151336Y-116778060D01*
X33149895Y-116771510D01*
X33096930Y-116495480D01*
X33023591Y-116113275D01*
X33022513Y-116106703D01*
X32932024Y-115442550D01*
X32931300Y-115435885D01*
X32876905Y-114767864D01*
X32876541Y-114761158D01*
X32858345Y-114089461D01*
X32858300Y-114086103D01*
X32858300Y-113007389D01*
X114318500Y-113007389D01*
X114318500Y-113180611D01*
X114345598Y-113351701D01*
X114399127Y-113516445D01*
X114477768Y-113670788D01*
X114579586Y-113810928D01*
X114702072Y-113933414D01*
X114842212Y-114035232D01*
X114996555Y-114113873D01*
X115161299Y-114167402D01*
X115332389Y-114194500D01*
X115332390Y-114194500D01*
X115505610Y-114194500D01*
X115505611Y-114194500D01*
X115676701Y-114167402D01*
X115841445Y-114113873D01*
X115995788Y-114035232D01*
X116135928Y-113933414D01*
X116258414Y-113810928D01*
X116360232Y-113670788D01*
X116438873Y-113516445D01*
X116492402Y-113351701D01*
X116519500Y-113180611D01*
X116519500Y-113007389D01*
X116492402Y-112836299D01*
X116438873Y-112671555D01*
X116360232Y-112517212D01*
X116258414Y-112377072D01*
X116135928Y-112254586D01*
X115995788Y-112152768D01*
X115841445Y-112074127D01*
X115676701Y-112020598D01*
X115676699Y-112020597D01*
X115676698Y-112020597D01*
X115545271Y-111999781D01*
X115505611Y-111993500D01*
X115332389Y-111993500D01*
X115292728Y-111999781D01*
X115161302Y-112020597D01*
X114996552Y-112074128D01*
X114842211Y-112152768D01*
X114762256Y-112210859D01*
X114702072Y-112254586D01*
X114702070Y-112254588D01*
X114702069Y-112254588D01*
X114579588Y-112377069D01*
X114579588Y-112377070D01*
X114579586Y-112377072D01*
X114535859Y-112437256D01*
X114477768Y-112517211D01*
X114399128Y-112671552D01*
X114345597Y-112836302D01*
X114318500Y-113007389D01*
X32858300Y-113007389D01*
X32858300Y-103983121D01*
X96575998Y-103983121D01*
X96575998Y-105632478D01*
X96590530Y-105705535D01*
X96590531Y-105705539D01*
X96590532Y-105705540D01*
X96645897Y-105788401D01*
X96727761Y-105843100D01*
X96728758Y-105843766D01*
X96728762Y-105843767D01*
X96801819Y-105858299D01*
X96801822Y-105858300D01*
X96801824Y-105858300D01*
X98451174Y-105858300D01*
X98451175Y-105858299D01*
X98524238Y-105843766D01*
X98607099Y-105788401D01*
X98662464Y-105705540D01*
X98676998Y-105632474D01*
X98676998Y-104807800D01*
X100070915Y-104807800D01*
X100091197Y-105013732D01*
X100091198Y-105013734D01*
X100151266Y-105211754D01*
X100248813Y-105394250D01*
X100275312Y-105426539D01*
X100380087Y-105554210D01*
X100416854Y-105584383D01*
X100540048Y-105685485D01*
X100722544Y-105783032D01*
X100920564Y-105843100D01*
X100920563Y-105843100D01*
X100939027Y-105844918D01*
X101126498Y-105863383D01*
X101332432Y-105843100D01*
X101530452Y-105783032D01*
X101712948Y-105685485D01*
X101872908Y-105554210D01*
X102004183Y-105394250D01*
X102101730Y-105211754D01*
X102161798Y-105013734D01*
X102182081Y-104807800D01*
X102161798Y-104601866D01*
X102101730Y-104403846D01*
X102004183Y-104221350D01*
X101924985Y-104124846D01*
X101872908Y-104061389D01*
X101712950Y-103930117D01*
X101712951Y-103930117D01*
X101712948Y-103930115D01*
X101530452Y-103832568D01*
X101332432Y-103772500D01*
X101332430Y-103772499D01*
X101332432Y-103772499D01*
X101126498Y-103752217D01*
X100920565Y-103772499D01*
X100722541Y-103832569D01*
X100612396Y-103891443D01*
X100540048Y-103930115D01*
X100540046Y-103930116D01*
X100540045Y-103930117D01*
X100380087Y-104061389D01*
X100248815Y-104221347D01*
X100151267Y-104403843D01*
X100091197Y-104601867D01*
X100070915Y-104807800D01*
X98676998Y-104807800D01*
X98676998Y-103983126D01*
X98676998Y-103983123D01*
X98676997Y-103983121D01*
X98662465Y-103910064D01*
X98662464Y-103910060D01*
X98607099Y-103827199D01*
X98551733Y-103790205D01*
X98524237Y-103771833D01*
X98524233Y-103771832D01*
X98451175Y-103757300D01*
X98451172Y-103757300D01*
X96801824Y-103757300D01*
X96801821Y-103757300D01*
X96728762Y-103771832D01*
X96728758Y-103771833D01*
X96645897Y-103827199D01*
X96590531Y-103910060D01*
X96590530Y-103910064D01*
X96575998Y-103983121D01*
X32858300Y-103983121D01*
X32858300Y-103704121D01*
X126039998Y-103704121D01*
X126039998Y-105353478D01*
X126054530Y-105426535D01*
X126054531Y-105426539D01*
X126054532Y-105426540D01*
X126109897Y-105509401D01*
X126176960Y-105554210D01*
X126192758Y-105564766D01*
X126192762Y-105564767D01*
X126265819Y-105579299D01*
X126265822Y-105579300D01*
X126265824Y-105579300D01*
X127915174Y-105579300D01*
X127915175Y-105579299D01*
X127988238Y-105564766D01*
X128071099Y-105509401D01*
X128126464Y-105426540D01*
X128140998Y-105353474D01*
X128140998Y-104528800D01*
X129534915Y-104528800D01*
X129555197Y-104734732D01*
X129555198Y-104734734D01*
X129615266Y-104932754D01*
X129712813Y-105115250D01*
X129712815Y-105115252D01*
X129844087Y-105275210D01*
X129939454Y-105353474D01*
X130004048Y-105406485D01*
X130186544Y-105504032D01*
X130384564Y-105564100D01*
X130384563Y-105564100D01*
X130403027Y-105565918D01*
X130590498Y-105584383D01*
X130796432Y-105564100D01*
X130994452Y-105504032D01*
X131176948Y-105406485D01*
X131336908Y-105275210D01*
X131468183Y-105115250D01*
X131565730Y-104932754D01*
X131625798Y-104734734D01*
X131646081Y-104528800D01*
X131625798Y-104322866D01*
X131565730Y-104124846D01*
X131468183Y-103942350D01*
X131373682Y-103827199D01*
X131336908Y-103782389D01*
X131176950Y-103651117D01*
X131176951Y-103651117D01*
X131176948Y-103651115D01*
X130994452Y-103553568D01*
X130796432Y-103493500D01*
X130796430Y-103493499D01*
X130796432Y-103493499D01*
X130590498Y-103473217D01*
X130384565Y-103493499D01*
X130186541Y-103553569D01*
X130076396Y-103612443D01*
X130004048Y-103651115D01*
X130004046Y-103651116D01*
X130004045Y-103651117D01*
X129844087Y-103782389D01*
X129712815Y-103942347D01*
X129615267Y-104124843D01*
X129555197Y-104322867D01*
X129534915Y-104528800D01*
X128140998Y-104528800D01*
X128140998Y-103704126D01*
X128140998Y-103704123D01*
X128140997Y-103704121D01*
X128126465Y-103631064D01*
X128126464Y-103631060D01*
X128071099Y-103548199D01*
X127989235Y-103493500D01*
X127988237Y-103492833D01*
X127988233Y-103492832D01*
X127915175Y-103478300D01*
X127915172Y-103478300D01*
X126265824Y-103478300D01*
X126265821Y-103478300D01*
X126192762Y-103492832D01*
X126192758Y-103492833D01*
X126109897Y-103548199D01*
X126054531Y-103631060D01*
X126054530Y-103631064D01*
X126039998Y-103704121D01*
X32858300Y-103704121D01*
X32858300Y-101197575D01*
X38295417Y-101197575D01*
X38315699Y-101403507D01*
X38315700Y-101403509D01*
X38375768Y-101601529D01*
X38473315Y-101784025D01*
X38473317Y-101784027D01*
X38604589Y-101943985D01*
X38665412Y-101993900D01*
X38764550Y-102075260D01*
X38947046Y-102172807D01*
X39145066Y-102232875D01*
X39145065Y-102232875D01*
X39163529Y-102234693D01*
X39351000Y-102253158D01*
X39556934Y-102232875D01*
X39754954Y-102172807D01*
X39937450Y-102075260D01*
X40097410Y-101943985D01*
X40228685Y-101784025D01*
X40326232Y-101601529D01*
X40386300Y-101403509D01*
X40406583Y-101197575D01*
X53208417Y-101197575D01*
X53228699Y-101403507D01*
X53228700Y-101403509D01*
X53288768Y-101601529D01*
X53386315Y-101784025D01*
X53386317Y-101784027D01*
X53517589Y-101943985D01*
X53578412Y-101993900D01*
X53677550Y-102075260D01*
X53860046Y-102172807D01*
X54058066Y-102232875D01*
X54058065Y-102232875D01*
X54076529Y-102234693D01*
X54264000Y-102253158D01*
X54469934Y-102232875D01*
X54667954Y-102172807D01*
X54850450Y-102075260D01*
X55010410Y-101943985D01*
X55141685Y-101784025D01*
X55239232Y-101601529D01*
X55273246Y-101489399D01*
X76781150Y-101489399D01*
X76781150Y-101489400D01*
X76800070Y-101633108D01*
X76800071Y-101633112D01*
X76855537Y-101767022D01*
X76855538Y-101767024D01*
X76855539Y-101767025D01*
X76943779Y-101882021D01*
X77058775Y-101970261D01*
X77192691Y-102025730D01*
X77319680Y-102042448D01*
X77336399Y-102044650D01*
X77336400Y-102044650D01*
X77336401Y-102044650D01*
X77372327Y-102039920D01*
X77480109Y-102025730D01*
X77534170Y-102003337D01*
X77581619Y-101993900D01*
X104453816Y-101993900D01*
X104453819Y-101993900D01*
X104582130Y-101959519D01*
X104624237Y-101935208D01*
X104697170Y-101893101D01*
X108982101Y-97608170D01*
X113101871Y-93488400D01*
X123973238Y-93488400D01*
X123990926Y-93622755D01*
X123992158Y-93632108D01*
X123992159Y-93632112D01*
X124047507Y-93765735D01*
X124047627Y-93766025D01*
X124050271Y-93769470D01*
X124051599Y-93772906D01*
X124051693Y-93773068D01*
X124051667Y-93773082D01*
X124075469Y-93834638D01*
X124075900Y-93844963D01*
X124075900Y-95275181D01*
X124066462Y-95322632D01*
X124044069Y-95376693D01*
X124025150Y-95520399D01*
X124025150Y-95520400D01*
X124042662Y-95653418D01*
X124044070Y-95664108D01*
X124044071Y-95664112D01*
X124099537Y-95798022D01*
X124099538Y-95798024D01*
X124099539Y-95798025D01*
X124187779Y-95913021D01*
X124302775Y-96001261D01*
X124436691Y-96056730D01*
X124563680Y-96073448D01*
X124580399Y-96075650D01*
X124580400Y-96075650D01*
X124580401Y-96075650D01*
X124595377Y-96073678D01*
X124724109Y-96056730D01*
X124858025Y-96001261D01*
X124973021Y-95913021D01*
X125061261Y-95798025D01*
X125116730Y-95664109D01*
X125135650Y-95520400D01*
X125133450Y-95503693D01*
X125118930Y-95393400D01*
X125116730Y-95376691D01*
X125094337Y-95322629D01*
X125084900Y-95275181D01*
X125084900Y-94442043D01*
X128153794Y-94442043D01*
X128153794Y-94442044D01*
X128172714Y-94585752D01*
X128172715Y-94585756D01*
X128228181Y-94719666D01*
X128228182Y-94719668D01*
X128228183Y-94719669D01*
X128241274Y-94736730D01*
X128266470Y-94801897D01*
X128266900Y-94812217D01*
X128266900Y-95783181D01*
X128257462Y-95830632D01*
X128235069Y-95884693D01*
X128216150Y-96028399D01*
X128216150Y-96028400D01*
X128235070Y-96172108D01*
X128235071Y-96172112D01*
X128290537Y-96306022D01*
X128290538Y-96306023D01*
X128290539Y-96306025D01*
X128378779Y-96421021D01*
X128493775Y-96509261D01*
X128627691Y-96564730D01*
X128754680Y-96581448D01*
X128771399Y-96583650D01*
X128771400Y-96583650D01*
X128771401Y-96583650D01*
X128786377Y-96581678D01*
X128915109Y-96564730D01*
X129049025Y-96509261D01*
X129164021Y-96421021D01*
X129252261Y-96306025D01*
X129296524Y-96199161D01*
X129340363Y-96144761D01*
X129406657Y-96122695D01*
X129458532Y-96132054D01*
X129583291Y-96183730D01*
X129710280Y-96200448D01*
X129726999Y-96202650D01*
X129727000Y-96202650D01*
X129727001Y-96202650D01*
X129741977Y-96200678D01*
X129870709Y-96183730D01*
X130004625Y-96128261D01*
X130119621Y-96040021D01*
X130207861Y-95925025D01*
X130263330Y-95791109D01*
X130270310Y-95738080D01*
X130273472Y-95722189D01*
X130291900Y-95653419D01*
X130291900Y-93478383D01*
X130264322Y-93375462D01*
X130261160Y-93359560D01*
X130257971Y-93335334D01*
X130202503Y-93201420D01*
X130202502Y-93201419D01*
X130202502Y-93201418D01*
X130114262Y-93086422D01*
X129999266Y-92998182D01*
X129999265Y-92998181D01*
X129999263Y-92998180D01*
X129865353Y-92942714D01*
X129865351Y-92942713D01*
X129865350Y-92942713D01*
X129792713Y-92933150D01*
X129721642Y-92923793D01*
X129721640Y-92923793D01*
X129577932Y-92942713D01*
X129577928Y-92942714D01*
X129444018Y-92998180D01*
X129329020Y-93086422D01*
X129240778Y-93201420D01*
X129185312Y-93335330D01*
X129185311Y-93335334D01*
X129166391Y-93479042D01*
X129166391Y-93479043D01*
X129185311Y-93622751D01*
X129185312Y-93622755D01*
X129240779Y-93756666D01*
X129240780Y-93756669D01*
X129257274Y-93778163D01*
X129282470Y-93843331D01*
X129282900Y-93853651D01*
X129282900Y-93937042D01*
X129263215Y-94004081D01*
X129210411Y-94049836D01*
X129141253Y-94059780D01*
X129083414Y-94035418D01*
X128986669Y-93961183D01*
X128986667Y-93961182D01*
X128852756Y-93905715D01*
X128852754Y-93905714D01*
X128852753Y-93905714D01*
X128780898Y-93896254D01*
X128709045Y-93886794D01*
X128709043Y-93886794D01*
X128565335Y-93905714D01*
X128565331Y-93905715D01*
X128431421Y-93961181D01*
X128316423Y-94049423D01*
X128228181Y-94164421D01*
X128172715Y-94298331D01*
X128172714Y-94298335D01*
X128153794Y-94442043D01*
X125084900Y-94442043D01*
X125084900Y-93473891D01*
X125080964Y-93459205D01*
X125077798Y-93443290D01*
X125076333Y-93432165D01*
X125064818Y-93344691D01*
X125022422Y-93242336D01*
X125009350Y-93210777D01*
X125009349Y-93210776D01*
X125009349Y-93210775D01*
X124921109Y-93095779D01*
X124806113Y-93007539D01*
X124806112Y-93007538D01*
X124806110Y-93007537D01*
X124672200Y-92952071D01*
X124672198Y-92952070D01*
X124672197Y-92952070D01*
X124600342Y-92942610D01*
X124528489Y-92933150D01*
X124528487Y-92933150D01*
X124384779Y-92952070D01*
X124384775Y-92952071D01*
X124250865Y-93007537D01*
X124135867Y-93095779D01*
X124047625Y-93210777D01*
X123992159Y-93344687D01*
X123992158Y-93344691D01*
X123974557Y-93478385D01*
X123973238Y-93488400D01*
X113101871Y-93488400D01*
X113808101Y-92782170D01*
X113824632Y-92753537D01*
X113853122Y-92704192D01*
X113853122Y-92704190D01*
X113859014Y-92693985D01*
X113874519Y-92667130D01*
X113908900Y-92538819D01*
X113908900Y-83192618D01*
X113918339Y-83145165D01*
X113940730Y-83091109D01*
X113959650Y-82947400D01*
X113940730Y-82803691D01*
X113885261Y-82669775D01*
X113797021Y-82554779D01*
X113682025Y-82466539D01*
X113682024Y-82466538D01*
X113682022Y-82466537D01*
X113548112Y-82411071D01*
X113548110Y-82411070D01*
X113548109Y-82411070D01*
X113457000Y-82399075D01*
X113404401Y-82392150D01*
X113404399Y-82392150D01*
X113260691Y-82411070D01*
X113260687Y-82411071D01*
X113126777Y-82466537D01*
X113011779Y-82554779D01*
X112923537Y-82669777D01*
X112868071Y-82803687D01*
X112868070Y-82803691D01*
X112849150Y-82947399D01*
X112849150Y-82947400D01*
X112868070Y-83091108D01*
X112868070Y-83091109D01*
X112890461Y-83145165D01*
X112899900Y-83192618D01*
X112899900Y-92212067D01*
X112880215Y-92279106D01*
X112863581Y-92299748D01*
X104214748Y-100948581D01*
X104153425Y-100982066D01*
X104127067Y-100984900D01*
X77581619Y-100984900D01*
X77534170Y-100975462D01*
X77480109Y-100953070D01*
X77480108Y-100953069D01*
X77480106Y-100953069D01*
X77336401Y-100934150D01*
X77336399Y-100934150D01*
X77192691Y-100953070D01*
X77192687Y-100953071D01*
X77058777Y-101008537D01*
X76943779Y-101096779D01*
X76855537Y-101211777D01*
X76800071Y-101345687D01*
X76800070Y-101345691D01*
X76781150Y-101489399D01*
X55273246Y-101489399D01*
X55299300Y-101403509D01*
X55319583Y-101197575D01*
X55299300Y-100991641D01*
X55239232Y-100793621D01*
X55141685Y-100611125D01*
X55010410Y-100451165D01*
X55009227Y-100449723D01*
X54981915Y-100385413D01*
X54993706Y-100316546D01*
X55040859Y-100264986D01*
X55083035Y-100250951D01*
X55082700Y-100249264D01*
X55161735Y-100233542D01*
X55161735Y-100233541D01*
X55161740Y-100233541D01*
X55244601Y-100178176D01*
X55299966Y-100095315D01*
X55314500Y-100022249D01*
X55314500Y-99703225D01*
X68645217Y-99703225D01*
X68665499Y-99909157D01*
X68665500Y-99909159D01*
X68725568Y-100107179D01*
X68823115Y-100289675D01*
X68823117Y-100289677D01*
X68954389Y-100449635D01*
X69051009Y-100528927D01*
X69114350Y-100580910D01*
X69296846Y-100678457D01*
X69494866Y-100738525D01*
X69494865Y-100738525D01*
X69513329Y-100740343D01*
X69700800Y-100758808D01*
X69906734Y-100738525D01*
X70104754Y-100678457D01*
X70287250Y-100580910D01*
X70447210Y-100449635D01*
X70578485Y-100289675D01*
X70676032Y-100107179D01*
X70736100Y-99909159D01*
X70756383Y-99703225D01*
X70736100Y-99497291D01*
X70676032Y-99299271D01*
X70578485Y-99116775D01*
X70447210Y-98956815D01*
X70446027Y-98955373D01*
X70418715Y-98891063D01*
X70430506Y-98822196D01*
X70477659Y-98770636D01*
X70519835Y-98756601D01*
X70519500Y-98754914D01*
X70598535Y-98739192D01*
X70598535Y-98739191D01*
X70598540Y-98739191D01*
X70681401Y-98683826D01*
X70736766Y-98600965D01*
X70751300Y-98527899D01*
X70751300Y-96878551D01*
X70751300Y-96878548D01*
X70751299Y-96878546D01*
X70736767Y-96805489D01*
X70736766Y-96805485D01*
X70704758Y-96757581D01*
X70681401Y-96722624D01*
X70598540Y-96667259D01*
X70598539Y-96667258D01*
X70598535Y-96667257D01*
X70525477Y-96652725D01*
X70525474Y-96652725D01*
X68876126Y-96652725D01*
X68876123Y-96652725D01*
X68803064Y-96667257D01*
X68803060Y-96667258D01*
X68720199Y-96722624D01*
X68664833Y-96805485D01*
X68664832Y-96805489D01*
X68650300Y-96878546D01*
X68650300Y-98527903D01*
X68664832Y-98600960D01*
X68664833Y-98600964D01*
X68664834Y-98600965D01*
X68720199Y-98683826D01*
X68803060Y-98739191D01*
X68803064Y-98739192D01*
X68882100Y-98754914D01*
X68881635Y-98757250D01*
X68936650Y-98779460D01*
X68977014Y-98836490D01*
X68980138Y-98906290D01*
X68955572Y-98955373D01*
X68823117Y-99116771D01*
X68725569Y-99299268D01*
X68665499Y-99497292D01*
X68645217Y-99703225D01*
X55314500Y-99703225D01*
X55314500Y-98372901D01*
X55314500Y-98372898D01*
X55314499Y-98372896D01*
X55299967Y-98299839D01*
X55299966Y-98299835D01*
X55244601Y-98216974D01*
X55161740Y-98161609D01*
X55161739Y-98161608D01*
X55161735Y-98161607D01*
X55088677Y-98147075D01*
X55088674Y-98147075D01*
X53439326Y-98147075D01*
X53439323Y-98147075D01*
X53366264Y-98161607D01*
X53366260Y-98161608D01*
X53283399Y-98216974D01*
X53228033Y-98299835D01*
X53228032Y-98299839D01*
X53213500Y-98372896D01*
X53213500Y-100022253D01*
X53228032Y-100095310D01*
X53228033Y-100095314D01*
X53228034Y-100095315D01*
X53283399Y-100178176D01*
X53366260Y-100233541D01*
X53366264Y-100233542D01*
X53445300Y-100249264D01*
X53444835Y-100251600D01*
X53499850Y-100273810D01*
X53540214Y-100330840D01*
X53543338Y-100400640D01*
X53518772Y-100449723D01*
X53386317Y-100611121D01*
X53288769Y-100793618D01*
X53228699Y-100991642D01*
X53208417Y-101197575D01*
X40406583Y-101197575D01*
X40386300Y-100991641D01*
X40326232Y-100793621D01*
X40228685Y-100611125D01*
X40097410Y-100451165D01*
X40096227Y-100449723D01*
X40068915Y-100385413D01*
X40080706Y-100316546D01*
X40127859Y-100264986D01*
X40170035Y-100250951D01*
X40169700Y-100249264D01*
X40248735Y-100233542D01*
X40248735Y-100233541D01*
X40248740Y-100233541D01*
X40331601Y-100178176D01*
X40386966Y-100095315D01*
X40401500Y-100022249D01*
X40401500Y-98372901D01*
X40401500Y-98372898D01*
X40401499Y-98372896D01*
X40386967Y-98299839D01*
X40386966Y-98299835D01*
X40331601Y-98216974D01*
X40248740Y-98161609D01*
X40248739Y-98161608D01*
X40248735Y-98161607D01*
X40175677Y-98147075D01*
X40175674Y-98147075D01*
X38526326Y-98147075D01*
X38526323Y-98147075D01*
X38453264Y-98161607D01*
X38453260Y-98161608D01*
X38370399Y-98216974D01*
X38315033Y-98299835D01*
X38315032Y-98299839D01*
X38300500Y-98372896D01*
X38300500Y-100022253D01*
X38315032Y-100095310D01*
X38315033Y-100095314D01*
X38315034Y-100095315D01*
X38370399Y-100178176D01*
X38453260Y-100233541D01*
X38453264Y-100233542D01*
X38532300Y-100249264D01*
X38531835Y-100251600D01*
X38586850Y-100273810D01*
X38627214Y-100330840D01*
X38630338Y-100400640D01*
X38605772Y-100449723D01*
X38473317Y-100611121D01*
X38375769Y-100793618D01*
X38315699Y-100991642D01*
X38295417Y-101197575D01*
X32858300Y-101197575D01*
X32858300Y-88662399D01*
X35633150Y-88662399D01*
X35633150Y-88662400D01*
X35652070Y-88806108D01*
X35652071Y-88806112D01*
X35707537Y-88940022D01*
X35707538Y-88940023D01*
X35707539Y-88940025D01*
X35795779Y-89055021D01*
X35910775Y-89143261D01*
X36044691Y-89198730D01*
X36171680Y-89215448D01*
X36188399Y-89217650D01*
X36188400Y-89217650D01*
X36188401Y-89217650D01*
X36224327Y-89212920D01*
X36332109Y-89198730D01*
X36386170Y-89176337D01*
X36433619Y-89166900D01*
X38159816Y-89166900D01*
X38159819Y-89166900D01*
X38288130Y-89132519D01*
X38360649Y-89090650D01*
X38403170Y-89066101D01*
X38467887Y-89001382D01*
X38520052Y-88949219D01*
X38581375Y-88915734D01*
X38607733Y-88912900D01*
X39048816Y-88912900D01*
X39048819Y-88912900D01*
X39177130Y-88878519D01*
X39249649Y-88836650D01*
X39292170Y-88812101D01*
X39917052Y-88187219D01*
X39978375Y-88153734D01*
X40004733Y-88150900D01*
X41731551Y-88150900D01*
X41798590Y-88170585D01*
X41844345Y-88223389D01*
X41854289Y-88292547D01*
X41829926Y-88350387D01*
X41803539Y-88384773D01*
X41803538Y-88384776D01*
X41748071Y-88518687D01*
X41748070Y-88518691D01*
X41729150Y-88662399D01*
X41729150Y-88662400D01*
X41748070Y-88806108D01*
X41748071Y-88806112D01*
X41803537Y-88940022D01*
X41803538Y-88940023D01*
X41803539Y-88940025D01*
X41814347Y-88954111D01*
X41839543Y-89019278D01*
X41825506Y-89087723D01*
X41803654Y-89117279D01*
X38750612Y-92170322D01*
X36902327Y-94018607D01*
X36902325Y-94018610D01*
X36852625Y-94104691D01*
X36852625Y-94104694D01*
X36826900Y-94200701D01*
X36826900Y-95065980D01*
X36807215Y-95133019D01*
X36801276Y-95141466D01*
X36723539Y-95242774D01*
X36723538Y-95242776D01*
X36668071Y-95376687D01*
X36668070Y-95376691D01*
X36651350Y-95503693D01*
X36649150Y-95520400D01*
X36666662Y-95653418D01*
X36668070Y-95664108D01*
X36668071Y-95664112D01*
X36723537Y-95798022D01*
X36723538Y-95798024D01*
X36723539Y-95798025D01*
X36811779Y-95913021D01*
X36926775Y-96001261D01*
X37060691Y-96056730D01*
X37187680Y-96073448D01*
X37204399Y-96075650D01*
X37204400Y-96075650D01*
X37204401Y-96075650D01*
X37219377Y-96073678D01*
X37348109Y-96056730D01*
X37482025Y-96001261D01*
X37597021Y-95913021D01*
X37685261Y-95798025D01*
X37740730Y-95664109D01*
X37759650Y-95520400D01*
X37740730Y-95376691D01*
X37685261Y-95242775D01*
X37661854Y-95212271D01*
X37607524Y-95141466D01*
X37582330Y-95076297D01*
X37581900Y-95065980D01*
X37581900Y-94458127D01*
X37601585Y-94391088D01*
X37618219Y-94370446D01*
X38419539Y-93569126D01*
X39284476Y-92704190D01*
X39284476Y-92704188D01*
X39294680Y-92693985D01*
X39294683Y-92693980D01*
X39719463Y-92269200D01*
X43405550Y-92269200D01*
X43422036Y-92394425D01*
X43424470Y-92412908D01*
X43424471Y-92412912D01*
X43479937Y-92546822D01*
X43479938Y-92546824D01*
X43479939Y-92546825D01*
X43568179Y-92661821D01*
X43683175Y-92750061D01*
X43683176Y-92750061D01*
X43683177Y-92750062D01*
X43727813Y-92768550D01*
X43817091Y-92805530D01*
X43944080Y-92822248D01*
X43960799Y-92824450D01*
X43960800Y-92824450D01*
X43960801Y-92824450D01*
X43996727Y-92819720D01*
X44104509Y-92805530D01*
X44158570Y-92783137D01*
X44206019Y-92773700D01*
X44233867Y-92773700D01*
X44300906Y-92793385D01*
X44321548Y-92810019D01*
X49213630Y-97702101D01*
X49286562Y-97744208D01*
X49328670Y-97768519D01*
X49456981Y-97802900D01*
X49456982Y-97802900D01*
X49456984Y-97802900D01*
X55685816Y-97802900D01*
X55685819Y-97802900D01*
X55814130Y-97768519D01*
X55856237Y-97744208D01*
X55929170Y-97702101D01*
X58237872Y-95393399D01*
X80972150Y-95393399D01*
X80972150Y-95393400D01*
X80991070Y-95537108D01*
X80991070Y-95537109D01*
X81013461Y-95591165D01*
X81022900Y-95638618D01*
X81022900Y-98958181D01*
X81013462Y-99005632D01*
X80991069Y-99059693D01*
X80972150Y-99203399D01*
X80972150Y-99203400D01*
X80984771Y-99299268D01*
X80991070Y-99347108D01*
X80991071Y-99347112D01*
X81046537Y-99481022D01*
X81046538Y-99481024D01*
X81046539Y-99481025D01*
X81134779Y-99596021D01*
X81249775Y-99684261D01*
X81383691Y-99739730D01*
X81510680Y-99756448D01*
X81527399Y-99758650D01*
X81527400Y-99758650D01*
X81527401Y-99758650D01*
X81542377Y-99756678D01*
X81671109Y-99739730D01*
X81805025Y-99684261D01*
X81920021Y-99596021D01*
X82008261Y-99481025D01*
X82063730Y-99347109D01*
X82082650Y-99203400D01*
X82063730Y-99059691D01*
X82041337Y-99005629D01*
X82031900Y-98958181D01*
X82031900Y-95638618D01*
X82041339Y-95591165D01*
X82063730Y-95537109D01*
X82082650Y-95393400D01*
X82063730Y-95249691D01*
X82008261Y-95115775D01*
X81920021Y-95000779D01*
X81805025Y-94912539D01*
X81805024Y-94912538D01*
X81805022Y-94912537D01*
X81671112Y-94857071D01*
X81671110Y-94857070D01*
X81671109Y-94857070D01*
X81599254Y-94847610D01*
X81527401Y-94838150D01*
X81527399Y-94838150D01*
X81383691Y-94857070D01*
X81383687Y-94857071D01*
X81249777Y-94912537D01*
X81134779Y-95000779D01*
X81046537Y-95115777D01*
X80991071Y-95249687D01*
X80991070Y-95249691D01*
X80972150Y-95393399D01*
X58237872Y-95393399D01*
X59198101Y-94433170D01*
X59222397Y-94391088D01*
X59249354Y-94344397D01*
X59253731Y-94336814D01*
X59264519Y-94318130D01*
X59298900Y-94189819D01*
X59298900Y-93765735D01*
X59318585Y-93698696D01*
X59371389Y-93652941D01*
X59440547Y-93642997D01*
X59484904Y-93658350D01*
X59493780Y-93663475D01*
X59493782Y-93663476D01*
X59564864Y-93704516D01*
X59564865Y-93704517D01*
X59564867Y-93704517D01*
X59564870Y-93704519D01*
X59693181Y-93738900D01*
X59693182Y-93738900D01*
X59693184Y-93738900D01*
X78368016Y-93738900D01*
X78368019Y-93738900D01*
X78496330Y-93704519D01*
X78567420Y-93663475D01*
X78611370Y-93638101D01*
X79015070Y-93234400D01*
X94053150Y-93234400D01*
X94066438Y-93335334D01*
X94072070Y-93378108D01*
X94072070Y-93378109D01*
X94094461Y-93432165D01*
X94103900Y-93479618D01*
X94103900Y-94513181D01*
X94094462Y-94560629D01*
X94079003Y-94597954D01*
X94072069Y-94614693D01*
X94058249Y-94719669D01*
X94053150Y-94758400D01*
X94063649Y-94838150D01*
X94072070Y-94902108D01*
X94072071Y-94902112D01*
X94127537Y-95036022D01*
X94127538Y-95036024D01*
X94127539Y-95036025D01*
X94215779Y-95151021D01*
X94330775Y-95239261D01*
X94330776Y-95239261D01*
X94330777Y-95239262D01*
X94375413Y-95257750D01*
X94464691Y-95294730D01*
X94591680Y-95311448D01*
X94608399Y-95313650D01*
X94608400Y-95313650D01*
X94608401Y-95313650D01*
X94623377Y-95311678D01*
X94752109Y-95294730D01*
X94886025Y-95239261D01*
X95001021Y-95151021D01*
X95089261Y-95036025D01*
X95144730Y-94902109D01*
X95163650Y-94758400D01*
X95158550Y-94719666D01*
X95157343Y-94710497D01*
X95144730Y-94614691D01*
X95122337Y-94560629D01*
X95112900Y-94513181D01*
X95112900Y-94377399D01*
X98244150Y-94377399D01*
X98244150Y-94377400D01*
X98263070Y-94521108D01*
X98263070Y-94521109D01*
X98285461Y-94575165D01*
X98294900Y-94622618D01*
X98294900Y-95783181D01*
X98285462Y-95830632D01*
X98263069Y-95884693D01*
X98244150Y-96028399D01*
X98244150Y-96028400D01*
X98263070Y-96172108D01*
X98263071Y-96172112D01*
X98318537Y-96306022D01*
X98318538Y-96306023D01*
X98318539Y-96306025D01*
X98406779Y-96421021D01*
X98521775Y-96509261D01*
X98655691Y-96564730D01*
X98782680Y-96581448D01*
X98799399Y-96583650D01*
X98799400Y-96583650D01*
X98799401Y-96583650D01*
X98814377Y-96581678D01*
X98943109Y-96564730D01*
X99077025Y-96509261D01*
X99192021Y-96421021D01*
X99280261Y-96306025D01*
X99335730Y-96172109D01*
X99354650Y-96028400D01*
X99348663Y-95982927D01*
X99359428Y-95913893D01*
X99405807Y-95861637D01*
X99473076Y-95842751D01*
X99539877Y-95863231D01*
X99585001Y-95916575D01*
X99586153Y-95919266D01*
X99588539Y-95925025D01*
X99676779Y-96040021D01*
X99791775Y-96128261D01*
X99791776Y-96128261D01*
X99791777Y-96128262D01*
X99831610Y-96144761D01*
X99925691Y-96183730D01*
X100052680Y-96200448D01*
X100069399Y-96202650D01*
X100069400Y-96202650D01*
X100069401Y-96202650D01*
X100084377Y-96200678D01*
X100213109Y-96183730D01*
X100347025Y-96128261D01*
X100462021Y-96040021D01*
X100550261Y-95925025D01*
X100605730Y-95791109D01*
X100624650Y-95647400D01*
X100605730Y-95503691D01*
X100583337Y-95449629D01*
X100573900Y-95402181D01*
X100573900Y-93479618D01*
X100583339Y-93432165D01*
X100605730Y-93378109D01*
X100624650Y-93234400D01*
X100605730Y-93090691D01*
X100550261Y-92956775D01*
X100462021Y-92841779D01*
X100347025Y-92753539D01*
X100347024Y-92753538D01*
X100347022Y-92753537D01*
X100213112Y-92698071D01*
X100213110Y-92698070D01*
X100213109Y-92698070D01*
X100141254Y-92688610D01*
X100069401Y-92679150D01*
X100069399Y-92679150D01*
X99925691Y-92698070D01*
X99925687Y-92698071D01*
X99791777Y-92753537D01*
X99676779Y-92841779D01*
X99588537Y-92956777D01*
X99533071Y-93090687D01*
X99533070Y-93090691D01*
X99527947Y-93129607D01*
X99514150Y-93234400D01*
X99527438Y-93335334D01*
X99533070Y-93378108D01*
X99533070Y-93378109D01*
X99555461Y-93432165D01*
X99564900Y-93479618D01*
X99564900Y-94163566D01*
X99545215Y-94230605D01*
X99492411Y-94276360D01*
X99423253Y-94286304D01*
X99359697Y-94257279D01*
X99326339Y-94211018D01*
X99280262Y-94099777D01*
X99280261Y-94099776D01*
X99280261Y-94099775D01*
X99192021Y-93984779D01*
X99077025Y-93896539D01*
X99077024Y-93896538D01*
X99077022Y-93896537D01*
X98943112Y-93841071D01*
X98943110Y-93841070D01*
X98943109Y-93841070D01*
X98871254Y-93831610D01*
X98799401Y-93822150D01*
X98799399Y-93822150D01*
X98655691Y-93841070D01*
X98655687Y-93841071D01*
X98521777Y-93896537D01*
X98406779Y-93984779D01*
X98318537Y-94099777D01*
X98263071Y-94233687D01*
X98263070Y-94233691D01*
X98244150Y-94377399D01*
X95112900Y-94377399D01*
X95112900Y-93479618D01*
X95122339Y-93432165D01*
X95144730Y-93378109D01*
X95163650Y-93234400D01*
X95144730Y-93090691D01*
X95089261Y-92956775D01*
X95001021Y-92841779D01*
X94886025Y-92753539D01*
X94886024Y-92753538D01*
X94886022Y-92753537D01*
X94752112Y-92698071D01*
X94752110Y-92698070D01*
X94752109Y-92698070D01*
X94680254Y-92688610D01*
X94608401Y-92679150D01*
X94608399Y-92679150D01*
X94464691Y-92698070D01*
X94464687Y-92698071D01*
X94330777Y-92753537D01*
X94215779Y-92841779D01*
X94127537Y-92956777D01*
X94072071Y-93090687D01*
X94072070Y-93090691D01*
X94066947Y-93129607D01*
X94053150Y-93234400D01*
X79015070Y-93234400D01*
X79602540Y-92646929D01*
X79642764Y-92620052D01*
X79696825Y-92597661D01*
X79811821Y-92509421D01*
X79900061Y-92394425D01*
X79922452Y-92340364D01*
X79949329Y-92300140D01*
X82157251Y-90092219D01*
X82218574Y-90058734D01*
X82244932Y-90055900D01*
X96198816Y-90055900D01*
X96198819Y-90055900D01*
X96327130Y-90021519D01*
X96369237Y-89997208D01*
X96442170Y-89955101D01*
X97461190Y-88936079D01*
X97522511Y-88902596D01*
X97565049Y-88900823D01*
X97656400Y-88912850D01*
X97800109Y-88893930D01*
X97854170Y-88871537D01*
X97901619Y-88862100D01*
X99504267Y-88862100D01*
X99571306Y-88881785D01*
X99591948Y-88898419D01*
X100648630Y-89955101D01*
X100763670Y-90021519D01*
X100891981Y-90055900D01*
X100891984Y-90055900D01*
X106130216Y-90055900D01*
X106130219Y-90055900D01*
X106258530Y-90021519D01*
X106300637Y-89997208D01*
X106373570Y-89955101D01*
X107390140Y-88938529D01*
X107430364Y-88911652D01*
X107484425Y-88889261D01*
X107599421Y-88801021D01*
X107687661Y-88686025D01*
X107710052Y-88631964D01*
X107736929Y-88591740D01*
X111522101Y-84806570D01*
X111526155Y-84799548D01*
X111582604Y-84701776D01*
X111582606Y-84701772D01*
X111588517Y-84691533D01*
X111588516Y-84691533D01*
X111588519Y-84691530D01*
X111622900Y-84563219D01*
X111622900Y-77892800D01*
X113712750Y-77892800D01*
X113722396Y-77966071D01*
X113731670Y-78036508D01*
X113731671Y-78036512D01*
X113787137Y-78170422D01*
X113787138Y-78170424D01*
X113787139Y-78170425D01*
X113875379Y-78285421D01*
X113990375Y-78373661D01*
X113990376Y-78373661D01*
X113990377Y-78373662D01*
X114035013Y-78392150D01*
X114124291Y-78429130D01*
X114251280Y-78445848D01*
X114267999Y-78448050D01*
X114268000Y-78448050D01*
X114268001Y-78448050D01*
X114282977Y-78446078D01*
X114411709Y-78429130D01*
X114545625Y-78373661D01*
X114660621Y-78285421D01*
X114748861Y-78170425D01*
X114771252Y-78116364D01*
X114798127Y-78076141D01*
X115128900Y-77745370D01*
X115195319Y-77630330D01*
X115205723Y-77591501D01*
X115229700Y-77502019D01*
X115229700Y-75953618D01*
X115239139Y-75906165D01*
X115261530Y-75852109D01*
X115280450Y-75708400D01*
X115261530Y-75564691D01*
X115206061Y-75430775D01*
X115117821Y-75315779D01*
X115002825Y-75227539D01*
X115002824Y-75227538D01*
X115002822Y-75227537D01*
X114868912Y-75172071D01*
X114868910Y-75172070D01*
X114868909Y-75172070D01*
X114797054Y-75162610D01*
X114725201Y-75153150D01*
X114725199Y-75153150D01*
X114581491Y-75172070D01*
X114581487Y-75172071D01*
X114447577Y-75227537D01*
X114332579Y-75315779D01*
X114244337Y-75430777D01*
X114188871Y-75564687D01*
X114188870Y-75564691D01*
X114169950Y-75708399D01*
X114169950Y-75708400D01*
X114188870Y-75852108D01*
X114188870Y-75852109D01*
X114211261Y-75906165D01*
X114220700Y-75953618D01*
X114220700Y-77175267D01*
X114201015Y-77242306D01*
X114184385Y-77262943D01*
X114084661Y-77362668D01*
X114044434Y-77389547D01*
X113990375Y-77411939D01*
X113875379Y-77500179D01*
X113787137Y-77615177D01*
X113731671Y-77749087D01*
X113731670Y-77749091D01*
X113712750Y-77892800D01*
X111622900Y-77892800D01*
X111622900Y-73784333D01*
X111642585Y-73717294D01*
X111659219Y-73696652D01*
X114161419Y-71194452D01*
X114222742Y-71160967D01*
X114292434Y-71165951D01*
X114348367Y-71207823D01*
X114372784Y-71273287D01*
X114373100Y-71282133D01*
X114373100Y-72422019D01*
X114407481Y-72550330D01*
X114431791Y-72592437D01*
X114473899Y-72665370D01*
X114473900Y-72665371D01*
X114473901Y-72665372D01*
X126071581Y-84263051D01*
X126105066Y-84324374D01*
X126107900Y-84350732D01*
X126107900Y-87458818D01*
X126142280Y-87587128D01*
X126145931Y-87593451D01*
X126145931Y-87593453D01*
X126208694Y-87702163D01*
X126208700Y-87702171D01*
X127098267Y-88591738D01*
X127125147Y-88631966D01*
X127126496Y-88635222D01*
X127147539Y-88686025D01*
X127235779Y-88801021D01*
X127350775Y-88889261D01*
X127350776Y-88889261D01*
X127350777Y-88889262D01*
X127382969Y-88902596D01*
X127484691Y-88944730D01*
X127611680Y-88961448D01*
X127628399Y-88963650D01*
X127628400Y-88963650D01*
X127628401Y-88963650D01*
X127664327Y-88958920D01*
X127772109Y-88944730D01*
X127826170Y-88922337D01*
X127873619Y-88912900D01*
X129345816Y-88912900D01*
X129345819Y-88912900D01*
X129474130Y-88878519D01*
X129546649Y-88836650D01*
X129589170Y-88812101D01*
X130722052Y-87679219D01*
X130783375Y-87645734D01*
X130809733Y-87642900D01*
X135292867Y-87642900D01*
X135359906Y-87662585D01*
X135380548Y-87679219D01*
X136242267Y-88540938D01*
X136269147Y-88581166D01*
X136291538Y-88635222D01*
X136291539Y-88635225D01*
X136379779Y-88750221D01*
X136494775Y-88838461D01*
X136628691Y-88893930D01*
X136755680Y-88910648D01*
X136772399Y-88912850D01*
X136772400Y-88912850D01*
X136772401Y-88912850D01*
X136787377Y-88910878D01*
X136916109Y-88893930D01*
X137050025Y-88838461D01*
X137165021Y-88750221D01*
X137253261Y-88635225D01*
X137308730Y-88501309D01*
X137327650Y-88357600D01*
X137308730Y-88213891D01*
X137253261Y-88079975D01*
X137165021Y-87964979D01*
X137050025Y-87876739D01*
X137050023Y-87876738D01*
X136995966Y-87854347D01*
X136955738Y-87827467D01*
X135862972Y-86734701D01*
X135862970Y-86734699D01*
X135820450Y-86710150D01*
X135790038Y-86692591D01*
X135790037Y-86692591D01*
X135747930Y-86668281D01*
X135747931Y-86668281D01*
X135715852Y-86659685D01*
X135619619Y-86633900D01*
X130482981Y-86633900D01*
X130405994Y-86654528D01*
X130354668Y-86668281D01*
X130354667Y-86668282D01*
X130239633Y-86734696D01*
X130239628Y-86734700D01*
X129106748Y-87867581D01*
X129045425Y-87901066D01*
X129019067Y-87903900D01*
X127888733Y-87903900D01*
X127821694Y-87884215D01*
X127801052Y-87867581D01*
X127153219Y-87219748D01*
X127119734Y-87158425D01*
X127116900Y-87132067D01*
X127116900Y-84023983D01*
X127116900Y-84023981D01*
X127082519Y-83895670D01*
X127016100Y-83780630D01*
X126922170Y-83686700D01*
X119020094Y-75784623D01*
X123145300Y-75784623D01*
X123145300Y-77433980D01*
X123159832Y-77507037D01*
X123159833Y-77507041D01*
X123159834Y-77507042D01*
X123215199Y-77589903D01*
X123298060Y-77645268D01*
X123298064Y-77645269D01*
X123371121Y-77659801D01*
X123371124Y-77659802D01*
X123371126Y-77659802D01*
X125020476Y-77659802D01*
X125020477Y-77659801D01*
X125093540Y-77645268D01*
X125176401Y-77589903D01*
X125231766Y-77507042D01*
X125246300Y-77433976D01*
X125246300Y-75784628D01*
X125246300Y-75784625D01*
X125246299Y-75784623D01*
X125231767Y-75711566D01*
X125231766Y-75711562D01*
X125229653Y-75708399D01*
X125176401Y-75628701D01*
X125093540Y-75573336D01*
X125093539Y-75573335D01*
X125093535Y-75573334D01*
X125020477Y-75558802D01*
X125020474Y-75558802D01*
X123371126Y-75558802D01*
X123371123Y-75558802D01*
X123298064Y-75573334D01*
X123298060Y-75573335D01*
X123215199Y-75628701D01*
X123159833Y-75711562D01*
X123159832Y-75711566D01*
X123145300Y-75784623D01*
X119020094Y-75784623D01*
X115418419Y-72182948D01*
X115384934Y-72121625D01*
X115382100Y-72095267D01*
X115382100Y-70010018D01*
X115391539Y-69962565D01*
X115413930Y-69908509D01*
X115432850Y-69764800D01*
X115413930Y-69621091D01*
X115391537Y-69567029D01*
X115382100Y-69519581D01*
X115382100Y-63319532D01*
X115401785Y-63252493D01*
X115418414Y-63231856D01*
X124408140Y-54242129D01*
X124448364Y-54215252D01*
X124502425Y-54192861D01*
X124617421Y-54104621D01*
X124705661Y-53989625D01*
X124761130Y-53855709D01*
X124780050Y-53712000D01*
X124761130Y-53568291D01*
X124705661Y-53434375D01*
X124617421Y-53319379D01*
X124502425Y-53231139D01*
X124502424Y-53231138D01*
X124502422Y-53231137D01*
X124368512Y-53175671D01*
X124368510Y-53175670D01*
X124368509Y-53175670D01*
X124296654Y-53166210D01*
X124224801Y-53156750D01*
X124224799Y-53156750D01*
X124081091Y-53175670D01*
X124081087Y-53175671D01*
X123947177Y-53231137D01*
X123832179Y-53319379D01*
X123743939Y-53434375D01*
X123743938Y-53434376D01*
X123743938Y-53434377D01*
X123721547Y-53488433D01*
X123694667Y-53528660D01*
X114473901Y-62749427D01*
X114473895Y-62749436D01*
X114431790Y-62822360D01*
X114431791Y-62822361D01*
X114407482Y-62864465D01*
X114407481Y-62864470D01*
X114373100Y-62992781D01*
X114373100Y-62992783D01*
X114373100Y-69504466D01*
X114353415Y-69571505D01*
X114336781Y-69592147D01*
X110714701Y-73214227D01*
X110714695Y-73214236D01*
X110672590Y-73287160D01*
X110672591Y-73287161D01*
X110648282Y-73329265D01*
X110648281Y-73329270D01*
X110613900Y-73457581D01*
X110613900Y-73457583D01*
X110613900Y-84236466D01*
X110594215Y-84303505D01*
X110577581Y-84324147D01*
X107023460Y-87878267D01*
X106983233Y-87905147D01*
X106929177Y-87927538D01*
X106929175Y-87927539D01*
X106814179Y-88015779D01*
X106725939Y-88130775D01*
X106725938Y-88130776D01*
X106725938Y-88130777D01*
X106703547Y-88184833D01*
X106676667Y-88225060D01*
X105891148Y-89010581D01*
X105829825Y-89044066D01*
X105803467Y-89046900D01*
X101218733Y-89046900D01*
X101151694Y-89027215D01*
X101131052Y-89010581D01*
X100074371Y-87953900D01*
X100074363Y-87953894D01*
X99987768Y-87903899D01*
X99987766Y-87903898D01*
X99959335Y-87887483D01*
X99959334Y-87887482D01*
X99947141Y-87884215D01*
X99831019Y-87853100D01*
X99831016Y-87853100D01*
X97901619Y-87853100D01*
X97854170Y-87843662D01*
X97800109Y-87821270D01*
X97800108Y-87821269D01*
X97800106Y-87821269D01*
X97656401Y-87802350D01*
X97656399Y-87802350D01*
X97512693Y-87821269D01*
X97512691Y-87821270D01*
X97458629Y-87843662D01*
X97411181Y-87853100D01*
X97259781Y-87853100D01*
X97188981Y-87872071D01*
X97131468Y-87887481D01*
X97131467Y-87887482D01*
X97016433Y-87953896D01*
X97016428Y-87953900D01*
X95959748Y-89010581D01*
X95898425Y-89044066D01*
X95872067Y-89046900D01*
X82613100Y-89046900D01*
X82546061Y-89027215D01*
X82500306Y-88974411D01*
X82489100Y-88922900D01*
X82489100Y-85493268D01*
X82508785Y-85426229D01*
X82561589Y-85380474D01*
X82630747Y-85370530D01*
X82688585Y-85394892D01*
X82773775Y-85460261D01*
X82907691Y-85515730D01*
X83034680Y-85532448D01*
X83051399Y-85534650D01*
X83051400Y-85534650D01*
X83051401Y-85534650D01*
X83087327Y-85529920D01*
X83195109Y-85515730D01*
X83249170Y-85493337D01*
X83296619Y-85483900D01*
X99881816Y-85483900D01*
X99881819Y-85483900D01*
X100010130Y-85449519D01*
X100052237Y-85425208D01*
X100125170Y-85383101D01*
X106475740Y-79032529D01*
X106515964Y-79005652D01*
X106570025Y-78983261D01*
X106685021Y-78895021D01*
X106773261Y-78780025D01*
X106828730Y-78646109D01*
X106847650Y-78502400D01*
X106828730Y-78358691D01*
X106773261Y-78224775D01*
X106685021Y-78109779D01*
X106570025Y-78021539D01*
X106570024Y-78021538D01*
X106570022Y-78021537D01*
X106436112Y-77966071D01*
X106436110Y-77966070D01*
X106436109Y-77966070D01*
X106364254Y-77956610D01*
X106292401Y-77947150D01*
X106292399Y-77947150D01*
X106148691Y-77966070D01*
X106148687Y-77966071D01*
X106014777Y-78021537D01*
X105943624Y-78076135D01*
X105899779Y-78109779D01*
X105811539Y-78224775D01*
X105811538Y-78224776D01*
X105811538Y-78224777D01*
X105789147Y-78278833D01*
X105762267Y-78319060D01*
X99642748Y-84438581D01*
X99581425Y-84472066D01*
X99555067Y-84474900D01*
X83296619Y-84474900D01*
X83249170Y-84465462D01*
X83195109Y-84443070D01*
X83195108Y-84443069D01*
X83195106Y-84443069D01*
X83051401Y-84424150D01*
X83051399Y-84424150D01*
X82907691Y-84443070D01*
X82907687Y-84443071D01*
X82773777Y-84498537D01*
X82738235Y-84525810D01*
X82688585Y-84563907D01*
X82623417Y-84589101D01*
X82554973Y-84575063D01*
X82504983Y-84526249D01*
X82489100Y-84465531D01*
X82489100Y-80340983D01*
X82489100Y-80340981D01*
X82454719Y-80212670D01*
X82388301Y-80097630D01*
X80203331Y-77912660D01*
X80176451Y-77872432D01*
X80154061Y-77818375D01*
X80065821Y-77703379D01*
X79950825Y-77615139D01*
X79950824Y-77615138D01*
X79950822Y-77615137D01*
X79816912Y-77559671D01*
X79816910Y-77559670D01*
X79816909Y-77559670D01*
X79745054Y-77550210D01*
X79673201Y-77540750D01*
X79673199Y-77540750D01*
X79529491Y-77559670D01*
X79529487Y-77559671D01*
X79395577Y-77615137D01*
X79280579Y-77703379D01*
X79192337Y-77818377D01*
X79136871Y-77952287D01*
X79136870Y-77952291D01*
X79117950Y-78095999D01*
X79117950Y-78096000D01*
X79136870Y-78239708D01*
X79136871Y-78239712D01*
X79192337Y-78373622D01*
X79192338Y-78373624D01*
X79192339Y-78373625D01*
X79280579Y-78488621D01*
X79395575Y-78576861D01*
X79449632Y-78599251D01*
X79489860Y-78626131D01*
X81443781Y-80580052D01*
X81477266Y-80641375D01*
X81480100Y-80667733D01*
X81480100Y-89291066D01*
X81460415Y-89358105D01*
X81443781Y-89378747D01*
X79235860Y-91586667D01*
X79195633Y-91613547D01*
X79141577Y-91635938D01*
X79141575Y-91635939D01*
X79026579Y-91724179D01*
X78938339Y-91839175D01*
X78938338Y-91839176D01*
X78938338Y-91839177D01*
X78915947Y-91893233D01*
X78889067Y-91933460D01*
X78128948Y-92693581D01*
X78067625Y-92727066D01*
X78041267Y-92729900D01*
X60019933Y-92729900D01*
X59952894Y-92710215D01*
X59932252Y-92693581D01*
X59324531Y-92085860D01*
X59297651Y-92045632D01*
X59275261Y-91991575D01*
X59187021Y-91876579D01*
X59072025Y-91788339D01*
X59072024Y-91788338D01*
X59072022Y-91788337D01*
X58938112Y-91732871D01*
X58938110Y-91732870D01*
X58938109Y-91732870D01*
X58866254Y-91723410D01*
X58794401Y-91713950D01*
X58794399Y-91713950D01*
X58650691Y-91732870D01*
X58650687Y-91732871D01*
X58516777Y-91788337D01*
X58401779Y-91876579D01*
X58313537Y-91991577D01*
X58258071Y-92125487D01*
X58258070Y-92125491D01*
X58252168Y-92170324D01*
X58239150Y-92269200D01*
X58255636Y-92394425D01*
X58258070Y-92412908D01*
X58258070Y-92412909D01*
X58280461Y-92466965D01*
X58289900Y-92514418D01*
X58289900Y-93863067D01*
X58270215Y-93930106D01*
X58253581Y-93950748D01*
X55446748Y-96757581D01*
X55385425Y-96791066D01*
X55359067Y-96793900D01*
X49783733Y-96793900D01*
X49716694Y-96774215D01*
X49696052Y-96757581D01*
X48458871Y-95520400D01*
X51635150Y-95520400D01*
X51652662Y-95653418D01*
X51654070Y-95664108D01*
X51654071Y-95664112D01*
X51709537Y-95798022D01*
X51709538Y-95798024D01*
X51709539Y-95798025D01*
X51797779Y-95913021D01*
X51912775Y-96001261D01*
X52046691Y-96056730D01*
X52173680Y-96073448D01*
X52190399Y-96075650D01*
X52190400Y-96075650D01*
X52190401Y-96075650D01*
X52205377Y-96073678D01*
X52334109Y-96056730D01*
X52468025Y-96001261D01*
X52583021Y-95913021D01*
X52671261Y-95798025D01*
X52726730Y-95664109D01*
X52745650Y-95520400D01*
X52726730Y-95376691D01*
X52671261Y-95242775D01*
X52647854Y-95212271D01*
X52593524Y-95141466D01*
X52568330Y-95076297D01*
X52567900Y-95065980D01*
X52567900Y-93569126D01*
X52587585Y-93502087D01*
X52604214Y-93481450D01*
X57216009Y-88869654D01*
X57277330Y-88836171D01*
X57287495Y-88834399D01*
X57414109Y-88817730D01*
X57548025Y-88762261D01*
X57663021Y-88674021D01*
X57751261Y-88559025D01*
X57806730Y-88425109D01*
X57825650Y-88281400D01*
X57806730Y-88137691D01*
X57751261Y-88003775D01*
X57663021Y-87888779D01*
X57548025Y-87800539D01*
X57548024Y-87800538D01*
X57548022Y-87800537D01*
X57414112Y-87745071D01*
X57414110Y-87745070D01*
X57414109Y-87745070D01*
X57341563Y-87735519D01*
X57270401Y-87726150D01*
X57270399Y-87726150D01*
X57126691Y-87745070D01*
X57126687Y-87745071D01*
X56992777Y-87800537D01*
X56877779Y-87888779D01*
X56789537Y-88003777D01*
X56734071Y-88137687D01*
X56734070Y-88137691D01*
X56717401Y-88264296D01*
X56689134Y-88328192D01*
X56682143Y-88335790D01*
X51888327Y-93129607D01*
X51888325Y-93129610D01*
X51838625Y-93215690D01*
X51838625Y-93215691D01*
X51831485Y-93242335D01*
X51831486Y-93242336D01*
X51812900Y-93311701D01*
X51812900Y-95065980D01*
X51793215Y-95133019D01*
X51787276Y-95141466D01*
X51709539Y-95242774D01*
X51709538Y-95242776D01*
X51654071Y-95376687D01*
X51654070Y-95376691D01*
X51637350Y-95503693D01*
X51635150Y-95520400D01*
X48458871Y-95520400D01*
X44803971Y-91865500D01*
X44803970Y-91865499D01*
X44722911Y-91818700D01*
X44722910Y-91818699D01*
X44688935Y-91799083D01*
X44688934Y-91799082D01*
X44678412Y-91796262D01*
X44560619Y-91764700D01*
X44560616Y-91764700D01*
X44206019Y-91764700D01*
X44158570Y-91755262D01*
X44104509Y-91732870D01*
X44104508Y-91732869D01*
X44104506Y-91732869D01*
X43960801Y-91713950D01*
X43960799Y-91713950D01*
X43817091Y-91732870D01*
X43817087Y-91732871D01*
X43683177Y-91788337D01*
X43568179Y-91876579D01*
X43479937Y-91991577D01*
X43424471Y-92125487D01*
X43424470Y-92125491D01*
X43418568Y-92170324D01*
X43405550Y-92269200D01*
X39719463Y-92269200D01*
X42586475Y-89402190D01*
X42636173Y-89316110D01*
X42636174Y-89316109D01*
X42661900Y-89220099D01*
X42661900Y-89116818D01*
X42681585Y-89049779D01*
X42687516Y-89041342D01*
X42765261Y-88940025D01*
X42820730Y-88806109D01*
X42839650Y-88662400D01*
X42820730Y-88518691D01*
X42765261Y-88384775D01*
X42765260Y-88384774D01*
X42765260Y-88384773D01*
X42738874Y-88350387D01*
X42713679Y-88285218D01*
X42727717Y-88216773D01*
X42776531Y-88166783D01*
X42837249Y-88150900D01*
X47358067Y-88150900D01*
X47425106Y-88170585D01*
X47445748Y-88187219D01*
X48070630Y-88812101D01*
X48113151Y-88836650D01*
X48113152Y-88836650D01*
X48131280Y-88847117D01*
X48185664Y-88878516D01*
X48185665Y-88878517D01*
X48185667Y-88878517D01*
X48185670Y-88878519D01*
X48313981Y-88912900D01*
X48313982Y-88912900D01*
X48446819Y-88912900D01*
X49024181Y-88912900D01*
X49071629Y-88922337D01*
X49125691Y-88944730D01*
X49221497Y-88957343D01*
X49269399Y-88963650D01*
X49269400Y-88963650D01*
X49269401Y-88963650D01*
X49305327Y-88958920D01*
X49413109Y-88944730D01*
X49467170Y-88922337D01*
X49514619Y-88912900D01*
X51735981Y-88912900D01*
X51803020Y-88932585D01*
X51811452Y-88938513D01*
X51912775Y-89016261D01*
X51912776Y-89016261D01*
X51912777Y-89016262D01*
X51939221Y-89027215D01*
X52046691Y-89071730D01*
X52168168Y-89087723D01*
X52190399Y-89090650D01*
X52190400Y-89090650D01*
X52190401Y-89090650D01*
X52226327Y-89085920D01*
X52334109Y-89071730D01*
X52388170Y-89049337D01*
X52435619Y-89039900D01*
X52637816Y-89039900D01*
X52637819Y-89039900D01*
X52766130Y-89005519D01*
X52838649Y-88963650D01*
X52881170Y-88939101D01*
X53991101Y-87829170D01*
X54575877Y-87244394D01*
X54637200Y-87210909D01*
X54663558Y-87208075D01*
X73847242Y-87208075D01*
X73914281Y-87227760D01*
X73934923Y-87244394D01*
X74359630Y-87669101D01*
X74474671Y-87735520D01*
X74568597Y-87760686D01*
X74568599Y-87760687D01*
X74568600Y-87760687D01*
X74577813Y-87763155D01*
X74602981Y-87769900D01*
X74602982Y-87769900D01*
X74735819Y-87769900D01*
X76710181Y-87769900D01*
X76757629Y-87779337D01*
X76811691Y-87801730D01*
X76907497Y-87814343D01*
X76955399Y-87820650D01*
X76955400Y-87820650D01*
X76955401Y-87820650D01*
X76970377Y-87818678D01*
X77099109Y-87801730D01*
X77233025Y-87746261D01*
X77348021Y-87658021D01*
X77436261Y-87543025D01*
X77491730Y-87409109D01*
X77510650Y-87265400D01*
X77491730Y-87121691D01*
X77436261Y-86987775D01*
X77348021Y-86872779D01*
X77233025Y-86784539D01*
X77233024Y-86784538D01*
X77233022Y-86784537D01*
X77099112Y-86729071D01*
X77099110Y-86729070D01*
X77099109Y-86729070D01*
X77027254Y-86719610D01*
X76955401Y-86710150D01*
X76955399Y-86710150D01*
X76811693Y-86729069D01*
X76798108Y-86734696D01*
X76757629Y-86751462D01*
X76710181Y-86760900D01*
X74929733Y-86760900D01*
X74862694Y-86741215D01*
X74842052Y-86724581D01*
X74417347Y-86299876D01*
X74417345Y-86299874D01*
X74391895Y-86285180D01*
X74344413Y-86257766D01*
X74344412Y-86257766D01*
X74302305Y-86233456D01*
X74302306Y-86233456D01*
X74270227Y-86224860D01*
X74173994Y-86199075D01*
X74173991Y-86199075D01*
X70720414Y-86199075D01*
X70653375Y-86179390D01*
X70607620Y-86126586D01*
X70597676Y-86057428D01*
X70611054Y-86016624D01*
X70698232Y-85853529D01*
X70758300Y-85655509D01*
X70778583Y-85449575D01*
X70758300Y-85243641D01*
X70698232Y-85045621D01*
X70600685Y-84863125D01*
X70469410Y-84703165D01*
X70468227Y-84701723D01*
X70440915Y-84637413D01*
X70452706Y-84568546D01*
X70499859Y-84516986D01*
X70542035Y-84502951D01*
X70541700Y-84501264D01*
X70620735Y-84485542D01*
X70620735Y-84485541D01*
X70620740Y-84485541D01*
X70703601Y-84430176D01*
X70758966Y-84347315D01*
X70773500Y-84274249D01*
X70773500Y-82624901D01*
X70773500Y-82624898D01*
X70773499Y-82624896D01*
X70758967Y-82551839D01*
X70758966Y-82551835D01*
X70703601Y-82468974D01*
X70620740Y-82413609D01*
X70620739Y-82413608D01*
X70620735Y-82413607D01*
X70547677Y-82399075D01*
X70547674Y-82399075D01*
X68898326Y-82399075D01*
X68898323Y-82399075D01*
X68825264Y-82413607D01*
X68825260Y-82413608D01*
X68742399Y-82468974D01*
X68687033Y-82551835D01*
X68687032Y-82551839D01*
X68672500Y-82624896D01*
X68672500Y-84274253D01*
X68687032Y-84347310D01*
X68687033Y-84347314D01*
X68687034Y-84347315D01*
X68742399Y-84430176D01*
X68825260Y-84485541D01*
X68825264Y-84485542D01*
X68904300Y-84501264D01*
X68903835Y-84503600D01*
X68958850Y-84525810D01*
X68999214Y-84582840D01*
X69002338Y-84652640D01*
X68977772Y-84701723D01*
X68845317Y-84863121D01*
X68747769Y-85045618D01*
X68687699Y-85243642D01*
X68667417Y-85449575D01*
X68687699Y-85655507D01*
X68687700Y-85655509D01*
X68747768Y-85853529D01*
X68834944Y-86016623D01*
X68849186Y-86085024D01*
X68824186Y-86150268D01*
X68767882Y-86191639D01*
X68725586Y-86199075D01*
X54336806Y-86199075D01*
X54246612Y-86223242D01*
X54208490Y-86233457D01*
X54166386Y-86257766D01*
X54093461Y-86299870D01*
X54093452Y-86299876D01*
X53277630Y-87115699D01*
X52450251Y-87943077D01*
X52388928Y-87976562D01*
X52319236Y-87971578D01*
X52300575Y-87962786D01*
X52289118Y-87956172D01*
X52289114Y-87956170D01*
X52285182Y-87953900D01*
X52258130Y-87938281D01*
X52129819Y-87903900D01*
X52129816Y-87903900D01*
X49514619Y-87903900D01*
X49467170Y-87894462D01*
X49413109Y-87872070D01*
X49413108Y-87872069D01*
X49413106Y-87872069D01*
X49269401Y-87853150D01*
X49269399Y-87853150D01*
X49125693Y-87872069D01*
X49114421Y-87876738D01*
X49071629Y-87894462D01*
X49024181Y-87903900D01*
X48640733Y-87903900D01*
X48573694Y-87884215D01*
X48553052Y-87867581D01*
X47928171Y-87242700D01*
X47928170Y-87242699D01*
X47850178Y-87197671D01*
X47813130Y-87176281D01*
X47684819Y-87141900D01*
X39677981Y-87141900D01*
X39549670Y-87176281D01*
X39549668Y-87176281D01*
X39549668Y-87176282D01*
X39512624Y-87197670D01*
X39512622Y-87197671D01*
X39434631Y-87242698D01*
X39434628Y-87242700D01*
X38809748Y-87867581D01*
X38748425Y-87901066D01*
X38722067Y-87903900D01*
X38592619Y-87903900D01*
X38545170Y-87894462D01*
X38491109Y-87872070D01*
X38491108Y-87872069D01*
X38491106Y-87872069D01*
X38347401Y-87853150D01*
X38347399Y-87853150D01*
X38203691Y-87872070D01*
X38203687Y-87872071D01*
X38069777Y-87927537D01*
X38032460Y-87956172D01*
X37954779Y-88015779D01*
X37954778Y-88015780D01*
X37954777Y-88015781D01*
X37882950Y-88109387D01*
X37826522Y-88150589D01*
X37784575Y-88157900D01*
X36433619Y-88157900D01*
X36386170Y-88148462D01*
X36332109Y-88126070D01*
X36332108Y-88126069D01*
X36332106Y-88126069D01*
X36188401Y-88107150D01*
X36188399Y-88107150D01*
X36044691Y-88126070D01*
X36044687Y-88126071D01*
X35910777Y-88181537D01*
X35795779Y-88269779D01*
X35707537Y-88384777D01*
X35652071Y-88518687D01*
X35652070Y-88518691D01*
X35633150Y-88662399D01*
X32858300Y-88662399D01*
X32858300Y-78177225D01*
X39984417Y-78177225D01*
X40004699Y-78383157D01*
X40018645Y-78429130D01*
X40064768Y-78581179D01*
X40162315Y-78763675D01*
X40175731Y-78780022D01*
X40294772Y-78925076D01*
X40322084Y-78989386D01*
X40310293Y-79058253D01*
X40263140Y-79109813D01*
X40220966Y-79123859D01*
X40221300Y-79125536D01*
X40142264Y-79141257D01*
X40142260Y-79141258D01*
X40059399Y-79196624D01*
X40004033Y-79279485D01*
X40004032Y-79279489D01*
X39989500Y-79352546D01*
X39989500Y-81001903D01*
X40004032Y-81074960D01*
X40004033Y-81074964D01*
X40004034Y-81074965D01*
X40059399Y-81157826D01*
X40142260Y-81213191D01*
X40142264Y-81213192D01*
X40215321Y-81227724D01*
X40215324Y-81227725D01*
X40215326Y-81227725D01*
X41864676Y-81227725D01*
X41864677Y-81227724D01*
X41937740Y-81213191D01*
X42020601Y-81157826D01*
X42075966Y-81074965D01*
X42090500Y-81001899D01*
X42090500Y-79352551D01*
X42090500Y-79352548D01*
X42090499Y-79352546D01*
X42075967Y-79279489D01*
X42075966Y-79279485D01*
X42020601Y-79196624D01*
X41937740Y-79141259D01*
X41937739Y-79141258D01*
X41937735Y-79141257D01*
X41858700Y-79125536D01*
X41859162Y-79123210D01*
X41804101Y-79100951D01*
X41763765Y-79043901D01*
X41760676Y-78974099D01*
X41785228Y-78925075D01*
X41809892Y-78895022D01*
X41917685Y-78763675D01*
X42015232Y-78581179D01*
X42075300Y-78383159D01*
X42095583Y-78177225D01*
X54821217Y-78177225D01*
X54841499Y-78383157D01*
X54855445Y-78429130D01*
X54901568Y-78581179D01*
X54999115Y-78763675D01*
X55012531Y-78780022D01*
X55131572Y-78925076D01*
X55158884Y-78989386D01*
X55147093Y-79058253D01*
X55099940Y-79109813D01*
X55057766Y-79123859D01*
X55058100Y-79125536D01*
X54979064Y-79141257D01*
X54979060Y-79141258D01*
X54896199Y-79196624D01*
X54840833Y-79279485D01*
X54840832Y-79279489D01*
X54826300Y-79352546D01*
X54826300Y-81001903D01*
X54840832Y-81074960D01*
X54840833Y-81074964D01*
X54840834Y-81074965D01*
X54896199Y-81157826D01*
X54979060Y-81213191D01*
X54979064Y-81213192D01*
X55052121Y-81227724D01*
X55052124Y-81227725D01*
X55052126Y-81227725D01*
X56701476Y-81227725D01*
X56701477Y-81227724D01*
X56774540Y-81213191D01*
X56857401Y-81157826D01*
X56912766Y-81074965D01*
X56927300Y-81001899D01*
X56927300Y-79352551D01*
X56927300Y-79352548D01*
X56927299Y-79352546D01*
X56912767Y-79279489D01*
X56912766Y-79279485D01*
X56857401Y-79196624D01*
X56774540Y-79141259D01*
X56774539Y-79141258D01*
X56774535Y-79141257D01*
X56695500Y-79125536D01*
X56695962Y-79123210D01*
X56640901Y-79100951D01*
X56600565Y-79043901D01*
X56597476Y-78974099D01*
X56622028Y-78925075D01*
X56646692Y-78895022D01*
X56754485Y-78763675D01*
X56852032Y-78581179D01*
X56912100Y-78383159D01*
X56932383Y-78177225D01*
X56912100Y-77971291D01*
X56852032Y-77773271D01*
X56754485Y-77590775D01*
X56685767Y-77507041D01*
X56623210Y-77430814D01*
X56463252Y-77299542D01*
X56463253Y-77299542D01*
X56463250Y-77299540D01*
X56280754Y-77201993D01*
X56082734Y-77141925D01*
X56082732Y-77141924D01*
X56082734Y-77141924D01*
X55876800Y-77121642D01*
X55670867Y-77141924D01*
X55472843Y-77201994D01*
X55397426Y-77242306D01*
X55290350Y-77299540D01*
X55290348Y-77299541D01*
X55290347Y-77299542D01*
X55130389Y-77430814D01*
X54999117Y-77590772D01*
X54999115Y-77590775D01*
X54998727Y-77591501D01*
X54901569Y-77773268D01*
X54841499Y-77971292D01*
X54821217Y-78177225D01*
X42095583Y-78177225D01*
X42075300Y-77971291D01*
X42015232Y-77773271D01*
X41917685Y-77590775D01*
X41848967Y-77507041D01*
X41786410Y-77430814D01*
X41626452Y-77299542D01*
X41626453Y-77299542D01*
X41626450Y-77299540D01*
X41443954Y-77201993D01*
X41245934Y-77141925D01*
X41245932Y-77141924D01*
X41245934Y-77141924D01*
X41040000Y-77121642D01*
X40834067Y-77141924D01*
X40636043Y-77201994D01*
X40560626Y-77242306D01*
X40453550Y-77299540D01*
X40453548Y-77299541D01*
X40453547Y-77299542D01*
X40293589Y-77430814D01*
X40162317Y-77590772D01*
X40162315Y-77590775D01*
X40161927Y-77591501D01*
X40064769Y-77773268D01*
X40004699Y-77971292D01*
X39984417Y-78177225D01*
X32858300Y-78177225D01*
X32858300Y-59694116D01*
X83437899Y-59694116D01*
X83452937Y-59789063D01*
X83452938Y-59789066D01*
X83452939Y-59789068D01*
X83511254Y-59903518D01*
X83511255Y-59903519D01*
X83511258Y-59903523D01*
X83602076Y-59994341D01*
X83602080Y-59994344D01*
X83602082Y-59994346D01*
X83716532Y-60052661D01*
X83716534Y-60052661D01*
X83716536Y-60052662D01*
X83811483Y-60067700D01*
X83811484Y-60067700D01*
X84300316Y-60067700D01*
X84395263Y-60052662D01*
X84395263Y-60052661D01*
X84395268Y-60052661D01*
X84509718Y-59994346D01*
X84600546Y-59903518D01*
X84658861Y-59789068D01*
X84673900Y-59694116D01*
X84673900Y-59320284D01*
X84658861Y-59225332D01*
X84600546Y-59110882D01*
X84600544Y-59110880D01*
X84600541Y-59110876D01*
X84596719Y-59107054D01*
X84563234Y-59045731D01*
X84560400Y-59019373D01*
X84560400Y-58292460D01*
X84569839Y-58245007D01*
X84578330Y-58224509D01*
X84597250Y-58080800D01*
X84578330Y-57937091D01*
X84522861Y-57803175D01*
X84434621Y-57688179D01*
X84319625Y-57599939D01*
X84319624Y-57599938D01*
X84319622Y-57599937D01*
X84185712Y-57544471D01*
X84185710Y-57544470D01*
X84185709Y-57544470D01*
X84113854Y-57535010D01*
X84042001Y-57525550D01*
X84041999Y-57525550D01*
X83898291Y-57544470D01*
X83898287Y-57544471D01*
X83764377Y-57599937D01*
X83649379Y-57688179D01*
X83561137Y-57803177D01*
X83505671Y-57937087D01*
X83505670Y-57937091D01*
X83486750Y-58080800D01*
X83505670Y-58224509D01*
X83514160Y-58245007D01*
X83541961Y-58312123D01*
X83551400Y-58359576D01*
X83551400Y-59019373D01*
X83531715Y-59086412D01*
X83515081Y-59107054D01*
X83511258Y-59110876D01*
X83511255Y-59110880D01*
X83452937Y-59225336D01*
X83437900Y-59320283D01*
X83437900Y-59694116D01*
X83437899Y-59694116D01*
X32858300Y-59694116D01*
X32858300Y-52289600D01*
X81453553Y-52289600D01*
X81474034Y-52432056D01*
X81515779Y-52523463D01*
X81533823Y-52562973D01*
X81628072Y-52671743D01*
X81749147Y-52749553D01*
X81749150Y-52749554D01*
X81749149Y-52749554D01*
X81887236Y-52790099D01*
X81887238Y-52790100D01*
X81995645Y-52790100D01*
X82062684Y-52809785D01*
X82108439Y-52862589D01*
X82115833Y-52889542D01*
X82116724Y-52889332D01*
X82118507Y-52896879D01*
X82168802Y-53031728D01*
X82168806Y-53031735D01*
X82255052Y-53146944D01*
X82255055Y-53146947D01*
X82370264Y-53233193D01*
X82370271Y-53233197D01*
X82415218Y-53249961D01*
X82505117Y-53283491D01*
X82564727Y-53289900D01*
X83335472Y-53289899D01*
X83395083Y-53283491D01*
X83529931Y-53233196D01*
X83645146Y-53146946D01*
X83731396Y-53031731D01*
X83781691Y-52896883D01*
X83788100Y-52837273D01*
X83788099Y-51791528D01*
X83781691Y-51731917D01*
X83778583Y-51723585D01*
X83731397Y-51597071D01*
X83731393Y-51597064D01*
X83645147Y-51481855D01*
X83645144Y-51481852D01*
X83529935Y-51395606D01*
X83529928Y-51395602D01*
X83395086Y-51345310D01*
X83395085Y-51345309D01*
X83395083Y-51345309D01*
X83335473Y-51338900D01*
X83335463Y-51338900D01*
X82564729Y-51338900D01*
X82564723Y-51338901D01*
X82505116Y-51345308D01*
X82370271Y-51395602D01*
X82370264Y-51395606D01*
X82255055Y-51481852D01*
X82255052Y-51481855D01*
X82168806Y-51597064D01*
X82168802Y-51597071D01*
X82127268Y-51708433D01*
X82085397Y-51764367D01*
X82019933Y-51788784D01*
X82011086Y-51789100D01*
X81887236Y-51789100D01*
X81749149Y-51829645D01*
X81628073Y-51907456D01*
X81533823Y-52016226D01*
X81533822Y-52016228D01*
X81474034Y-52147143D01*
X81453553Y-52289600D01*
X32858300Y-52289600D01*
X32858300Y-46142799D01*
X83893150Y-46142799D01*
X83893150Y-46142800D01*
X83912070Y-46286508D01*
X83912071Y-46286512D01*
X83967537Y-46420422D01*
X83967538Y-46420424D01*
X83967539Y-46420425D01*
X84055779Y-46535421D01*
X84170775Y-46623661D01*
X84224832Y-46646051D01*
X84265060Y-46672931D01*
X89794581Y-52202451D01*
X89828066Y-52263774D01*
X89830900Y-52290132D01*
X89830900Y-52428516D01*
X89830899Y-52428516D01*
X89845937Y-52523463D01*
X89845938Y-52523466D01*
X89845939Y-52523468D01*
X89866067Y-52562971D01*
X89904255Y-52637919D01*
X89908077Y-52641741D01*
X89941565Y-52703062D01*
X89944400Y-52729426D01*
X89944400Y-53502854D01*
X89934962Y-53550302D01*
X89927512Y-53568291D01*
X89906469Y-53619093D01*
X89887550Y-53762799D01*
X89887550Y-53762800D01*
X89906470Y-53906508D01*
X89906471Y-53906512D01*
X89961937Y-54040422D01*
X89961938Y-54040424D01*
X89961939Y-54040425D01*
X90050179Y-54155421D01*
X90165175Y-54243661D01*
X90299091Y-54299130D01*
X90426080Y-54315848D01*
X90442799Y-54318050D01*
X90442800Y-54318050D01*
X90442801Y-54318050D01*
X90457777Y-54316078D01*
X90586509Y-54299130D01*
X90720425Y-54243661D01*
X90835421Y-54155421D01*
X90923661Y-54040425D01*
X90979130Y-53906509D01*
X90998050Y-53762800D01*
X90979130Y-53619091D01*
X90962837Y-53579756D01*
X90953400Y-53532308D01*
X90953400Y-52870100D01*
X90973085Y-52803061D01*
X91025889Y-52757306D01*
X91077400Y-52746100D01*
X95688016Y-52746100D01*
X95688019Y-52746100D01*
X95816330Y-52711719D01*
X95858437Y-52687408D01*
X95931370Y-52645301D01*
X105652251Y-42924418D01*
X105713574Y-42890934D01*
X105739932Y-42888100D01*
X107571181Y-42888100D01*
X107618629Y-42897537D01*
X107672691Y-42919930D01*
X107768497Y-42932543D01*
X107816399Y-42938850D01*
X107816400Y-42938850D01*
X107816401Y-42938850D01*
X107831377Y-42936878D01*
X107960109Y-42919930D01*
X108094025Y-42864461D01*
X108209021Y-42776221D01*
X108297261Y-42661225D01*
X108352730Y-42527309D01*
X108371650Y-42383600D01*
X108364962Y-42332799D01*
X111121950Y-42332799D01*
X111121950Y-42332800D01*
X111140870Y-42476508D01*
X111140871Y-42476512D01*
X111196337Y-42610422D01*
X111196338Y-42610424D01*
X111196339Y-42610425D01*
X111284579Y-42725421D01*
X111399575Y-42813661D01*
X111533491Y-42869130D01*
X111660480Y-42885848D01*
X111677199Y-42888050D01*
X111677200Y-42888050D01*
X111677201Y-42888050D01*
X111692177Y-42886078D01*
X111820909Y-42869130D01*
X111954825Y-42813661D01*
X112056134Y-42735922D01*
X112121301Y-42710730D01*
X112131619Y-42710300D01*
X112587073Y-42710300D01*
X112654112Y-42729985D01*
X112674753Y-42746618D01*
X113182225Y-43254091D01*
X113687107Y-43758973D01*
X113720592Y-43820296D01*
X113722164Y-43829006D01*
X113732035Y-43897657D01*
X113791823Y-44028573D01*
X113886072Y-44137343D01*
X114007147Y-44215153D01*
X114007150Y-44215154D01*
X114007149Y-44215154D01*
X114145236Y-44255699D01*
X114145238Y-44255700D01*
X114145239Y-44255700D01*
X114289162Y-44255700D01*
X114289162Y-44255699D01*
X114427253Y-44215153D01*
X114548328Y-44137343D01*
X114642577Y-44028573D01*
X114702365Y-43897657D01*
X114722847Y-43755200D01*
X114702365Y-43612743D01*
X114642577Y-43481827D01*
X114548328Y-43373057D01*
X114427253Y-43295247D01*
X114427251Y-43295246D01*
X114427249Y-43295245D01*
X114427250Y-43295245D01*
X114289159Y-43254698D01*
X114284932Y-43254091D01*
X114281048Y-43252317D01*
X114280652Y-43252201D01*
X114280668Y-43252143D01*
X114221377Y-43225065D01*
X114214901Y-43219035D01*
X113026592Y-42030727D01*
X113026590Y-42030725D01*
X112940510Y-41981026D01*
X112844499Y-41955300D01*
X112844498Y-41955300D01*
X112131619Y-41955300D01*
X112064580Y-41935615D01*
X112056147Y-41929686D01*
X111954825Y-41851939D01*
X111954824Y-41851938D01*
X111954822Y-41851937D01*
X111820912Y-41796471D01*
X111820910Y-41796470D01*
X111820909Y-41796470D01*
X111749054Y-41787010D01*
X111677201Y-41777550D01*
X111677199Y-41777550D01*
X111533491Y-41796470D01*
X111533487Y-41796471D01*
X111399577Y-41851937D01*
X111284579Y-41940179D01*
X111196337Y-42055177D01*
X111140871Y-42189087D01*
X111140870Y-42189091D01*
X111121950Y-42332799D01*
X108364962Y-42332799D01*
X108352730Y-42239891D01*
X108297261Y-42105975D01*
X108209021Y-41990979D01*
X108094025Y-41902739D01*
X108094024Y-41902738D01*
X108094022Y-41902737D01*
X107960112Y-41847271D01*
X107960110Y-41847270D01*
X107960109Y-41847270D01*
X107888254Y-41837810D01*
X107816401Y-41828350D01*
X107816399Y-41828350D01*
X107672693Y-41847269D01*
X107661424Y-41851937D01*
X107618629Y-41869662D01*
X107571181Y-41879100D01*
X105413181Y-41879100D01*
X105284870Y-41913481D01*
X105284868Y-41913481D01*
X105284868Y-41913482D01*
X105169830Y-41979900D01*
X105169827Y-41979902D01*
X95448948Y-51700781D01*
X95387625Y-51734266D01*
X95361267Y-51737100D01*
X90898429Y-51737100D01*
X90842135Y-51723585D01*
X90788268Y-51696138D01*
X90788265Y-51696137D01*
X90741251Y-51688691D01*
X90678116Y-51658761D01*
X90672969Y-51653899D01*
X84978531Y-45959460D01*
X84951651Y-45919232D01*
X84929261Y-45865175D01*
X84841021Y-45750179D01*
X84726025Y-45661939D01*
X84726024Y-45661938D01*
X84726022Y-45661937D01*
X84592112Y-45606471D01*
X84592110Y-45606470D01*
X84592109Y-45606470D01*
X84520254Y-45597010D01*
X84448401Y-45587550D01*
X84448399Y-45587550D01*
X84304691Y-45606470D01*
X84304687Y-45606471D01*
X84170777Y-45661937D01*
X84055779Y-45750179D01*
X83967537Y-45865177D01*
X83912071Y-45999087D01*
X83912070Y-45999091D01*
X83893150Y-46142799D01*
X32858300Y-46142799D01*
X32858300Y-39391321D01*
X85457300Y-39391321D01*
X85457300Y-41140678D01*
X85471832Y-41213735D01*
X85471833Y-41213739D01*
X85471834Y-41213740D01*
X85527199Y-41296601D01*
X85610060Y-41351966D01*
X85610064Y-41351967D01*
X85683121Y-41366499D01*
X85683124Y-41366500D01*
X85683126Y-41366500D01*
X87432476Y-41366500D01*
X87432477Y-41366499D01*
X87505540Y-41351966D01*
X87588401Y-41296601D01*
X87643766Y-41213740D01*
X87658300Y-41140674D01*
X87658300Y-39391326D01*
X87658300Y-39391323D01*
X87658299Y-39391321D01*
X87643767Y-39318264D01*
X87643766Y-39318260D01*
X87588401Y-39235399D01*
X87505540Y-39180034D01*
X87505539Y-39180033D01*
X87505535Y-39180032D01*
X87432477Y-39165500D01*
X87432474Y-39165500D01*
X85683126Y-39165500D01*
X85683123Y-39165500D01*
X85610064Y-39180032D01*
X85610060Y-39180033D01*
X85527199Y-39235399D01*
X85471833Y-39318260D01*
X85471832Y-39318264D01*
X85457300Y-39391321D01*
X32858300Y-39391321D01*
X32858300Y-38265999D01*
X87952585Y-38265999D01*
X87952585Y-38266000D01*
X87971402Y-38469082D01*
X88027217Y-38665247D01*
X88027222Y-38665260D01*
X88118127Y-38847821D01*
X88241037Y-39010581D01*
X88370698Y-39128782D01*
X88391759Y-39147981D01*
X88412094Y-39160572D01*
X88412096Y-39160573D01*
X88458731Y-39212601D01*
X88469835Y-39281583D01*
X88441882Y-39345617D01*
X88412096Y-39371427D01*
X88391757Y-39384020D01*
X88241037Y-39521418D01*
X88118127Y-39684178D01*
X88027222Y-39866739D01*
X88027217Y-39866752D01*
X87971402Y-40062917D01*
X87952585Y-40265999D01*
X87952585Y-40266000D01*
X87971402Y-40469082D01*
X88027217Y-40665247D01*
X88027222Y-40665260D01*
X88118127Y-40847821D01*
X88241037Y-41010581D01*
X88391758Y-41147980D01*
X88391760Y-41147982D01*
X88490941Y-41209392D01*
X88565163Y-41255348D01*
X88755344Y-41329024D01*
X88955824Y-41366500D01*
X88955826Y-41366500D01*
X89159774Y-41366500D01*
X89159776Y-41366500D01*
X89360256Y-41329024D01*
X89550437Y-41255348D01*
X89723841Y-41147981D01*
X89874564Y-41010579D01*
X89997473Y-40847821D01*
X90088382Y-40665250D01*
X90144197Y-40469083D01*
X90163015Y-40266000D01*
X90144197Y-40062917D01*
X90088382Y-39866750D01*
X89997473Y-39684179D01*
X89874564Y-39521421D01*
X89874562Y-39521418D01*
X89723842Y-39384019D01*
X89712523Y-39377011D01*
X89703504Y-39371426D01*
X89656869Y-39319401D01*
X89645764Y-39250419D01*
X89673716Y-39186385D01*
X89703503Y-39160573D01*
X89723841Y-39147981D01*
X89874564Y-39010579D01*
X89997473Y-38847821D01*
X90088382Y-38665250D01*
X90144197Y-38469083D01*
X90163015Y-38266000D01*
X90144197Y-38062917D01*
X90088382Y-37866750D01*
X89997473Y-37684179D01*
X89904913Y-37561610D01*
X89874562Y-37521418D01*
X89723841Y-37384019D01*
X89723839Y-37384017D01*
X89550442Y-37276655D01*
X89550435Y-37276651D01*
X89455346Y-37239814D01*
X89360256Y-37202976D01*
X89159776Y-37165500D01*
X88955824Y-37165500D01*
X88755344Y-37202976D01*
X88755341Y-37202976D01*
X88755341Y-37202977D01*
X88565164Y-37276651D01*
X88565157Y-37276655D01*
X88391760Y-37384017D01*
X88391758Y-37384019D01*
X88241037Y-37521418D01*
X88118127Y-37684178D01*
X88027222Y-37866739D01*
X88027217Y-37866752D01*
X87971402Y-38062917D01*
X87952585Y-38265999D01*
X32858300Y-38265999D01*
X32858300Y-37889496D01*
X32858345Y-37886138D01*
X32867689Y-37541196D01*
X32876541Y-37214431D01*
X32876905Y-37207735D01*
X32931301Y-36539700D01*
X32932026Y-36533038D01*
X33022514Y-35868890D01*
X33023590Y-35862330D01*
X33082370Y-35555998D01*
X79782190Y-35555998D01*
X79782190Y-35556001D01*
X79802604Y-35841433D01*
X79863428Y-36121037D01*
X79963435Y-36389166D01*
X80100570Y-36640309D01*
X80100575Y-36640317D01*
X80272054Y-36869387D01*
X80272070Y-36869405D01*
X80474394Y-37071729D01*
X80474412Y-37071745D01*
X80703482Y-37243224D01*
X80703490Y-37243229D01*
X80954633Y-37380364D01*
X80954632Y-37380364D01*
X80954636Y-37380365D01*
X80954639Y-37380367D01*
X81222754Y-37480369D01*
X81222760Y-37480370D01*
X81222762Y-37480371D01*
X81502366Y-37541195D01*
X81502368Y-37541195D01*
X81502372Y-37541196D01*
X81756020Y-37559337D01*
X81787799Y-37561610D01*
X81787800Y-37561610D01*
X81787801Y-37561610D01*
X81816395Y-37559564D01*
X82073228Y-37541196D01*
X82086385Y-37538334D01*
X82352837Y-37480371D01*
X82352837Y-37480370D01*
X82352846Y-37480369D01*
X82620961Y-37380367D01*
X82872115Y-37243226D01*
X83101195Y-37071739D01*
X83303539Y-36869395D01*
X83475026Y-36640315D01*
X83612167Y-36389161D01*
X83712169Y-36121046D01*
X83772996Y-35841428D01*
X83793410Y-35556000D01*
X83793410Y-35555998D01*
X91822190Y-35555998D01*
X91822190Y-35556001D01*
X91842604Y-35841433D01*
X91903428Y-36121037D01*
X92003435Y-36389166D01*
X92140570Y-36640309D01*
X92140575Y-36640317D01*
X92312054Y-36869387D01*
X92312070Y-36869405D01*
X92514394Y-37071729D01*
X92514412Y-37071745D01*
X92743482Y-37243224D01*
X92743490Y-37243229D01*
X92994633Y-37380364D01*
X92994632Y-37380364D01*
X92994636Y-37380365D01*
X92994639Y-37380367D01*
X93262754Y-37480369D01*
X93262760Y-37480370D01*
X93262762Y-37480371D01*
X93542366Y-37541195D01*
X93542368Y-37541195D01*
X93542372Y-37541196D01*
X93796020Y-37559337D01*
X93827799Y-37561610D01*
X93827800Y-37561610D01*
X93827801Y-37561610D01*
X93856395Y-37559564D01*
X94113228Y-37541196D01*
X94126385Y-37538334D01*
X94392837Y-37480371D01*
X94392837Y-37480370D01*
X94392846Y-37480369D01*
X94660961Y-37380367D01*
X94912115Y-37243226D01*
X95141195Y-37071739D01*
X95343539Y-36869395D01*
X95515026Y-36640315D01*
X95652167Y-36389161D01*
X95752169Y-36121046D01*
X95812996Y-35841428D01*
X95833410Y-35556000D01*
X95812996Y-35270572D01*
X95752169Y-34990954D01*
X95652167Y-34722839D01*
X95554420Y-34543830D01*
X95515029Y-34471690D01*
X95515024Y-34471682D01*
X95343545Y-34242612D01*
X95343529Y-34242594D01*
X95141205Y-34040270D01*
X95141187Y-34040254D01*
X94912117Y-33868775D01*
X94912109Y-33868770D01*
X94660966Y-33731635D01*
X94660967Y-33731635D01*
X94553715Y-33691632D01*
X94392846Y-33631631D01*
X94392843Y-33631630D01*
X94392837Y-33631628D01*
X94113233Y-33570804D01*
X93827801Y-33550390D01*
X93827799Y-33550390D01*
X93542366Y-33570804D01*
X93262762Y-33631628D01*
X92994633Y-33731635D01*
X92743490Y-33868770D01*
X92743482Y-33868775D01*
X92514412Y-34040254D01*
X92514394Y-34040270D01*
X92312070Y-34242594D01*
X92312054Y-34242612D01*
X92140575Y-34471682D01*
X92140570Y-34471690D01*
X92003435Y-34722833D01*
X91903428Y-34990962D01*
X91842604Y-35270566D01*
X91822190Y-35555998D01*
X83793410Y-35555998D01*
X83772996Y-35270572D01*
X83712169Y-34990954D01*
X83612167Y-34722839D01*
X83514420Y-34543830D01*
X83475029Y-34471690D01*
X83475024Y-34471682D01*
X83303545Y-34242612D01*
X83303529Y-34242594D01*
X83101205Y-34040270D01*
X83101187Y-34040254D01*
X82872117Y-33868775D01*
X82872109Y-33868770D01*
X82620966Y-33731635D01*
X82620967Y-33731635D01*
X82513715Y-33691632D01*
X82352846Y-33631631D01*
X82352843Y-33631630D01*
X82352837Y-33631628D01*
X82073233Y-33570804D01*
X81787801Y-33550390D01*
X81787799Y-33550390D01*
X81502366Y-33570804D01*
X81222762Y-33631628D01*
X80954633Y-33731635D01*
X80703490Y-33868770D01*
X80703482Y-33868775D01*
X80474412Y-34040254D01*
X80474394Y-34040270D01*
X80272070Y-34242594D01*
X80272054Y-34242612D01*
X80100575Y-34471682D01*
X80100570Y-34471690D01*
X79963435Y-34722833D01*
X79863428Y-34990962D01*
X79802604Y-35270566D01*
X79782190Y-35555998D01*
X33082370Y-35555998D01*
X33149898Y-35204071D01*
X33151338Y-35197530D01*
X33313104Y-34547057D01*
X33314886Y-34540639D01*
X33511630Y-33899877D01*
X33513755Y-33893570D01*
X33744906Y-33264383D01*
X33747373Y-33258194D01*
X34012245Y-32642454D01*
X34015042Y-32636408D01*
X34312861Y-32035911D01*
X34315987Y-32030016D01*
X34645873Y-31446535D01*
X34649307Y-31440828D01*
X35010315Y-30876035D01*
X35014033Y-30870551D01*
X35405079Y-30326147D01*
X35409140Y-30320806D01*
X35829057Y-29798404D01*
X35833369Y-29793326D01*
X36281003Y-29294370D01*
X36285586Y-29289533D01*
X36759533Y-28815586D01*
X36764370Y-28811003D01*
X37263326Y-28363369D01*
X37268404Y-28359057D01*
X37790810Y-27939136D01*
X37796152Y-27935076D01*
X38340551Y-27544033D01*
X38346035Y-27540315D01*
X38910828Y-27179307D01*
X38916535Y-27175873D01*
X39500016Y-26845987D01*
X39505911Y-26842861D01*
X40106408Y-26545042D01*
X40112454Y-26542245D01*
X40728194Y-26277373D01*
X40734383Y-26274906D01*
X41363570Y-26043755D01*
X41369877Y-26041630D01*
X42010639Y-25844886D01*
X42017057Y-25843104D01*
X42667547Y-25681334D01*
X42674071Y-25679898D01*
X43332330Y-25553590D01*
X43338890Y-25552514D01*
X44003053Y-25462024D01*
X44009700Y-25461301D01*
X44677744Y-25406904D01*
X44684431Y-25406541D01*
X45356139Y-25388345D01*
X45359497Y-25388300D01*
X45397682Y-25388300D01*
X130407918Y-25388300D01*
X130446103Y-25388300D01*
X130449461Y-25388345D01*
G37*
G04 #@! TD.AperFunction*
M02*
