G04 #@! TF.GenerationSoftware,KiCad,Pcbnew,8.0.5*
G04 #@! TF.CreationDate,2024-11-12T11:03:32-05:00*
G04 #@! TF.ProjectId,DacAmp,44616341-6d70-42e6-9b69-6361645f7063,rev?*
G04 #@! TF.SameCoordinates,Original*
G04 #@! TF.FileFunction,Paste,Top*
G04 #@! TF.FilePolarity,Positive*
%FSLAX46Y46*%
G04 Gerber Fmt 4.6, Leading zero omitted, Abs format (unit mm)*
G04 Created by KiCad (PCBNEW 8.0.5) date 2024-11-12 11:03:32*
%MOMM*%
%LPD*%
G01*
G04 APERTURE LIST*
G04 Aperture macros list*
%AMRoundRect*
0 Rectangle with rounded corners*
0 $1 Rounding radius*
0 $2 $3 $4 $5 $6 $7 $8 $9 X,Y pos of 4 corners*
0 Add a 4 corners polygon primitive as box body*
4,1,4,$2,$3,$4,$5,$6,$7,$8,$9,$2,$3,0*
0 Add four circle primitives for the rounded corners*
1,1,$1+$1,$2,$3*
1,1,$1+$1,$4,$5*
1,1,$1+$1,$6,$7*
1,1,$1+$1,$8,$9*
0 Add four rect primitives between the rounded corners*
20,1,$1+$1,$2,$3,$4,$5,0*
20,1,$1+$1,$4,$5,$6,$7,0*
20,1,$1+$1,$6,$7,$8,$9,0*
20,1,$1+$1,$8,$9,$2,$3,0*%
G04 Aperture macros list end*
%ADD10C,0.000000*%
%ADD11R,0.299999X0.499999*%
%ADD12RoundRect,0.155000X0.212500X0.155000X-0.212500X0.155000X-0.212500X-0.155000X0.212500X-0.155000X0*%
%ADD13RoundRect,0.250000X0.337500X0.475000X-0.337500X0.475000X-0.337500X-0.475000X0.337500X-0.475000X0*%
%ADD14RoundRect,0.150000X-0.825000X-0.150000X0.825000X-0.150000X0.825000X0.150000X-0.825000X0.150000X0*%
%ADD15RoundRect,0.150000X-0.150000X0.512500X-0.150000X-0.512500X0.150000X-0.512500X0.150000X0.512500X0*%
%ADD16RoundRect,0.160000X-0.160000X0.197500X-0.160000X-0.197500X0.160000X-0.197500X0.160000X0.197500X0*%
%ADD17RoundRect,0.237500X-0.237500X0.250000X-0.237500X-0.250000X0.237500X-0.250000X0.237500X0.250000X0*%
%ADD18RoundRect,0.160000X0.160000X-0.197500X0.160000X0.197500X-0.160000X0.197500X-0.160000X-0.197500X0*%
%ADD19RoundRect,0.160000X0.197500X0.160000X-0.197500X0.160000X-0.197500X-0.160000X0.197500X-0.160000X0*%
%ADD20RoundRect,0.155000X0.155000X-0.212500X0.155000X0.212500X-0.155000X0.212500X-0.155000X-0.212500X0*%
%ADD21RoundRect,0.250000X0.475000X-0.337500X0.475000X0.337500X-0.475000X0.337500X-0.475000X-0.337500X0*%
%ADD22R,0.450000X1.750000*%
%ADD23RoundRect,0.155000X-0.212500X-0.155000X0.212500X-0.155000X0.212500X0.155000X-0.212500X0.155000X0*%
%ADD24RoundRect,0.237500X0.250000X0.237500X-0.250000X0.237500X-0.250000X-0.237500X0.250000X-0.237500X0*%
%ADD25RoundRect,0.160000X-0.197500X-0.160000X0.197500X-0.160000X0.197500X0.160000X-0.197500X0.160000X0*%
%ADD26RoundRect,0.155000X-0.155000X0.212500X-0.155000X-0.212500X0.155000X-0.212500X0.155000X0.212500X0*%
%ADD27RoundRect,0.237500X0.237500X-0.300000X0.237500X0.300000X-0.237500X0.300000X-0.237500X-0.300000X0*%
%ADD28RoundRect,0.250000X-0.475000X0.337500X-0.475000X-0.337500X0.475000X-0.337500X0.475000X0.337500X0*%
%ADD29R,2.800000X2.800000*%
%ADD30R,2.800000X2.200000*%
%ADD31R,0.711200X0.406400*%
%ADD32RoundRect,0.150000X-0.150000X0.825000X-0.150000X-0.825000X0.150000X-0.825000X0.150000X0.825000X0*%
%ADD33RoundRect,0.237500X0.287500X0.237500X-0.287500X0.237500X-0.287500X-0.237500X0.287500X-0.237500X0*%
%ADD34RoundRect,0.250000X-0.337500X-0.475000X0.337500X-0.475000X0.337500X0.475000X-0.337500X0.475000X0*%
%ADD35R,3.000000X1.000000*%
%ADD36R,1.300000X1.050000*%
%ADD37R,2.641600X2.514600*%
%ADD38RoundRect,0.250000X-1.100000X0.412500X-1.100000X-0.412500X1.100000X-0.412500X1.100000X0.412500X0*%
%ADD39RoundRect,0.150000X0.150000X-0.512500X0.150000X0.512500X-0.150000X0.512500X-0.150000X-0.512500X0*%
%ADD40R,0.499999X0.599999*%
G04 APERTURE END LIST*
D10*
G36*
X128877799Y-48027009D02*
G01*
X127627799Y-48027009D01*
X127627799Y-47177008D01*
X128877799Y-47177008D01*
X128877799Y-48027009D01*
G37*
G36*
X130427799Y-48027009D02*
G01*
X129177799Y-48027009D01*
X129177799Y-47177008D01*
X130427799Y-47177008D01*
X130427799Y-48027009D01*
G37*
G36*
X128877799Y-46877003D02*
G01*
X127627799Y-46877003D01*
X127627799Y-46027002D01*
X128877799Y-46027002D01*
X128877799Y-46877003D01*
G37*
G36*
X130427799Y-46877003D02*
G01*
X129177799Y-46877003D01*
X129177799Y-46027002D01*
X130427799Y-46027002D01*
X130427799Y-46877003D01*
G37*
D11*
X130227802Y-48677002D03*
X129427801Y-48677002D03*
X128627802Y-48677002D03*
X127827801Y-48677002D03*
X127827801Y-45377001D03*
X128627802Y-45377001D03*
X129427801Y-45377001D03*
X130227802Y-45377001D03*
D12*
X91413900Y-61409200D03*
X90278900Y-61409200D03*
D13*
X79429500Y-93178000D03*
X77354500Y-93178000D03*
D14*
X74351800Y-81089800D03*
X74351800Y-82359800D03*
X74351800Y-83629800D03*
X74351800Y-84899800D03*
X79301800Y-84899800D03*
X79301800Y-83629800D03*
X79301800Y-82359800D03*
X79301800Y-81089800D03*
D12*
X84428900Y-45290400D03*
X83293900Y-45290400D03*
D15*
X76227000Y-43691500D03*
X75277000Y-43691500D03*
X74327000Y-43691500D03*
X74327000Y-45966500D03*
X76227000Y-45966500D03*
D16*
X42315000Y-86583300D03*
X42315000Y-87778300D03*
X119097000Y-74484900D03*
X119097000Y-75679900D03*
D17*
X129727000Y-97408300D03*
X129727000Y-99233300D03*
D18*
X35290800Y-93045500D03*
X35290800Y-91850500D03*
D19*
X113813700Y-47596400D03*
X112618700Y-47596400D03*
D20*
X82165800Y-97763500D03*
X82165800Y-96628500D03*
D18*
X82346600Y-50380900D03*
X82346600Y-49185900D03*
X99248800Y-36292500D03*
X99248800Y-35097500D03*
D21*
X42873000Y-92241300D03*
X42873000Y-90166300D03*
D13*
X127626300Y-89491800D03*
X125551300Y-89491800D03*
D22*
X91439200Y-52289400D03*
X90789200Y-52289400D03*
X90139200Y-52289400D03*
X89489200Y-52289400D03*
X88839200Y-52289400D03*
X88189200Y-52289400D03*
X87539200Y-52289400D03*
X86889200Y-52289400D03*
X86239200Y-52289400D03*
X85589200Y-52289400D03*
X84939200Y-52289400D03*
X84289200Y-52289400D03*
X83639200Y-52289400D03*
X82989200Y-52289400D03*
X82989200Y-59489400D03*
X83639200Y-59489400D03*
X84289200Y-59489400D03*
X84939200Y-59489400D03*
X85589200Y-59489400D03*
X86239200Y-59489400D03*
X86889200Y-59489400D03*
X87539200Y-59489400D03*
X88189200Y-59489400D03*
X88839200Y-59489400D03*
X89489200Y-59489400D03*
X90139200Y-59489400D03*
X90789200Y-59489400D03*
X91439200Y-59489400D03*
D18*
X134053800Y-105741500D03*
X134053800Y-104546500D03*
D23*
X86176900Y-45302400D03*
X87311900Y-45302400D03*
D13*
X114804500Y-71034000D03*
X112729500Y-71034000D03*
D24*
X114259500Y-78838000D03*
X112434500Y-78838000D03*
D17*
X96908000Y-97535300D03*
X96908000Y-99360300D03*
X108653000Y-74386300D03*
X108653000Y-76211300D03*
D13*
X86222900Y-49734200D03*
X84147900Y-49734200D03*
D23*
X111657500Y-41177200D03*
X112792500Y-41177200D03*
D25*
X73704300Y-79655800D03*
X74899300Y-79655800D03*
D26*
X89244600Y-64557900D03*
X89244600Y-65692900D03*
D21*
X57710800Y-92256500D03*
X57710800Y-90181500D03*
D27*
X50274000Y-90152500D03*
X50274000Y-88427500D03*
D28*
X126097200Y-44943500D03*
X126097200Y-47018500D03*
D25*
X54639500Y-85032800D03*
X55834500Y-85032800D03*
D29*
X119119000Y-111794000D03*
D30*
X119119000Y-121194000D03*
X111719000Y-119194000D03*
D13*
X136754500Y-89464000D03*
X134679500Y-89464000D03*
D20*
X81084800Y-83539500D03*
X81084800Y-82404500D03*
D31*
X89754600Y-43708100D03*
X91354800Y-43708100D03*
D17*
X128046000Y-97408300D03*
X128046000Y-99233300D03*
D18*
X82153800Y-83572500D03*
X82153800Y-82377500D03*
D19*
X40900500Y-84055000D03*
X39705500Y-84055000D03*
X77603500Y-86383000D03*
X76408500Y-86383000D03*
X77274500Y-100566000D03*
X76079500Y-100566000D03*
D16*
X92032200Y-48983900D03*
X92032200Y-50178900D03*
D32*
X40905000Y-86924800D03*
X39635000Y-86924800D03*
X38365000Y-86924800D03*
X37095000Y-86924800D03*
X37095000Y-91874800D03*
X38365000Y-91874800D03*
X39635000Y-91874800D03*
X40905000Y-91874800D03*
D12*
X88873900Y-61409200D03*
X87738900Y-61409200D03*
D17*
X131408000Y-97408300D03*
X131408000Y-99233300D03*
D18*
X50274000Y-92806300D03*
X50274000Y-91611300D03*
D27*
X35287000Y-90312300D03*
X35287000Y-88587300D03*
D16*
X90804200Y-48983900D03*
X90804200Y-50178900D03*
D33*
X86325400Y-43593400D03*
X84575400Y-43593400D03*
D14*
X122250800Y-91479800D03*
X122250800Y-92749800D03*
X122250800Y-94019800D03*
X122250800Y-95289800D03*
X127200800Y-95289800D03*
X127200800Y-94019800D03*
X127200800Y-92749800D03*
X127200800Y-91479800D03*
D13*
X79683500Y-79157000D03*
X77608500Y-79157000D03*
D34*
X52193300Y-94273800D03*
X54268300Y-94273800D03*
D35*
X108935000Y-43850800D03*
X108935000Y-45850800D03*
D25*
X127087100Y-50076800D03*
X128282100Y-50076800D03*
D13*
X107214300Y-89489600D03*
X105139300Y-89489600D03*
D25*
X39705500Y-85074800D03*
X40900500Y-85074800D03*
X85918900Y-62641600D03*
X87113900Y-62641600D03*
D32*
X55843000Y-86924800D03*
X54573000Y-86924800D03*
X53303000Y-86924800D03*
X52033000Y-86924800D03*
X52033000Y-91874800D03*
X53303000Y-91874800D03*
X54573000Y-91874800D03*
X55843000Y-91874800D03*
D21*
X97472800Y-36825500D03*
X97472800Y-34750500D03*
D14*
X111110800Y-73177800D03*
X111110800Y-74447800D03*
X111110800Y-75717800D03*
X111110800Y-76987800D03*
X116060800Y-76987800D03*
X116060800Y-75717800D03*
X116060800Y-74447800D03*
X116060800Y-73177800D03*
D17*
X101570000Y-97535300D03*
X101570000Y-99360300D03*
D18*
X81052800Y-97793500D03*
X81052800Y-96598500D03*
D17*
X100016000Y-97535300D03*
X100016000Y-99360300D03*
D20*
X83972600Y-65654900D03*
X83972600Y-64519900D03*
D14*
X101930800Y-91424800D03*
X101930800Y-92694800D03*
X101930800Y-93964800D03*
X101930800Y-95234800D03*
X106880800Y-95234800D03*
X106880800Y-93964800D03*
X106880800Y-92694800D03*
X106880800Y-91424800D03*
D36*
X85469600Y-65968400D03*
X87769600Y-65968400D03*
X87769600Y-64218400D03*
X85469600Y-64218400D03*
D25*
X73883300Y-93667800D03*
X75078300Y-93667800D03*
D14*
X74097800Y-95234800D03*
X74097800Y-96504800D03*
X74097800Y-97774800D03*
X74097800Y-99044800D03*
X79047800Y-99044800D03*
X79047800Y-97774800D03*
X79047800Y-96504800D03*
X79047800Y-95234800D03*
D37*
X126178600Y-53729400D03*
X131639600Y-53729400D03*
D14*
X92405800Y-91400800D03*
X92405800Y-92670800D03*
X92405800Y-93940800D03*
X92405800Y-95210800D03*
X97355800Y-95210800D03*
X97355800Y-93940800D03*
X97355800Y-92670800D03*
X97355800Y-91400800D03*
D18*
X104674800Y-105995500D03*
X104674800Y-104800500D03*
D19*
X130691700Y-50094000D03*
X129496700Y-50094000D03*
D16*
X57300000Y-86202300D03*
X57300000Y-87397300D03*
D19*
X55834500Y-83928000D03*
X54639500Y-83928000D03*
D12*
X76023900Y-47567400D03*
X74888900Y-47567400D03*
D38*
X116227400Y-43324300D03*
X116227400Y-46449300D03*
D18*
X81245600Y-50380900D03*
X81245600Y-49185900D03*
X117977800Y-75665500D03*
X117977800Y-74470500D03*
D34*
X37207300Y-94362800D03*
X39282300Y-94362800D03*
D18*
X93182600Y-50178900D03*
X93182600Y-48983900D03*
D12*
X76227100Y-42120600D03*
X75092100Y-42120600D03*
D39*
X111710600Y-46029500D03*
X112660600Y-46029500D03*
X113610600Y-46029500D03*
X113610600Y-43754500D03*
X112660600Y-43754500D03*
X111710600Y-43754500D03*
D13*
X97654300Y-89440800D03*
X95579300Y-89440800D03*
D14*
X131394800Y-91503800D03*
X131394800Y-92773800D03*
X131394800Y-94043800D03*
X131394800Y-95313800D03*
X136344800Y-95313800D03*
X136344800Y-94043800D03*
X136344800Y-92773800D03*
X136344800Y-91503800D03*
D17*
X98462000Y-97535300D03*
X98462000Y-99360300D03*
D19*
X116732500Y-48327600D03*
X115537500Y-48327600D03*
D12*
X85190900Y-61409200D03*
X84055900Y-61409200D03*
D17*
X126365000Y-97408300D03*
X126365000Y-99233300D03*
D31*
X93564000Y-43708100D03*
X95164200Y-43708100D03*
D40*
X121851998Y-111886799D03*
X121851998Y-112886797D03*
X108925994Y-119252799D03*
X108925994Y-120252797D03*
M02*
